%TF.GenerationSoftware,KiCad,Pcbnew,8.0.8*%
%TF.CreationDate,2025-04-28T15:07:54+02:00*%
%TF.ProjectId,PCB_V1,5043425f-5631-42e6-9b69-6361645f7063,rev?*%
%TF.SameCoordinates,Original*%
%TF.FileFunction,Drillmap*%
%TF.FilePolarity,Positive*%
%FSLAX45Y45*%
G04 Gerber Fmt 4.5, Leading zero omitted, Abs format (unit mm)*
G04 Created by KiCad (PCBNEW 8.0.8) date 2025-04-28 15:07:54*
%MOMM*%
%LPD*%
G01*
G04 APERTURE LIST*
%ADD10C,0.050000*%
%ADD11C,0.200000*%
%ADD12C,0.100000*%
%ADD13C,0.150000*%
%ADD14C,0.400000*%
G04 APERTURE END LIST*
D10*
X4500000Y-13600000D02*
X12300000Y-13600000D01*
X12300000Y-13600000D02*
X12300000Y-4400000D01*
X4500000Y-13600000D02*
X4500000Y-4400000D01*
X4500000Y-4400000D02*
X12300000Y-4400000D01*
D11*
D12*
X6205000Y-12105000D02*
X6235000Y-12135000D01*
X6235000Y-12105000D02*
X6205000Y-12135000D01*
X6237000Y-11065000D02*
X6267000Y-11095000D01*
X6267000Y-11065000D02*
X6237000Y-11095000D01*
X6370000Y-8620000D02*
X6400000Y-8650000D01*
X6400000Y-8620000D02*
X6370000Y-8650000D01*
X6487500Y-8964000D02*
X6517500Y-8994000D01*
X6517500Y-8964000D02*
X6487500Y-8994000D01*
X6510000Y-8710000D02*
X6540000Y-8740000D01*
X6540000Y-8710000D02*
X6510000Y-8740000D01*
X6525000Y-12125000D02*
X6555000Y-12155000D01*
X6555000Y-12125000D02*
X6525000Y-12155000D01*
X6525000Y-12825000D02*
X6555000Y-12855000D01*
X6555000Y-12825000D02*
X6525000Y-12855000D01*
X6625000Y-11845000D02*
X6655000Y-11875000D01*
X6655000Y-11845000D02*
X6625000Y-11875000D01*
X6633559Y-8397941D02*
X6663559Y-8427941D01*
X6663559Y-8397941D02*
X6633559Y-8427941D01*
X6635000Y-6010000D02*
X6665000Y-6040000D01*
X6665000Y-6010000D02*
X6635000Y-6040000D01*
X6685000Y-12125000D02*
X6715000Y-12155000D01*
X6715000Y-12125000D02*
X6685000Y-12155000D01*
X6701441Y-8330059D02*
X6731441Y-8360059D01*
X6731441Y-8330059D02*
X6701441Y-8360059D01*
X6860000Y-7535000D02*
X6890000Y-7565000D01*
X6890000Y-7535000D02*
X6860000Y-7565000D01*
X6860000Y-7935000D02*
X6890000Y-7965000D01*
X6890000Y-7935000D02*
X6860000Y-7965000D01*
X6910000Y-6235000D02*
X6940000Y-6265000D01*
X6940000Y-6235000D02*
X6910000Y-6265000D01*
X6935000Y-7360000D02*
X6965000Y-7390000D01*
X6965000Y-7360000D02*
X6935000Y-7390000D01*
X6947500Y-8210000D02*
X6977500Y-8240000D01*
X6977500Y-8210000D02*
X6947500Y-8240000D01*
X7057500Y-9744000D02*
X7087500Y-9774000D01*
X7087500Y-9744000D02*
X7057500Y-9774000D01*
X7187500Y-8212500D02*
X7217500Y-8242500D01*
X7217500Y-8212500D02*
X7187500Y-8242500D01*
X7187500Y-9304000D02*
X7217500Y-9334000D01*
X7217500Y-9304000D02*
X7187500Y-9334000D01*
X7190000Y-7290000D02*
X7220000Y-7320000D01*
X7220000Y-7290000D02*
X7190000Y-7320000D01*
X7190000Y-7710000D02*
X7220000Y-7740000D01*
X7220000Y-7710000D02*
X7190000Y-7740000D01*
X7235000Y-9880000D02*
X7265000Y-9910000D01*
X7265000Y-9880000D02*
X7235000Y-9910000D01*
X7410000Y-8210000D02*
X7440000Y-8240000D01*
X7440000Y-8210000D02*
X7410000Y-8240000D01*
X7438559Y-9202941D02*
X7468559Y-9232941D01*
X7468559Y-9202941D02*
X7438559Y-9232941D01*
X7506441Y-9135059D02*
X7536441Y-9165059D01*
X7536441Y-9135059D02*
X7506441Y-9165059D01*
X7610000Y-8635000D02*
X7640000Y-8665000D01*
X7640000Y-8635000D02*
X7610000Y-8665000D01*
X7610000Y-8735000D02*
X7640000Y-8765000D01*
X7640000Y-8735000D02*
X7610000Y-8765000D01*
X7635000Y-6010000D02*
X7665000Y-6040000D01*
X7665000Y-6010000D02*
X7635000Y-6040000D01*
X7635000Y-11785000D02*
X7665000Y-11815000D01*
X7665000Y-11785000D02*
X7635000Y-11815000D01*
X7655000Y-7190000D02*
X7685000Y-7220000D01*
X7685000Y-7190000D02*
X7655000Y-7220000D01*
X7710000Y-7620000D02*
X7740000Y-7650000D01*
X7740000Y-7620000D02*
X7710000Y-7650000D01*
X7776250Y-6396250D02*
X7806250Y-6426250D01*
X7806250Y-6396250D02*
X7776250Y-6426250D01*
X7860000Y-8035000D02*
X7890000Y-8065000D01*
X7890000Y-8035000D02*
X7860000Y-8065000D01*
X8372500Y-6472500D02*
X8402500Y-6502500D01*
X8402500Y-6472500D02*
X8372500Y-6502500D01*
X8385000Y-6315000D02*
X8415000Y-6345000D01*
X8415000Y-6315000D02*
X8385000Y-6345000D01*
X8607500Y-8044000D02*
X8637500Y-8074000D01*
X8637500Y-8044000D02*
X8607500Y-8074000D01*
X8617500Y-8564000D02*
X8647500Y-8594000D01*
X8647500Y-8564000D02*
X8617500Y-8594000D01*
X8647500Y-8364000D02*
X8677500Y-8394000D01*
X8677500Y-8364000D02*
X8647500Y-8394000D01*
X10285000Y-4935000D02*
X10315000Y-4965000D01*
X10315000Y-4935000D02*
X10285000Y-4965000D01*
X10735000Y-10935000D02*
X10765000Y-10965000D01*
X10765000Y-10935000D02*
X10735000Y-10965000D01*
X10785000Y-5960000D02*
X10815000Y-5990000D01*
X10815000Y-5960000D02*
X10785000Y-5990000D01*
X10834000Y-11745000D02*
X10864000Y-11775000D01*
X10864000Y-11745000D02*
X10834000Y-11775000D01*
X10872500Y-11522500D02*
X10902500Y-11552500D01*
X10902500Y-11522500D02*
X10872500Y-11552500D01*
X10935000Y-11785000D02*
X10965000Y-11815000D01*
X10965000Y-11785000D02*
X10935000Y-11815000D01*
X10985000Y-10960000D02*
X11015000Y-10990000D01*
X11015000Y-10960000D02*
X10985000Y-10990000D01*
X11225000Y-8765000D02*
X11255000Y-8795000D01*
X11255000Y-8765000D02*
X11225000Y-8795000D01*
X11285000Y-4935000D02*
X11315000Y-4965000D01*
X11315000Y-4935000D02*
X11285000Y-4965000D01*
X11425000Y-11385000D02*
X11455000Y-11415000D01*
X11455000Y-11385000D02*
X11425000Y-11415000D01*
X6597500Y-13000000D02*
G75*
G02*
X6502500Y-13000000I-47500J0D01*
G01*
X6502500Y-13000000D02*
G75*
G02*
X6597500Y-13000000I47500J0D01*
G01*
X6847500Y-13000000D02*
G75*
G02*
X6752500Y-13000000I-47500J0D01*
G01*
X6752500Y-13000000D02*
G75*
G02*
X6847500Y-13000000I47500J0D01*
G01*
X7097500Y-13000000D02*
G75*
G02*
X7002500Y-13000000I-47500J0D01*
G01*
X7002500Y-13000000D02*
G75*
G02*
X7097500Y-13000000I47500J0D01*
G01*
X8347500Y-13100000D02*
G75*
G02*
X8252500Y-13100000I-47500J0D01*
G01*
X8252500Y-13100000D02*
G75*
G02*
X8347500Y-13100000I47500J0D01*
G01*
X8597500Y-13100000D02*
G75*
G02*
X8502500Y-13100000I-47500J0D01*
G01*
X8502500Y-13100000D02*
G75*
G02*
X8597500Y-13100000I47500J0D01*
G01*
X8847500Y-13100000D02*
G75*
G02*
X8752500Y-13100000I-47500J0D01*
G01*
X8752500Y-13100000D02*
G75*
G02*
X8847500Y-13100000I47500J0D01*
G01*
X9097500Y-13100000D02*
G75*
G02*
X9002500Y-13100000I-47500J0D01*
G01*
X9002500Y-13100000D02*
G75*
G02*
X9097500Y-13100000I47500J0D01*
G01*
X9347500Y-13100000D02*
G75*
G02*
X9252500Y-13100000I-47500J0D01*
G01*
X9252500Y-13100000D02*
G75*
G02*
X9347500Y-13100000I47500J0D01*
G01*
X9597500Y-13100000D02*
G75*
G02*
X9502500Y-13100000I-47500J0D01*
G01*
X9502500Y-13100000D02*
G75*
G02*
X9597500Y-13100000I47500J0D01*
G01*
X9847500Y-13100000D02*
G75*
G02*
X9752500Y-13100000I-47500J0D01*
G01*
X9752500Y-13100000D02*
G75*
G02*
X9847500Y-13100000I47500J0D01*
G01*
X11645000Y-11400000D02*
G75*
G02*
X11550000Y-11400000I-47500J0D01*
G01*
X11550000Y-11400000D02*
G75*
G02*
X11645000Y-11400000I47500J0D01*
G01*
X11645000Y-11650000D02*
G75*
G02*
X11550000Y-11650000I-47500J0D01*
G01*
X11550000Y-11650000D02*
G75*
G02*
X11645000Y-11650000I47500J0D01*
G01*
X11645000Y-11900000D02*
G75*
G02*
X11550000Y-11900000I-47500J0D01*
G01*
X11550000Y-11900000D02*
G75*
G02*
X11645000Y-11900000I47500J0D01*
G01*
X11647500Y-8400000D02*
G75*
G02*
X11552500Y-8400000I-47500J0D01*
G01*
X11552500Y-8400000D02*
G75*
G02*
X11647500Y-8400000I47500J0D01*
G01*
X11647500Y-8650000D02*
G75*
G02*
X11552500Y-8650000I-47500J0D01*
G01*
X11552500Y-8650000D02*
G75*
G02*
X11647500Y-8650000I47500J0D01*
G01*
X11647500Y-8900000D02*
G75*
G02*
X11552500Y-8900000I-47500J0D01*
G01*
X11552500Y-8900000D02*
G75*
G02*
X11647500Y-8900000I47500J0D01*
G01*
X11647500Y-9150000D02*
G75*
G02*
X11552500Y-9150000I-47500J0D01*
G01*
X11552500Y-9150000D02*
G75*
G02*
X11647500Y-9150000I47500J0D01*
G01*
X11647500Y-9400000D02*
G75*
G02*
X11552500Y-9400000I-47500J0D01*
G01*
X11552500Y-9400000D02*
G75*
G02*
X11647500Y-9400000I47500J0D01*
G01*
X11647500Y-9650000D02*
G75*
G02*
X11552500Y-9650000I-47500J0D01*
G01*
X11552500Y-9650000D02*
G75*
G02*
X11647500Y-9650000I47500J0D01*
G01*
X11647500Y-9900000D02*
G75*
G02*
X11552500Y-9900000I-47500J0D01*
G01*
X11552500Y-9900000D02*
G75*
G02*
X11647500Y-9900000I47500J0D01*
G01*
X11647500Y-10150000D02*
G75*
G02*
X11552500Y-10150000I-47500J0D01*
G01*
X11552500Y-10150000D02*
G75*
G02*
X11647500Y-10150000I47500J0D01*
G01*
X11647500Y-10400000D02*
G75*
G02*
X11552500Y-10400000I-47500J0D01*
G01*
X11552500Y-10400000D02*
G75*
G02*
X11647500Y-10400000I47500J0D01*
G01*
X11647500Y-10650000D02*
G75*
G02*
X11552500Y-10650000I-47500J0D01*
G01*
X11552500Y-10650000D02*
G75*
G02*
X11647500Y-10650000I47500J0D01*
G01*
X6650000Y-5825000D02*
X6650000Y-5925000D01*
X6600000Y-5875000D02*
X6700000Y-5875000D01*
X6900000Y-5825000D02*
X6900000Y-5925000D01*
X6850000Y-5875000D02*
X6950000Y-5875000D01*
X7650000Y-5825000D02*
X7650000Y-5925000D01*
X7600000Y-5875000D02*
X7700000Y-5875000D01*
X7900000Y-5825000D02*
X7900000Y-5925000D01*
X7850000Y-5875000D02*
X7950000Y-5875000D01*
D13*
X10103034Y-5853033D02*
X10103034Y-5746966D01*
X9996967Y-5746966D01*
X9996967Y-5853033D01*
X10103034Y-5853033D01*
X10353034Y-4853034D02*
X10353034Y-4746967D01*
X10246967Y-4746967D01*
X10246967Y-4853034D01*
X10353034Y-4853034D01*
X10353034Y-6103033D02*
X10353034Y-5996966D01*
X10246967Y-5996966D01*
X10246967Y-6103033D01*
X10353034Y-6103033D01*
X10853034Y-5853033D02*
X10853034Y-5746966D01*
X10746967Y-5746966D01*
X10746967Y-5853033D01*
X10853034Y-5853033D01*
X11353033Y-4853034D02*
X11353033Y-4746967D01*
X11246966Y-4746967D01*
X11246966Y-4853034D01*
X11353033Y-4853034D01*
X11353033Y-6103033D02*
X11353033Y-5996966D01*
X11246966Y-5996966D01*
X11246966Y-6103033D01*
X11353033Y-6103033D01*
X11603033Y-5853033D02*
X11603033Y-5746966D01*
X11496966Y-5746966D01*
X11496966Y-5853033D01*
X11603033Y-5853033D01*
D14*
X5000000Y-13300000D02*
X5200000Y-13100000D01*
X5000000Y-12900000D01*
X4800000Y-13100000D01*
X5000000Y-13300000D01*
X5800000Y-5100000D02*
X6000000Y-4900000D01*
X5800000Y-4700000D01*
X5600000Y-4900000D01*
X5800000Y-5100000D01*
X8800000Y-5100000D02*
X9000000Y-4900000D01*
X8800000Y-4700000D01*
X8600000Y-4900000D01*
X8800000Y-5100000D01*
X11000000Y-7600000D02*
X11200000Y-7400000D01*
X11000000Y-7200000D01*
X10800000Y-7400000D01*
X11000000Y-7600000D01*
X11000000Y-13300000D02*
X11200000Y-13100000D01*
X11000000Y-12900000D01*
X10800000Y-13100000D01*
X11000000Y-13300000D01*
D11*
X4758277Y-13913984D02*
X4758277Y-13713984D01*
X4758277Y-13713984D02*
X4805896Y-13713984D01*
X4805896Y-13713984D02*
X4834467Y-13723508D01*
X4834467Y-13723508D02*
X4853515Y-13742555D01*
X4853515Y-13742555D02*
X4863039Y-13761603D01*
X4863039Y-13761603D02*
X4872563Y-13799698D01*
X4872563Y-13799698D02*
X4872563Y-13828269D01*
X4872563Y-13828269D02*
X4863039Y-13866365D01*
X4863039Y-13866365D02*
X4853515Y-13885412D01*
X4853515Y-13885412D02*
X4834467Y-13904460D01*
X4834467Y-13904460D02*
X4805896Y-13913984D01*
X4805896Y-13913984D02*
X4758277Y-13913984D01*
X4958277Y-13913984D02*
X4958277Y-13780650D01*
X4958277Y-13818746D02*
X4967801Y-13799698D01*
X4967801Y-13799698D02*
X4977324Y-13790174D01*
X4977324Y-13790174D02*
X4996372Y-13780650D01*
X4996372Y-13780650D02*
X5015420Y-13780650D01*
X5082086Y-13913984D02*
X5082086Y-13780650D01*
X5082086Y-13713984D02*
X5072563Y-13723508D01*
X5072563Y-13723508D02*
X5082086Y-13733031D01*
X5082086Y-13733031D02*
X5091610Y-13723508D01*
X5091610Y-13723508D02*
X5082086Y-13713984D01*
X5082086Y-13713984D02*
X5082086Y-13733031D01*
X5205896Y-13913984D02*
X5186848Y-13904460D01*
X5186848Y-13904460D02*
X5177324Y-13885412D01*
X5177324Y-13885412D02*
X5177324Y-13713984D01*
X5310658Y-13913984D02*
X5291610Y-13904460D01*
X5291610Y-13904460D02*
X5282086Y-13885412D01*
X5282086Y-13885412D02*
X5282086Y-13713984D01*
X5539229Y-13913984D02*
X5539229Y-13713984D01*
X5539229Y-13713984D02*
X5605896Y-13856841D01*
X5605896Y-13856841D02*
X5672562Y-13713984D01*
X5672562Y-13713984D02*
X5672562Y-13913984D01*
X5853515Y-13913984D02*
X5853515Y-13809222D01*
X5853515Y-13809222D02*
X5843991Y-13790174D01*
X5843991Y-13790174D02*
X5824943Y-13780650D01*
X5824943Y-13780650D02*
X5786848Y-13780650D01*
X5786848Y-13780650D02*
X5767801Y-13790174D01*
X5853515Y-13904460D02*
X5834467Y-13913984D01*
X5834467Y-13913984D02*
X5786848Y-13913984D01*
X5786848Y-13913984D02*
X5767801Y-13904460D01*
X5767801Y-13904460D02*
X5758277Y-13885412D01*
X5758277Y-13885412D02*
X5758277Y-13866365D01*
X5758277Y-13866365D02*
X5767801Y-13847317D01*
X5767801Y-13847317D02*
X5786848Y-13837793D01*
X5786848Y-13837793D02*
X5834467Y-13837793D01*
X5834467Y-13837793D02*
X5853515Y-13828269D01*
X5948753Y-13780650D02*
X5948753Y-13980650D01*
X5948753Y-13790174D02*
X5967801Y-13780650D01*
X5967801Y-13780650D02*
X6005896Y-13780650D01*
X6005896Y-13780650D02*
X6024943Y-13790174D01*
X6024943Y-13790174D02*
X6034467Y-13799698D01*
X6034467Y-13799698D02*
X6043991Y-13818746D01*
X6043991Y-13818746D02*
X6043991Y-13875888D01*
X6043991Y-13875888D02*
X6034467Y-13894936D01*
X6034467Y-13894936D02*
X6024943Y-13904460D01*
X6024943Y-13904460D02*
X6005896Y-13913984D01*
X6005896Y-13913984D02*
X5967801Y-13913984D01*
X5967801Y-13913984D02*
X5948753Y-13904460D01*
X6129705Y-13894936D02*
X6139229Y-13904460D01*
X6139229Y-13904460D02*
X6129705Y-13913984D01*
X6129705Y-13913984D02*
X6120182Y-13904460D01*
X6120182Y-13904460D02*
X6129705Y-13894936D01*
X6129705Y-13894936D02*
X6129705Y-13913984D01*
X6129705Y-13790174D02*
X6139229Y-13799698D01*
X6139229Y-13799698D02*
X6129705Y-13809222D01*
X6129705Y-13809222D02*
X6120182Y-13799698D01*
X6120182Y-13799698D02*
X6129705Y-13790174D01*
X6129705Y-13790174D02*
X6129705Y-13809222D01*
D12*
X4467500Y-14227500D02*
X4497500Y-14257500D01*
X4497500Y-14227500D02*
X4467500Y-14257500D01*
D11*
X4796372Y-14133984D02*
X4815420Y-14133984D01*
X4815420Y-14133984D02*
X4834467Y-14143508D01*
X4834467Y-14143508D02*
X4843991Y-14153031D01*
X4843991Y-14153031D02*
X4853515Y-14172079D01*
X4853515Y-14172079D02*
X4863039Y-14210174D01*
X4863039Y-14210174D02*
X4863039Y-14257793D01*
X4863039Y-14257793D02*
X4853515Y-14295888D01*
X4853515Y-14295888D02*
X4843991Y-14314936D01*
X4843991Y-14314936D02*
X4834467Y-14324460D01*
X4834467Y-14324460D02*
X4815420Y-14333984D01*
X4815420Y-14333984D02*
X4796372Y-14333984D01*
X4796372Y-14333984D02*
X4777324Y-14324460D01*
X4777324Y-14324460D02*
X4767801Y-14314936D01*
X4767801Y-14314936D02*
X4758277Y-14295888D01*
X4758277Y-14295888D02*
X4748753Y-14257793D01*
X4748753Y-14257793D02*
X4748753Y-14210174D01*
X4748753Y-14210174D02*
X4758277Y-14172079D01*
X4758277Y-14172079D02*
X4767801Y-14153031D01*
X4767801Y-14153031D02*
X4777324Y-14143508D01*
X4777324Y-14143508D02*
X4796372Y-14133984D01*
X4948753Y-14314936D02*
X4958277Y-14324460D01*
X4958277Y-14324460D02*
X4948753Y-14333984D01*
X4948753Y-14333984D02*
X4939229Y-14324460D01*
X4939229Y-14324460D02*
X4948753Y-14314936D01*
X4948753Y-14314936D02*
X4948753Y-14333984D01*
X5024944Y-14133984D02*
X5148753Y-14133984D01*
X5148753Y-14133984D02*
X5082086Y-14210174D01*
X5082086Y-14210174D02*
X5110658Y-14210174D01*
X5110658Y-14210174D02*
X5129705Y-14219698D01*
X5129705Y-14219698D02*
X5139229Y-14229222D01*
X5139229Y-14229222D02*
X5148753Y-14248269D01*
X5148753Y-14248269D02*
X5148753Y-14295888D01*
X5148753Y-14295888D02*
X5139229Y-14314936D01*
X5139229Y-14314936D02*
X5129705Y-14324460D01*
X5129705Y-14324460D02*
X5110658Y-14333984D01*
X5110658Y-14333984D02*
X5053515Y-14333984D01*
X5053515Y-14333984D02*
X5034467Y-14324460D01*
X5034467Y-14324460D02*
X5024944Y-14314936D01*
X5272563Y-14133984D02*
X5291610Y-14133984D01*
X5291610Y-14133984D02*
X5310658Y-14143508D01*
X5310658Y-14143508D02*
X5320182Y-14153031D01*
X5320182Y-14153031D02*
X5329705Y-14172079D01*
X5329705Y-14172079D02*
X5339229Y-14210174D01*
X5339229Y-14210174D02*
X5339229Y-14257793D01*
X5339229Y-14257793D02*
X5329705Y-14295888D01*
X5329705Y-14295888D02*
X5320182Y-14314936D01*
X5320182Y-14314936D02*
X5310658Y-14324460D01*
X5310658Y-14324460D02*
X5291610Y-14333984D01*
X5291610Y-14333984D02*
X5272563Y-14333984D01*
X5272563Y-14333984D02*
X5253515Y-14324460D01*
X5253515Y-14324460D02*
X5243991Y-14314936D01*
X5243991Y-14314936D02*
X5234467Y-14295888D01*
X5234467Y-14295888D02*
X5224944Y-14257793D01*
X5224944Y-14257793D02*
X5224944Y-14210174D01*
X5224944Y-14210174D02*
X5234467Y-14172079D01*
X5234467Y-14172079D02*
X5243991Y-14153031D01*
X5243991Y-14153031D02*
X5253515Y-14143508D01*
X5253515Y-14143508D02*
X5272563Y-14133984D01*
X5463039Y-14133984D02*
X5482086Y-14133984D01*
X5482086Y-14133984D02*
X5501134Y-14143508D01*
X5501134Y-14143508D02*
X5510658Y-14153031D01*
X5510658Y-14153031D02*
X5520182Y-14172079D01*
X5520182Y-14172079D02*
X5529705Y-14210174D01*
X5529705Y-14210174D02*
X5529705Y-14257793D01*
X5529705Y-14257793D02*
X5520182Y-14295888D01*
X5520182Y-14295888D02*
X5510658Y-14314936D01*
X5510658Y-14314936D02*
X5501134Y-14324460D01*
X5501134Y-14324460D02*
X5482086Y-14333984D01*
X5482086Y-14333984D02*
X5463039Y-14333984D01*
X5463039Y-14333984D02*
X5443991Y-14324460D01*
X5443991Y-14324460D02*
X5434467Y-14314936D01*
X5434467Y-14314936D02*
X5424944Y-14295888D01*
X5424944Y-14295888D02*
X5415420Y-14257793D01*
X5415420Y-14257793D02*
X5415420Y-14210174D01*
X5415420Y-14210174D02*
X5424944Y-14172079D01*
X5424944Y-14172079D02*
X5434467Y-14153031D01*
X5434467Y-14153031D02*
X5443991Y-14143508D01*
X5443991Y-14143508D02*
X5463039Y-14133984D01*
X5615420Y-14333984D02*
X5615420Y-14200650D01*
X5615420Y-14219698D02*
X5624943Y-14210174D01*
X5624943Y-14210174D02*
X5643991Y-14200650D01*
X5643991Y-14200650D02*
X5672563Y-14200650D01*
X5672563Y-14200650D02*
X5691610Y-14210174D01*
X5691610Y-14210174D02*
X5701134Y-14229222D01*
X5701134Y-14229222D02*
X5701134Y-14333984D01*
X5701134Y-14229222D02*
X5710658Y-14210174D01*
X5710658Y-14210174D02*
X5729705Y-14200650D01*
X5729705Y-14200650D02*
X5758277Y-14200650D01*
X5758277Y-14200650D02*
X5777324Y-14210174D01*
X5777324Y-14210174D02*
X5786848Y-14229222D01*
X5786848Y-14229222D02*
X5786848Y-14333984D01*
X5882086Y-14333984D02*
X5882086Y-14200650D01*
X5882086Y-14219698D02*
X5891610Y-14210174D01*
X5891610Y-14210174D02*
X5910658Y-14200650D01*
X5910658Y-14200650D02*
X5939229Y-14200650D01*
X5939229Y-14200650D02*
X5958277Y-14210174D01*
X5958277Y-14210174D02*
X5967801Y-14229222D01*
X5967801Y-14229222D02*
X5967801Y-14333984D01*
X5967801Y-14229222D02*
X5977324Y-14210174D01*
X5977324Y-14210174D02*
X5996372Y-14200650D01*
X5996372Y-14200650D02*
X6024943Y-14200650D01*
X6024943Y-14200650D02*
X6043991Y-14210174D01*
X6043991Y-14210174D02*
X6053515Y-14229222D01*
X6053515Y-14229222D02*
X6053515Y-14333984D01*
X6443991Y-14124460D02*
X6272563Y-14381603D01*
X6701134Y-14133984D02*
X6720182Y-14133984D01*
X6720182Y-14133984D02*
X6739229Y-14143508D01*
X6739229Y-14143508D02*
X6748753Y-14153031D01*
X6748753Y-14153031D02*
X6758277Y-14172079D01*
X6758277Y-14172079D02*
X6767801Y-14210174D01*
X6767801Y-14210174D02*
X6767801Y-14257793D01*
X6767801Y-14257793D02*
X6758277Y-14295888D01*
X6758277Y-14295888D02*
X6748753Y-14314936D01*
X6748753Y-14314936D02*
X6739229Y-14324460D01*
X6739229Y-14324460D02*
X6720182Y-14333984D01*
X6720182Y-14333984D02*
X6701134Y-14333984D01*
X6701134Y-14333984D02*
X6682086Y-14324460D01*
X6682086Y-14324460D02*
X6672563Y-14314936D01*
X6672563Y-14314936D02*
X6663039Y-14295888D01*
X6663039Y-14295888D02*
X6653515Y-14257793D01*
X6653515Y-14257793D02*
X6653515Y-14210174D01*
X6653515Y-14210174D02*
X6663039Y-14172079D01*
X6663039Y-14172079D02*
X6672563Y-14153031D01*
X6672563Y-14153031D02*
X6682086Y-14143508D01*
X6682086Y-14143508D02*
X6701134Y-14133984D01*
X6853515Y-14314936D02*
X6863039Y-14324460D01*
X6863039Y-14324460D02*
X6853515Y-14333984D01*
X6853515Y-14333984D02*
X6843991Y-14324460D01*
X6843991Y-14324460D02*
X6853515Y-14314936D01*
X6853515Y-14314936D02*
X6853515Y-14333984D01*
X6986848Y-14133984D02*
X7005896Y-14133984D01*
X7005896Y-14133984D02*
X7024944Y-14143508D01*
X7024944Y-14143508D02*
X7034467Y-14153031D01*
X7034467Y-14153031D02*
X7043991Y-14172079D01*
X7043991Y-14172079D02*
X7053515Y-14210174D01*
X7053515Y-14210174D02*
X7053515Y-14257793D01*
X7053515Y-14257793D02*
X7043991Y-14295888D01*
X7043991Y-14295888D02*
X7034467Y-14314936D01*
X7034467Y-14314936D02*
X7024944Y-14324460D01*
X7024944Y-14324460D02*
X7005896Y-14333984D01*
X7005896Y-14333984D02*
X6986848Y-14333984D01*
X6986848Y-14333984D02*
X6967801Y-14324460D01*
X6967801Y-14324460D02*
X6958277Y-14314936D01*
X6958277Y-14314936D02*
X6948753Y-14295888D01*
X6948753Y-14295888D02*
X6939229Y-14257793D01*
X6939229Y-14257793D02*
X6939229Y-14210174D01*
X6939229Y-14210174D02*
X6948753Y-14172079D01*
X6948753Y-14172079D02*
X6958277Y-14153031D01*
X6958277Y-14153031D02*
X6967801Y-14143508D01*
X6967801Y-14143508D02*
X6986848Y-14133984D01*
X7243991Y-14333984D02*
X7129706Y-14333984D01*
X7186848Y-14333984D02*
X7186848Y-14133984D01*
X7186848Y-14133984D02*
X7167801Y-14162555D01*
X7167801Y-14162555D02*
X7148753Y-14181603D01*
X7148753Y-14181603D02*
X7129706Y-14191127D01*
X7434467Y-14333984D02*
X7320182Y-14333984D01*
X7377325Y-14333984D02*
X7377325Y-14133984D01*
X7377325Y-14133984D02*
X7358277Y-14162555D01*
X7358277Y-14162555D02*
X7339229Y-14181603D01*
X7339229Y-14181603D02*
X7320182Y-14191127D01*
X7548753Y-14219698D02*
X7529706Y-14210174D01*
X7529706Y-14210174D02*
X7520182Y-14200650D01*
X7520182Y-14200650D02*
X7510658Y-14181603D01*
X7510658Y-14181603D02*
X7510658Y-14172079D01*
X7510658Y-14172079D02*
X7520182Y-14153031D01*
X7520182Y-14153031D02*
X7529706Y-14143508D01*
X7529706Y-14143508D02*
X7548753Y-14133984D01*
X7548753Y-14133984D02*
X7586848Y-14133984D01*
X7586848Y-14133984D02*
X7605896Y-14143508D01*
X7605896Y-14143508D02*
X7615420Y-14153031D01*
X7615420Y-14153031D02*
X7624944Y-14172079D01*
X7624944Y-14172079D02*
X7624944Y-14181603D01*
X7624944Y-14181603D02*
X7615420Y-14200650D01*
X7615420Y-14200650D02*
X7605896Y-14210174D01*
X7605896Y-14210174D02*
X7586848Y-14219698D01*
X7586848Y-14219698D02*
X7548753Y-14219698D01*
X7548753Y-14219698D02*
X7529706Y-14229222D01*
X7529706Y-14229222D02*
X7520182Y-14238746D01*
X7520182Y-14238746D02*
X7510658Y-14257793D01*
X7510658Y-14257793D02*
X7510658Y-14295888D01*
X7510658Y-14295888D02*
X7520182Y-14314936D01*
X7520182Y-14314936D02*
X7529706Y-14324460D01*
X7529706Y-14324460D02*
X7548753Y-14333984D01*
X7548753Y-14333984D02*
X7586848Y-14333984D01*
X7586848Y-14333984D02*
X7605896Y-14324460D01*
X7605896Y-14324460D02*
X7615420Y-14314936D01*
X7615420Y-14314936D02*
X7624944Y-14295888D01*
X7624944Y-14295888D02*
X7624944Y-14257793D01*
X7624944Y-14257793D02*
X7615420Y-14238746D01*
X7615420Y-14238746D02*
X7605896Y-14229222D01*
X7605896Y-14229222D02*
X7586848Y-14219698D01*
X7701134Y-14133984D02*
X7701134Y-14172079D01*
X7777325Y-14133984D02*
X7777325Y-14172079D01*
X8072563Y-14410174D02*
X8063039Y-14400650D01*
X8063039Y-14400650D02*
X8043991Y-14372079D01*
X8043991Y-14372079D02*
X8034468Y-14353031D01*
X8034468Y-14353031D02*
X8024944Y-14324460D01*
X8024944Y-14324460D02*
X8015420Y-14276841D01*
X8015420Y-14276841D02*
X8015420Y-14238746D01*
X8015420Y-14238746D02*
X8024944Y-14191127D01*
X8024944Y-14191127D02*
X8034468Y-14162555D01*
X8034468Y-14162555D02*
X8043991Y-14143508D01*
X8043991Y-14143508D02*
X8063039Y-14114936D01*
X8063039Y-14114936D02*
X8072563Y-14105412D01*
X8234468Y-14200650D02*
X8234468Y-14333984D01*
X8186848Y-14124460D02*
X8139229Y-14267317D01*
X8139229Y-14267317D02*
X8263039Y-14267317D01*
X8348753Y-14333984D02*
X8386848Y-14333984D01*
X8386848Y-14333984D02*
X8405896Y-14324460D01*
X8405896Y-14324460D02*
X8415420Y-14314936D01*
X8415420Y-14314936D02*
X8434468Y-14286365D01*
X8434468Y-14286365D02*
X8443991Y-14248269D01*
X8443991Y-14248269D02*
X8443991Y-14172079D01*
X8443991Y-14172079D02*
X8434468Y-14153031D01*
X8434468Y-14153031D02*
X8424944Y-14143508D01*
X8424944Y-14143508D02*
X8405896Y-14133984D01*
X8405896Y-14133984D02*
X8367801Y-14133984D01*
X8367801Y-14133984D02*
X8348753Y-14143508D01*
X8348753Y-14143508D02*
X8339229Y-14153031D01*
X8339229Y-14153031D02*
X8329706Y-14172079D01*
X8329706Y-14172079D02*
X8329706Y-14219698D01*
X8329706Y-14219698D02*
X8339229Y-14238746D01*
X8339229Y-14238746D02*
X8348753Y-14248269D01*
X8348753Y-14248269D02*
X8367801Y-14257793D01*
X8367801Y-14257793D02*
X8405896Y-14257793D01*
X8405896Y-14257793D02*
X8424944Y-14248269D01*
X8424944Y-14248269D02*
X8434468Y-14238746D01*
X8434468Y-14238746D02*
X8443991Y-14219698D01*
X8682087Y-14333984D02*
X8682087Y-14133984D01*
X8767801Y-14333984D02*
X8767801Y-14229222D01*
X8767801Y-14229222D02*
X8758277Y-14210174D01*
X8758277Y-14210174D02*
X8739230Y-14200650D01*
X8739230Y-14200650D02*
X8710658Y-14200650D01*
X8710658Y-14200650D02*
X8691611Y-14210174D01*
X8691611Y-14210174D02*
X8682087Y-14219698D01*
X8891611Y-14333984D02*
X8872563Y-14324460D01*
X8872563Y-14324460D02*
X8863039Y-14314936D01*
X8863039Y-14314936D02*
X8853515Y-14295888D01*
X8853515Y-14295888D02*
X8853515Y-14238746D01*
X8853515Y-14238746D02*
X8863039Y-14219698D01*
X8863039Y-14219698D02*
X8872563Y-14210174D01*
X8872563Y-14210174D02*
X8891611Y-14200650D01*
X8891611Y-14200650D02*
X8920182Y-14200650D01*
X8920182Y-14200650D02*
X8939230Y-14210174D01*
X8939230Y-14210174D02*
X8948753Y-14219698D01*
X8948753Y-14219698D02*
X8958277Y-14238746D01*
X8958277Y-14238746D02*
X8958277Y-14295888D01*
X8958277Y-14295888D02*
X8948753Y-14314936D01*
X8948753Y-14314936D02*
X8939230Y-14324460D01*
X8939230Y-14324460D02*
X8920182Y-14333984D01*
X8920182Y-14333984D02*
X8891611Y-14333984D01*
X9072563Y-14333984D02*
X9053515Y-14324460D01*
X9053515Y-14324460D02*
X9043992Y-14305412D01*
X9043992Y-14305412D02*
X9043992Y-14133984D01*
X9224944Y-14324460D02*
X9205896Y-14333984D01*
X9205896Y-14333984D02*
X9167801Y-14333984D01*
X9167801Y-14333984D02*
X9148753Y-14324460D01*
X9148753Y-14324460D02*
X9139230Y-14305412D01*
X9139230Y-14305412D02*
X9139230Y-14229222D01*
X9139230Y-14229222D02*
X9148753Y-14210174D01*
X9148753Y-14210174D02*
X9167801Y-14200650D01*
X9167801Y-14200650D02*
X9205896Y-14200650D01*
X9205896Y-14200650D02*
X9224944Y-14210174D01*
X9224944Y-14210174D02*
X9234468Y-14229222D01*
X9234468Y-14229222D02*
X9234468Y-14248269D01*
X9234468Y-14248269D02*
X9139230Y-14267317D01*
X9310658Y-14324460D02*
X9329706Y-14333984D01*
X9329706Y-14333984D02*
X9367801Y-14333984D01*
X9367801Y-14333984D02*
X9386849Y-14324460D01*
X9386849Y-14324460D02*
X9396373Y-14305412D01*
X9396373Y-14305412D02*
X9396373Y-14295888D01*
X9396373Y-14295888D02*
X9386849Y-14276841D01*
X9386849Y-14276841D02*
X9367801Y-14267317D01*
X9367801Y-14267317D02*
X9339230Y-14267317D01*
X9339230Y-14267317D02*
X9320182Y-14257793D01*
X9320182Y-14257793D02*
X9310658Y-14238746D01*
X9310658Y-14238746D02*
X9310658Y-14229222D01*
X9310658Y-14229222D02*
X9320182Y-14210174D01*
X9320182Y-14210174D02*
X9339230Y-14200650D01*
X9339230Y-14200650D02*
X9367801Y-14200650D01*
X9367801Y-14200650D02*
X9386849Y-14210174D01*
X9463039Y-14410174D02*
X9472563Y-14400650D01*
X9472563Y-14400650D02*
X9491611Y-14372079D01*
X9491611Y-14372079D02*
X9501134Y-14353031D01*
X9501134Y-14353031D02*
X9510658Y-14324460D01*
X9510658Y-14324460D02*
X9520182Y-14276841D01*
X9520182Y-14276841D02*
X9520182Y-14238746D01*
X9520182Y-14238746D02*
X9510658Y-14191127D01*
X9510658Y-14191127D02*
X9501134Y-14162555D01*
X9501134Y-14162555D02*
X9491611Y-14143508D01*
X9491611Y-14143508D02*
X9472563Y-14114936D01*
X9472563Y-14114936D02*
X9463039Y-14105412D01*
D12*
X4497500Y-14506500D02*
G75*
G02*
X4402500Y-14506500I-47500J0D01*
G01*
X4402500Y-14506500D02*
G75*
G02*
X4497500Y-14506500I47500J0D01*
G01*
D11*
X4796372Y-14397984D02*
X4815420Y-14397984D01*
X4815420Y-14397984D02*
X4834467Y-14407508D01*
X4834467Y-14407508D02*
X4843991Y-14417031D01*
X4843991Y-14417031D02*
X4853515Y-14436079D01*
X4853515Y-14436079D02*
X4863039Y-14474174D01*
X4863039Y-14474174D02*
X4863039Y-14521793D01*
X4863039Y-14521793D02*
X4853515Y-14559888D01*
X4853515Y-14559888D02*
X4843991Y-14578936D01*
X4843991Y-14578936D02*
X4834467Y-14588460D01*
X4834467Y-14588460D02*
X4815420Y-14597984D01*
X4815420Y-14597984D02*
X4796372Y-14597984D01*
X4796372Y-14597984D02*
X4777324Y-14588460D01*
X4777324Y-14588460D02*
X4767801Y-14578936D01*
X4767801Y-14578936D02*
X4758277Y-14559888D01*
X4758277Y-14559888D02*
X4748753Y-14521793D01*
X4748753Y-14521793D02*
X4748753Y-14474174D01*
X4748753Y-14474174D02*
X4758277Y-14436079D01*
X4758277Y-14436079D02*
X4767801Y-14417031D01*
X4767801Y-14417031D02*
X4777324Y-14407508D01*
X4777324Y-14407508D02*
X4796372Y-14397984D01*
X4948753Y-14578936D02*
X4958277Y-14588460D01*
X4958277Y-14588460D02*
X4948753Y-14597984D01*
X4948753Y-14597984D02*
X4939229Y-14588460D01*
X4939229Y-14588460D02*
X4948753Y-14578936D01*
X4948753Y-14578936D02*
X4948753Y-14597984D01*
X5053515Y-14597984D02*
X5091610Y-14597984D01*
X5091610Y-14597984D02*
X5110658Y-14588460D01*
X5110658Y-14588460D02*
X5120182Y-14578936D01*
X5120182Y-14578936D02*
X5139229Y-14550365D01*
X5139229Y-14550365D02*
X5148753Y-14512269D01*
X5148753Y-14512269D02*
X5148753Y-14436079D01*
X5148753Y-14436079D02*
X5139229Y-14417031D01*
X5139229Y-14417031D02*
X5129705Y-14407508D01*
X5129705Y-14407508D02*
X5110658Y-14397984D01*
X5110658Y-14397984D02*
X5072563Y-14397984D01*
X5072563Y-14397984D02*
X5053515Y-14407508D01*
X5053515Y-14407508D02*
X5043991Y-14417031D01*
X5043991Y-14417031D02*
X5034467Y-14436079D01*
X5034467Y-14436079D02*
X5034467Y-14483698D01*
X5034467Y-14483698D02*
X5043991Y-14502746D01*
X5043991Y-14502746D02*
X5053515Y-14512269D01*
X5053515Y-14512269D02*
X5072563Y-14521793D01*
X5072563Y-14521793D02*
X5110658Y-14521793D01*
X5110658Y-14521793D02*
X5129705Y-14512269D01*
X5129705Y-14512269D02*
X5139229Y-14502746D01*
X5139229Y-14502746D02*
X5148753Y-14483698D01*
X5329705Y-14397984D02*
X5234467Y-14397984D01*
X5234467Y-14397984D02*
X5224944Y-14493222D01*
X5224944Y-14493222D02*
X5234467Y-14483698D01*
X5234467Y-14483698D02*
X5253515Y-14474174D01*
X5253515Y-14474174D02*
X5301134Y-14474174D01*
X5301134Y-14474174D02*
X5320182Y-14483698D01*
X5320182Y-14483698D02*
X5329705Y-14493222D01*
X5329705Y-14493222D02*
X5339229Y-14512269D01*
X5339229Y-14512269D02*
X5339229Y-14559888D01*
X5339229Y-14559888D02*
X5329705Y-14578936D01*
X5329705Y-14578936D02*
X5320182Y-14588460D01*
X5320182Y-14588460D02*
X5301134Y-14597984D01*
X5301134Y-14597984D02*
X5253515Y-14597984D01*
X5253515Y-14597984D02*
X5234467Y-14588460D01*
X5234467Y-14588460D02*
X5224944Y-14578936D01*
X5463039Y-14397984D02*
X5482086Y-14397984D01*
X5482086Y-14397984D02*
X5501134Y-14407508D01*
X5501134Y-14407508D02*
X5510658Y-14417031D01*
X5510658Y-14417031D02*
X5520182Y-14436079D01*
X5520182Y-14436079D02*
X5529705Y-14474174D01*
X5529705Y-14474174D02*
X5529705Y-14521793D01*
X5529705Y-14521793D02*
X5520182Y-14559888D01*
X5520182Y-14559888D02*
X5510658Y-14578936D01*
X5510658Y-14578936D02*
X5501134Y-14588460D01*
X5501134Y-14588460D02*
X5482086Y-14597984D01*
X5482086Y-14597984D02*
X5463039Y-14597984D01*
X5463039Y-14597984D02*
X5443991Y-14588460D01*
X5443991Y-14588460D02*
X5434467Y-14578936D01*
X5434467Y-14578936D02*
X5424944Y-14559888D01*
X5424944Y-14559888D02*
X5415420Y-14521793D01*
X5415420Y-14521793D02*
X5415420Y-14474174D01*
X5415420Y-14474174D02*
X5424944Y-14436079D01*
X5424944Y-14436079D02*
X5434467Y-14417031D01*
X5434467Y-14417031D02*
X5443991Y-14407508D01*
X5443991Y-14407508D02*
X5463039Y-14397984D01*
X5615420Y-14597984D02*
X5615420Y-14464650D01*
X5615420Y-14483698D02*
X5624943Y-14474174D01*
X5624943Y-14474174D02*
X5643991Y-14464650D01*
X5643991Y-14464650D02*
X5672563Y-14464650D01*
X5672563Y-14464650D02*
X5691610Y-14474174D01*
X5691610Y-14474174D02*
X5701134Y-14493222D01*
X5701134Y-14493222D02*
X5701134Y-14597984D01*
X5701134Y-14493222D02*
X5710658Y-14474174D01*
X5710658Y-14474174D02*
X5729705Y-14464650D01*
X5729705Y-14464650D02*
X5758277Y-14464650D01*
X5758277Y-14464650D02*
X5777324Y-14474174D01*
X5777324Y-14474174D02*
X5786848Y-14493222D01*
X5786848Y-14493222D02*
X5786848Y-14597984D01*
X5882086Y-14597984D02*
X5882086Y-14464650D01*
X5882086Y-14483698D02*
X5891610Y-14474174D01*
X5891610Y-14474174D02*
X5910658Y-14464650D01*
X5910658Y-14464650D02*
X5939229Y-14464650D01*
X5939229Y-14464650D02*
X5958277Y-14474174D01*
X5958277Y-14474174D02*
X5967801Y-14493222D01*
X5967801Y-14493222D02*
X5967801Y-14597984D01*
X5967801Y-14493222D02*
X5977324Y-14474174D01*
X5977324Y-14474174D02*
X5996372Y-14464650D01*
X5996372Y-14464650D02*
X6024943Y-14464650D01*
X6024943Y-14464650D02*
X6043991Y-14474174D01*
X6043991Y-14474174D02*
X6053515Y-14493222D01*
X6053515Y-14493222D02*
X6053515Y-14597984D01*
X6443991Y-14388460D02*
X6272563Y-14645603D01*
X6701134Y-14397984D02*
X6720182Y-14397984D01*
X6720182Y-14397984D02*
X6739229Y-14407508D01*
X6739229Y-14407508D02*
X6748753Y-14417031D01*
X6748753Y-14417031D02*
X6758277Y-14436079D01*
X6758277Y-14436079D02*
X6767801Y-14474174D01*
X6767801Y-14474174D02*
X6767801Y-14521793D01*
X6767801Y-14521793D02*
X6758277Y-14559888D01*
X6758277Y-14559888D02*
X6748753Y-14578936D01*
X6748753Y-14578936D02*
X6739229Y-14588460D01*
X6739229Y-14588460D02*
X6720182Y-14597984D01*
X6720182Y-14597984D02*
X6701134Y-14597984D01*
X6701134Y-14597984D02*
X6682086Y-14588460D01*
X6682086Y-14588460D02*
X6672563Y-14578936D01*
X6672563Y-14578936D02*
X6663039Y-14559888D01*
X6663039Y-14559888D02*
X6653515Y-14521793D01*
X6653515Y-14521793D02*
X6653515Y-14474174D01*
X6653515Y-14474174D02*
X6663039Y-14436079D01*
X6663039Y-14436079D02*
X6672563Y-14417031D01*
X6672563Y-14417031D02*
X6682086Y-14407508D01*
X6682086Y-14407508D02*
X6701134Y-14397984D01*
X6853515Y-14578936D02*
X6863039Y-14588460D01*
X6863039Y-14588460D02*
X6853515Y-14597984D01*
X6853515Y-14597984D02*
X6843991Y-14588460D01*
X6843991Y-14588460D02*
X6853515Y-14578936D01*
X6853515Y-14578936D02*
X6853515Y-14597984D01*
X6986848Y-14397984D02*
X7005896Y-14397984D01*
X7005896Y-14397984D02*
X7024944Y-14407508D01*
X7024944Y-14407508D02*
X7034467Y-14417031D01*
X7034467Y-14417031D02*
X7043991Y-14436079D01*
X7043991Y-14436079D02*
X7053515Y-14474174D01*
X7053515Y-14474174D02*
X7053515Y-14521793D01*
X7053515Y-14521793D02*
X7043991Y-14559888D01*
X7043991Y-14559888D02*
X7034467Y-14578936D01*
X7034467Y-14578936D02*
X7024944Y-14588460D01*
X7024944Y-14588460D02*
X7005896Y-14597984D01*
X7005896Y-14597984D02*
X6986848Y-14597984D01*
X6986848Y-14597984D02*
X6967801Y-14588460D01*
X6967801Y-14588460D02*
X6958277Y-14578936D01*
X6958277Y-14578936D02*
X6948753Y-14559888D01*
X6948753Y-14559888D02*
X6939229Y-14521793D01*
X6939229Y-14521793D02*
X6939229Y-14474174D01*
X6939229Y-14474174D02*
X6948753Y-14436079D01*
X6948753Y-14436079D02*
X6958277Y-14417031D01*
X6958277Y-14417031D02*
X6967801Y-14407508D01*
X6967801Y-14407508D02*
X6986848Y-14397984D01*
X7120182Y-14397984D02*
X7243991Y-14397984D01*
X7243991Y-14397984D02*
X7177325Y-14474174D01*
X7177325Y-14474174D02*
X7205896Y-14474174D01*
X7205896Y-14474174D02*
X7224944Y-14483698D01*
X7224944Y-14483698D02*
X7234467Y-14493222D01*
X7234467Y-14493222D02*
X7243991Y-14512269D01*
X7243991Y-14512269D02*
X7243991Y-14559888D01*
X7243991Y-14559888D02*
X7234467Y-14578936D01*
X7234467Y-14578936D02*
X7224944Y-14588460D01*
X7224944Y-14588460D02*
X7205896Y-14597984D01*
X7205896Y-14597984D02*
X7148753Y-14597984D01*
X7148753Y-14597984D02*
X7129706Y-14588460D01*
X7129706Y-14588460D02*
X7120182Y-14578936D01*
X7310658Y-14397984D02*
X7443991Y-14397984D01*
X7443991Y-14397984D02*
X7358277Y-14597984D01*
X7605896Y-14464650D02*
X7605896Y-14597984D01*
X7558277Y-14388460D02*
X7510658Y-14531317D01*
X7510658Y-14531317D02*
X7634467Y-14531317D01*
X7701134Y-14397984D02*
X7701134Y-14436079D01*
X7777325Y-14397984D02*
X7777325Y-14436079D01*
X8072563Y-14674174D02*
X8063039Y-14664650D01*
X8063039Y-14664650D02*
X8043991Y-14636079D01*
X8043991Y-14636079D02*
X8034468Y-14617031D01*
X8034468Y-14617031D02*
X8024944Y-14588460D01*
X8024944Y-14588460D02*
X8015420Y-14540841D01*
X8015420Y-14540841D02*
X8015420Y-14502746D01*
X8015420Y-14502746D02*
X8024944Y-14455127D01*
X8024944Y-14455127D02*
X8034468Y-14426555D01*
X8034468Y-14426555D02*
X8043991Y-14407508D01*
X8043991Y-14407508D02*
X8063039Y-14378936D01*
X8063039Y-14378936D02*
X8072563Y-14369412D01*
X8139229Y-14417031D02*
X8148753Y-14407508D01*
X8148753Y-14407508D02*
X8167801Y-14397984D01*
X8167801Y-14397984D02*
X8215420Y-14397984D01*
X8215420Y-14397984D02*
X8234468Y-14407508D01*
X8234468Y-14407508D02*
X8243991Y-14417031D01*
X8243991Y-14417031D02*
X8253515Y-14436079D01*
X8253515Y-14436079D02*
X8253515Y-14455127D01*
X8253515Y-14455127D02*
X8243991Y-14483698D01*
X8243991Y-14483698D02*
X8129706Y-14597984D01*
X8129706Y-14597984D02*
X8253515Y-14597984D01*
X8320182Y-14397984D02*
X8443991Y-14397984D01*
X8443991Y-14397984D02*
X8377325Y-14474174D01*
X8377325Y-14474174D02*
X8405896Y-14474174D01*
X8405896Y-14474174D02*
X8424944Y-14483698D01*
X8424944Y-14483698D02*
X8434468Y-14493222D01*
X8434468Y-14493222D02*
X8443991Y-14512269D01*
X8443991Y-14512269D02*
X8443991Y-14559888D01*
X8443991Y-14559888D02*
X8434468Y-14578936D01*
X8434468Y-14578936D02*
X8424944Y-14588460D01*
X8424944Y-14588460D02*
X8405896Y-14597984D01*
X8405896Y-14597984D02*
X8348753Y-14597984D01*
X8348753Y-14597984D02*
X8329706Y-14588460D01*
X8329706Y-14588460D02*
X8320182Y-14578936D01*
X8682087Y-14597984D02*
X8682087Y-14397984D01*
X8767801Y-14597984D02*
X8767801Y-14493222D01*
X8767801Y-14493222D02*
X8758277Y-14474174D01*
X8758277Y-14474174D02*
X8739230Y-14464650D01*
X8739230Y-14464650D02*
X8710658Y-14464650D01*
X8710658Y-14464650D02*
X8691611Y-14474174D01*
X8691611Y-14474174D02*
X8682087Y-14483698D01*
X8891611Y-14597984D02*
X8872563Y-14588460D01*
X8872563Y-14588460D02*
X8863039Y-14578936D01*
X8863039Y-14578936D02*
X8853515Y-14559888D01*
X8853515Y-14559888D02*
X8853515Y-14502746D01*
X8853515Y-14502746D02*
X8863039Y-14483698D01*
X8863039Y-14483698D02*
X8872563Y-14474174D01*
X8872563Y-14474174D02*
X8891611Y-14464650D01*
X8891611Y-14464650D02*
X8920182Y-14464650D01*
X8920182Y-14464650D02*
X8939230Y-14474174D01*
X8939230Y-14474174D02*
X8948753Y-14483698D01*
X8948753Y-14483698D02*
X8958277Y-14502746D01*
X8958277Y-14502746D02*
X8958277Y-14559888D01*
X8958277Y-14559888D02*
X8948753Y-14578936D01*
X8948753Y-14578936D02*
X8939230Y-14588460D01*
X8939230Y-14588460D02*
X8920182Y-14597984D01*
X8920182Y-14597984D02*
X8891611Y-14597984D01*
X9072563Y-14597984D02*
X9053515Y-14588460D01*
X9053515Y-14588460D02*
X9043992Y-14569412D01*
X9043992Y-14569412D02*
X9043992Y-14397984D01*
X9224944Y-14588460D02*
X9205896Y-14597984D01*
X9205896Y-14597984D02*
X9167801Y-14597984D01*
X9167801Y-14597984D02*
X9148753Y-14588460D01*
X9148753Y-14588460D02*
X9139230Y-14569412D01*
X9139230Y-14569412D02*
X9139230Y-14493222D01*
X9139230Y-14493222D02*
X9148753Y-14474174D01*
X9148753Y-14474174D02*
X9167801Y-14464650D01*
X9167801Y-14464650D02*
X9205896Y-14464650D01*
X9205896Y-14464650D02*
X9224944Y-14474174D01*
X9224944Y-14474174D02*
X9234468Y-14493222D01*
X9234468Y-14493222D02*
X9234468Y-14512269D01*
X9234468Y-14512269D02*
X9139230Y-14531317D01*
X9310658Y-14588460D02*
X9329706Y-14597984D01*
X9329706Y-14597984D02*
X9367801Y-14597984D01*
X9367801Y-14597984D02*
X9386849Y-14588460D01*
X9386849Y-14588460D02*
X9396373Y-14569412D01*
X9396373Y-14569412D02*
X9396373Y-14559888D01*
X9396373Y-14559888D02*
X9386849Y-14540841D01*
X9386849Y-14540841D02*
X9367801Y-14531317D01*
X9367801Y-14531317D02*
X9339230Y-14531317D01*
X9339230Y-14531317D02*
X9320182Y-14521793D01*
X9320182Y-14521793D02*
X9310658Y-14502746D01*
X9310658Y-14502746D02*
X9310658Y-14493222D01*
X9310658Y-14493222D02*
X9320182Y-14474174D01*
X9320182Y-14474174D02*
X9339230Y-14464650D01*
X9339230Y-14464650D02*
X9367801Y-14464650D01*
X9367801Y-14464650D02*
X9386849Y-14474174D01*
X9463039Y-14674174D02*
X9472563Y-14664650D01*
X9472563Y-14664650D02*
X9491611Y-14636079D01*
X9491611Y-14636079D02*
X9501134Y-14617031D01*
X9501134Y-14617031D02*
X9510658Y-14588460D01*
X9510658Y-14588460D02*
X9520182Y-14540841D01*
X9520182Y-14540841D02*
X9520182Y-14502746D01*
X9520182Y-14502746D02*
X9510658Y-14455127D01*
X9510658Y-14455127D02*
X9501134Y-14426555D01*
X9501134Y-14426555D02*
X9491611Y-14407508D01*
X9491611Y-14407508D02*
X9472563Y-14378936D01*
X9472563Y-14378936D02*
X9463039Y-14369412D01*
D12*
X4447500Y-14720500D02*
X4447500Y-14820500D01*
X4397500Y-14770500D02*
X4497500Y-14770500D01*
D11*
X4863039Y-14861984D02*
X4748753Y-14861984D01*
X4805896Y-14861984D02*
X4805896Y-14661984D01*
X4805896Y-14661984D02*
X4786848Y-14690555D01*
X4786848Y-14690555D02*
X4767801Y-14709603D01*
X4767801Y-14709603D02*
X4748753Y-14719127D01*
X4948753Y-14842936D02*
X4958277Y-14852460D01*
X4958277Y-14852460D02*
X4948753Y-14861984D01*
X4948753Y-14861984D02*
X4939229Y-14852460D01*
X4939229Y-14852460D02*
X4948753Y-14842936D01*
X4948753Y-14842936D02*
X4948753Y-14861984D01*
X5082086Y-14661984D02*
X5101134Y-14661984D01*
X5101134Y-14661984D02*
X5120182Y-14671508D01*
X5120182Y-14671508D02*
X5129705Y-14681031D01*
X5129705Y-14681031D02*
X5139229Y-14700079D01*
X5139229Y-14700079D02*
X5148753Y-14738174D01*
X5148753Y-14738174D02*
X5148753Y-14785793D01*
X5148753Y-14785793D02*
X5139229Y-14823888D01*
X5139229Y-14823888D02*
X5129705Y-14842936D01*
X5129705Y-14842936D02*
X5120182Y-14852460D01*
X5120182Y-14852460D02*
X5101134Y-14861984D01*
X5101134Y-14861984D02*
X5082086Y-14861984D01*
X5082086Y-14861984D02*
X5063039Y-14852460D01*
X5063039Y-14852460D02*
X5053515Y-14842936D01*
X5053515Y-14842936D02*
X5043991Y-14823888D01*
X5043991Y-14823888D02*
X5034467Y-14785793D01*
X5034467Y-14785793D02*
X5034467Y-14738174D01*
X5034467Y-14738174D02*
X5043991Y-14700079D01*
X5043991Y-14700079D02*
X5053515Y-14681031D01*
X5053515Y-14681031D02*
X5063039Y-14671508D01*
X5063039Y-14671508D02*
X5082086Y-14661984D01*
X5272563Y-14661984D02*
X5291610Y-14661984D01*
X5291610Y-14661984D02*
X5310658Y-14671508D01*
X5310658Y-14671508D02*
X5320182Y-14681031D01*
X5320182Y-14681031D02*
X5329705Y-14700079D01*
X5329705Y-14700079D02*
X5339229Y-14738174D01*
X5339229Y-14738174D02*
X5339229Y-14785793D01*
X5339229Y-14785793D02*
X5329705Y-14823888D01*
X5329705Y-14823888D02*
X5320182Y-14842936D01*
X5320182Y-14842936D02*
X5310658Y-14852460D01*
X5310658Y-14852460D02*
X5291610Y-14861984D01*
X5291610Y-14861984D02*
X5272563Y-14861984D01*
X5272563Y-14861984D02*
X5253515Y-14852460D01*
X5253515Y-14852460D02*
X5243991Y-14842936D01*
X5243991Y-14842936D02*
X5234467Y-14823888D01*
X5234467Y-14823888D02*
X5224944Y-14785793D01*
X5224944Y-14785793D02*
X5224944Y-14738174D01*
X5224944Y-14738174D02*
X5234467Y-14700079D01*
X5234467Y-14700079D02*
X5243991Y-14681031D01*
X5243991Y-14681031D02*
X5253515Y-14671508D01*
X5253515Y-14671508D02*
X5272563Y-14661984D01*
X5463039Y-14661984D02*
X5482086Y-14661984D01*
X5482086Y-14661984D02*
X5501134Y-14671508D01*
X5501134Y-14671508D02*
X5510658Y-14681031D01*
X5510658Y-14681031D02*
X5520182Y-14700079D01*
X5520182Y-14700079D02*
X5529705Y-14738174D01*
X5529705Y-14738174D02*
X5529705Y-14785793D01*
X5529705Y-14785793D02*
X5520182Y-14823888D01*
X5520182Y-14823888D02*
X5510658Y-14842936D01*
X5510658Y-14842936D02*
X5501134Y-14852460D01*
X5501134Y-14852460D02*
X5482086Y-14861984D01*
X5482086Y-14861984D02*
X5463039Y-14861984D01*
X5463039Y-14861984D02*
X5443991Y-14852460D01*
X5443991Y-14852460D02*
X5434467Y-14842936D01*
X5434467Y-14842936D02*
X5424944Y-14823888D01*
X5424944Y-14823888D02*
X5415420Y-14785793D01*
X5415420Y-14785793D02*
X5415420Y-14738174D01*
X5415420Y-14738174D02*
X5424944Y-14700079D01*
X5424944Y-14700079D02*
X5434467Y-14681031D01*
X5434467Y-14681031D02*
X5443991Y-14671508D01*
X5443991Y-14671508D02*
X5463039Y-14661984D01*
X5615420Y-14861984D02*
X5615420Y-14728650D01*
X5615420Y-14747698D02*
X5624943Y-14738174D01*
X5624943Y-14738174D02*
X5643991Y-14728650D01*
X5643991Y-14728650D02*
X5672563Y-14728650D01*
X5672563Y-14728650D02*
X5691610Y-14738174D01*
X5691610Y-14738174D02*
X5701134Y-14757222D01*
X5701134Y-14757222D02*
X5701134Y-14861984D01*
X5701134Y-14757222D02*
X5710658Y-14738174D01*
X5710658Y-14738174D02*
X5729705Y-14728650D01*
X5729705Y-14728650D02*
X5758277Y-14728650D01*
X5758277Y-14728650D02*
X5777324Y-14738174D01*
X5777324Y-14738174D02*
X5786848Y-14757222D01*
X5786848Y-14757222D02*
X5786848Y-14861984D01*
X5882086Y-14861984D02*
X5882086Y-14728650D01*
X5882086Y-14747698D02*
X5891610Y-14738174D01*
X5891610Y-14738174D02*
X5910658Y-14728650D01*
X5910658Y-14728650D02*
X5939229Y-14728650D01*
X5939229Y-14728650D02*
X5958277Y-14738174D01*
X5958277Y-14738174D02*
X5967801Y-14757222D01*
X5967801Y-14757222D02*
X5967801Y-14861984D01*
X5967801Y-14757222D02*
X5977324Y-14738174D01*
X5977324Y-14738174D02*
X5996372Y-14728650D01*
X5996372Y-14728650D02*
X6024943Y-14728650D01*
X6024943Y-14728650D02*
X6043991Y-14738174D01*
X6043991Y-14738174D02*
X6053515Y-14757222D01*
X6053515Y-14757222D02*
X6053515Y-14861984D01*
X6443991Y-14652460D02*
X6272563Y-14909603D01*
X6701134Y-14661984D02*
X6720182Y-14661984D01*
X6720182Y-14661984D02*
X6739229Y-14671508D01*
X6739229Y-14671508D02*
X6748753Y-14681031D01*
X6748753Y-14681031D02*
X6758277Y-14700079D01*
X6758277Y-14700079D02*
X6767801Y-14738174D01*
X6767801Y-14738174D02*
X6767801Y-14785793D01*
X6767801Y-14785793D02*
X6758277Y-14823888D01*
X6758277Y-14823888D02*
X6748753Y-14842936D01*
X6748753Y-14842936D02*
X6739229Y-14852460D01*
X6739229Y-14852460D02*
X6720182Y-14861984D01*
X6720182Y-14861984D02*
X6701134Y-14861984D01*
X6701134Y-14861984D02*
X6682086Y-14852460D01*
X6682086Y-14852460D02*
X6672563Y-14842936D01*
X6672563Y-14842936D02*
X6663039Y-14823888D01*
X6663039Y-14823888D02*
X6653515Y-14785793D01*
X6653515Y-14785793D02*
X6653515Y-14738174D01*
X6653515Y-14738174D02*
X6663039Y-14700079D01*
X6663039Y-14700079D02*
X6672563Y-14681031D01*
X6672563Y-14681031D02*
X6682086Y-14671508D01*
X6682086Y-14671508D02*
X6701134Y-14661984D01*
X6853515Y-14842936D02*
X6863039Y-14852460D01*
X6863039Y-14852460D02*
X6853515Y-14861984D01*
X6853515Y-14861984D02*
X6843991Y-14852460D01*
X6843991Y-14852460D02*
X6853515Y-14842936D01*
X6853515Y-14842936D02*
X6853515Y-14861984D01*
X6986848Y-14661984D02*
X7005896Y-14661984D01*
X7005896Y-14661984D02*
X7024944Y-14671508D01*
X7024944Y-14671508D02*
X7034467Y-14681031D01*
X7034467Y-14681031D02*
X7043991Y-14700079D01*
X7043991Y-14700079D02*
X7053515Y-14738174D01*
X7053515Y-14738174D02*
X7053515Y-14785793D01*
X7053515Y-14785793D02*
X7043991Y-14823888D01*
X7043991Y-14823888D02*
X7034467Y-14842936D01*
X7034467Y-14842936D02*
X7024944Y-14852460D01*
X7024944Y-14852460D02*
X7005896Y-14861984D01*
X7005896Y-14861984D02*
X6986848Y-14861984D01*
X6986848Y-14861984D02*
X6967801Y-14852460D01*
X6967801Y-14852460D02*
X6958277Y-14842936D01*
X6958277Y-14842936D02*
X6948753Y-14823888D01*
X6948753Y-14823888D02*
X6939229Y-14785793D01*
X6939229Y-14785793D02*
X6939229Y-14738174D01*
X6939229Y-14738174D02*
X6948753Y-14700079D01*
X6948753Y-14700079D02*
X6958277Y-14681031D01*
X6958277Y-14681031D02*
X6967801Y-14671508D01*
X6967801Y-14671508D02*
X6986848Y-14661984D01*
X7120182Y-14661984D02*
X7243991Y-14661984D01*
X7243991Y-14661984D02*
X7177325Y-14738174D01*
X7177325Y-14738174D02*
X7205896Y-14738174D01*
X7205896Y-14738174D02*
X7224944Y-14747698D01*
X7224944Y-14747698D02*
X7234467Y-14757222D01*
X7234467Y-14757222D02*
X7243991Y-14776269D01*
X7243991Y-14776269D02*
X7243991Y-14823888D01*
X7243991Y-14823888D02*
X7234467Y-14842936D01*
X7234467Y-14842936D02*
X7224944Y-14852460D01*
X7224944Y-14852460D02*
X7205896Y-14861984D01*
X7205896Y-14861984D02*
X7148753Y-14861984D01*
X7148753Y-14861984D02*
X7129706Y-14852460D01*
X7129706Y-14852460D02*
X7120182Y-14842936D01*
X7339229Y-14861984D02*
X7377325Y-14861984D01*
X7377325Y-14861984D02*
X7396372Y-14852460D01*
X7396372Y-14852460D02*
X7405896Y-14842936D01*
X7405896Y-14842936D02*
X7424944Y-14814365D01*
X7424944Y-14814365D02*
X7434467Y-14776269D01*
X7434467Y-14776269D02*
X7434467Y-14700079D01*
X7434467Y-14700079D02*
X7424944Y-14681031D01*
X7424944Y-14681031D02*
X7415420Y-14671508D01*
X7415420Y-14671508D02*
X7396372Y-14661984D01*
X7396372Y-14661984D02*
X7358277Y-14661984D01*
X7358277Y-14661984D02*
X7339229Y-14671508D01*
X7339229Y-14671508D02*
X7329706Y-14681031D01*
X7329706Y-14681031D02*
X7320182Y-14700079D01*
X7320182Y-14700079D02*
X7320182Y-14747698D01*
X7320182Y-14747698D02*
X7329706Y-14766746D01*
X7329706Y-14766746D02*
X7339229Y-14776269D01*
X7339229Y-14776269D02*
X7358277Y-14785793D01*
X7358277Y-14785793D02*
X7396372Y-14785793D01*
X7396372Y-14785793D02*
X7415420Y-14776269D01*
X7415420Y-14776269D02*
X7424944Y-14766746D01*
X7424944Y-14766746D02*
X7434467Y-14747698D01*
X7605896Y-14728650D02*
X7605896Y-14861984D01*
X7558277Y-14652460D02*
X7510658Y-14795317D01*
X7510658Y-14795317D02*
X7634467Y-14795317D01*
X7701134Y-14661984D02*
X7701134Y-14700079D01*
X7777325Y-14661984D02*
X7777325Y-14700079D01*
X8072563Y-14938174D02*
X8063039Y-14928650D01*
X8063039Y-14928650D02*
X8043991Y-14900079D01*
X8043991Y-14900079D02*
X8034468Y-14881031D01*
X8034468Y-14881031D02*
X8024944Y-14852460D01*
X8024944Y-14852460D02*
X8015420Y-14804841D01*
X8015420Y-14804841D02*
X8015420Y-14766746D01*
X8015420Y-14766746D02*
X8024944Y-14719127D01*
X8024944Y-14719127D02*
X8034468Y-14690555D01*
X8034468Y-14690555D02*
X8043991Y-14671508D01*
X8043991Y-14671508D02*
X8063039Y-14642936D01*
X8063039Y-14642936D02*
X8072563Y-14633412D01*
X8234468Y-14728650D02*
X8234468Y-14861984D01*
X8186848Y-14652460D02*
X8139229Y-14795317D01*
X8139229Y-14795317D02*
X8263039Y-14795317D01*
X8491611Y-14861984D02*
X8491611Y-14661984D01*
X8577325Y-14861984D02*
X8577325Y-14757222D01*
X8577325Y-14757222D02*
X8567801Y-14738174D01*
X8567801Y-14738174D02*
X8548753Y-14728650D01*
X8548753Y-14728650D02*
X8520182Y-14728650D01*
X8520182Y-14728650D02*
X8501134Y-14738174D01*
X8501134Y-14738174D02*
X8491611Y-14747698D01*
X8701134Y-14861984D02*
X8682087Y-14852460D01*
X8682087Y-14852460D02*
X8672563Y-14842936D01*
X8672563Y-14842936D02*
X8663039Y-14823888D01*
X8663039Y-14823888D02*
X8663039Y-14766746D01*
X8663039Y-14766746D02*
X8672563Y-14747698D01*
X8672563Y-14747698D02*
X8682087Y-14738174D01*
X8682087Y-14738174D02*
X8701134Y-14728650D01*
X8701134Y-14728650D02*
X8729706Y-14728650D01*
X8729706Y-14728650D02*
X8748753Y-14738174D01*
X8748753Y-14738174D02*
X8758277Y-14747698D01*
X8758277Y-14747698D02*
X8767801Y-14766746D01*
X8767801Y-14766746D02*
X8767801Y-14823888D01*
X8767801Y-14823888D02*
X8758277Y-14842936D01*
X8758277Y-14842936D02*
X8748753Y-14852460D01*
X8748753Y-14852460D02*
X8729706Y-14861984D01*
X8729706Y-14861984D02*
X8701134Y-14861984D01*
X8882087Y-14861984D02*
X8863039Y-14852460D01*
X8863039Y-14852460D02*
X8853515Y-14833412D01*
X8853515Y-14833412D02*
X8853515Y-14661984D01*
X9034468Y-14852460D02*
X9015420Y-14861984D01*
X9015420Y-14861984D02*
X8977325Y-14861984D01*
X8977325Y-14861984D02*
X8958277Y-14852460D01*
X8958277Y-14852460D02*
X8948753Y-14833412D01*
X8948753Y-14833412D02*
X8948753Y-14757222D01*
X8948753Y-14757222D02*
X8958277Y-14738174D01*
X8958277Y-14738174D02*
X8977325Y-14728650D01*
X8977325Y-14728650D02*
X9015420Y-14728650D01*
X9015420Y-14728650D02*
X9034468Y-14738174D01*
X9034468Y-14738174D02*
X9043992Y-14757222D01*
X9043992Y-14757222D02*
X9043992Y-14776269D01*
X9043992Y-14776269D02*
X8948753Y-14795317D01*
X9120182Y-14852460D02*
X9139230Y-14861984D01*
X9139230Y-14861984D02*
X9177325Y-14861984D01*
X9177325Y-14861984D02*
X9196373Y-14852460D01*
X9196373Y-14852460D02*
X9205896Y-14833412D01*
X9205896Y-14833412D02*
X9205896Y-14823888D01*
X9205896Y-14823888D02*
X9196373Y-14804841D01*
X9196373Y-14804841D02*
X9177325Y-14795317D01*
X9177325Y-14795317D02*
X9148753Y-14795317D01*
X9148753Y-14795317D02*
X9129706Y-14785793D01*
X9129706Y-14785793D02*
X9120182Y-14766746D01*
X9120182Y-14766746D02*
X9120182Y-14757222D01*
X9120182Y-14757222D02*
X9129706Y-14738174D01*
X9129706Y-14738174D02*
X9148753Y-14728650D01*
X9148753Y-14728650D02*
X9177325Y-14728650D01*
X9177325Y-14728650D02*
X9196373Y-14738174D01*
X9272563Y-14938174D02*
X9282087Y-14928650D01*
X9282087Y-14928650D02*
X9301134Y-14900079D01*
X9301134Y-14900079D02*
X9310658Y-14881031D01*
X9310658Y-14881031D02*
X9320182Y-14852460D01*
X9320182Y-14852460D02*
X9329706Y-14804841D01*
X9329706Y-14804841D02*
X9329706Y-14766746D01*
X9329706Y-14766746D02*
X9320182Y-14719127D01*
X9320182Y-14719127D02*
X9310658Y-14690555D01*
X9310658Y-14690555D02*
X9301134Y-14671508D01*
X9301134Y-14671508D02*
X9282087Y-14642936D01*
X9282087Y-14642936D02*
X9272563Y-14633412D01*
D13*
X4475534Y-15087533D02*
X4475534Y-14981466D01*
X4369467Y-14981466D01*
X4369467Y-15087533D01*
X4475534Y-15087533D01*
D11*
X4863039Y-15125984D02*
X4748753Y-15125984D01*
X4805896Y-15125984D02*
X4805896Y-14925984D01*
X4805896Y-14925984D02*
X4786848Y-14954555D01*
X4786848Y-14954555D02*
X4767801Y-14973603D01*
X4767801Y-14973603D02*
X4748753Y-14983127D01*
X4948753Y-15106936D02*
X4958277Y-15116460D01*
X4958277Y-15116460D02*
X4948753Y-15125984D01*
X4948753Y-15125984D02*
X4939229Y-15116460D01*
X4939229Y-15116460D02*
X4948753Y-15106936D01*
X4948753Y-15106936D02*
X4948753Y-15125984D01*
X5139229Y-14925984D02*
X5043991Y-14925984D01*
X5043991Y-14925984D02*
X5034467Y-15021222D01*
X5034467Y-15021222D02*
X5043991Y-15011698D01*
X5043991Y-15011698D02*
X5063039Y-15002174D01*
X5063039Y-15002174D02*
X5110658Y-15002174D01*
X5110658Y-15002174D02*
X5129705Y-15011698D01*
X5129705Y-15011698D02*
X5139229Y-15021222D01*
X5139229Y-15021222D02*
X5148753Y-15040269D01*
X5148753Y-15040269D02*
X5148753Y-15087888D01*
X5148753Y-15087888D02*
X5139229Y-15106936D01*
X5139229Y-15106936D02*
X5129705Y-15116460D01*
X5129705Y-15116460D02*
X5110658Y-15125984D01*
X5110658Y-15125984D02*
X5063039Y-15125984D01*
X5063039Y-15125984D02*
X5043991Y-15116460D01*
X5043991Y-15116460D02*
X5034467Y-15106936D01*
X5272563Y-14925984D02*
X5291610Y-14925984D01*
X5291610Y-14925984D02*
X5310658Y-14935508D01*
X5310658Y-14935508D02*
X5320182Y-14945031D01*
X5320182Y-14945031D02*
X5329705Y-14964079D01*
X5329705Y-14964079D02*
X5339229Y-15002174D01*
X5339229Y-15002174D02*
X5339229Y-15049793D01*
X5339229Y-15049793D02*
X5329705Y-15087888D01*
X5329705Y-15087888D02*
X5320182Y-15106936D01*
X5320182Y-15106936D02*
X5310658Y-15116460D01*
X5310658Y-15116460D02*
X5291610Y-15125984D01*
X5291610Y-15125984D02*
X5272563Y-15125984D01*
X5272563Y-15125984D02*
X5253515Y-15116460D01*
X5253515Y-15116460D02*
X5243991Y-15106936D01*
X5243991Y-15106936D02*
X5234467Y-15087888D01*
X5234467Y-15087888D02*
X5224944Y-15049793D01*
X5224944Y-15049793D02*
X5224944Y-15002174D01*
X5224944Y-15002174D02*
X5234467Y-14964079D01*
X5234467Y-14964079D02*
X5243991Y-14945031D01*
X5243991Y-14945031D02*
X5253515Y-14935508D01*
X5253515Y-14935508D02*
X5272563Y-14925984D01*
X5463039Y-14925984D02*
X5482086Y-14925984D01*
X5482086Y-14925984D02*
X5501134Y-14935508D01*
X5501134Y-14935508D02*
X5510658Y-14945031D01*
X5510658Y-14945031D02*
X5520182Y-14964079D01*
X5520182Y-14964079D02*
X5529705Y-15002174D01*
X5529705Y-15002174D02*
X5529705Y-15049793D01*
X5529705Y-15049793D02*
X5520182Y-15087888D01*
X5520182Y-15087888D02*
X5510658Y-15106936D01*
X5510658Y-15106936D02*
X5501134Y-15116460D01*
X5501134Y-15116460D02*
X5482086Y-15125984D01*
X5482086Y-15125984D02*
X5463039Y-15125984D01*
X5463039Y-15125984D02*
X5443991Y-15116460D01*
X5443991Y-15116460D02*
X5434467Y-15106936D01*
X5434467Y-15106936D02*
X5424944Y-15087888D01*
X5424944Y-15087888D02*
X5415420Y-15049793D01*
X5415420Y-15049793D02*
X5415420Y-15002174D01*
X5415420Y-15002174D02*
X5424944Y-14964079D01*
X5424944Y-14964079D02*
X5434467Y-14945031D01*
X5434467Y-14945031D02*
X5443991Y-14935508D01*
X5443991Y-14935508D02*
X5463039Y-14925984D01*
X5615420Y-15125984D02*
X5615420Y-14992650D01*
X5615420Y-15011698D02*
X5624943Y-15002174D01*
X5624943Y-15002174D02*
X5643991Y-14992650D01*
X5643991Y-14992650D02*
X5672563Y-14992650D01*
X5672563Y-14992650D02*
X5691610Y-15002174D01*
X5691610Y-15002174D02*
X5701134Y-15021222D01*
X5701134Y-15021222D02*
X5701134Y-15125984D01*
X5701134Y-15021222D02*
X5710658Y-15002174D01*
X5710658Y-15002174D02*
X5729705Y-14992650D01*
X5729705Y-14992650D02*
X5758277Y-14992650D01*
X5758277Y-14992650D02*
X5777324Y-15002174D01*
X5777324Y-15002174D02*
X5786848Y-15021222D01*
X5786848Y-15021222D02*
X5786848Y-15125984D01*
X5882086Y-15125984D02*
X5882086Y-14992650D01*
X5882086Y-15011698D02*
X5891610Y-15002174D01*
X5891610Y-15002174D02*
X5910658Y-14992650D01*
X5910658Y-14992650D02*
X5939229Y-14992650D01*
X5939229Y-14992650D02*
X5958277Y-15002174D01*
X5958277Y-15002174D02*
X5967801Y-15021222D01*
X5967801Y-15021222D02*
X5967801Y-15125984D01*
X5967801Y-15021222D02*
X5977324Y-15002174D01*
X5977324Y-15002174D02*
X5996372Y-14992650D01*
X5996372Y-14992650D02*
X6024943Y-14992650D01*
X6024943Y-14992650D02*
X6043991Y-15002174D01*
X6043991Y-15002174D02*
X6053515Y-15021222D01*
X6053515Y-15021222D02*
X6053515Y-15125984D01*
X6443991Y-14916460D02*
X6272563Y-15173603D01*
X6701134Y-14925984D02*
X6720182Y-14925984D01*
X6720182Y-14925984D02*
X6739229Y-14935508D01*
X6739229Y-14935508D02*
X6748753Y-14945031D01*
X6748753Y-14945031D02*
X6758277Y-14964079D01*
X6758277Y-14964079D02*
X6767801Y-15002174D01*
X6767801Y-15002174D02*
X6767801Y-15049793D01*
X6767801Y-15049793D02*
X6758277Y-15087888D01*
X6758277Y-15087888D02*
X6748753Y-15106936D01*
X6748753Y-15106936D02*
X6739229Y-15116460D01*
X6739229Y-15116460D02*
X6720182Y-15125984D01*
X6720182Y-15125984D02*
X6701134Y-15125984D01*
X6701134Y-15125984D02*
X6682086Y-15116460D01*
X6682086Y-15116460D02*
X6672563Y-15106936D01*
X6672563Y-15106936D02*
X6663039Y-15087888D01*
X6663039Y-15087888D02*
X6653515Y-15049793D01*
X6653515Y-15049793D02*
X6653515Y-15002174D01*
X6653515Y-15002174D02*
X6663039Y-14964079D01*
X6663039Y-14964079D02*
X6672563Y-14945031D01*
X6672563Y-14945031D02*
X6682086Y-14935508D01*
X6682086Y-14935508D02*
X6701134Y-14925984D01*
X6853515Y-15106936D02*
X6863039Y-15116460D01*
X6863039Y-15116460D02*
X6853515Y-15125984D01*
X6853515Y-15125984D02*
X6843991Y-15116460D01*
X6843991Y-15116460D02*
X6853515Y-15106936D01*
X6853515Y-15106936D02*
X6853515Y-15125984D01*
X6986848Y-14925984D02*
X7005896Y-14925984D01*
X7005896Y-14925984D02*
X7024944Y-14935508D01*
X7024944Y-14935508D02*
X7034467Y-14945031D01*
X7034467Y-14945031D02*
X7043991Y-14964079D01*
X7043991Y-14964079D02*
X7053515Y-15002174D01*
X7053515Y-15002174D02*
X7053515Y-15049793D01*
X7053515Y-15049793D02*
X7043991Y-15087888D01*
X7043991Y-15087888D02*
X7034467Y-15106936D01*
X7034467Y-15106936D02*
X7024944Y-15116460D01*
X7024944Y-15116460D02*
X7005896Y-15125984D01*
X7005896Y-15125984D02*
X6986848Y-15125984D01*
X6986848Y-15125984D02*
X6967801Y-15116460D01*
X6967801Y-15116460D02*
X6958277Y-15106936D01*
X6958277Y-15106936D02*
X6948753Y-15087888D01*
X6948753Y-15087888D02*
X6939229Y-15049793D01*
X6939229Y-15049793D02*
X6939229Y-15002174D01*
X6939229Y-15002174D02*
X6948753Y-14964079D01*
X6948753Y-14964079D02*
X6958277Y-14945031D01*
X6958277Y-14945031D02*
X6967801Y-14935508D01*
X6967801Y-14935508D02*
X6986848Y-14925984D01*
X7234467Y-14925984D02*
X7139229Y-14925984D01*
X7139229Y-14925984D02*
X7129706Y-15021222D01*
X7129706Y-15021222D02*
X7139229Y-15011698D01*
X7139229Y-15011698D02*
X7158277Y-15002174D01*
X7158277Y-15002174D02*
X7205896Y-15002174D01*
X7205896Y-15002174D02*
X7224944Y-15011698D01*
X7224944Y-15011698D02*
X7234467Y-15021222D01*
X7234467Y-15021222D02*
X7243991Y-15040269D01*
X7243991Y-15040269D02*
X7243991Y-15087888D01*
X7243991Y-15087888D02*
X7234467Y-15106936D01*
X7234467Y-15106936D02*
X7224944Y-15116460D01*
X7224944Y-15116460D02*
X7205896Y-15125984D01*
X7205896Y-15125984D02*
X7158277Y-15125984D01*
X7158277Y-15125984D02*
X7139229Y-15116460D01*
X7139229Y-15116460D02*
X7129706Y-15106936D01*
X7339229Y-15125984D02*
X7377325Y-15125984D01*
X7377325Y-15125984D02*
X7396372Y-15116460D01*
X7396372Y-15116460D02*
X7405896Y-15106936D01*
X7405896Y-15106936D02*
X7424944Y-15078365D01*
X7424944Y-15078365D02*
X7434467Y-15040269D01*
X7434467Y-15040269D02*
X7434467Y-14964079D01*
X7434467Y-14964079D02*
X7424944Y-14945031D01*
X7424944Y-14945031D02*
X7415420Y-14935508D01*
X7415420Y-14935508D02*
X7396372Y-14925984D01*
X7396372Y-14925984D02*
X7358277Y-14925984D01*
X7358277Y-14925984D02*
X7339229Y-14935508D01*
X7339229Y-14935508D02*
X7329706Y-14945031D01*
X7329706Y-14945031D02*
X7320182Y-14964079D01*
X7320182Y-14964079D02*
X7320182Y-15011698D01*
X7320182Y-15011698D02*
X7329706Y-15030746D01*
X7329706Y-15030746D02*
X7339229Y-15040269D01*
X7339229Y-15040269D02*
X7358277Y-15049793D01*
X7358277Y-15049793D02*
X7396372Y-15049793D01*
X7396372Y-15049793D02*
X7415420Y-15040269D01*
X7415420Y-15040269D02*
X7424944Y-15030746D01*
X7424944Y-15030746D02*
X7434467Y-15011698D01*
X7624944Y-15125984D02*
X7510658Y-15125984D01*
X7567801Y-15125984D02*
X7567801Y-14925984D01*
X7567801Y-14925984D02*
X7548753Y-14954555D01*
X7548753Y-14954555D02*
X7529706Y-14973603D01*
X7529706Y-14973603D02*
X7510658Y-14983127D01*
X7701134Y-14925984D02*
X7701134Y-14964079D01*
X7777325Y-14925984D02*
X7777325Y-14964079D01*
X8072563Y-15202174D02*
X8063039Y-15192650D01*
X8063039Y-15192650D02*
X8043991Y-15164079D01*
X8043991Y-15164079D02*
X8034468Y-15145031D01*
X8034468Y-15145031D02*
X8024944Y-15116460D01*
X8024944Y-15116460D02*
X8015420Y-15068841D01*
X8015420Y-15068841D02*
X8015420Y-15030746D01*
X8015420Y-15030746D02*
X8024944Y-14983127D01*
X8024944Y-14983127D02*
X8034468Y-14954555D01*
X8034468Y-14954555D02*
X8043991Y-14935508D01*
X8043991Y-14935508D02*
X8063039Y-14906936D01*
X8063039Y-14906936D02*
X8072563Y-14897412D01*
X8129706Y-14925984D02*
X8263039Y-14925984D01*
X8263039Y-14925984D02*
X8177325Y-15125984D01*
X8491611Y-15125984D02*
X8491611Y-14925984D01*
X8577325Y-15125984D02*
X8577325Y-15021222D01*
X8577325Y-15021222D02*
X8567801Y-15002174D01*
X8567801Y-15002174D02*
X8548753Y-14992650D01*
X8548753Y-14992650D02*
X8520182Y-14992650D01*
X8520182Y-14992650D02*
X8501134Y-15002174D01*
X8501134Y-15002174D02*
X8491611Y-15011698D01*
X8701134Y-15125984D02*
X8682087Y-15116460D01*
X8682087Y-15116460D02*
X8672563Y-15106936D01*
X8672563Y-15106936D02*
X8663039Y-15087888D01*
X8663039Y-15087888D02*
X8663039Y-15030746D01*
X8663039Y-15030746D02*
X8672563Y-15011698D01*
X8672563Y-15011698D02*
X8682087Y-15002174D01*
X8682087Y-15002174D02*
X8701134Y-14992650D01*
X8701134Y-14992650D02*
X8729706Y-14992650D01*
X8729706Y-14992650D02*
X8748753Y-15002174D01*
X8748753Y-15002174D02*
X8758277Y-15011698D01*
X8758277Y-15011698D02*
X8767801Y-15030746D01*
X8767801Y-15030746D02*
X8767801Y-15087888D01*
X8767801Y-15087888D02*
X8758277Y-15106936D01*
X8758277Y-15106936D02*
X8748753Y-15116460D01*
X8748753Y-15116460D02*
X8729706Y-15125984D01*
X8729706Y-15125984D02*
X8701134Y-15125984D01*
X8882087Y-15125984D02*
X8863039Y-15116460D01*
X8863039Y-15116460D02*
X8853515Y-15097412D01*
X8853515Y-15097412D02*
X8853515Y-14925984D01*
X9034468Y-15116460D02*
X9015420Y-15125984D01*
X9015420Y-15125984D02*
X8977325Y-15125984D01*
X8977325Y-15125984D02*
X8958277Y-15116460D01*
X8958277Y-15116460D02*
X8948753Y-15097412D01*
X8948753Y-15097412D02*
X8948753Y-15021222D01*
X8948753Y-15021222D02*
X8958277Y-15002174D01*
X8958277Y-15002174D02*
X8977325Y-14992650D01*
X8977325Y-14992650D02*
X9015420Y-14992650D01*
X9015420Y-14992650D02*
X9034468Y-15002174D01*
X9034468Y-15002174D02*
X9043992Y-15021222D01*
X9043992Y-15021222D02*
X9043992Y-15040269D01*
X9043992Y-15040269D02*
X8948753Y-15059317D01*
X9120182Y-15116460D02*
X9139230Y-15125984D01*
X9139230Y-15125984D02*
X9177325Y-15125984D01*
X9177325Y-15125984D02*
X9196373Y-15116460D01*
X9196373Y-15116460D02*
X9205896Y-15097412D01*
X9205896Y-15097412D02*
X9205896Y-15087888D01*
X9205896Y-15087888D02*
X9196373Y-15068841D01*
X9196373Y-15068841D02*
X9177325Y-15059317D01*
X9177325Y-15059317D02*
X9148753Y-15059317D01*
X9148753Y-15059317D02*
X9129706Y-15049793D01*
X9129706Y-15049793D02*
X9120182Y-15030746D01*
X9120182Y-15030746D02*
X9120182Y-15021222D01*
X9120182Y-15021222D02*
X9129706Y-15002174D01*
X9129706Y-15002174D02*
X9148753Y-14992650D01*
X9148753Y-14992650D02*
X9177325Y-14992650D01*
X9177325Y-14992650D02*
X9196373Y-15002174D01*
X9272563Y-15202174D02*
X9282087Y-15192650D01*
X9282087Y-15192650D02*
X9301134Y-15164079D01*
X9301134Y-15164079D02*
X9310658Y-15145031D01*
X9310658Y-15145031D02*
X9320182Y-15116460D01*
X9320182Y-15116460D02*
X9329706Y-15068841D01*
X9329706Y-15068841D02*
X9329706Y-15030746D01*
X9329706Y-15030746D02*
X9320182Y-14983127D01*
X9320182Y-14983127D02*
X9310658Y-14954555D01*
X9310658Y-14954555D02*
X9301134Y-14935508D01*
X9301134Y-14935508D02*
X9282087Y-14906936D01*
X9282087Y-14906936D02*
X9272563Y-14897412D01*
X4397500Y-15404500D02*
X4497500Y-15304500D01*
X4397500Y-15204500D01*
X4297500Y-15304500D01*
X4397500Y-15404500D01*
X4843991Y-15262650D02*
X4843991Y-15395984D01*
X4796372Y-15186460D02*
X4748753Y-15329317D01*
X4748753Y-15329317D02*
X4872563Y-15329317D01*
X4948753Y-15376936D02*
X4958277Y-15386460D01*
X4958277Y-15386460D02*
X4948753Y-15395984D01*
X4948753Y-15395984D02*
X4939229Y-15386460D01*
X4939229Y-15386460D02*
X4948753Y-15376936D01*
X4948753Y-15376936D02*
X4948753Y-15395984D01*
X5082086Y-15195984D02*
X5101134Y-15195984D01*
X5101134Y-15195984D02*
X5120182Y-15205508D01*
X5120182Y-15205508D02*
X5129705Y-15215031D01*
X5129705Y-15215031D02*
X5139229Y-15234079D01*
X5139229Y-15234079D02*
X5148753Y-15272174D01*
X5148753Y-15272174D02*
X5148753Y-15319793D01*
X5148753Y-15319793D02*
X5139229Y-15357888D01*
X5139229Y-15357888D02*
X5129705Y-15376936D01*
X5129705Y-15376936D02*
X5120182Y-15386460D01*
X5120182Y-15386460D02*
X5101134Y-15395984D01*
X5101134Y-15395984D02*
X5082086Y-15395984D01*
X5082086Y-15395984D02*
X5063039Y-15386460D01*
X5063039Y-15386460D02*
X5053515Y-15376936D01*
X5053515Y-15376936D02*
X5043991Y-15357888D01*
X5043991Y-15357888D02*
X5034467Y-15319793D01*
X5034467Y-15319793D02*
X5034467Y-15272174D01*
X5034467Y-15272174D02*
X5043991Y-15234079D01*
X5043991Y-15234079D02*
X5053515Y-15215031D01*
X5053515Y-15215031D02*
X5063039Y-15205508D01*
X5063039Y-15205508D02*
X5082086Y-15195984D01*
X5272563Y-15195984D02*
X5291610Y-15195984D01*
X5291610Y-15195984D02*
X5310658Y-15205508D01*
X5310658Y-15205508D02*
X5320182Y-15215031D01*
X5320182Y-15215031D02*
X5329705Y-15234079D01*
X5329705Y-15234079D02*
X5339229Y-15272174D01*
X5339229Y-15272174D02*
X5339229Y-15319793D01*
X5339229Y-15319793D02*
X5329705Y-15357888D01*
X5329705Y-15357888D02*
X5320182Y-15376936D01*
X5320182Y-15376936D02*
X5310658Y-15386460D01*
X5310658Y-15386460D02*
X5291610Y-15395984D01*
X5291610Y-15395984D02*
X5272563Y-15395984D01*
X5272563Y-15395984D02*
X5253515Y-15386460D01*
X5253515Y-15386460D02*
X5243991Y-15376936D01*
X5243991Y-15376936D02*
X5234467Y-15357888D01*
X5234467Y-15357888D02*
X5224944Y-15319793D01*
X5224944Y-15319793D02*
X5224944Y-15272174D01*
X5224944Y-15272174D02*
X5234467Y-15234079D01*
X5234467Y-15234079D02*
X5243991Y-15215031D01*
X5243991Y-15215031D02*
X5253515Y-15205508D01*
X5253515Y-15205508D02*
X5272563Y-15195984D01*
X5463039Y-15195984D02*
X5482086Y-15195984D01*
X5482086Y-15195984D02*
X5501134Y-15205508D01*
X5501134Y-15205508D02*
X5510658Y-15215031D01*
X5510658Y-15215031D02*
X5520182Y-15234079D01*
X5520182Y-15234079D02*
X5529705Y-15272174D01*
X5529705Y-15272174D02*
X5529705Y-15319793D01*
X5529705Y-15319793D02*
X5520182Y-15357888D01*
X5520182Y-15357888D02*
X5510658Y-15376936D01*
X5510658Y-15376936D02*
X5501134Y-15386460D01*
X5501134Y-15386460D02*
X5482086Y-15395984D01*
X5482086Y-15395984D02*
X5463039Y-15395984D01*
X5463039Y-15395984D02*
X5443991Y-15386460D01*
X5443991Y-15386460D02*
X5434467Y-15376936D01*
X5434467Y-15376936D02*
X5424944Y-15357888D01*
X5424944Y-15357888D02*
X5415420Y-15319793D01*
X5415420Y-15319793D02*
X5415420Y-15272174D01*
X5415420Y-15272174D02*
X5424944Y-15234079D01*
X5424944Y-15234079D02*
X5434467Y-15215031D01*
X5434467Y-15215031D02*
X5443991Y-15205508D01*
X5443991Y-15205508D02*
X5463039Y-15195984D01*
X5615420Y-15395984D02*
X5615420Y-15262650D01*
X5615420Y-15281698D02*
X5624943Y-15272174D01*
X5624943Y-15272174D02*
X5643991Y-15262650D01*
X5643991Y-15262650D02*
X5672563Y-15262650D01*
X5672563Y-15262650D02*
X5691610Y-15272174D01*
X5691610Y-15272174D02*
X5701134Y-15291222D01*
X5701134Y-15291222D02*
X5701134Y-15395984D01*
X5701134Y-15291222D02*
X5710658Y-15272174D01*
X5710658Y-15272174D02*
X5729705Y-15262650D01*
X5729705Y-15262650D02*
X5758277Y-15262650D01*
X5758277Y-15262650D02*
X5777324Y-15272174D01*
X5777324Y-15272174D02*
X5786848Y-15291222D01*
X5786848Y-15291222D02*
X5786848Y-15395984D01*
X5882086Y-15395984D02*
X5882086Y-15262650D01*
X5882086Y-15281698D02*
X5891610Y-15272174D01*
X5891610Y-15272174D02*
X5910658Y-15262650D01*
X5910658Y-15262650D02*
X5939229Y-15262650D01*
X5939229Y-15262650D02*
X5958277Y-15272174D01*
X5958277Y-15272174D02*
X5967801Y-15291222D01*
X5967801Y-15291222D02*
X5967801Y-15395984D01*
X5967801Y-15291222D02*
X5977324Y-15272174D01*
X5977324Y-15272174D02*
X5996372Y-15262650D01*
X5996372Y-15262650D02*
X6024943Y-15262650D01*
X6024943Y-15262650D02*
X6043991Y-15272174D01*
X6043991Y-15272174D02*
X6053515Y-15291222D01*
X6053515Y-15291222D02*
X6053515Y-15395984D01*
X6443991Y-15186460D02*
X6272563Y-15443603D01*
X6701134Y-15195984D02*
X6720182Y-15195984D01*
X6720182Y-15195984D02*
X6739229Y-15205508D01*
X6739229Y-15205508D02*
X6748753Y-15215031D01*
X6748753Y-15215031D02*
X6758277Y-15234079D01*
X6758277Y-15234079D02*
X6767801Y-15272174D01*
X6767801Y-15272174D02*
X6767801Y-15319793D01*
X6767801Y-15319793D02*
X6758277Y-15357888D01*
X6758277Y-15357888D02*
X6748753Y-15376936D01*
X6748753Y-15376936D02*
X6739229Y-15386460D01*
X6739229Y-15386460D02*
X6720182Y-15395984D01*
X6720182Y-15395984D02*
X6701134Y-15395984D01*
X6701134Y-15395984D02*
X6682086Y-15386460D01*
X6682086Y-15386460D02*
X6672563Y-15376936D01*
X6672563Y-15376936D02*
X6663039Y-15357888D01*
X6663039Y-15357888D02*
X6653515Y-15319793D01*
X6653515Y-15319793D02*
X6653515Y-15272174D01*
X6653515Y-15272174D02*
X6663039Y-15234079D01*
X6663039Y-15234079D02*
X6672563Y-15215031D01*
X6672563Y-15215031D02*
X6682086Y-15205508D01*
X6682086Y-15205508D02*
X6701134Y-15195984D01*
X6853515Y-15376936D02*
X6863039Y-15386460D01*
X6863039Y-15386460D02*
X6853515Y-15395984D01*
X6853515Y-15395984D02*
X6843991Y-15386460D01*
X6843991Y-15386460D02*
X6853515Y-15376936D01*
X6853515Y-15376936D02*
X6853515Y-15395984D01*
X7053515Y-15395984D02*
X6939229Y-15395984D01*
X6996372Y-15395984D02*
X6996372Y-15195984D01*
X6996372Y-15195984D02*
X6977325Y-15224555D01*
X6977325Y-15224555D02*
X6958277Y-15243603D01*
X6958277Y-15243603D02*
X6939229Y-15253127D01*
X7234467Y-15195984D02*
X7139229Y-15195984D01*
X7139229Y-15195984D02*
X7129706Y-15291222D01*
X7129706Y-15291222D02*
X7139229Y-15281698D01*
X7139229Y-15281698D02*
X7158277Y-15272174D01*
X7158277Y-15272174D02*
X7205896Y-15272174D01*
X7205896Y-15272174D02*
X7224944Y-15281698D01*
X7224944Y-15281698D02*
X7234467Y-15291222D01*
X7234467Y-15291222D02*
X7243991Y-15310269D01*
X7243991Y-15310269D02*
X7243991Y-15357888D01*
X7243991Y-15357888D02*
X7234467Y-15376936D01*
X7234467Y-15376936D02*
X7224944Y-15386460D01*
X7224944Y-15386460D02*
X7205896Y-15395984D01*
X7205896Y-15395984D02*
X7158277Y-15395984D01*
X7158277Y-15395984D02*
X7139229Y-15386460D01*
X7139229Y-15386460D02*
X7129706Y-15376936D01*
X7310658Y-15195984D02*
X7443991Y-15195984D01*
X7443991Y-15195984D02*
X7358277Y-15395984D01*
X7615420Y-15195984D02*
X7520182Y-15195984D01*
X7520182Y-15195984D02*
X7510658Y-15291222D01*
X7510658Y-15291222D02*
X7520182Y-15281698D01*
X7520182Y-15281698D02*
X7539229Y-15272174D01*
X7539229Y-15272174D02*
X7586848Y-15272174D01*
X7586848Y-15272174D02*
X7605896Y-15281698D01*
X7605896Y-15281698D02*
X7615420Y-15291222D01*
X7615420Y-15291222D02*
X7624944Y-15310269D01*
X7624944Y-15310269D02*
X7624944Y-15357888D01*
X7624944Y-15357888D02*
X7615420Y-15376936D01*
X7615420Y-15376936D02*
X7605896Y-15386460D01*
X7605896Y-15386460D02*
X7586848Y-15395984D01*
X7586848Y-15395984D02*
X7539229Y-15395984D01*
X7539229Y-15395984D02*
X7520182Y-15386460D01*
X7520182Y-15386460D02*
X7510658Y-15376936D01*
X7701134Y-15195984D02*
X7701134Y-15234079D01*
X7777325Y-15195984D02*
X7777325Y-15234079D01*
X8072563Y-15472174D02*
X8063039Y-15462650D01*
X8063039Y-15462650D02*
X8043991Y-15434079D01*
X8043991Y-15434079D02*
X8034468Y-15415031D01*
X8034468Y-15415031D02*
X8024944Y-15386460D01*
X8024944Y-15386460D02*
X8015420Y-15338841D01*
X8015420Y-15338841D02*
X8015420Y-15300746D01*
X8015420Y-15300746D02*
X8024944Y-15253127D01*
X8024944Y-15253127D02*
X8034468Y-15224555D01*
X8034468Y-15224555D02*
X8043991Y-15205508D01*
X8043991Y-15205508D02*
X8063039Y-15176936D01*
X8063039Y-15176936D02*
X8072563Y-15167412D01*
X8243991Y-15195984D02*
X8148753Y-15195984D01*
X8148753Y-15195984D02*
X8139229Y-15291222D01*
X8139229Y-15291222D02*
X8148753Y-15281698D01*
X8148753Y-15281698D02*
X8167801Y-15272174D01*
X8167801Y-15272174D02*
X8215420Y-15272174D01*
X8215420Y-15272174D02*
X8234468Y-15281698D01*
X8234468Y-15281698D02*
X8243991Y-15291222D01*
X8243991Y-15291222D02*
X8253515Y-15310269D01*
X8253515Y-15310269D02*
X8253515Y-15357888D01*
X8253515Y-15357888D02*
X8243991Y-15376936D01*
X8243991Y-15376936D02*
X8234468Y-15386460D01*
X8234468Y-15386460D02*
X8215420Y-15395984D01*
X8215420Y-15395984D02*
X8167801Y-15395984D01*
X8167801Y-15395984D02*
X8148753Y-15386460D01*
X8148753Y-15386460D02*
X8139229Y-15376936D01*
X8491611Y-15395984D02*
X8491611Y-15195984D01*
X8577325Y-15395984D02*
X8577325Y-15291222D01*
X8577325Y-15291222D02*
X8567801Y-15272174D01*
X8567801Y-15272174D02*
X8548753Y-15262650D01*
X8548753Y-15262650D02*
X8520182Y-15262650D01*
X8520182Y-15262650D02*
X8501134Y-15272174D01*
X8501134Y-15272174D02*
X8491611Y-15281698D01*
X8701134Y-15395984D02*
X8682087Y-15386460D01*
X8682087Y-15386460D02*
X8672563Y-15376936D01*
X8672563Y-15376936D02*
X8663039Y-15357888D01*
X8663039Y-15357888D02*
X8663039Y-15300746D01*
X8663039Y-15300746D02*
X8672563Y-15281698D01*
X8672563Y-15281698D02*
X8682087Y-15272174D01*
X8682087Y-15272174D02*
X8701134Y-15262650D01*
X8701134Y-15262650D02*
X8729706Y-15262650D01*
X8729706Y-15262650D02*
X8748753Y-15272174D01*
X8748753Y-15272174D02*
X8758277Y-15281698D01*
X8758277Y-15281698D02*
X8767801Y-15300746D01*
X8767801Y-15300746D02*
X8767801Y-15357888D01*
X8767801Y-15357888D02*
X8758277Y-15376936D01*
X8758277Y-15376936D02*
X8748753Y-15386460D01*
X8748753Y-15386460D02*
X8729706Y-15395984D01*
X8729706Y-15395984D02*
X8701134Y-15395984D01*
X8882087Y-15395984D02*
X8863039Y-15386460D01*
X8863039Y-15386460D02*
X8853515Y-15367412D01*
X8853515Y-15367412D02*
X8853515Y-15195984D01*
X9034468Y-15386460D02*
X9015420Y-15395984D01*
X9015420Y-15395984D02*
X8977325Y-15395984D01*
X8977325Y-15395984D02*
X8958277Y-15386460D01*
X8958277Y-15386460D02*
X8948753Y-15367412D01*
X8948753Y-15367412D02*
X8948753Y-15291222D01*
X8948753Y-15291222D02*
X8958277Y-15272174D01*
X8958277Y-15272174D02*
X8977325Y-15262650D01*
X8977325Y-15262650D02*
X9015420Y-15262650D01*
X9015420Y-15262650D02*
X9034468Y-15272174D01*
X9034468Y-15272174D02*
X9043992Y-15291222D01*
X9043992Y-15291222D02*
X9043992Y-15310269D01*
X9043992Y-15310269D02*
X8948753Y-15329317D01*
X9120182Y-15386460D02*
X9139230Y-15395984D01*
X9139230Y-15395984D02*
X9177325Y-15395984D01*
X9177325Y-15395984D02*
X9196373Y-15386460D01*
X9196373Y-15386460D02*
X9205896Y-15367412D01*
X9205896Y-15367412D02*
X9205896Y-15357888D01*
X9205896Y-15357888D02*
X9196373Y-15338841D01*
X9196373Y-15338841D02*
X9177325Y-15329317D01*
X9177325Y-15329317D02*
X9148753Y-15329317D01*
X9148753Y-15329317D02*
X9129706Y-15319793D01*
X9129706Y-15319793D02*
X9120182Y-15300746D01*
X9120182Y-15300746D02*
X9120182Y-15291222D01*
X9120182Y-15291222D02*
X9129706Y-15272174D01*
X9129706Y-15272174D02*
X9148753Y-15262650D01*
X9148753Y-15262650D02*
X9177325Y-15262650D01*
X9177325Y-15262650D02*
X9196373Y-15272174D01*
X9272563Y-15472174D02*
X9282087Y-15462650D01*
X9282087Y-15462650D02*
X9301134Y-15434079D01*
X9301134Y-15434079D02*
X9310658Y-15415031D01*
X9310658Y-15415031D02*
X9320182Y-15386460D01*
X9320182Y-15386460D02*
X9329706Y-15338841D01*
X9329706Y-15338841D02*
X9329706Y-15300746D01*
X9329706Y-15300746D02*
X9320182Y-15253127D01*
X9320182Y-15253127D02*
X9310658Y-15224555D01*
X9310658Y-15224555D02*
X9301134Y-15205508D01*
X9301134Y-15205508D02*
X9282087Y-15176936D01*
X9282087Y-15176936D02*
X9272563Y-15167412D01*
M02*
