%TF.GenerationSoftware,KiCad,Pcbnew,8.0.8*%
%TF.CreationDate,2025-04-07T17:27:46+02:00*%
%TF.ProjectId,PCB_V1,5043425f-5631-42e6-9b69-6361645f7063,rev?*%
%TF.SameCoordinates,Original*%
%TF.FileFunction,Soldermask,Top*%
%TF.FilePolarity,Negative*%
%FSLAX46Y46*%
G04 Gerber Fmt 4.6, Leading zero omitted, Abs format (unit mm)*
G04 Created by KiCad (PCBNEW 8.0.8) date 2025-04-07 17:27:46*
%MOMM*%
%LPD*%
G01*
G04 APERTURE LIST*
G04 Aperture macros list*
%AMRoundRect*
0 Rectangle with rounded corners*
0 $1 Rounding radius*
0 $2 $3 $4 $5 $6 $7 $8 $9 X,Y pos of 4 corners*
0 Add a 4 corners polygon primitive as box body*
4,1,4,$2,$3,$4,$5,$6,$7,$8,$9,$2,$3,0*
0 Add four circle primitives for the rounded corners*
1,1,$1+$1,$2,$3*
1,1,$1+$1,$4,$5*
1,1,$1+$1,$6,$7*
1,1,$1+$1,$8,$9*
0 Add four rect primitives between the rounded corners*
20,1,$1+$1,$2,$3,$4,$5,0*
20,1,$1+$1,$4,$5,$6,$7,0*
20,1,$1+$1,$6,$7,$8,$9,0*
20,1,$1+$1,$8,$9,$2,$3,0*%
%AMFreePoly0*
4,1,6,0.500000,-0.750000,-0.650000,-0.750000,-0.150000,0.000000,-0.650000,0.750000,0.500000,0.750000,0.500000,-0.750000,0.500000,-0.750000,$1*%
%AMFreePoly1*
4,1,6,1.000000,0.000000,0.500000,-0.750000,-0.500000,-0.750000,-0.500000,0.750000,0.500000,0.750000,1.000000,0.000000,1.000000,0.000000,$1*%
G04 Aperture macros list end*
%ADD10RoundRect,0.135000X0.135000X0.185000X-0.135000X0.185000X-0.135000X-0.185000X0.135000X-0.185000X0*%
%ADD11RoundRect,0.218750X-0.218750X-0.256250X0.218750X-0.256250X0.218750X0.256250X-0.218750X0.256250X0*%
%ADD12C,2.250000*%
%ADD13FreePoly0,90.000000*%
%ADD14FreePoly1,90.000000*%
%ADD15FreePoly1,270.000000*%
%ADD16FreePoly0,270.000000*%
%ADD17RoundRect,0.225000X0.225000X0.250000X-0.225000X0.250000X-0.225000X-0.250000X0.225000X-0.250000X0*%
%ADD18C,4.400000*%
%ADD19C,8.000000*%
%ADD20RoundRect,0.150000X-0.512500X-0.150000X0.512500X-0.150000X0.512500X0.150000X-0.512500X0.150000X0*%
%ADD21RoundRect,0.225000X-0.017678X0.335876X-0.335876X0.017678X0.017678X-0.335876X0.335876X-0.017678X0*%
%ADD22RoundRect,0.135000X-0.185000X0.135000X-0.185000X-0.135000X0.185000X-0.135000X0.185000X0.135000X0*%
%ADD23RoundRect,0.250000X0.600000X0.750000X-0.600000X0.750000X-0.600000X-0.750000X0.600000X-0.750000X0*%
%ADD24O,1.700000X2.000000*%
%ADD25RoundRect,0.140000X-0.140000X-0.170000X0.140000X-0.170000X0.140000X0.170000X-0.140000X0.170000X0*%
%ADD26RoundRect,0.135000X-0.135000X-0.185000X0.135000X-0.185000X0.135000X0.185000X-0.135000X0.185000X0*%
%ADD27C,2.000000*%
%ADD28RoundRect,0.135000X0.185000X-0.135000X0.185000X0.135000X-0.185000X0.135000X-0.185000X-0.135000X0*%
%ADD29RoundRect,0.225000X-0.250000X0.225000X-0.250000X-0.225000X0.250000X-0.225000X0.250000X0.225000X0*%
%ADD30RoundRect,0.250000X0.600000X0.725000X-0.600000X0.725000X-0.600000X-0.725000X0.600000X-0.725000X0*%
%ADD31O,1.700000X1.950000*%
%ADD32RoundRect,0.140000X0.140000X0.170000X-0.140000X0.170000X-0.140000X-0.170000X0.140000X-0.170000X0*%
%ADD33RoundRect,0.250000X0.725000X-0.600000X0.725000X0.600000X-0.725000X0.600000X-0.725000X-0.600000X0*%
%ADD34O,1.950000X1.700000*%
%ADD35RoundRect,0.125000X-0.125000X-0.625000X0.125000X-0.625000X0.125000X0.625000X-0.125000X0.625000X0*%
%ADD36RoundRect,0.125000X-0.625000X-0.125000X0.625000X-0.125000X0.625000X0.125000X-0.625000X0.125000X0*%
%ADD37RoundRect,0.150000X0.150000X-0.825000X0.150000X0.825000X-0.150000X0.825000X-0.150000X-0.825000X0*%
%ADD38RoundRect,0.250000X-0.750000X0.400000X-0.750000X-0.400000X0.750000X-0.400000X0.750000X0.400000X0*%
%ADD39RoundRect,0.250000X-0.750000X0.750000X-0.750000X-0.750000X0.750000X-0.750000X0.750000X0.750000X0*%
%ADD40R,2.400000X0.740000*%
%ADD41RoundRect,0.140000X-0.021213X0.219203X-0.219203X0.021213X0.021213X-0.219203X0.219203X-0.021213X0*%
%ADD42RoundRect,0.250000X-0.600000X-0.725000X0.600000X-0.725000X0.600000X0.725000X-0.600000X0.725000X0*%
%ADD43RoundRect,0.140000X0.021213X-0.219203X0.219203X-0.021213X-0.021213X0.219203X-0.219203X0.021213X0*%
G04 APERTURE END LIST*
D10*
%TO.C,R11*%
X68260000Y-79500000D03*
X67240000Y-79500000D03*
%TD*%
%TO.C,R1*%
X68250000Y-75500000D03*
X67230000Y-75500000D03*
%TD*%
D11*
%TO.C,D2*%
X67292500Y-77720000D03*
X68867500Y-77720000D03*
%TD*%
D12*
%TO.C,J8*%
X100500000Y-58000000D03*
X108000000Y-58000000D03*
X115500000Y-58000000D03*
X103000000Y-60500000D03*
X113000000Y-60500000D03*
X103000000Y-48000000D03*
X113000000Y-48000000D03*
%TD*%
D11*
%TO.C,D1*%
X68740000Y-73750000D03*
X67165000Y-73750000D03*
%TD*%
D13*
%TO.C,JP2*%
X99000000Y-67275000D03*
D14*
X99000000Y-68725000D03*
%TD*%
D15*
%TO.C,JP1*%
X95500000Y-67275000D03*
D16*
X95500000Y-68725000D03*
%TD*%
D17*
%TO.C,C5*%
X71550000Y-95990000D03*
X73100000Y-95990000D03*
%TD*%
D18*
%TO.C,H3*%
X88000000Y-49000000D03*
D19*
X88000000Y-49000000D03*
%TD*%
D20*
%TO.C,Q2*%
X75275000Y-76350000D03*
X73000000Y-77300000D03*
X73000000Y-75400000D03*
%TD*%
D21*
%TO.C,C2*%
X75976992Y-94138008D03*
X77073008Y-93041992D03*
%TD*%
D22*
%TO.C,R10*%
X95500000Y-70795000D03*
X95500000Y-71815000D03*
%TD*%
%TO.C,R2*%
X74000000Y-122490000D03*
X74000000Y-123510000D03*
%TD*%
D20*
%TO.C,U3*%
X81337500Y-63050000D03*
X81337500Y-64950000D03*
X79062500Y-64950000D03*
X79062500Y-64000000D03*
X79062500Y-63050000D03*
%TD*%
D23*
%TO.C,J4*%
X79000000Y-58750000D03*
D24*
X76500000Y-58750000D03*
%TD*%
D25*
%TO.C,C1*%
X63480000Y-110200000D03*
X62520000Y-110200000D03*
%TD*%
D22*
%TO.C,R5*%
X65250000Y-119740000D03*
X65250000Y-120760000D03*
%TD*%
D26*
%TO.C,R3*%
X62690000Y-121200000D03*
X63710000Y-121200000D03*
%TD*%
%TO.C,R6*%
X63715000Y-119875000D03*
X62695000Y-119875000D03*
%TD*%
D11*
%TO.C,L1*%
X73112500Y-97590000D03*
X71537500Y-97590000D03*
%TD*%
D18*
%TO.C,H4*%
X110000000Y-131000000D03*
D19*
X110000000Y-131000000D03*
%TD*%
D20*
%TO.C,Q1*%
X73000000Y-71100000D03*
X73000000Y-73000000D03*
X75275000Y-72050000D03*
%TD*%
D10*
%TO.C,R8*%
X109510000Y-119000000D03*
X108490000Y-119000000D03*
%TD*%
%TO.C,R7*%
X109510000Y-116500000D03*
X108490000Y-116500000D03*
%TD*%
D27*
%TO.C,TP2*%
X56500000Y-122500000D03*
%TD*%
D18*
%TO.C,H1*%
X58000000Y-49000000D03*
D19*
X58000000Y-49000000D03*
%TD*%
D23*
%TO.C,J5*%
X69000000Y-58750000D03*
D24*
X66500000Y-58750000D03*
%TD*%
D28*
%TO.C,R4*%
X66885000Y-120735000D03*
X66885000Y-119715000D03*
%TD*%
D29*
%TO.C,Cout1*%
X83150000Y-64875000D03*
X83150000Y-63325000D03*
%TD*%
D27*
%TO.C,TP1*%
X56500000Y-119000000D03*
%TD*%
D30*
%TO.C,J7*%
X98000000Y-129800000D03*
D31*
X95500000Y-129800000D03*
X93000000Y-129800000D03*
X90500000Y-129800000D03*
X88000000Y-129800000D03*
X85500000Y-129800000D03*
X83000000Y-129800000D03*
%TD*%
D32*
%TO.C,C6*%
X71945000Y-94090000D03*
X72905000Y-94090000D03*
%TD*%
D33*
%TO.C,J1*%
X115975000Y-119000000D03*
D34*
X115975000Y-116500000D03*
X115975000Y-114000000D03*
%TD*%
D35*
%TO.C,U1*%
X68025000Y-83615000D03*
X68825000Y-83615000D03*
X69625000Y-83615000D03*
X70425000Y-83615000D03*
X71225000Y-83615000D03*
X72025000Y-83615000D03*
X72825000Y-83615000D03*
X73625000Y-83615000D03*
D36*
X75000000Y-84990000D03*
X75000000Y-85790000D03*
X75000000Y-86590000D03*
X75000000Y-87390000D03*
X75000000Y-88190000D03*
X75000000Y-88990000D03*
X75000000Y-89790000D03*
X75000000Y-90590000D03*
D35*
X73625000Y-91965000D03*
X72825000Y-91965000D03*
X72025000Y-91965000D03*
X71225000Y-91965000D03*
X70425000Y-91965000D03*
X69625000Y-91965000D03*
X68825000Y-91965000D03*
X68025000Y-91965000D03*
D36*
X66650000Y-90590000D03*
X66650000Y-89790000D03*
X66650000Y-88990000D03*
X66650000Y-88190000D03*
X66650000Y-87390000D03*
X66650000Y-86590000D03*
X66650000Y-85790000D03*
X66650000Y-84990000D03*
%TD*%
D18*
%TO.C,H5*%
X110000000Y-74000000D03*
D19*
X110000000Y-74000000D03*
%TD*%
D34*
%TO.C,J8_afficheur1*%
X116000000Y-84000000D03*
X116000000Y-86500000D03*
X116000000Y-89000000D03*
X116000000Y-91500000D03*
X116000000Y-94000000D03*
X116000000Y-96500000D03*
X116000000Y-99000000D03*
X116000000Y-101500000D03*
X116000000Y-104000000D03*
D33*
X116000000Y-106500000D03*
%TD*%
D37*
%TO.C,U2*%
X62460000Y-117250000D03*
X63730000Y-117250000D03*
X65000000Y-117250000D03*
X66270000Y-117250000D03*
X66270000Y-112300000D03*
X65000000Y-112300000D03*
X63730000Y-112300000D03*
X62460000Y-112300000D03*
%TD*%
D38*
%TO.C,RV1*%
X75000000Y-117850000D03*
D39*
X71000000Y-119000000D03*
D38*
X75000000Y-120150000D03*
%TD*%
D29*
%TO.C,Cin1*%
X77250000Y-63225000D03*
X77250000Y-64775000D03*
%TD*%
D18*
%TO.C,H2*%
X50000000Y-131000000D03*
D19*
X50000000Y-131000000D03*
%TD*%
D40*
%TO.C,J3*%
X80775000Y-79380000D03*
X84675000Y-79380000D03*
X80775000Y-80650000D03*
X84675000Y-80650000D03*
X80775000Y-81920000D03*
X84675000Y-81920000D03*
X80775000Y-83190000D03*
X84675000Y-83190000D03*
X80775000Y-84460000D03*
X84675000Y-84460000D03*
X80775000Y-85730000D03*
X84675000Y-85730000D03*
X80775000Y-87000000D03*
X84675000Y-87000000D03*
%TD*%
D41*
%TO.C,C4*%
X74985589Y-92629411D03*
X75664411Y-91950589D03*
%TD*%
D28*
%TO.C,R9*%
X99000000Y-71795000D03*
X99000000Y-70775000D03*
%TD*%
D42*
%TO.C,J2*%
X65500000Y-130000000D03*
D31*
X68000000Y-130000000D03*
X70500000Y-130000000D03*
%TD*%
D43*
%TO.C,C3*%
X66664411Y-82950589D03*
X65985589Y-83629411D03*
%TD*%
M02*
