%TF.GenerationSoftware,KiCad,Pcbnew,8.0.8*%
%TF.CreationDate,2025-04-28T15:07:46+02:00*%
%TF.ProjectId,PCB_V1,5043425f-5631-42e6-9b69-6361645f7063,rev?*%
%TF.SameCoordinates,Original*%
%TF.FileFunction,Paste,Top*%
%TF.FilePolarity,Positive*%
%FSLAX46Y46*%
G04 Gerber Fmt 4.6, Leading zero omitted, Abs format (unit mm)*
G04 Created by KiCad (PCBNEW 8.0.8) date 2025-04-28 15:07:46*
%MOMM*%
%LPD*%
G01*
G04 APERTURE LIST*
G04 Aperture macros list*
%AMRoundRect*
0 Rectangle with rounded corners*
0 $1 Rounding radius*
0 $2 $3 $4 $5 $6 $7 $8 $9 X,Y pos of 4 corners*
0 Add a 4 corners polygon primitive as box body*
4,1,4,$2,$3,$4,$5,$6,$7,$8,$9,$2,$3,0*
0 Add four circle primitives for the rounded corners*
1,1,$1+$1,$2,$3*
1,1,$1+$1,$4,$5*
1,1,$1+$1,$6,$7*
1,1,$1+$1,$8,$9*
0 Add four rect primitives between the rounded corners*
20,1,$1+$1,$2,$3,$4,$5,0*
20,1,$1+$1,$4,$5,$6,$7,0*
20,1,$1+$1,$6,$7,$8,$9,0*
20,1,$1+$1,$8,$9,$2,$3,0*%
G04 Aperture macros list end*
%ADD10RoundRect,0.157500X0.157500X0.175000X-0.157500X0.175000X-0.157500X-0.175000X0.157500X-0.175000X0*%
%ADD11RoundRect,0.105000X-0.358750X-0.105000X0.358750X-0.105000X0.358750X0.105000X-0.358750X0.105000X0*%
%ADD12RoundRect,0.153125X-0.153125X-0.179375X0.153125X-0.179375X0.153125X0.179375X-0.153125X0.179375X0*%
%ADD13RoundRect,0.157500X-0.012374X0.235113X-0.235113X0.012374X0.012374X-0.235113X0.235113X-0.012374X0*%
%ADD14RoundRect,0.094500X-0.129500X0.094500X-0.129500X-0.094500X0.129500X-0.094500X0.129500X0.094500X0*%
%ADD15RoundRect,0.094500X0.094500X0.129500X-0.094500X0.129500X-0.094500X-0.129500X0.094500X-0.129500X0*%
%ADD16RoundRect,0.098000X-0.098000X-0.119000X0.098000X-0.119000X0.098000X0.119000X-0.098000X0.119000X0*%
%ADD17RoundRect,0.094500X-0.094500X-0.129500X0.094500X-0.129500X0.094500X0.129500X-0.094500X0.129500X0*%
%ADD18RoundRect,0.094500X0.129500X-0.094500X0.129500X0.094500X-0.129500X0.094500X-0.129500X-0.094500X0*%
%ADD19RoundRect,0.157500X-0.175000X0.157500X-0.175000X-0.157500X0.175000X-0.157500X0.175000X0.157500X0*%
%ADD20RoundRect,0.098000X0.098000X0.119000X-0.098000X0.119000X-0.098000X-0.119000X0.098000X-0.119000X0*%
%ADD21RoundRect,0.087500X-0.437500X-0.087500X0.437500X-0.087500X0.437500X0.087500X-0.437500X0.087500X0*%
%ADD22RoundRect,0.087500X-0.087500X-0.437500X0.087500X-0.437500X0.087500X0.437500X-0.087500X0.437500X0*%
%ADD23RoundRect,0.105000X0.105000X-0.577500X0.105000X0.577500X-0.105000X0.577500X-0.105000X-0.577500X0*%
%ADD24RoundRect,0.175000X-0.525000X0.280000X-0.525000X-0.280000X0.525000X-0.280000X0.525000X0.280000X0*%
%ADD25RoundRect,0.175000X-0.525000X0.525000X-0.525000X-0.525000X0.525000X-0.525000X0.525000X0.525000X0*%
%ADD26R,1.680000X0.518000*%
%ADD27RoundRect,0.098000X-0.014849X0.153442X-0.153442X0.014849X0.014849X-0.153442X0.153442X-0.014849X0*%
%ADD28RoundRect,0.098000X0.014849X-0.153442X0.153442X-0.014849X-0.014849X0.153442X-0.153442X0.014849X0*%
G04 APERTURE END LIST*
D10*
%TO.C,C5*%
X73100000Y-95990000D03*
X71550000Y-95990000D03*
%TD*%
D11*
%TO.C,Q2*%
X73000000Y-75400000D03*
X73000000Y-77300000D03*
X75275000Y-76350000D03*
%TD*%
D12*
%TO.C,D2*%
X67292500Y-77720000D03*
X68867500Y-77720000D03*
%TD*%
D13*
%TO.C,C2*%
X77073008Y-93041992D03*
X75976992Y-94138008D03*
%TD*%
D14*
%TO.C,R10*%
X95500000Y-70795000D03*
X95500000Y-71815000D03*
%TD*%
D15*
%TO.C,R2*%
X73510000Y-122500000D03*
X72490000Y-122500000D03*
%TD*%
D11*
%TO.C,U3*%
X79062500Y-63050000D03*
X79062500Y-64000000D03*
X79062500Y-64950000D03*
X81337500Y-64950000D03*
X81337500Y-63050000D03*
%TD*%
D16*
%TO.C,C1*%
X62520000Y-110200000D03*
X63480000Y-110200000D03*
%TD*%
D14*
%TO.C,R5*%
X65250000Y-119740000D03*
X65250000Y-120760000D03*
%TD*%
D17*
%TO.C,R3*%
X62690000Y-121200000D03*
X63710000Y-121200000D03*
%TD*%
%TO.C,R6*%
X62695000Y-119875000D03*
X63715000Y-119875000D03*
%TD*%
D12*
%TO.C,L1*%
X71537500Y-97590000D03*
X73112500Y-97590000D03*
%TD*%
D11*
%TO.C,Q1*%
X73000000Y-71100000D03*
X73000000Y-73000000D03*
X75275000Y-72050000D03*
%TD*%
D15*
%TO.C,R8*%
X109510000Y-119000000D03*
X108490000Y-119000000D03*
%TD*%
%TO.C,R7*%
X109510000Y-116500000D03*
X108490000Y-116500000D03*
%TD*%
%TO.C,R11*%
X68260000Y-79500000D03*
X67240000Y-79500000D03*
%TD*%
D18*
%TO.C,R4*%
X66885000Y-120735000D03*
X66885000Y-119715000D03*
%TD*%
D19*
%TO.C,Cout1*%
X83150000Y-63325000D03*
X83150000Y-64875000D03*
%TD*%
D15*
%TO.C,R1*%
X68250000Y-75500000D03*
X67230000Y-75500000D03*
%TD*%
D20*
%TO.C,C6*%
X72905000Y-94090000D03*
X71945000Y-94090000D03*
%TD*%
D12*
%TO.C,D1*%
X67165000Y-73750000D03*
X68740000Y-73750000D03*
%TD*%
D21*
%TO.C,U1*%
X66650000Y-84990000D03*
X66650000Y-85790000D03*
X66650000Y-86590000D03*
X66650000Y-87390000D03*
X66650000Y-88190000D03*
X66650000Y-88990000D03*
X66650000Y-89790000D03*
X66650000Y-90590000D03*
D22*
X68025000Y-91965000D03*
X68825000Y-91965000D03*
X69625000Y-91965000D03*
X70425000Y-91965000D03*
X71225000Y-91965000D03*
X72025000Y-91965000D03*
X72825000Y-91965000D03*
X73625000Y-91965000D03*
D21*
X75000000Y-90590000D03*
X75000000Y-89790000D03*
X75000000Y-88990000D03*
X75000000Y-88190000D03*
X75000000Y-87390000D03*
X75000000Y-86590000D03*
X75000000Y-85790000D03*
X75000000Y-84990000D03*
D22*
X73625000Y-83615000D03*
X72825000Y-83615000D03*
X72025000Y-83615000D03*
X71225000Y-83615000D03*
X70425000Y-83615000D03*
X69625000Y-83615000D03*
X68825000Y-83615000D03*
X68025000Y-83615000D03*
%TD*%
D23*
%TO.C,U2*%
X62460000Y-117250000D03*
X63730000Y-117250000D03*
X65000000Y-117250000D03*
X66270000Y-117250000D03*
X66270000Y-112300000D03*
X65000000Y-112300000D03*
X63730000Y-112300000D03*
X62460000Y-112300000D03*
%TD*%
D24*
%TO.C,RV1*%
X75000000Y-117850000D03*
D25*
X71000000Y-119000000D03*
D24*
X75000000Y-120150000D03*
%TD*%
D19*
%TO.C,Cin1*%
X77200000Y-63225000D03*
X77200000Y-64775000D03*
%TD*%
D26*
%TO.C,J3*%
X84675000Y-87000000D03*
X80775000Y-87000000D03*
X84675000Y-85730000D03*
X80775000Y-85730000D03*
X84675000Y-84460000D03*
X80775000Y-84460000D03*
X84675000Y-83190000D03*
X80775000Y-83190000D03*
X84675000Y-81920000D03*
X80775000Y-81920000D03*
X84675000Y-80650000D03*
X80775000Y-80650000D03*
X84675000Y-79380000D03*
X80775000Y-79380000D03*
%TD*%
D27*
%TO.C,C4*%
X75664411Y-91950589D03*
X74985589Y-92629411D03*
%TD*%
D18*
%TO.C,R9*%
X99000000Y-71795000D03*
X99000000Y-70775000D03*
%TD*%
D28*
%TO.C,C3*%
X65985589Y-83629411D03*
X66664411Y-82950589D03*
%TD*%
M02*
