%TF.GenerationSoftware,KiCad,Pcbnew,8.0.8*%
%TF.CreationDate,2025-04-28T15:07:46+02:00*%
%TF.ProjectId,PCB_V1,5043425f-5631-42e6-9b69-6361645f7063,rev?*%
%TF.SameCoordinates,Original*%
%TF.FileFunction,Copper,L3,Inr*%
%TF.FilePolarity,Positive*%
%FSLAX46Y46*%
G04 Gerber Fmt 4.6, Leading zero omitted, Abs format (unit mm)*
G04 Created by KiCad (PCBNEW 8.0.8) date 2025-04-28 15:07:46*
%MOMM*%
%LPD*%
G01*
G04 APERTURE LIST*
G04 Aperture macros list*
%AMRoundRect*
0 Rectangle with rounded corners*
0 $1 Rounding radius*
0 $2 $3 $4 $5 $6 $7 $8 $9 X,Y pos of 4 corners*
0 Add a 4 corners polygon primitive as box body*
4,1,4,$2,$3,$4,$5,$6,$7,$8,$9,$2,$3,0*
0 Add four circle primitives for the rounded corners*
1,1,$1+$1,$2,$3*
1,1,$1+$1,$4,$5*
1,1,$1+$1,$6,$7*
1,1,$1+$1,$8,$9*
0 Add four rect primitives between the rounded corners*
20,1,$1+$1,$2,$3,$4,$5,0*
20,1,$1+$1,$4,$5,$6,$7,0*
20,1,$1+$1,$6,$7,$8,$9,0*
20,1,$1+$1,$8,$9,$2,$3,0*%
G04 Aperture macros list end*
%TA.AperFunction,ComponentPad*%
%ADD10C,4.400000*%
%TD*%
%TA.AperFunction,ComponentPad*%
%ADD11C,2.250000*%
%TD*%
%TA.AperFunction,ComponentPad*%
%ADD12RoundRect,0.250000X0.600000X0.750000X-0.600000X0.750000X-0.600000X-0.750000X0.600000X-0.750000X0*%
%TD*%
%TA.AperFunction,ComponentPad*%
%ADD13O,1.700000X2.000000*%
%TD*%
%TA.AperFunction,ComponentPad*%
%ADD14RoundRect,0.250000X0.600000X0.725000X-0.600000X0.725000X-0.600000X-0.725000X0.600000X-0.725000X0*%
%TD*%
%TA.AperFunction,ComponentPad*%
%ADD15O,1.700000X1.950000*%
%TD*%
%TA.AperFunction,ComponentPad*%
%ADD16RoundRect,0.250000X0.725000X-0.600000X0.725000X0.600000X-0.725000X0.600000X-0.725000X-0.600000X0*%
%TD*%
%TA.AperFunction,ComponentPad*%
%ADD17O,1.950000X1.700000*%
%TD*%
%TA.AperFunction,ComponentPad*%
%ADD18RoundRect,0.250000X-0.600000X-0.725000X0.600000X-0.725000X0.600000X0.725000X-0.600000X0.725000X0*%
%TD*%
%TA.AperFunction,ViaPad*%
%ADD19C,0.500000*%
%TD*%
G04 APERTURE END LIST*
D10*
%TO.N,GND*%
%TO.C,H3*%
X88000000Y-49000000D03*
%TD*%
D11*
%TO.N,unconnected-(J8-Pad1)*%
%TO.C,J8*%
X100500000Y-58000000D03*
%TO.N,GND*%
X108000000Y-58000000D03*
%TO.N,unconnected-(J8-Pad3)*%
X115500000Y-58000000D03*
%TO.N,Net-(JP1-A)*%
X103000000Y-60500000D03*
%TO.N,Net-(JP2-B)*%
X113000000Y-60500000D03*
%TO.N,GND*%
X103000000Y-48000000D03*
X113000000Y-48000000D03*
%TD*%
D12*
%TO.N,+5V*%
%TO.C,J4*%
X79000000Y-58750000D03*
D13*
%TO.N,GND*%
X76500000Y-58750000D03*
%TD*%
D10*
%TO.N,GND*%
%TO.C,H4*%
X110000000Y-131000000D03*
%TD*%
%TO.N,GND*%
%TO.C,H1*%
X58000000Y-49000000D03*
%TD*%
D12*
%TO.N,USART_TX*%
%TO.C,J5*%
X69000000Y-58750000D03*
D13*
%TO.N,GND*%
X66500000Y-58750000D03*
%TD*%
D14*
%TO.N,LED_COM0*%
%TO.C,J7*%
X98000000Y-131000000D03*
D15*
%TO.N,LED_COM1*%
X95500000Y-131000000D03*
%TO.N,LED8*%
X93000000Y-131000000D03*
%TO.N,LED9*%
X90500000Y-131000000D03*
%TO.N,LED10*%
X88000000Y-131000000D03*
%TO.N,LED11*%
X85500000Y-131000000D03*
%TO.N,LED12*%
X83000000Y-131000000D03*
%TD*%
D16*
%TO.N,SW_UP*%
%TO.C,J1*%
X115975000Y-119000000D03*
D17*
%TO.N,SW_DOWN*%
X115975000Y-116500000D03*
%TO.N,GND*%
X115975000Y-114000000D03*
%TD*%
D10*
%TO.N,GND*%
%TO.C,H5*%
X110000000Y-74000000D03*
%TD*%
D16*
%TO.N,LED_COM0*%
%TO.C,J8_afficheur1*%
X116000000Y-106500000D03*
D17*
%TO.N,LED_COM1*%
X116000000Y-104000000D03*
%TO.N,LED0_SEG*%
X116000000Y-101500000D03*
%TO.N,LED1_SEG*%
X116000000Y-99000000D03*
%TO.N,LED2_SEG*%
X116000000Y-96500000D03*
%TO.N,LED3_SEG*%
X116000000Y-94000000D03*
%TO.N,LED4_SEG*%
X116000000Y-91500000D03*
%TO.N,LED5_SEG*%
X116000000Y-89000000D03*
%TO.N,LED6_SEG*%
X116000000Y-86500000D03*
%TO.N,LED7_SEG*%
X116000000Y-84000000D03*
%TD*%
D10*
%TO.N,GND*%
%TO.C,H2*%
X50000000Y-131000000D03*
%TD*%
D18*
%TO.N,GND*%
%TO.C,J2*%
X65500000Y-130000000D03*
D15*
%TO.N,Net-(J2-Pin_2)*%
X68000000Y-130000000D03*
%TO.N,Net-(J2-Pin_3)*%
X70500000Y-130000000D03*
%TD*%
D19*
%TO.N,GND*%
X103000000Y-49500000D03*
X74535589Y-92179411D03*
X72025000Y-93190000D03*
X68750000Y-75500000D03*
X68750000Y-79500000D03*
X65400000Y-128400000D03*
X65400000Y-121400000D03*
X66500000Y-60250000D03*
X86225000Y-80590000D03*
X77912500Y-64112500D03*
X76500000Y-60250000D03*
X66400000Y-118600000D03*
X86625000Y-83790000D03*
X83875000Y-64875000D03*
X114400000Y-114000000D03*
X108000000Y-59750000D03*
X67164411Y-83450589D03*
X113000000Y-49500000D03*
%TO.N,+3.3VA*%
X67000000Y-121400000D03*
X76500000Y-118000000D03*
X62520000Y-110800000D03*
X62200000Y-121200000D03*
X72500000Y-98950000D03*
%TO.N,+3.3V*%
X75214411Y-91500589D03*
X72050000Y-73050000D03*
X108490000Y-117600000D03*
X86325000Y-85790000D03*
X72050000Y-77250000D03*
X66485589Y-84129411D03*
X70725000Y-97590000D03*
X84000000Y-63300000D03*
X69500000Y-73750000D03*
%TO.N,RESET*%
X65250000Y-87250000D03*
X78750000Y-80500000D03*
%TO.N,USART_TX*%
X69250000Y-62500000D03*
X65025000Y-89790000D03*
%TO.N,LED_COM0*%
X110000000Y-109750000D03*
X76700000Y-72050000D03*
%TO.N,LED_COM1*%
X107500000Y-109500000D03*
X77250000Y-76350000D03*
%TO.N,SW_DOWN*%
X108875000Y-115375000D03*
X76250000Y-87500000D03*
%TO.N,SW_UP*%
X109500000Y-118000000D03*
X76250000Y-86500000D03*
%TO.N,LED10*%
X72025000Y-82275000D03*
%TO.N,LED9*%
X74250000Y-82250000D03*
%TO.N,LED11*%
X69625000Y-82250000D03*
%TO.N,LED12*%
X63850000Y-86350000D03*
%TO.N,LED7_SEG*%
X112400000Y-87800000D03*
%TD*%
%TA.AperFunction,Conductor*%
%TO.N,+3.3VA*%
G36*
X77943039Y-98669685D02*
G01*
X77988794Y-98722489D01*
X78000000Y-98774000D01*
X78000000Y-124876000D01*
X77980315Y-124943039D01*
X77927511Y-124988794D01*
X77876000Y-125000000D01*
X60124000Y-125000000D01*
X60056961Y-124980315D01*
X60011206Y-124927511D01*
X60000000Y-124876000D01*
X60000000Y-121399999D01*
X64844750Y-121399999D01*
X64844750Y-121400000D01*
X64863670Y-121543708D01*
X64863671Y-121543712D01*
X64919137Y-121677622D01*
X64919138Y-121677624D01*
X64919139Y-121677625D01*
X65007379Y-121792621D01*
X65122375Y-121880861D01*
X65256291Y-121936330D01*
X65383280Y-121953048D01*
X65399999Y-121955250D01*
X65400000Y-121955250D01*
X65400001Y-121955250D01*
X65414977Y-121953278D01*
X65543709Y-121936330D01*
X65677625Y-121880861D01*
X65792621Y-121792621D01*
X65880861Y-121677625D01*
X65936330Y-121543709D01*
X65955250Y-121400000D01*
X65936330Y-121256291D01*
X65880861Y-121122375D01*
X65792621Y-121007379D01*
X65677625Y-120919139D01*
X65677624Y-120919138D01*
X65677622Y-120919137D01*
X65543712Y-120863671D01*
X65543710Y-120863670D01*
X65543709Y-120863670D01*
X65471854Y-120854210D01*
X65400001Y-120844750D01*
X65399999Y-120844750D01*
X65256291Y-120863670D01*
X65256287Y-120863671D01*
X65122377Y-120919137D01*
X65007379Y-121007379D01*
X64919137Y-121122377D01*
X64863671Y-121256287D01*
X64863670Y-121256291D01*
X64844750Y-121399999D01*
X60000000Y-121399999D01*
X60000000Y-118599999D01*
X65844750Y-118599999D01*
X65844750Y-118600000D01*
X65863670Y-118743708D01*
X65863671Y-118743712D01*
X65919137Y-118877622D01*
X65919138Y-118877624D01*
X65919139Y-118877625D01*
X66007379Y-118992621D01*
X66122375Y-119080861D01*
X66256291Y-119136330D01*
X66383280Y-119153048D01*
X66399999Y-119155250D01*
X66400000Y-119155250D01*
X66400001Y-119155250D01*
X66414977Y-119153278D01*
X66543709Y-119136330D01*
X66677625Y-119080861D01*
X66792621Y-118992621D01*
X66880861Y-118877625D01*
X66936330Y-118743709D01*
X66955250Y-118600000D01*
X66936330Y-118456291D01*
X66880861Y-118322375D01*
X66792621Y-118207379D01*
X66677625Y-118119139D01*
X66677624Y-118119138D01*
X66677622Y-118119137D01*
X66543712Y-118063671D01*
X66543710Y-118063670D01*
X66543709Y-118063670D01*
X66471854Y-118054210D01*
X66400001Y-118044750D01*
X66399999Y-118044750D01*
X66256291Y-118063670D01*
X66256287Y-118063671D01*
X66122377Y-118119137D01*
X66007379Y-118207379D01*
X65919137Y-118322377D01*
X65863671Y-118456287D01*
X65863670Y-118456291D01*
X65844750Y-118599999D01*
X60000000Y-118599999D01*
X60000000Y-98774000D01*
X60019685Y-98706961D01*
X60072489Y-98661206D01*
X60124000Y-98650000D01*
X77876000Y-98650000D01*
X77943039Y-98669685D01*
G37*
%TD.AperFunction*%
%TD*%
%TA.AperFunction,Conductor*%
%TO.N,+3.3V*%
G36*
X122442539Y-44520185D02*
G01*
X122488294Y-44572989D01*
X122499500Y-44624500D01*
X122499500Y-135375500D01*
X122479815Y-135442539D01*
X122427011Y-135488294D01*
X122375500Y-135499500D01*
X45624500Y-135499500D01*
X45557461Y-135479815D01*
X45511706Y-135427011D01*
X45500500Y-135375500D01*
X45500500Y-131000000D01*
X47294564Y-131000000D01*
X47314289Y-131326099D01*
X47373178Y-131647452D01*
X47470366Y-131959342D01*
X47470370Y-131959354D01*
X47470373Y-131959361D01*
X47604455Y-132257279D01*
X47736374Y-132475499D01*
X47773473Y-132536868D01*
X47974954Y-132794039D01*
X48205960Y-133025045D01*
X48463131Y-133226526D01*
X48463134Y-133226528D01*
X48463137Y-133226530D01*
X48742721Y-133395545D01*
X49040639Y-133529627D01*
X49040652Y-133529631D01*
X49040657Y-133529633D01*
X49352547Y-133626821D01*
X49673896Y-133685710D01*
X50000000Y-133705436D01*
X50326104Y-133685710D01*
X50647453Y-133626821D01*
X50959361Y-133529627D01*
X51257279Y-133395545D01*
X51536863Y-133226530D01*
X51794036Y-133025048D01*
X52025048Y-132794036D01*
X52226530Y-132536863D01*
X52395545Y-132257279D01*
X52529627Y-131959361D01*
X52626821Y-131647453D01*
X52685710Y-131326104D01*
X52705436Y-131000000D01*
X52685710Y-130673896D01*
X52626821Y-130352547D01*
X52587075Y-130224998D01*
X52529633Y-130040657D01*
X52529631Y-130040652D01*
X52529627Y-130040639D01*
X52395545Y-129742721D01*
X52226530Y-129463137D01*
X52226528Y-129463134D01*
X52226526Y-129463131D01*
X52039949Y-129224983D01*
X64149500Y-129224983D01*
X64149500Y-130775001D01*
X64149501Y-130775018D01*
X64160000Y-130877796D01*
X64160001Y-130877799D01*
X64205894Y-131016294D01*
X64215186Y-131044334D01*
X64307288Y-131193656D01*
X64431344Y-131317712D01*
X64580666Y-131409814D01*
X64747203Y-131464999D01*
X64849991Y-131475500D01*
X66150008Y-131475499D01*
X66252797Y-131464999D01*
X66419334Y-131409814D01*
X66568656Y-131317712D01*
X66692712Y-131193656D01*
X66784814Y-131044334D01*
X66784814Y-131044331D01*
X66788178Y-131038879D01*
X66840126Y-130992154D01*
X66909088Y-130980931D01*
X66973170Y-131008774D01*
X66981398Y-131016294D01*
X67120213Y-131155109D01*
X67292179Y-131280048D01*
X67292181Y-131280049D01*
X67292184Y-131280051D01*
X67481588Y-131376557D01*
X67683757Y-131442246D01*
X67893713Y-131475500D01*
X67893714Y-131475500D01*
X68106286Y-131475500D01*
X68106287Y-131475500D01*
X68316243Y-131442246D01*
X68518412Y-131376557D01*
X68707816Y-131280051D01*
X68729789Y-131264086D01*
X68879786Y-131155109D01*
X68879788Y-131155106D01*
X68879792Y-131155104D01*
X69030104Y-131004792D01*
X69149683Y-130840204D01*
X69205011Y-130797540D01*
X69274624Y-130791561D01*
X69336420Y-130824166D01*
X69350313Y-130840199D01*
X69452560Y-130980931D01*
X69469896Y-131004792D01*
X69620213Y-131155109D01*
X69792179Y-131280048D01*
X69792181Y-131280049D01*
X69792184Y-131280051D01*
X69981588Y-131376557D01*
X70183757Y-131442246D01*
X70393713Y-131475500D01*
X70393714Y-131475500D01*
X70606286Y-131475500D01*
X70606287Y-131475500D01*
X70816243Y-131442246D01*
X71018412Y-131376557D01*
X71207816Y-131280051D01*
X71229789Y-131264086D01*
X71379786Y-131155109D01*
X71379788Y-131155106D01*
X71379792Y-131155104D01*
X71530104Y-131004792D01*
X71530106Y-131004788D01*
X71530109Y-131004786D01*
X71655048Y-130832820D01*
X71655047Y-130832820D01*
X71655051Y-130832816D01*
X71687713Y-130768713D01*
X81649500Y-130768713D01*
X81649500Y-131231286D01*
X81682753Y-131441239D01*
X81748444Y-131643414D01*
X81844951Y-131832820D01*
X81969890Y-132004786D01*
X82120213Y-132155109D01*
X82292179Y-132280048D01*
X82292181Y-132280049D01*
X82292184Y-132280051D01*
X82481588Y-132376557D01*
X82683757Y-132442246D01*
X82893713Y-132475500D01*
X82893714Y-132475500D01*
X83106286Y-132475500D01*
X83106287Y-132475500D01*
X83316243Y-132442246D01*
X83518412Y-132376557D01*
X83707816Y-132280051D01*
X83739166Y-132257274D01*
X83879786Y-132155109D01*
X83879788Y-132155106D01*
X83879792Y-132155104D01*
X84030104Y-132004792D01*
X84149683Y-131840204D01*
X84205011Y-131797540D01*
X84274624Y-131791561D01*
X84336420Y-131824166D01*
X84350313Y-131840199D01*
X84436875Y-131959342D01*
X84469896Y-132004792D01*
X84620213Y-132155109D01*
X84792179Y-132280048D01*
X84792181Y-132280049D01*
X84792184Y-132280051D01*
X84981588Y-132376557D01*
X85183757Y-132442246D01*
X85393713Y-132475500D01*
X85393714Y-132475500D01*
X85606286Y-132475500D01*
X85606287Y-132475500D01*
X85816243Y-132442246D01*
X86018412Y-132376557D01*
X86207816Y-132280051D01*
X86239166Y-132257274D01*
X86379786Y-132155109D01*
X86379788Y-132155106D01*
X86379792Y-132155104D01*
X86530104Y-132004792D01*
X86649683Y-131840204D01*
X86705011Y-131797540D01*
X86774624Y-131791561D01*
X86836420Y-131824166D01*
X86850313Y-131840199D01*
X86936875Y-131959342D01*
X86969896Y-132004792D01*
X87120213Y-132155109D01*
X87292179Y-132280048D01*
X87292181Y-132280049D01*
X87292184Y-132280051D01*
X87481588Y-132376557D01*
X87683757Y-132442246D01*
X87893713Y-132475500D01*
X87893714Y-132475500D01*
X88106286Y-132475500D01*
X88106287Y-132475500D01*
X88316243Y-132442246D01*
X88518412Y-132376557D01*
X88707816Y-132280051D01*
X88739166Y-132257274D01*
X88879786Y-132155109D01*
X88879788Y-132155106D01*
X88879792Y-132155104D01*
X89030104Y-132004792D01*
X89149683Y-131840204D01*
X89205011Y-131797540D01*
X89274624Y-131791561D01*
X89336420Y-131824166D01*
X89350313Y-131840199D01*
X89436875Y-131959342D01*
X89469896Y-132004792D01*
X89620213Y-132155109D01*
X89792179Y-132280048D01*
X89792181Y-132280049D01*
X89792184Y-132280051D01*
X89981588Y-132376557D01*
X90183757Y-132442246D01*
X90393713Y-132475500D01*
X90393714Y-132475500D01*
X90606286Y-132475500D01*
X90606287Y-132475500D01*
X90816243Y-132442246D01*
X91018412Y-132376557D01*
X91207816Y-132280051D01*
X91239166Y-132257274D01*
X91379786Y-132155109D01*
X91379788Y-132155106D01*
X91379792Y-132155104D01*
X91530104Y-132004792D01*
X91649683Y-131840204D01*
X91705011Y-131797540D01*
X91774624Y-131791561D01*
X91836420Y-131824166D01*
X91850313Y-131840199D01*
X91936875Y-131959342D01*
X91969896Y-132004792D01*
X92120213Y-132155109D01*
X92292179Y-132280048D01*
X92292181Y-132280049D01*
X92292184Y-132280051D01*
X92481588Y-132376557D01*
X92683757Y-132442246D01*
X92893713Y-132475500D01*
X92893714Y-132475500D01*
X93106286Y-132475500D01*
X93106287Y-132475500D01*
X93316243Y-132442246D01*
X93518412Y-132376557D01*
X93707816Y-132280051D01*
X93739166Y-132257274D01*
X93879786Y-132155109D01*
X93879788Y-132155106D01*
X93879792Y-132155104D01*
X94030104Y-132004792D01*
X94149683Y-131840204D01*
X94205011Y-131797540D01*
X94274624Y-131791561D01*
X94336420Y-131824166D01*
X94350313Y-131840199D01*
X94436875Y-131959342D01*
X94469896Y-132004792D01*
X94620213Y-132155109D01*
X94792179Y-132280048D01*
X94792181Y-132280049D01*
X94792184Y-132280051D01*
X94981588Y-132376557D01*
X95183757Y-132442246D01*
X95393713Y-132475500D01*
X95393714Y-132475500D01*
X95606286Y-132475500D01*
X95606287Y-132475500D01*
X95816243Y-132442246D01*
X96018412Y-132376557D01*
X96207816Y-132280051D01*
X96379792Y-132155104D01*
X96518604Y-132016291D01*
X96579923Y-131982809D01*
X96649615Y-131987793D01*
X96705549Y-132029664D01*
X96711821Y-132038878D01*
X96715185Y-132044333D01*
X96715186Y-132044334D01*
X96807288Y-132193656D01*
X96931344Y-132317712D01*
X97080666Y-132409814D01*
X97247203Y-132464999D01*
X97349991Y-132475500D01*
X98650008Y-132475499D01*
X98752797Y-132464999D01*
X98919334Y-132409814D01*
X99068656Y-132317712D01*
X99192712Y-132193656D01*
X99284814Y-132044334D01*
X99339999Y-131877797D01*
X99350500Y-131775009D01*
X99350499Y-131000000D01*
X107294564Y-131000000D01*
X107314289Y-131326099D01*
X107373178Y-131647452D01*
X107470366Y-131959342D01*
X107470370Y-131959354D01*
X107470373Y-131959361D01*
X107604455Y-132257279D01*
X107736374Y-132475499D01*
X107773473Y-132536868D01*
X107974954Y-132794039D01*
X108205960Y-133025045D01*
X108463131Y-133226526D01*
X108463134Y-133226528D01*
X108463137Y-133226530D01*
X108742721Y-133395545D01*
X109040639Y-133529627D01*
X109040652Y-133529631D01*
X109040657Y-133529633D01*
X109352547Y-133626821D01*
X109673896Y-133685710D01*
X110000000Y-133705436D01*
X110326104Y-133685710D01*
X110647453Y-133626821D01*
X110959361Y-133529627D01*
X111257279Y-133395545D01*
X111536863Y-133226530D01*
X111794036Y-133025048D01*
X112025048Y-132794036D01*
X112226530Y-132536863D01*
X112395545Y-132257279D01*
X112529627Y-131959361D01*
X112626821Y-131647453D01*
X112685710Y-131326104D01*
X112705436Y-131000000D01*
X112685710Y-130673896D01*
X112626821Y-130352547D01*
X112587075Y-130224998D01*
X112529633Y-130040657D01*
X112529631Y-130040652D01*
X112529627Y-130040639D01*
X112395545Y-129742721D01*
X112226530Y-129463137D01*
X112226528Y-129463134D01*
X112226526Y-129463131D01*
X112025045Y-129205960D01*
X111794039Y-128974954D01*
X111536868Y-128773473D01*
X111448332Y-128719951D01*
X111257279Y-128604455D01*
X110959361Y-128470373D01*
X110959354Y-128470370D01*
X110959342Y-128470366D01*
X110647452Y-128373178D01*
X110326099Y-128314289D01*
X110000000Y-128294564D01*
X109673900Y-128314289D01*
X109352547Y-128373178D01*
X109040657Y-128470366D01*
X109040641Y-128470372D01*
X109040639Y-128470373D01*
X108850933Y-128555752D01*
X108774428Y-128590185D01*
X108742721Y-128604455D01*
X108672825Y-128646708D01*
X108463131Y-128773473D01*
X108205960Y-128974954D01*
X107974954Y-129205960D01*
X107773473Y-129463131D01*
X107604454Y-129742723D01*
X107604453Y-129742725D01*
X107575821Y-129806344D01*
X107480082Y-130019068D01*
X107470372Y-130040642D01*
X107470366Y-130040657D01*
X107373178Y-130352547D01*
X107314289Y-130673900D01*
X107294564Y-131000000D01*
X99350499Y-131000000D01*
X99350499Y-130224992D01*
X99339999Y-130122203D01*
X99284814Y-129955666D01*
X99192712Y-129806344D01*
X99068656Y-129682288D01*
X98919334Y-129590186D01*
X98752797Y-129535001D01*
X98752795Y-129535000D01*
X98650010Y-129524500D01*
X97349998Y-129524500D01*
X97349981Y-129524501D01*
X97247203Y-129535000D01*
X97247200Y-129535001D01*
X97080668Y-129590185D01*
X97080663Y-129590187D01*
X96931342Y-129682289D01*
X96807289Y-129806342D01*
X96711821Y-129961121D01*
X96659873Y-130007845D01*
X96590910Y-130019068D01*
X96526828Y-129991224D01*
X96518601Y-129983705D01*
X96379786Y-129844890D01*
X96207820Y-129719951D01*
X96018414Y-129623444D01*
X96018413Y-129623443D01*
X96018412Y-129623443D01*
X95816243Y-129557754D01*
X95816241Y-129557753D01*
X95816240Y-129557753D01*
X95654957Y-129532208D01*
X95606287Y-129524500D01*
X95393713Y-129524500D01*
X95345042Y-129532208D01*
X95183760Y-129557753D01*
X94981585Y-129623444D01*
X94792179Y-129719951D01*
X94620213Y-129844890D01*
X94469894Y-129995209D01*
X94469890Y-129995214D01*
X94350318Y-130159793D01*
X94294989Y-130202459D01*
X94225375Y-130208438D01*
X94163580Y-130175833D01*
X94149682Y-130159793D01*
X94030109Y-129995214D01*
X94030105Y-129995209D01*
X93879786Y-129844890D01*
X93707820Y-129719951D01*
X93518414Y-129623444D01*
X93518413Y-129623443D01*
X93518412Y-129623443D01*
X93316243Y-129557754D01*
X93316241Y-129557753D01*
X93316240Y-129557753D01*
X93154957Y-129532208D01*
X93106287Y-129524500D01*
X92893713Y-129524500D01*
X92845042Y-129532208D01*
X92683760Y-129557753D01*
X92481585Y-129623444D01*
X92292179Y-129719951D01*
X92120213Y-129844890D01*
X91969894Y-129995209D01*
X91969890Y-129995214D01*
X91850318Y-130159793D01*
X91794989Y-130202459D01*
X91725375Y-130208438D01*
X91663580Y-130175833D01*
X91649682Y-130159793D01*
X91530109Y-129995214D01*
X91530105Y-129995209D01*
X91379786Y-129844890D01*
X91207820Y-129719951D01*
X91018414Y-129623444D01*
X91018413Y-129623443D01*
X91018412Y-129623443D01*
X90816243Y-129557754D01*
X90816241Y-129557753D01*
X90816240Y-129557753D01*
X90654957Y-129532208D01*
X90606287Y-129524500D01*
X90393713Y-129524500D01*
X90345042Y-129532208D01*
X90183760Y-129557753D01*
X89981585Y-129623444D01*
X89792179Y-129719951D01*
X89620213Y-129844890D01*
X89469894Y-129995209D01*
X89469890Y-129995214D01*
X89350318Y-130159793D01*
X89294989Y-130202459D01*
X89225375Y-130208438D01*
X89163580Y-130175833D01*
X89149682Y-130159793D01*
X89030109Y-129995214D01*
X89030105Y-129995209D01*
X88879786Y-129844890D01*
X88707820Y-129719951D01*
X88518414Y-129623444D01*
X88518413Y-129623443D01*
X88518412Y-129623443D01*
X88316243Y-129557754D01*
X88316241Y-129557753D01*
X88316240Y-129557753D01*
X88154957Y-129532208D01*
X88106287Y-129524500D01*
X87893713Y-129524500D01*
X87845042Y-129532208D01*
X87683760Y-129557753D01*
X87481585Y-129623444D01*
X87292179Y-129719951D01*
X87120213Y-129844890D01*
X86969894Y-129995209D01*
X86969890Y-129995214D01*
X86850318Y-130159793D01*
X86794989Y-130202459D01*
X86725375Y-130208438D01*
X86663580Y-130175833D01*
X86649682Y-130159793D01*
X86530109Y-129995214D01*
X86530105Y-129995209D01*
X86379786Y-129844890D01*
X86207820Y-129719951D01*
X86018414Y-129623444D01*
X86018413Y-129623443D01*
X86018412Y-129623443D01*
X85816243Y-129557754D01*
X85816241Y-129557753D01*
X85816240Y-129557753D01*
X85654957Y-129532208D01*
X85606287Y-129524500D01*
X85393713Y-129524500D01*
X85345042Y-129532208D01*
X85183760Y-129557753D01*
X84981585Y-129623444D01*
X84792179Y-129719951D01*
X84620213Y-129844890D01*
X84469894Y-129995209D01*
X84469890Y-129995214D01*
X84350318Y-130159793D01*
X84294989Y-130202459D01*
X84225375Y-130208438D01*
X84163580Y-130175833D01*
X84149682Y-130159793D01*
X84030109Y-129995214D01*
X84030105Y-129995209D01*
X83879786Y-129844890D01*
X83707820Y-129719951D01*
X83518414Y-129623444D01*
X83518413Y-129623443D01*
X83518412Y-129623443D01*
X83316243Y-129557754D01*
X83316241Y-129557753D01*
X83316240Y-129557753D01*
X83154957Y-129532208D01*
X83106287Y-129524500D01*
X82893713Y-129524500D01*
X82845042Y-129532208D01*
X82683760Y-129557753D01*
X82481585Y-129623444D01*
X82292179Y-129719951D01*
X82120213Y-129844890D01*
X81969890Y-129995213D01*
X81844951Y-130167179D01*
X81748444Y-130356585D01*
X81682753Y-130558760D01*
X81649500Y-130768713D01*
X71687713Y-130768713D01*
X71751557Y-130643412D01*
X71817246Y-130441243D01*
X71850500Y-130231287D01*
X71850500Y-129768713D01*
X71817246Y-129558757D01*
X71751557Y-129356588D01*
X71655051Y-129167184D01*
X71655049Y-129167181D01*
X71655048Y-129167179D01*
X71530109Y-128995213D01*
X71379786Y-128844890D01*
X71207820Y-128719951D01*
X71018414Y-128623444D01*
X71018413Y-128623443D01*
X71018412Y-128623443D01*
X70816243Y-128557754D01*
X70816241Y-128557753D01*
X70816240Y-128557753D01*
X70652371Y-128531799D01*
X70606287Y-128524500D01*
X70393713Y-128524500D01*
X70347629Y-128531799D01*
X70183760Y-128557753D01*
X69981585Y-128623444D01*
X69792179Y-128719951D01*
X69620213Y-128844890D01*
X69469894Y-128995209D01*
X69469890Y-128995214D01*
X69350318Y-129159793D01*
X69294989Y-129202459D01*
X69225375Y-129208438D01*
X69163580Y-129175833D01*
X69149682Y-129159793D01*
X69030109Y-128995214D01*
X69030105Y-128995209D01*
X68879786Y-128844890D01*
X68707820Y-128719951D01*
X68518414Y-128623444D01*
X68518413Y-128623443D01*
X68518412Y-128623443D01*
X68316243Y-128557754D01*
X68316241Y-128557753D01*
X68316240Y-128557753D01*
X68152371Y-128531799D01*
X68106287Y-128524500D01*
X67893713Y-128524500D01*
X67847629Y-128531799D01*
X67683760Y-128557753D01*
X67481585Y-128623444D01*
X67292179Y-128719951D01*
X67120215Y-128844889D01*
X66981398Y-128983706D01*
X66920075Y-129017190D01*
X66850383Y-129012206D01*
X66794450Y-128970334D01*
X66788178Y-128961120D01*
X66692712Y-128806344D01*
X66568657Y-128682289D01*
X66568656Y-128682288D01*
X66419334Y-128590186D01*
X66252797Y-128535001D01*
X66252795Y-128535000D01*
X66252793Y-128535000D01*
X66252531Y-128534944D01*
X66252384Y-128534864D01*
X66246371Y-128532872D01*
X66246726Y-128531799D01*
X66191098Y-128501662D01*
X66157411Y-128440449D01*
X66155650Y-128406965D01*
X66155249Y-128406965D01*
X66155249Y-128399997D01*
X66136314Y-128231943D01*
X66080454Y-128072305D01*
X66080452Y-128072302D01*
X65990481Y-127929115D01*
X65990476Y-127929109D01*
X65870890Y-127809523D01*
X65870884Y-127809518D01*
X65727697Y-127719547D01*
X65727694Y-127719545D01*
X65568056Y-127663685D01*
X65400003Y-127644751D01*
X65399997Y-127644751D01*
X65231943Y-127663685D01*
X65072305Y-127719545D01*
X65072302Y-127719547D01*
X64929115Y-127809518D01*
X64929109Y-127809523D01*
X64809523Y-127929109D01*
X64809518Y-127929115D01*
X64719547Y-128072302D01*
X64719545Y-128072305D01*
X64663685Y-128231943D01*
X64644751Y-128399997D01*
X64644751Y-128400003D01*
X64651929Y-128463711D01*
X64639874Y-128532532D01*
X64592525Y-128583912D01*
X64581128Y-128589969D01*
X64580679Y-128590178D01*
X64431342Y-128682289D01*
X64307289Y-128806342D01*
X64215187Y-128955663D01*
X64215185Y-128955668D01*
X64205894Y-128983706D01*
X64160001Y-129122203D01*
X64160001Y-129122204D01*
X64160000Y-129122204D01*
X64149500Y-129224983D01*
X52039949Y-129224983D01*
X52025045Y-129205960D01*
X51794039Y-128974954D01*
X51536868Y-128773473D01*
X51448332Y-128719951D01*
X51257279Y-128604455D01*
X50959361Y-128470373D01*
X50959354Y-128470370D01*
X50959342Y-128470366D01*
X50647452Y-128373178D01*
X50326099Y-128314289D01*
X50000000Y-128294564D01*
X49673900Y-128314289D01*
X49352547Y-128373178D01*
X49040657Y-128470366D01*
X49040641Y-128470372D01*
X49040639Y-128470373D01*
X48850933Y-128555752D01*
X48774428Y-128590185D01*
X48742721Y-128604455D01*
X48672825Y-128646708D01*
X48463131Y-128773473D01*
X48205960Y-128974954D01*
X47974954Y-129205960D01*
X47773473Y-129463131D01*
X47604454Y-129742723D01*
X47604453Y-129742725D01*
X47575821Y-129806344D01*
X47480082Y-130019068D01*
X47470372Y-130040642D01*
X47470366Y-130040657D01*
X47373178Y-130352547D01*
X47314289Y-130673900D01*
X47294564Y-131000000D01*
X45500500Y-131000000D01*
X45500500Y-98774000D01*
X59494500Y-98774000D01*
X59494500Y-118599999D01*
X59494500Y-121399999D01*
X59494500Y-124876000D01*
X59494501Y-124876009D01*
X59506052Y-124983450D01*
X59506054Y-124983462D01*
X59517260Y-125034972D01*
X59551383Y-125137497D01*
X59551386Y-125137503D01*
X59629171Y-125258537D01*
X59629179Y-125258548D01*
X59674923Y-125311340D01*
X59674926Y-125311343D01*
X59674930Y-125311347D01*
X59783664Y-125405567D01*
X59783667Y-125405568D01*
X59783668Y-125405569D01*
X59877925Y-125448616D01*
X59914541Y-125465338D01*
X59981580Y-125485023D01*
X59981584Y-125485024D01*
X60124000Y-125505500D01*
X60124003Y-125505500D01*
X77875990Y-125505500D01*
X77876000Y-125505500D01*
X77983456Y-125493947D01*
X78034967Y-125482741D01*
X78069197Y-125471347D01*
X78137497Y-125448616D01*
X78137501Y-125448613D01*
X78137504Y-125448613D01*
X78258543Y-125370825D01*
X78311347Y-125325070D01*
X78405567Y-125216336D01*
X78465338Y-125085459D01*
X78485023Y-125018420D01*
X78485024Y-125018416D01*
X78505500Y-124876000D01*
X78505500Y-117999997D01*
X108744751Y-117999997D01*
X108744751Y-118000002D01*
X108763685Y-118168056D01*
X108819545Y-118327694D01*
X108819547Y-118327697D01*
X108909518Y-118470884D01*
X108909523Y-118470890D01*
X109029109Y-118590476D01*
X109029115Y-118590481D01*
X109172302Y-118680452D01*
X109172305Y-118680454D01*
X109172309Y-118680455D01*
X109172310Y-118680456D01*
X109244913Y-118705860D01*
X109331943Y-118736314D01*
X109499997Y-118755249D01*
X109500000Y-118755249D01*
X109500003Y-118755249D01*
X109668056Y-118736314D01*
X109668059Y-118736313D01*
X109827690Y-118680456D01*
X109827692Y-118680454D01*
X109827694Y-118680454D01*
X109827697Y-118680452D01*
X109970884Y-118590481D01*
X109970885Y-118590480D01*
X109970890Y-118590477D01*
X110090477Y-118470890D01*
X110166443Y-118349992D01*
X110180452Y-118327697D01*
X110180454Y-118327694D01*
X110180454Y-118327692D01*
X110180456Y-118327690D01*
X110236313Y-118168059D01*
X110236313Y-118168058D01*
X110236314Y-118168056D01*
X110255249Y-118000002D01*
X110255249Y-117999997D01*
X110236314Y-117831943D01*
X110180454Y-117672305D01*
X110180452Y-117672302D01*
X110090481Y-117529115D01*
X110090476Y-117529109D01*
X109970890Y-117409523D01*
X109970884Y-117409518D01*
X109827697Y-117319547D01*
X109827694Y-117319545D01*
X109668056Y-117263685D01*
X109500003Y-117244751D01*
X109499997Y-117244751D01*
X109331943Y-117263685D01*
X109172305Y-117319545D01*
X109172302Y-117319547D01*
X109029115Y-117409518D01*
X109029109Y-117409523D01*
X108909523Y-117529109D01*
X108909518Y-117529115D01*
X108819547Y-117672302D01*
X108819545Y-117672305D01*
X108763685Y-117831943D01*
X108744751Y-117999997D01*
X78505500Y-117999997D01*
X78505500Y-115374997D01*
X108119751Y-115374997D01*
X108119751Y-115375002D01*
X108138685Y-115543056D01*
X108194545Y-115702694D01*
X108194547Y-115702697D01*
X108284518Y-115845884D01*
X108284523Y-115845890D01*
X108404109Y-115965476D01*
X108404115Y-115965481D01*
X108547302Y-116055452D01*
X108547305Y-116055454D01*
X108547309Y-116055455D01*
X108547310Y-116055456D01*
X108619913Y-116080860D01*
X108706943Y-116111314D01*
X108874997Y-116130249D01*
X108875000Y-116130249D01*
X108875003Y-116130249D01*
X109043056Y-116111314D01*
X109043059Y-116111313D01*
X109202690Y-116055456D01*
X109202692Y-116055454D01*
X109202694Y-116055454D01*
X109202697Y-116055452D01*
X109345884Y-115965481D01*
X109345885Y-115965480D01*
X109345890Y-115965477D01*
X109465477Y-115845890D01*
X109555452Y-115702697D01*
X109555454Y-115702694D01*
X109555454Y-115702692D01*
X109555456Y-115702690D01*
X109611313Y-115543059D01*
X109611313Y-115543058D01*
X109611314Y-115543056D01*
X109630249Y-115375002D01*
X109630249Y-115374997D01*
X109611314Y-115206943D01*
X109555454Y-115047305D01*
X109555452Y-115047302D01*
X109465481Y-114904115D01*
X109465476Y-114904109D01*
X109345890Y-114784523D01*
X109345884Y-114784518D01*
X109202697Y-114694547D01*
X109202694Y-114694545D01*
X109043056Y-114638685D01*
X108875003Y-114619751D01*
X108874997Y-114619751D01*
X108706943Y-114638685D01*
X108547305Y-114694545D01*
X108547302Y-114694547D01*
X108404115Y-114784518D01*
X108404109Y-114784523D01*
X108284523Y-114904109D01*
X108284518Y-114904115D01*
X108194547Y-115047302D01*
X108194545Y-115047305D01*
X108138685Y-115206943D01*
X108119751Y-115374997D01*
X78505500Y-115374997D01*
X78505500Y-113999997D01*
X113644751Y-113999997D01*
X113644751Y-114000002D01*
X113663685Y-114168056D01*
X113719545Y-114327694D01*
X113719547Y-114327697D01*
X113809518Y-114470884D01*
X113809523Y-114470890D01*
X113929109Y-114590476D01*
X113929115Y-114590481D01*
X114072302Y-114680452D01*
X114072305Y-114680454D01*
X114072309Y-114680455D01*
X114072310Y-114680456D01*
X114112580Y-114694547D01*
X114231943Y-114736314D01*
X114399997Y-114755249D01*
X114400000Y-114755249D01*
X114400003Y-114755249D01*
X114568054Y-114736314D01*
X114568055Y-114736313D01*
X114568059Y-114736313D01*
X114598677Y-114725598D01*
X114668453Y-114722036D01*
X114729081Y-114756764D01*
X114739949Y-114769755D01*
X114819890Y-114879785D01*
X114819894Y-114879790D01*
X114970209Y-115030105D01*
X114970214Y-115030109D01*
X115134793Y-115149682D01*
X115177459Y-115205011D01*
X115183438Y-115274625D01*
X115150833Y-115336420D01*
X115134793Y-115350318D01*
X114970214Y-115469890D01*
X114970209Y-115469894D01*
X114819890Y-115620213D01*
X114694951Y-115792179D01*
X114598444Y-115981585D01*
X114532753Y-116183760D01*
X114499500Y-116393713D01*
X114499500Y-116606286D01*
X114532753Y-116816239D01*
X114598444Y-117018414D01*
X114694951Y-117207820D01*
X114819890Y-117379786D01*
X114958705Y-117518601D01*
X114992190Y-117579924D01*
X114987206Y-117649616D01*
X114945334Y-117705549D01*
X114936121Y-117711821D01*
X114781342Y-117807289D01*
X114657289Y-117931342D01*
X114565187Y-118080663D01*
X114565186Y-118080666D01*
X114510001Y-118247203D01*
X114510001Y-118247204D01*
X114510000Y-118247204D01*
X114499500Y-118349983D01*
X114499500Y-119650001D01*
X114499501Y-119650018D01*
X114510000Y-119752796D01*
X114510001Y-119752799D01*
X114565185Y-119919331D01*
X114565186Y-119919334D01*
X114657288Y-120068656D01*
X114781344Y-120192712D01*
X114930666Y-120284814D01*
X115097203Y-120339999D01*
X115199991Y-120350500D01*
X116750008Y-120350499D01*
X116852797Y-120339999D01*
X117019334Y-120284814D01*
X117168656Y-120192712D01*
X117292712Y-120068656D01*
X117384814Y-119919334D01*
X117439999Y-119752797D01*
X117450500Y-119650009D01*
X117450499Y-118349992D01*
X117439999Y-118247203D01*
X117384814Y-118080666D01*
X117292712Y-117931344D01*
X117168656Y-117807288D01*
X117019334Y-117715186D01*
X117019333Y-117715185D01*
X117013878Y-117711821D01*
X116967154Y-117659873D01*
X116955931Y-117590910D01*
X116983775Y-117526828D01*
X116991272Y-117518623D01*
X117130104Y-117379792D01*
X117173877Y-117319544D01*
X117255048Y-117207820D01*
X117255047Y-117207820D01*
X117255051Y-117207816D01*
X117351557Y-117018412D01*
X117417246Y-116816243D01*
X117450500Y-116606287D01*
X117450500Y-116393713D01*
X117417246Y-116183757D01*
X117351557Y-115981588D01*
X117255051Y-115792184D01*
X117255049Y-115792181D01*
X117255048Y-115792179D01*
X117130109Y-115620213D01*
X116979792Y-115469896D01*
X116979784Y-115469890D01*
X116815204Y-115350316D01*
X116772540Y-115294989D01*
X116766561Y-115225376D01*
X116799166Y-115163580D01*
X116815199Y-115149686D01*
X116979792Y-115030104D01*
X117130104Y-114879792D01*
X117130106Y-114879788D01*
X117130109Y-114879786D01*
X117255048Y-114707820D01*
X117255047Y-114707820D01*
X117255051Y-114707816D01*
X117351557Y-114518412D01*
X117417246Y-114316243D01*
X117450500Y-114106287D01*
X117450500Y-113893713D01*
X117417246Y-113683757D01*
X117351557Y-113481588D01*
X117255051Y-113292184D01*
X117255049Y-113292181D01*
X117255048Y-113292179D01*
X117130109Y-113120213D01*
X116979786Y-112969890D01*
X116807820Y-112844951D01*
X116618414Y-112748444D01*
X116618413Y-112748443D01*
X116618412Y-112748443D01*
X116416243Y-112682754D01*
X116416241Y-112682753D01*
X116416240Y-112682753D01*
X116254957Y-112657208D01*
X116206287Y-112649500D01*
X115743713Y-112649500D01*
X115695042Y-112657208D01*
X115533760Y-112682753D01*
X115331585Y-112748444D01*
X115142179Y-112844951D01*
X114970213Y-112969890D01*
X114819894Y-113120209D01*
X114819890Y-113120214D01*
X114739949Y-113230244D01*
X114684619Y-113272910D01*
X114615006Y-113278889D01*
X114598681Y-113274402D01*
X114568059Y-113263687D01*
X114568058Y-113263686D01*
X114568053Y-113263685D01*
X114400003Y-113244751D01*
X114399997Y-113244751D01*
X114231943Y-113263685D01*
X114072305Y-113319545D01*
X114072302Y-113319547D01*
X113929115Y-113409518D01*
X113929109Y-113409523D01*
X113809523Y-113529109D01*
X113809518Y-113529115D01*
X113719547Y-113672302D01*
X113719545Y-113672305D01*
X113663685Y-113831943D01*
X113644751Y-113999997D01*
X78505500Y-113999997D01*
X78505500Y-109499997D01*
X106744751Y-109499997D01*
X106744751Y-109500002D01*
X106763685Y-109668056D01*
X106819545Y-109827694D01*
X106819547Y-109827697D01*
X106909518Y-109970884D01*
X106909523Y-109970890D01*
X107029109Y-110090476D01*
X107029115Y-110090481D01*
X107172302Y-110180452D01*
X107172305Y-110180454D01*
X107172309Y-110180455D01*
X107172310Y-110180456D01*
X107244913Y-110205860D01*
X107331943Y-110236314D01*
X107499997Y-110255249D01*
X107500000Y-110255249D01*
X107500003Y-110255249D01*
X107668056Y-110236314D01*
X107668059Y-110236313D01*
X107827690Y-110180456D01*
X107827692Y-110180454D01*
X107827694Y-110180454D01*
X107827697Y-110180452D01*
X107970884Y-110090481D01*
X107970885Y-110090480D01*
X107970890Y-110090477D01*
X108090477Y-109970890D01*
X108180452Y-109827697D01*
X108180454Y-109827694D01*
X108180454Y-109827692D01*
X108180456Y-109827690D01*
X108207642Y-109749997D01*
X109244751Y-109749997D01*
X109244751Y-109750002D01*
X109263685Y-109918056D01*
X109319545Y-110077694D01*
X109319547Y-110077697D01*
X109409518Y-110220884D01*
X109409523Y-110220890D01*
X109529109Y-110340476D01*
X109529115Y-110340481D01*
X109672302Y-110430452D01*
X109672305Y-110430454D01*
X109672309Y-110430455D01*
X109672310Y-110430456D01*
X109744913Y-110455860D01*
X109831943Y-110486314D01*
X109999997Y-110505249D01*
X110000000Y-110505249D01*
X110000003Y-110505249D01*
X110168056Y-110486314D01*
X110168059Y-110486313D01*
X110327690Y-110430456D01*
X110327692Y-110430454D01*
X110327694Y-110430454D01*
X110327697Y-110430452D01*
X110470884Y-110340481D01*
X110470885Y-110340480D01*
X110470890Y-110340477D01*
X110590477Y-110220890D01*
X110672419Y-110090481D01*
X110680452Y-110077697D01*
X110680454Y-110077694D01*
X110680454Y-110077692D01*
X110680456Y-110077690D01*
X110736313Y-109918059D01*
X110736313Y-109918058D01*
X110736314Y-109918056D01*
X110755249Y-109750002D01*
X110755249Y-109749997D01*
X110736314Y-109581943D01*
X110680454Y-109422305D01*
X110680452Y-109422302D01*
X110590481Y-109279115D01*
X110590476Y-109279109D01*
X110470890Y-109159523D01*
X110470884Y-109159518D01*
X110327697Y-109069547D01*
X110327694Y-109069545D01*
X110168056Y-109013685D01*
X110000003Y-108994751D01*
X109999997Y-108994751D01*
X109831943Y-109013685D01*
X109672305Y-109069545D01*
X109672302Y-109069547D01*
X109529115Y-109159518D01*
X109529109Y-109159523D01*
X109409523Y-109279109D01*
X109409518Y-109279115D01*
X109319547Y-109422302D01*
X109319545Y-109422305D01*
X109263685Y-109581943D01*
X109244751Y-109749997D01*
X108207642Y-109749997D01*
X108236313Y-109668059D01*
X108236313Y-109668058D01*
X108236314Y-109668056D01*
X108255249Y-109500002D01*
X108255249Y-109499997D01*
X108236314Y-109331943D01*
X108180454Y-109172305D01*
X108180452Y-109172302D01*
X108090481Y-109029115D01*
X108090476Y-109029109D01*
X107970890Y-108909523D01*
X107970884Y-108909518D01*
X107827697Y-108819547D01*
X107827694Y-108819545D01*
X107668056Y-108763685D01*
X107500003Y-108744751D01*
X107499997Y-108744751D01*
X107331943Y-108763685D01*
X107172305Y-108819545D01*
X107172302Y-108819547D01*
X107029115Y-108909518D01*
X107029109Y-108909523D01*
X106909523Y-109029109D01*
X106909518Y-109029115D01*
X106819547Y-109172302D01*
X106819545Y-109172305D01*
X106763685Y-109331943D01*
X106744751Y-109499997D01*
X78505500Y-109499997D01*
X78505500Y-98774000D01*
X78493947Y-98666544D01*
X78482741Y-98615033D01*
X78482637Y-98614722D01*
X78448616Y-98512502D01*
X78448613Y-98512496D01*
X78370828Y-98391462D01*
X78370825Y-98391457D01*
X78370820Y-98391451D01*
X78325076Y-98338659D01*
X78325072Y-98338656D01*
X78325070Y-98338653D01*
X78216336Y-98244433D01*
X78216333Y-98244431D01*
X78216331Y-98244430D01*
X78085465Y-98184664D01*
X78085460Y-98184662D01*
X78085459Y-98184662D01*
X78018420Y-98164977D01*
X78018422Y-98164977D01*
X78018417Y-98164976D01*
X77956347Y-98156052D01*
X77876000Y-98144500D01*
X60124000Y-98144500D01*
X60123991Y-98144500D01*
X60123990Y-98144501D01*
X60016549Y-98156052D01*
X60016537Y-98156054D01*
X59965027Y-98167260D01*
X59862502Y-98201383D01*
X59862496Y-98201386D01*
X59741462Y-98279171D01*
X59741451Y-98279179D01*
X59688659Y-98324923D01*
X59594433Y-98433664D01*
X59594430Y-98433668D01*
X59534664Y-98564534D01*
X59514976Y-98631582D01*
X59509949Y-98666549D01*
X59494500Y-98774000D01*
X45500500Y-98774000D01*
X45500500Y-93189997D01*
X71269751Y-93189997D01*
X71269751Y-93190002D01*
X71288685Y-93358056D01*
X71344545Y-93517694D01*
X71344547Y-93517697D01*
X71434518Y-93660884D01*
X71434523Y-93660890D01*
X71554109Y-93780476D01*
X71554115Y-93780481D01*
X71697302Y-93870452D01*
X71697305Y-93870454D01*
X71697309Y-93870455D01*
X71697310Y-93870456D01*
X71763775Y-93893713D01*
X71856943Y-93926314D01*
X72024997Y-93945249D01*
X72025000Y-93945249D01*
X72025003Y-93945249D01*
X72193056Y-93926314D01*
X72193059Y-93926313D01*
X72352690Y-93870456D01*
X72352692Y-93870454D01*
X72352694Y-93870454D01*
X72352697Y-93870452D01*
X72495884Y-93780481D01*
X72495885Y-93780480D01*
X72495890Y-93780477D01*
X72615477Y-93660890D01*
X72705452Y-93517697D01*
X72705454Y-93517694D01*
X72705454Y-93517692D01*
X72705456Y-93517690D01*
X72761313Y-93358059D01*
X72761313Y-93358058D01*
X72761314Y-93358056D01*
X72780249Y-93190002D01*
X72780249Y-93189997D01*
X72761314Y-93021943D01*
X72705454Y-92862305D01*
X72705452Y-92862302D01*
X72615481Y-92719115D01*
X72615476Y-92719109D01*
X72495890Y-92599523D01*
X72495884Y-92599518D01*
X72352697Y-92509547D01*
X72352694Y-92509545D01*
X72193056Y-92453685D01*
X72025003Y-92434751D01*
X72024997Y-92434751D01*
X71856943Y-92453685D01*
X71697305Y-92509545D01*
X71697302Y-92509547D01*
X71554115Y-92599518D01*
X71554109Y-92599523D01*
X71434523Y-92719109D01*
X71434518Y-92719115D01*
X71344547Y-92862302D01*
X71344545Y-92862305D01*
X71288685Y-93021943D01*
X71269751Y-93189997D01*
X45500500Y-93189997D01*
X45500500Y-92179408D01*
X73780340Y-92179408D01*
X73780340Y-92179413D01*
X73799274Y-92347467D01*
X73855134Y-92507105D01*
X73855136Y-92507108D01*
X73945107Y-92650295D01*
X73945112Y-92650301D01*
X74064698Y-92769887D01*
X74064704Y-92769892D01*
X74207891Y-92859863D01*
X74207894Y-92859865D01*
X74207898Y-92859866D01*
X74207899Y-92859867D01*
X74214881Y-92862310D01*
X74367532Y-92915725D01*
X74535586Y-92934660D01*
X74535589Y-92934660D01*
X74535592Y-92934660D01*
X74703645Y-92915725D01*
X74703648Y-92915724D01*
X74863279Y-92859867D01*
X74863281Y-92859865D01*
X74863283Y-92859865D01*
X74863286Y-92859863D01*
X75006473Y-92769892D01*
X75006474Y-92769891D01*
X75006479Y-92769888D01*
X75126066Y-92650301D01*
X75157972Y-92599523D01*
X75216041Y-92507108D01*
X75216043Y-92507105D01*
X75216043Y-92507103D01*
X75216045Y-92507101D01*
X75271902Y-92347470D01*
X75271902Y-92347469D01*
X75271903Y-92347467D01*
X75290838Y-92179413D01*
X75290838Y-92179408D01*
X75271903Y-92011354D01*
X75216043Y-91851716D01*
X75216041Y-91851713D01*
X75126070Y-91708526D01*
X75126065Y-91708520D01*
X75006479Y-91588934D01*
X75006473Y-91588929D01*
X74863286Y-91498958D01*
X74863283Y-91498956D01*
X74703645Y-91443096D01*
X74535592Y-91424162D01*
X74535586Y-91424162D01*
X74367532Y-91443096D01*
X74207894Y-91498956D01*
X74207891Y-91498958D01*
X74064704Y-91588929D01*
X74064698Y-91588934D01*
X73945112Y-91708520D01*
X73945107Y-91708526D01*
X73855136Y-91851713D01*
X73855134Y-91851716D01*
X73799274Y-92011354D01*
X73780340Y-92179408D01*
X45500500Y-92179408D01*
X45500500Y-89789997D01*
X64269751Y-89789997D01*
X64269751Y-89790002D01*
X64288685Y-89958056D01*
X64344545Y-90117694D01*
X64344547Y-90117697D01*
X64434518Y-90260884D01*
X64434523Y-90260890D01*
X64554109Y-90380476D01*
X64554115Y-90380481D01*
X64697302Y-90470452D01*
X64697305Y-90470454D01*
X64697309Y-90470455D01*
X64697310Y-90470456D01*
X64769913Y-90495860D01*
X64856943Y-90526314D01*
X65024997Y-90545249D01*
X65025000Y-90545249D01*
X65025003Y-90545249D01*
X65193056Y-90526314D01*
X65193059Y-90526313D01*
X65352690Y-90470456D01*
X65352692Y-90470454D01*
X65352694Y-90470454D01*
X65352697Y-90470452D01*
X65495884Y-90380481D01*
X65495885Y-90380480D01*
X65495890Y-90380477D01*
X65615477Y-90260890D01*
X65637792Y-90225376D01*
X65705452Y-90117697D01*
X65705454Y-90117694D01*
X65705454Y-90117692D01*
X65705456Y-90117690D01*
X65761313Y-89958059D01*
X65761313Y-89958058D01*
X65761314Y-89958056D01*
X65780249Y-89790002D01*
X65780249Y-89789997D01*
X65761314Y-89621943D01*
X65730860Y-89534913D01*
X65705456Y-89462310D01*
X65705455Y-89462309D01*
X65705454Y-89462305D01*
X65705452Y-89462302D01*
X65615481Y-89319115D01*
X65615476Y-89319109D01*
X65495890Y-89199523D01*
X65495884Y-89199518D01*
X65352697Y-89109547D01*
X65352694Y-89109545D01*
X65193056Y-89053685D01*
X65025003Y-89034751D01*
X65024997Y-89034751D01*
X64856943Y-89053685D01*
X64697305Y-89109545D01*
X64697302Y-89109547D01*
X64554115Y-89199518D01*
X64554109Y-89199523D01*
X64434523Y-89319109D01*
X64434518Y-89319115D01*
X64344547Y-89462302D01*
X64344545Y-89462305D01*
X64288685Y-89621943D01*
X64269751Y-89789997D01*
X45500500Y-89789997D01*
X45500500Y-86349997D01*
X63094751Y-86349997D01*
X63094751Y-86350002D01*
X63113685Y-86518056D01*
X63169545Y-86677694D01*
X63169547Y-86677697D01*
X63259518Y-86820884D01*
X63259523Y-86820890D01*
X63379109Y-86940476D01*
X63379115Y-86940481D01*
X63522302Y-87030452D01*
X63522305Y-87030454D01*
X63522309Y-87030455D01*
X63522310Y-87030456D01*
X63557616Y-87042810D01*
X63681943Y-87086314D01*
X63849997Y-87105249D01*
X63850000Y-87105249D01*
X63850003Y-87105249D01*
X64018056Y-87086314D01*
X64030548Y-87081943D01*
X64177690Y-87030456D01*
X64177692Y-87030454D01*
X64177694Y-87030454D01*
X64177697Y-87030452D01*
X64326786Y-86936773D01*
X64327520Y-86937941D01*
X64385128Y-86914414D01*
X64453825Y-86927161D01*
X64504725Y-86975025D01*
X64521667Y-87042810D01*
X64514815Y-87078712D01*
X64513687Y-87081934D01*
X64513686Y-87081940D01*
X64494751Y-87249997D01*
X64494751Y-87250002D01*
X64513685Y-87418056D01*
X64569545Y-87577694D01*
X64569547Y-87577697D01*
X64659518Y-87720884D01*
X64659523Y-87720890D01*
X64779109Y-87840476D01*
X64779115Y-87840481D01*
X64922302Y-87930452D01*
X64922305Y-87930454D01*
X64922309Y-87930455D01*
X64922310Y-87930456D01*
X64994913Y-87955860D01*
X65081943Y-87986314D01*
X65249997Y-88005249D01*
X65250000Y-88005249D01*
X65250003Y-88005249D01*
X65418056Y-87986314D01*
X65418059Y-87986313D01*
X65577690Y-87930456D01*
X65577692Y-87930454D01*
X65577694Y-87930454D01*
X65577697Y-87930452D01*
X65720884Y-87840481D01*
X65720885Y-87840480D01*
X65720890Y-87840477D01*
X65840477Y-87720890D01*
X65840481Y-87720884D01*
X65930452Y-87577697D01*
X65930454Y-87577694D01*
X65930454Y-87577692D01*
X65930456Y-87577690D01*
X65986313Y-87418059D01*
X65986313Y-87418058D01*
X65986314Y-87418056D01*
X66005249Y-87250002D01*
X66005249Y-87249997D01*
X65986314Y-87081943D01*
X65936813Y-86940477D01*
X65930456Y-86922310D01*
X65930455Y-86922309D01*
X65930454Y-86922305D01*
X65930452Y-86922302D01*
X65840481Y-86779115D01*
X65840476Y-86779109D01*
X65720890Y-86659523D01*
X65720884Y-86659518D01*
X65577697Y-86569547D01*
X65577694Y-86569545D01*
X65418056Y-86513685D01*
X65296565Y-86499997D01*
X75494751Y-86499997D01*
X75494751Y-86500002D01*
X75513685Y-86668056D01*
X75552545Y-86779109D01*
X75567162Y-86820884D01*
X75569545Y-86827692D01*
X75636361Y-86934028D01*
X75655361Y-87001264D01*
X75636361Y-87065972D01*
X75569545Y-87172307D01*
X75513685Y-87331943D01*
X75494751Y-87499997D01*
X75494751Y-87500002D01*
X75513685Y-87668056D01*
X75569545Y-87827694D01*
X75569547Y-87827697D01*
X75659518Y-87970884D01*
X75659523Y-87970890D01*
X75779109Y-88090476D01*
X75779115Y-88090481D01*
X75922302Y-88180452D01*
X75922305Y-88180454D01*
X75922309Y-88180455D01*
X75922310Y-88180456D01*
X75994913Y-88205860D01*
X76081943Y-88236314D01*
X76249997Y-88255249D01*
X76250000Y-88255249D01*
X76250003Y-88255249D01*
X76418056Y-88236314D01*
X76418059Y-88236313D01*
X76577690Y-88180456D01*
X76577692Y-88180454D01*
X76577694Y-88180454D01*
X76577697Y-88180452D01*
X76720884Y-88090481D01*
X76720885Y-88090480D01*
X76720890Y-88090477D01*
X76840477Y-87970890D01*
X76841103Y-87969894D01*
X76930452Y-87827697D01*
X76930454Y-87827694D01*
X76930454Y-87827692D01*
X76930456Y-87827690D01*
X76940146Y-87799997D01*
X111644751Y-87799997D01*
X111644751Y-87800002D01*
X111663685Y-87968056D01*
X111719545Y-88127694D01*
X111719547Y-88127697D01*
X111809518Y-88270884D01*
X111809523Y-88270890D01*
X111929109Y-88390476D01*
X111929115Y-88390481D01*
X112072302Y-88480452D01*
X112072305Y-88480454D01*
X112072309Y-88480455D01*
X112072310Y-88480456D01*
X112144913Y-88505860D01*
X112231943Y-88536314D01*
X112399997Y-88555249D01*
X112400000Y-88555249D01*
X112400003Y-88555249D01*
X112568056Y-88536314D01*
X112568059Y-88536313D01*
X112727690Y-88480456D01*
X112727692Y-88480454D01*
X112727694Y-88480454D01*
X112727697Y-88480452D01*
X112870884Y-88390481D01*
X112870885Y-88390480D01*
X112870890Y-88390477D01*
X112990477Y-88270890D01*
X113012203Y-88236314D01*
X113080452Y-88127697D01*
X113080454Y-88127694D01*
X113080454Y-88127692D01*
X113080456Y-88127690D01*
X113136313Y-87968059D01*
X113136313Y-87968058D01*
X113136314Y-87968056D01*
X113155249Y-87800002D01*
X113155249Y-87799997D01*
X113136314Y-87631943D01*
X113100679Y-87530104D01*
X113080456Y-87472310D01*
X113080455Y-87472309D01*
X113080454Y-87472305D01*
X113080452Y-87472302D01*
X112990481Y-87329115D01*
X112990476Y-87329109D01*
X112870890Y-87209523D01*
X112870884Y-87209518D01*
X112727697Y-87119547D01*
X112727694Y-87119545D01*
X112568056Y-87063685D01*
X112400003Y-87044751D01*
X112399997Y-87044751D01*
X112231943Y-87063685D01*
X112072305Y-87119545D01*
X112072302Y-87119547D01*
X111929115Y-87209518D01*
X111929109Y-87209523D01*
X111809523Y-87329109D01*
X111809518Y-87329115D01*
X111719547Y-87472302D01*
X111719545Y-87472305D01*
X111663685Y-87631943D01*
X111644751Y-87799997D01*
X76940146Y-87799997D01*
X76986313Y-87668059D01*
X76986313Y-87668058D01*
X76986314Y-87668056D01*
X77005249Y-87500002D01*
X77005249Y-87499997D01*
X76986314Y-87331943D01*
X76943477Y-87209523D01*
X76930456Y-87172310D01*
X76930454Y-87172307D01*
X76930454Y-87172306D01*
X76897301Y-87119544D01*
X76863638Y-87065971D01*
X76844638Y-86998737D01*
X76863639Y-86934028D01*
X76930456Y-86827690D01*
X76986313Y-86668059D01*
X76986313Y-86668058D01*
X76986314Y-86668056D01*
X77005249Y-86500002D01*
X77005249Y-86499997D01*
X76986314Y-86331943D01*
X76955860Y-86244913D01*
X76930456Y-86172310D01*
X76930455Y-86172309D01*
X76930454Y-86172305D01*
X76930452Y-86172302D01*
X76840481Y-86029115D01*
X76840476Y-86029109D01*
X76720890Y-85909523D01*
X76720884Y-85909518D01*
X76577697Y-85819547D01*
X76577694Y-85819545D01*
X76418056Y-85763685D01*
X76250003Y-85744751D01*
X76249997Y-85744751D01*
X76081943Y-85763685D01*
X75922305Y-85819545D01*
X75922302Y-85819547D01*
X75779115Y-85909518D01*
X75779109Y-85909523D01*
X75659523Y-86029109D01*
X75659518Y-86029115D01*
X75569547Y-86172302D01*
X75569545Y-86172305D01*
X75513685Y-86331943D01*
X75494751Y-86499997D01*
X65296565Y-86499997D01*
X65250003Y-86494751D01*
X65249997Y-86494751D01*
X65081943Y-86513685D01*
X64922305Y-86569545D01*
X64922302Y-86569547D01*
X64773214Y-86663227D01*
X64772482Y-86662062D01*
X64714844Y-86685588D01*
X64646150Y-86672825D01*
X64595260Y-86624950D01*
X64578333Y-86557162D01*
X64585189Y-86521273D01*
X64586313Y-86518059D01*
X64605249Y-86350002D01*
X64605249Y-86349997D01*
X64586314Y-86181943D01*
X64530454Y-86022305D01*
X64530452Y-86022302D01*
X64440481Y-85879115D01*
X64440476Y-85879109D01*
X64320890Y-85759523D01*
X64320884Y-85759518D01*
X64177697Y-85669547D01*
X64177694Y-85669545D01*
X64018056Y-85613685D01*
X63850003Y-85594751D01*
X63849997Y-85594751D01*
X63681943Y-85613685D01*
X63522305Y-85669545D01*
X63522302Y-85669547D01*
X63379115Y-85759518D01*
X63379109Y-85759523D01*
X63259523Y-85879109D01*
X63259518Y-85879115D01*
X63169547Y-86022302D01*
X63169545Y-86022305D01*
X63113685Y-86181943D01*
X63094751Y-86349997D01*
X45500500Y-86349997D01*
X45500500Y-83450586D01*
X66409162Y-83450586D01*
X66409162Y-83450591D01*
X66428096Y-83618645D01*
X66483956Y-83778283D01*
X66483958Y-83778286D01*
X66573929Y-83921473D01*
X66573934Y-83921479D01*
X66693520Y-84041065D01*
X66693526Y-84041070D01*
X66836713Y-84131041D01*
X66836716Y-84131043D01*
X66836720Y-84131044D01*
X66836721Y-84131045D01*
X66909324Y-84156449D01*
X66996354Y-84186903D01*
X67164408Y-84205838D01*
X67164411Y-84205838D01*
X67164414Y-84205838D01*
X67332467Y-84186903D01*
X67332470Y-84186902D01*
X67492101Y-84131045D01*
X67492103Y-84131043D01*
X67492105Y-84131043D01*
X67492108Y-84131041D01*
X67635295Y-84041070D01*
X67635296Y-84041069D01*
X67635301Y-84041066D01*
X67754888Y-83921479D01*
X67837501Y-83790002D01*
X67837504Y-83789997D01*
X85869751Y-83789997D01*
X85869751Y-83790002D01*
X85888685Y-83958056D01*
X85944545Y-84117694D01*
X85944547Y-84117697D01*
X86034518Y-84260884D01*
X86034523Y-84260890D01*
X86154109Y-84380476D01*
X86154115Y-84380481D01*
X86297302Y-84470452D01*
X86297305Y-84470454D01*
X86297309Y-84470455D01*
X86297310Y-84470456D01*
X86369913Y-84495860D01*
X86456943Y-84526314D01*
X86624997Y-84545249D01*
X86625000Y-84545249D01*
X86625003Y-84545249D01*
X86793056Y-84526314D01*
X86815639Y-84518412D01*
X86952690Y-84470456D01*
X86952692Y-84470454D01*
X86952694Y-84470454D01*
X86952697Y-84470452D01*
X87095884Y-84380481D01*
X87095885Y-84380480D01*
X87095890Y-84380477D01*
X87215477Y-84260890D01*
X87250069Y-84205838D01*
X87305452Y-84117697D01*
X87305454Y-84117694D01*
X87305454Y-84117692D01*
X87305456Y-84117690D01*
X87361313Y-83958059D01*
X87361313Y-83958058D01*
X87361314Y-83958056D01*
X87368564Y-83893713D01*
X114524500Y-83893713D01*
X114524500Y-84106287D01*
X114557754Y-84316243D01*
X114607860Y-84470454D01*
X114623444Y-84518414D01*
X114719951Y-84707820D01*
X114844890Y-84879786D01*
X114995209Y-85030105D01*
X114995214Y-85030109D01*
X115159793Y-85149682D01*
X115202459Y-85205011D01*
X115208438Y-85274625D01*
X115175833Y-85336420D01*
X115159793Y-85350318D01*
X114995214Y-85469890D01*
X114995209Y-85469894D01*
X114844890Y-85620213D01*
X114719951Y-85792179D01*
X114623444Y-85981585D01*
X114557753Y-86183760D01*
X114524500Y-86393713D01*
X114524500Y-86606286D01*
X114551872Y-86779110D01*
X114557754Y-86816243D01*
X114617871Y-87001264D01*
X114623444Y-87018414D01*
X114719951Y-87207820D01*
X114844890Y-87379786D01*
X114995209Y-87530105D01*
X114995214Y-87530109D01*
X115159793Y-87649682D01*
X115202459Y-87705011D01*
X115208438Y-87774625D01*
X115175833Y-87836420D01*
X115159793Y-87850318D01*
X114995214Y-87969890D01*
X114995209Y-87969894D01*
X114844890Y-88120213D01*
X114719951Y-88292179D01*
X114623444Y-88481585D01*
X114557753Y-88683760D01*
X114524500Y-88893713D01*
X114524500Y-89106287D01*
X114557754Y-89316243D01*
X114605214Y-89462310D01*
X114623444Y-89518414D01*
X114719951Y-89707820D01*
X114844890Y-89879786D01*
X114995209Y-90030105D01*
X114995214Y-90030109D01*
X115159793Y-90149682D01*
X115202459Y-90205011D01*
X115208438Y-90274625D01*
X115175833Y-90336420D01*
X115159793Y-90350318D01*
X114995214Y-90469890D01*
X114995209Y-90469894D01*
X114844890Y-90620213D01*
X114719951Y-90792179D01*
X114623444Y-90981585D01*
X114557753Y-91183760D01*
X114524500Y-91393713D01*
X114524500Y-91606286D01*
X114557753Y-91816239D01*
X114623444Y-92018414D01*
X114719951Y-92207820D01*
X114844890Y-92379786D01*
X114995209Y-92530105D01*
X114995214Y-92530109D01*
X115159793Y-92649682D01*
X115202459Y-92705011D01*
X115208438Y-92774625D01*
X115175833Y-92836420D01*
X115159793Y-92850318D01*
X114995214Y-92969890D01*
X114995209Y-92969894D01*
X114844890Y-93120213D01*
X114719951Y-93292179D01*
X114623444Y-93481585D01*
X114557753Y-93683760D01*
X114524500Y-93893713D01*
X114524500Y-94106286D01*
X114557753Y-94316239D01*
X114623444Y-94518414D01*
X114719951Y-94707820D01*
X114844890Y-94879786D01*
X114995209Y-95030105D01*
X114995214Y-95030109D01*
X115159793Y-95149682D01*
X115202459Y-95205011D01*
X115208438Y-95274625D01*
X115175833Y-95336420D01*
X115159793Y-95350318D01*
X114995214Y-95469890D01*
X114995209Y-95469894D01*
X114844890Y-95620213D01*
X114719951Y-95792179D01*
X114623444Y-95981585D01*
X114557753Y-96183760D01*
X114524500Y-96393713D01*
X114524500Y-96606286D01*
X114557753Y-96816239D01*
X114623444Y-97018414D01*
X114719951Y-97207820D01*
X114844890Y-97379786D01*
X114995209Y-97530105D01*
X114995214Y-97530109D01*
X115159793Y-97649682D01*
X115202459Y-97705011D01*
X115208438Y-97774625D01*
X115175833Y-97836420D01*
X115159793Y-97850318D01*
X114995214Y-97969890D01*
X114995209Y-97969894D01*
X114844890Y-98120213D01*
X114719951Y-98292179D01*
X114623444Y-98481585D01*
X114557753Y-98683760D01*
X114524500Y-98893713D01*
X114524500Y-99106286D01*
X114557753Y-99316239D01*
X114623444Y-99518414D01*
X114719951Y-99707820D01*
X114844890Y-99879786D01*
X114995209Y-100030105D01*
X114995214Y-100030109D01*
X115159793Y-100149682D01*
X115202459Y-100205011D01*
X115208438Y-100274625D01*
X115175833Y-100336420D01*
X115159793Y-100350318D01*
X114995214Y-100469890D01*
X114995209Y-100469894D01*
X114844890Y-100620213D01*
X114719951Y-100792179D01*
X114623444Y-100981585D01*
X114557753Y-101183760D01*
X114524500Y-101393713D01*
X114524500Y-101606286D01*
X114557753Y-101816239D01*
X114623444Y-102018414D01*
X114719951Y-102207820D01*
X114844890Y-102379786D01*
X114995209Y-102530105D01*
X114995214Y-102530109D01*
X115159793Y-102649682D01*
X115202459Y-102705011D01*
X115208438Y-102774625D01*
X115175833Y-102836420D01*
X115159793Y-102850318D01*
X114995214Y-102969890D01*
X114995209Y-102969894D01*
X114844890Y-103120213D01*
X114719951Y-103292179D01*
X114623444Y-103481585D01*
X114557753Y-103683760D01*
X114524500Y-103893713D01*
X114524500Y-104106286D01*
X114557753Y-104316239D01*
X114623444Y-104518414D01*
X114719951Y-104707820D01*
X114844890Y-104879786D01*
X114983705Y-105018601D01*
X115017190Y-105079924D01*
X115012206Y-105149616D01*
X114970334Y-105205549D01*
X114961121Y-105211821D01*
X114806342Y-105307289D01*
X114682289Y-105431342D01*
X114590187Y-105580663D01*
X114590186Y-105580666D01*
X114535001Y-105747203D01*
X114535001Y-105747204D01*
X114535000Y-105747204D01*
X114524500Y-105849983D01*
X114524500Y-107150001D01*
X114524501Y-107150018D01*
X114535000Y-107252796D01*
X114535001Y-107252799D01*
X114590185Y-107419331D01*
X114590186Y-107419334D01*
X114682288Y-107568656D01*
X114806344Y-107692712D01*
X114955666Y-107784814D01*
X115122203Y-107839999D01*
X115224991Y-107850500D01*
X116775008Y-107850499D01*
X116877797Y-107839999D01*
X117044334Y-107784814D01*
X117193656Y-107692712D01*
X117317712Y-107568656D01*
X117409814Y-107419334D01*
X117464999Y-107252797D01*
X117475500Y-107150009D01*
X117475499Y-105849992D01*
X117464999Y-105747203D01*
X117409814Y-105580666D01*
X117317712Y-105431344D01*
X117193656Y-105307288D01*
X117044334Y-105215186D01*
X117044333Y-105215185D01*
X117038878Y-105211821D01*
X116992154Y-105159873D01*
X116980931Y-105090910D01*
X117008775Y-105026828D01*
X117016272Y-105018623D01*
X117155104Y-104879792D01*
X117280051Y-104707816D01*
X117376557Y-104518412D01*
X117442246Y-104316243D01*
X117475500Y-104106287D01*
X117475500Y-103893713D01*
X117442246Y-103683757D01*
X117376557Y-103481588D01*
X117280051Y-103292184D01*
X117280049Y-103292181D01*
X117280048Y-103292179D01*
X117155109Y-103120213D01*
X117004792Y-102969896D01*
X117004784Y-102969890D01*
X116840204Y-102850316D01*
X116797540Y-102794989D01*
X116791561Y-102725376D01*
X116824166Y-102663580D01*
X116840199Y-102649686D01*
X117004792Y-102530104D01*
X117155104Y-102379792D01*
X117155106Y-102379788D01*
X117155109Y-102379786D01*
X117280048Y-102207820D01*
X117280047Y-102207820D01*
X117280051Y-102207816D01*
X117376557Y-102018412D01*
X117442246Y-101816243D01*
X117475500Y-101606287D01*
X117475500Y-101393713D01*
X117442246Y-101183757D01*
X117376557Y-100981588D01*
X117280051Y-100792184D01*
X117280049Y-100792181D01*
X117280048Y-100792179D01*
X117155109Y-100620213D01*
X117004792Y-100469896D01*
X117004784Y-100469890D01*
X116840204Y-100350316D01*
X116797540Y-100294989D01*
X116791561Y-100225376D01*
X116824166Y-100163580D01*
X116840199Y-100149686D01*
X117004792Y-100030104D01*
X117155104Y-99879792D01*
X117155106Y-99879788D01*
X117155109Y-99879786D01*
X117280048Y-99707820D01*
X117280047Y-99707820D01*
X117280051Y-99707816D01*
X117376557Y-99518412D01*
X117442246Y-99316243D01*
X117475500Y-99106287D01*
X117475500Y-98893713D01*
X117442246Y-98683757D01*
X117376557Y-98481588D01*
X117280051Y-98292184D01*
X117280049Y-98292181D01*
X117280048Y-98292179D01*
X117155109Y-98120213D01*
X117004792Y-97969896D01*
X117004784Y-97969890D01*
X116840204Y-97850316D01*
X116797540Y-97794989D01*
X116791561Y-97725376D01*
X116824166Y-97663580D01*
X116840199Y-97649686D01*
X117004792Y-97530104D01*
X117155104Y-97379792D01*
X117155106Y-97379788D01*
X117155109Y-97379786D01*
X117280048Y-97207820D01*
X117280047Y-97207820D01*
X117280051Y-97207816D01*
X117376557Y-97018412D01*
X117442246Y-96816243D01*
X117475500Y-96606287D01*
X117475500Y-96393713D01*
X117442246Y-96183757D01*
X117376557Y-95981588D01*
X117280051Y-95792184D01*
X117280049Y-95792181D01*
X117280048Y-95792179D01*
X117155109Y-95620213D01*
X117004792Y-95469896D01*
X117004784Y-95469890D01*
X116840204Y-95350316D01*
X116797540Y-95294989D01*
X116791561Y-95225376D01*
X116824166Y-95163580D01*
X116840199Y-95149686D01*
X117004792Y-95030104D01*
X117155104Y-94879792D01*
X117155106Y-94879788D01*
X117155109Y-94879786D01*
X117280048Y-94707820D01*
X117280047Y-94707820D01*
X117280051Y-94707816D01*
X117376557Y-94518412D01*
X117442246Y-94316243D01*
X117475500Y-94106287D01*
X117475500Y-93893713D01*
X117442246Y-93683757D01*
X117376557Y-93481588D01*
X117280051Y-93292184D01*
X117280049Y-93292181D01*
X117280048Y-93292179D01*
X117155109Y-93120213D01*
X117004792Y-92969896D01*
X116930230Y-92915724D01*
X116840204Y-92850316D01*
X116797540Y-92794989D01*
X116791561Y-92725376D01*
X116824166Y-92663580D01*
X116840199Y-92649686D01*
X117004792Y-92530104D01*
X117155104Y-92379792D01*
X117155106Y-92379788D01*
X117155109Y-92379786D01*
X117280048Y-92207820D01*
X117280047Y-92207820D01*
X117280051Y-92207816D01*
X117376557Y-92018412D01*
X117442246Y-91816243D01*
X117475500Y-91606287D01*
X117475500Y-91393713D01*
X117442246Y-91183757D01*
X117376557Y-90981588D01*
X117280051Y-90792184D01*
X117280049Y-90792181D01*
X117280048Y-90792179D01*
X117155109Y-90620213D01*
X117004792Y-90469896D01*
X117004784Y-90469890D01*
X116840204Y-90350316D01*
X116797540Y-90294989D01*
X116791561Y-90225376D01*
X116824166Y-90163580D01*
X116840199Y-90149686D01*
X117004792Y-90030104D01*
X117155104Y-89879792D01*
X117155106Y-89879788D01*
X117155109Y-89879786D01*
X117280048Y-89707820D01*
X117280047Y-89707820D01*
X117280051Y-89707816D01*
X117376557Y-89518412D01*
X117442246Y-89316243D01*
X117475500Y-89106287D01*
X117475500Y-88893713D01*
X117442246Y-88683757D01*
X117376557Y-88481588D01*
X117280051Y-88292184D01*
X117280049Y-88292181D01*
X117280048Y-88292179D01*
X117155109Y-88120213D01*
X117004792Y-87969896D01*
X116950504Y-87930454D01*
X116840204Y-87850316D01*
X116797540Y-87794989D01*
X116791561Y-87725376D01*
X116824166Y-87663580D01*
X116840199Y-87649686D01*
X117004792Y-87530104D01*
X117155104Y-87379792D01*
X117155106Y-87379788D01*
X117155109Y-87379786D01*
X117280048Y-87207820D01*
X117280047Y-87207820D01*
X117280051Y-87207816D01*
X117376557Y-87018412D01*
X117442246Y-86816243D01*
X117475500Y-86606287D01*
X117475500Y-86393713D01*
X117442246Y-86183757D01*
X117376557Y-85981588D01*
X117280051Y-85792184D01*
X117280049Y-85792181D01*
X117280048Y-85792179D01*
X117155109Y-85620213D01*
X117004792Y-85469896D01*
X117004784Y-85469890D01*
X116840204Y-85350316D01*
X116797540Y-85294989D01*
X116791561Y-85225376D01*
X116824166Y-85163580D01*
X116840199Y-85149686D01*
X117004792Y-85030104D01*
X117155104Y-84879792D01*
X117155106Y-84879788D01*
X117155109Y-84879786D01*
X117280048Y-84707820D01*
X117280047Y-84707820D01*
X117280051Y-84707816D01*
X117376557Y-84518412D01*
X117442246Y-84316243D01*
X117475500Y-84106287D01*
X117475500Y-83893713D01*
X117442246Y-83683757D01*
X117376557Y-83481588D01*
X117280051Y-83292184D01*
X117280049Y-83292181D01*
X117280048Y-83292179D01*
X117155109Y-83120213D01*
X117004786Y-82969890D01*
X116832820Y-82844951D01*
X116643414Y-82748444D01*
X116643413Y-82748443D01*
X116643412Y-82748443D01*
X116441243Y-82682754D01*
X116441241Y-82682753D01*
X116441240Y-82682753D01*
X116279957Y-82657208D01*
X116231287Y-82649500D01*
X115768713Y-82649500D01*
X115720042Y-82657208D01*
X115558760Y-82682753D01*
X115356585Y-82748444D01*
X115167179Y-82844951D01*
X114995213Y-82969890D01*
X114844890Y-83120213D01*
X114719951Y-83292179D01*
X114623444Y-83481585D01*
X114557753Y-83683760D01*
X114540926Y-83790002D01*
X114524500Y-83893713D01*
X87368564Y-83893713D01*
X87380249Y-83790002D01*
X87380249Y-83789997D01*
X87361314Y-83621943D01*
X87330860Y-83534913D01*
X87305456Y-83462310D01*
X87305455Y-83462309D01*
X87305454Y-83462305D01*
X87305452Y-83462302D01*
X87215481Y-83319115D01*
X87215476Y-83319109D01*
X87095890Y-83199523D01*
X87095884Y-83199518D01*
X86952697Y-83109547D01*
X86952694Y-83109545D01*
X86793056Y-83053685D01*
X86625003Y-83034751D01*
X86624997Y-83034751D01*
X86456943Y-83053685D01*
X86297305Y-83109545D01*
X86297302Y-83109547D01*
X86154115Y-83199518D01*
X86154109Y-83199523D01*
X86034523Y-83319109D01*
X86034518Y-83319115D01*
X85944547Y-83462302D01*
X85944545Y-83462305D01*
X85888685Y-83621943D01*
X85869751Y-83789997D01*
X67837504Y-83789997D01*
X67844863Y-83778286D01*
X67844865Y-83778283D01*
X67844865Y-83778281D01*
X67844867Y-83778279D01*
X67900724Y-83618648D01*
X67900724Y-83618647D01*
X67900725Y-83618645D01*
X67919660Y-83450591D01*
X67919660Y-83450586D01*
X67900725Y-83282532D01*
X67844865Y-83122894D01*
X67844863Y-83122891D01*
X67754892Y-82979704D01*
X67754887Y-82979698D01*
X67635301Y-82860112D01*
X67635295Y-82860107D01*
X67492108Y-82770136D01*
X67492105Y-82770134D01*
X67332467Y-82714274D01*
X67164414Y-82695340D01*
X67164408Y-82695340D01*
X66996354Y-82714274D01*
X66836716Y-82770134D01*
X66836713Y-82770136D01*
X66693526Y-82860107D01*
X66693520Y-82860112D01*
X66573934Y-82979698D01*
X66573929Y-82979704D01*
X66483958Y-83122891D01*
X66483956Y-83122894D01*
X66428096Y-83282532D01*
X66409162Y-83450586D01*
X45500500Y-83450586D01*
X45500500Y-82249997D01*
X68869751Y-82249997D01*
X68869751Y-82250002D01*
X68888685Y-82418056D01*
X68944545Y-82577694D01*
X68944547Y-82577697D01*
X69034518Y-82720884D01*
X69034523Y-82720890D01*
X69154109Y-82840476D01*
X69154115Y-82840481D01*
X69297302Y-82930452D01*
X69297305Y-82930454D01*
X69297309Y-82930455D01*
X69297310Y-82930456D01*
X69368745Y-82955452D01*
X69456943Y-82986314D01*
X69624997Y-83005249D01*
X69625000Y-83005249D01*
X69625003Y-83005249D01*
X69793056Y-82986314D01*
X69793059Y-82986313D01*
X69952690Y-82930456D01*
X69952692Y-82930454D01*
X69952694Y-82930454D01*
X69952697Y-82930452D01*
X70095884Y-82840481D01*
X70095885Y-82840480D01*
X70095890Y-82840477D01*
X70215477Y-82720890D01*
X70289745Y-82602694D01*
X70305452Y-82577697D01*
X70305454Y-82577694D01*
X70305454Y-82577692D01*
X70305456Y-82577690D01*
X70361313Y-82418059D01*
X70361313Y-82418058D01*
X70361314Y-82418056D01*
X70377433Y-82274997D01*
X71269751Y-82274997D01*
X71269751Y-82275002D01*
X71288685Y-82443056D01*
X71344545Y-82602694D01*
X71344547Y-82602697D01*
X71434518Y-82745884D01*
X71434523Y-82745890D01*
X71554109Y-82865476D01*
X71554115Y-82865481D01*
X71697302Y-82955452D01*
X71697305Y-82955454D01*
X71697309Y-82955455D01*
X71697310Y-82955456D01*
X71766590Y-82979698D01*
X71856943Y-83011314D01*
X72024997Y-83030249D01*
X72025000Y-83030249D01*
X72025003Y-83030249D01*
X72193056Y-83011314D01*
X72264502Y-82986314D01*
X72352690Y-82955456D01*
X72352692Y-82955454D01*
X72352694Y-82955454D01*
X72352697Y-82955452D01*
X72495884Y-82865481D01*
X72495885Y-82865480D01*
X72495890Y-82865477D01*
X72615477Y-82745890D01*
X72631186Y-82720890D01*
X72705452Y-82602697D01*
X72705454Y-82602694D01*
X72705454Y-82602692D01*
X72705456Y-82602690D01*
X72761313Y-82443059D01*
X72761313Y-82443058D01*
X72761314Y-82443056D01*
X72780249Y-82275002D01*
X72780249Y-82274997D01*
X72777432Y-82249997D01*
X73494751Y-82249997D01*
X73494751Y-82250002D01*
X73513685Y-82418056D01*
X73569545Y-82577694D01*
X73569547Y-82577697D01*
X73659518Y-82720884D01*
X73659523Y-82720890D01*
X73779109Y-82840476D01*
X73779115Y-82840481D01*
X73922302Y-82930452D01*
X73922305Y-82930454D01*
X73922309Y-82930455D01*
X73922310Y-82930456D01*
X73993745Y-82955452D01*
X74081943Y-82986314D01*
X74249997Y-83005249D01*
X74250000Y-83005249D01*
X74250003Y-83005249D01*
X74418056Y-82986314D01*
X74418059Y-82986313D01*
X74577690Y-82930456D01*
X74577692Y-82930454D01*
X74577694Y-82930454D01*
X74577697Y-82930452D01*
X74720884Y-82840481D01*
X74720885Y-82840480D01*
X74720890Y-82840477D01*
X74840477Y-82720890D01*
X74914745Y-82602694D01*
X74930452Y-82577697D01*
X74930454Y-82577694D01*
X74930454Y-82577692D01*
X74930456Y-82577690D01*
X74986313Y-82418059D01*
X74986313Y-82418058D01*
X74986314Y-82418056D01*
X75005249Y-82250002D01*
X75005249Y-82249997D01*
X74986314Y-82081943D01*
X74930454Y-81922305D01*
X74930452Y-81922302D01*
X74840481Y-81779115D01*
X74840476Y-81779109D01*
X74720890Y-81659523D01*
X74720884Y-81659518D01*
X74577697Y-81569547D01*
X74577694Y-81569545D01*
X74418056Y-81513685D01*
X74250003Y-81494751D01*
X74249997Y-81494751D01*
X74081943Y-81513685D01*
X73922305Y-81569545D01*
X73922302Y-81569547D01*
X73779115Y-81659518D01*
X73779109Y-81659523D01*
X73659523Y-81779109D01*
X73659518Y-81779115D01*
X73569547Y-81922302D01*
X73569545Y-81922305D01*
X73513685Y-82081943D01*
X73494751Y-82249997D01*
X72777432Y-82249997D01*
X72761314Y-82106943D01*
X72705454Y-81947305D01*
X72705452Y-81947302D01*
X72615481Y-81804115D01*
X72615476Y-81804109D01*
X72495890Y-81684523D01*
X72495884Y-81684518D01*
X72352697Y-81594547D01*
X72352694Y-81594545D01*
X72193056Y-81538685D01*
X72025003Y-81519751D01*
X72024997Y-81519751D01*
X71856943Y-81538685D01*
X71697305Y-81594545D01*
X71697302Y-81594547D01*
X71554115Y-81684518D01*
X71554109Y-81684523D01*
X71434523Y-81804109D01*
X71434518Y-81804115D01*
X71344547Y-81947302D01*
X71344545Y-81947305D01*
X71288685Y-82106943D01*
X71269751Y-82274997D01*
X70377433Y-82274997D01*
X70380249Y-82250002D01*
X70380249Y-82249997D01*
X70361314Y-82081943D01*
X70305454Y-81922305D01*
X70305452Y-81922302D01*
X70215481Y-81779115D01*
X70215476Y-81779109D01*
X70095890Y-81659523D01*
X70095884Y-81659518D01*
X69952697Y-81569547D01*
X69952694Y-81569545D01*
X69793056Y-81513685D01*
X69625003Y-81494751D01*
X69624997Y-81494751D01*
X69456943Y-81513685D01*
X69297305Y-81569545D01*
X69297302Y-81569547D01*
X69154115Y-81659518D01*
X69154109Y-81659523D01*
X69034523Y-81779109D01*
X69034518Y-81779115D01*
X68944547Y-81922302D01*
X68944545Y-81922305D01*
X68888685Y-82081943D01*
X68869751Y-82249997D01*
X45500500Y-82249997D01*
X45500500Y-80499997D01*
X77994751Y-80499997D01*
X77994751Y-80500002D01*
X78013685Y-80668056D01*
X78069545Y-80827694D01*
X78069547Y-80827697D01*
X78159518Y-80970884D01*
X78159523Y-80970890D01*
X78279109Y-81090476D01*
X78279115Y-81090481D01*
X78422302Y-81180452D01*
X78422305Y-81180454D01*
X78422309Y-81180455D01*
X78422310Y-81180456D01*
X78494913Y-81205860D01*
X78581943Y-81236314D01*
X78749997Y-81255249D01*
X78750000Y-81255249D01*
X78750003Y-81255249D01*
X78918056Y-81236314D01*
X78918059Y-81236313D01*
X79077690Y-81180456D01*
X79077692Y-81180454D01*
X79077694Y-81180454D01*
X79077697Y-81180452D01*
X79220884Y-81090481D01*
X79220885Y-81090480D01*
X79220890Y-81090477D01*
X79340477Y-80970890D01*
X79373901Y-80917697D01*
X79430452Y-80827697D01*
X79430454Y-80827694D01*
X79430454Y-80827692D01*
X79430456Y-80827690D01*
X79486313Y-80668059D01*
X79486313Y-80668058D01*
X79486314Y-80668056D01*
X79495109Y-80589997D01*
X85469751Y-80589997D01*
X85469751Y-80590002D01*
X85488685Y-80758056D01*
X85544545Y-80917694D01*
X85544547Y-80917697D01*
X85634518Y-81060884D01*
X85634523Y-81060890D01*
X85754109Y-81180476D01*
X85754115Y-81180481D01*
X85897302Y-81270452D01*
X85897305Y-81270454D01*
X85897309Y-81270455D01*
X85897310Y-81270456D01*
X85969913Y-81295860D01*
X86056943Y-81326314D01*
X86224997Y-81345249D01*
X86225000Y-81345249D01*
X86225003Y-81345249D01*
X86393056Y-81326314D01*
X86393059Y-81326313D01*
X86552690Y-81270456D01*
X86552692Y-81270454D01*
X86552694Y-81270454D01*
X86552697Y-81270452D01*
X86695884Y-81180481D01*
X86695885Y-81180480D01*
X86695890Y-81180477D01*
X86815477Y-81060890D01*
X86905452Y-80917697D01*
X86905454Y-80917694D01*
X86905454Y-80917692D01*
X86905456Y-80917690D01*
X86961313Y-80758059D01*
X86961313Y-80758058D01*
X86961314Y-80758056D01*
X86980249Y-80590002D01*
X86980249Y-80589997D01*
X86961314Y-80421943D01*
X86930860Y-80334913D01*
X86905456Y-80262310D01*
X86905455Y-80262309D01*
X86905454Y-80262305D01*
X86905452Y-80262302D01*
X86815481Y-80119115D01*
X86815476Y-80119109D01*
X86695890Y-79999523D01*
X86695884Y-79999518D01*
X86552697Y-79909547D01*
X86552694Y-79909545D01*
X86393056Y-79853685D01*
X86225003Y-79834751D01*
X86224997Y-79834751D01*
X86056943Y-79853685D01*
X85897305Y-79909545D01*
X85897302Y-79909547D01*
X85754115Y-79999518D01*
X85754109Y-79999523D01*
X85634523Y-80119109D01*
X85634518Y-80119115D01*
X85544547Y-80262302D01*
X85544545Y-80262305D01*
X85488685Y-80421943D01*
X85469751Y-80589997D01*
X79495109Y-80589997D01*
X79505249Y-80500002D01*
X79505249Y-80499997D01*
X79486314Y-80331943D01*
X79433306Y-80180456D01*
X79430456Y-80172310D01*
X79430455Y-80172309D01*
X79430454Y-80172305D01*
X79430452Y-80172302D01*
X79340481Y-80029115D01*
X79340476Y-80029109D01*
X79220890Y-79909523D01*
X79220884Y-79909518D01*
X79077697Y-79819547D01*
X79077694Y-79819545D01*
X78918056Y-79763685D01*
X78750003Y-79744751D01*
X78749997Y-79744751D01*
X78581943Y-79763685D01*
X78422305Y-79819545D01*
X78422302Y-79819547D01*
X78279115Y-79909518D01*
X78279109Y-79909523D01*
X78159523Y-80029109D01*
X78159518Y-80029115D01*
X78069547Y-80172302D01*
X78069545Y-80172305D01*
X78013685Y-80331943D01*
X77994751Y-80499997D01*
X45500500Y-80499997D01*
X45500500Y-79499997D01*
X67994751Y-79499997D01*
X67994751Y-79500002D01*
X68013685Y-79668056D01*
X68069545Y-79827694D01*
X68069547Y-79827697D01*
X68159518Y-79970884D01*
X68159523Y-79970890D01*
X68279109Y-80090476D01*
X68279115Y-80090481D01*
X68422302Y-80180452D01*
X68422305Y-80180454D01*
X68422309Y-80180455D01*
X68422310Y-80180456D01*
X68494913Y-80205860D01*
X68581943Y-80236314D01*
X68749997Y-80255249D01*
X68750000Y-80255249D01*
X68750003Y-80255249D01*
X68918056Y-80236314D01*
X68918059Y-80236313D01*
X69077690Y-80180456D01*
X69077692Y-80180454D01*
X69077694Y-80180454D01*
X69077697Y-80180452D01*
X69220884Y-80090481D01*
X69220885Y-80090480D01*
X69220890Y-80090477D01*
X69340477Y-79970890D01*
X69379023Y-79909545D01*
X69430452Y-79827697D01*
X69430454Y-79827694D01*
X69430454Y-79827692D01*
X69430456Y-79827690D01*
X69486313Y-79668059D01*
X69486313Y-79668058D01*
X69486314Y-79668056D01*
X69505249Y-79500002D01*
X69505249Y-79499997D01*
X69486314Y-79331943D01*
X69430454Y-79172305D01*
X69430452Y-79172302D01*
X69340481Y-79029115D01*
X69340476Y-79029109D01*
X69220890Y-78909523D01*
X69220884Y-78909518D01*
X69077697Y-78819547D01*
X69077694Y-78819545D01*
X68918056Y-78763685D01*
X68750003Y-78744751D01*
X68749997Y-78744751D01*
X68581943Y-78763685D01*
X68422305Y-78819545D01*
X68422302Y-78819547D01*
X68279115Y-78909518D01*
X68279109Y-78909523D01*
X68159523Y-79029109D01*
X68159518Y-79029115D01*
X68069547Y-79172302D01*
X68069545Y-79172305D01*
X68013685Y-79331943D01*
X67994751Y-79499997D01*
X45500500Y-79499997D01*
X45500500Y-76349997D01*
X76494751Y-76349997D01*
X76494751Y-76350002D01*
X76513685Y-76518056D01*
X76569545Y-76677694D01*
X76569547Y-76677697D01*
X76659518Y-76820884D01*
X76659523Y-76820890D01*
X76779109Y-76940476D01*
X76779115Y-76940481D01*
X76922302Y-77030452D01*
X76922305Y-77030454D01*
X76922309Y-77030455D01*
X76922310Y-77030456D01*
X76994913Y-77055860D01*
X77081943Y-77086314D01*
X77249997Y-77105249D01*
X77250000Y-77105249D01*
X77250003Y-77105249D01*
X77418056Y-77086314D01*
X77418059Y-77086313D01*
X77577690Y-77030456D01*
X77577692Y-77030454D01*
X77577694Y-77030454D01*
X77577697Y-77030452D01*
X77720884Y-76940481D01*
X77720885Y-76940480D01*
X77720890Y-76940477D01*
X77840477Y-76820890D01*
X77930452Y-76677697D01*
X77930454Y-76677694D01*
X77930454Y-76677692D01*
X77930456Y-76677690D01*
X77986313Y-76518059D01*
X77986313Y-76518058D01*
X77986314Y-76518056D01*
X78005249Y-76350002D01*
X78005249Y-76349997D01*
X77986314Y-76181943D01*
X77930454Y-76022305D01*
X77930452Y-76022302D01*
X77840481Y-75879115D01*
X77840476Y-75879109D01*
X77720890Y-75759523D01*
X77720884Y-75759518D01*
X77577697Y-75669547D01*
X77577694Y-75669545D01*
X77418056Y-75613685D01*
X77250003Y-75594751D01*
X77249997Y-75594751D01*
X77081943Y-75613685D01*
X76922305Y-75669545D01*
X76922302Y-75669547D01*
X76779115Y-75759518D01*
X76779109Y-75759523D01*
X76659523Y-75879109D01*
X76659518Y-75879115D01*
X76569547Y-76022302D01*
X76569545Y-76022305D01*
X76513685Y-76181943D01*
X76494751Y-76349997D01*
X45500500Y-76349997D01*
X45500500Y-75499997D01*
X67994751Y-75499997D01*
X67994751Y-75500002D01*
X68013685Y-75668056D01*
X68069545Y-75827694D01*
X68069547Y-75827697D01*
X68159518Y-75970884D01*
X68159523Y-75970890D01*
X68279109Y-76090476D01*
X68279115Y-76090481D01*
X68422302Y-76180452D01*
X68422305Y-76180454D01*
X68422309Y-76180455D01*
X68422310Y-76180456D01*
X68426560Y-76181943D01*
X68581943Y-76236314D01*
X68749997Y-76255249D01*
X68750000Y-76255249D01*
X68750003Y-76255249D01*
X68918056Y-76236314D01*
X68946017Y-76226530D01*
X69077690Y-76180456D01*
X69077692Y-76180454D01*
X69077694Y-76180454D01*
X69077697Y-76180452D01*
X69220884Y-76090481D01*
X69220885Y-76090480D01*
X69220890Y-76090477D01*
X69340477Y-75970890D01*
X69340481Y-75970884D01*
X69430452Y-75827697D01*
X69430454Y-75827694D01*
X69430454Y-75827692D01*
X69430456Y-75827690D01*
X69486313Y-75668059D01*
X69486313Y-75668058D01*
X69486314Y-75668056D01*
X69505249Y-75500002D01*
X69505249Y-75499997D01*
X69486314Y-75331943D01*
X69430454Y-75172305D01*
X69430452Y-75172302D01*
X69340481Y-75029115D01*
X69340476Y-75029109D01*
X69220890Y-74909523D01*
X69220884Y-74909518D01*
X69077697Y-74819547D01*
X69077694Y-74819545D01*
X68918056Y-74763685D01*
X68750003Y-74744751D01*
X68749997Y-74744751D01*
X68581943Y-74763685D01*
X68422305Y-74819545D01*
X68422302Y-74819547D01*
X68279115Y-74909518D01*
X68279109Y-74909523D01*
X68159523Y-75029109D01*
X68159518Y-75029115D01*
X68069547Y-75172302D01*
X68069545Y-75172305D01*
X68013685Y-75331943D01*
X67994751Y-75499997D01*
X45500500Y-75499997D01*
X45500500Y-74000000D01*
X107294564Y-74000000D01*
X107314289Y-74326099D01*
X107373178Y-74647452D01*
X107470366Y-74959342D01*
X107470370Y-74959354D01*
X107470373Y-74959361D01*
X107604455Y-75257279D01*
X107751187Y-75500002D01*
X107773473Y-75536868D01*
X107974954Y-75794039D01*
X108205960Y-76025045D01*
X108463131Y-76226526D01*
X108463134Y-76226528D01*
X108463137Y-76226530D01*
X108742721Y-76395545D01*
X109040639Y-76529627D01*
X109040652Y-76529631D01*
X109040657Y-76529633D01*
X109352547Y-76626821D01*
X109673896Y-76685710D01*
X110000000Y-76705436D01*
X110326104Y-76685710D01*
X110647453Y-76626821D01*
X110959361Y-76529627D01*
X111257279Y-76395545D01*
X111536863Y-76226530D01*
X111794036Y-76025048D01*
X112025048Y-75794036D01*
X112226530Y-75536863D01*
X112395545Y-75257279D01*
X112529627Y-74959361D01*
X112626821Y-74647453D01*
X112685710Y-74326104D01*
X112705436Y-74000000D01*
X112685710Y-73673896D01*
X112626821Y-73352547D01*
X112529627Y-73040639D01*
X112395545Y-72742721D01*
X112226530Y-72463137D01*
X112226528Y-72463134D01*
X112226526Y-72463131D01*
X112025045Y-72205960D01*
X111794039Y-71974954D01*
X111536868Y-71773473D01*
X111452221Y-71722302D01*
X111257279Y-71604455D01*
X110959361Y-71470373D01*
X110959354Y-71470370D01*
X110959342Y-71470366D01*
X110647452Y-71373178D01*
X110326099Y-71314289D01*
X110000000Y-71294564D01*
X109673900Y-71314289D01*
X109352547Y-71373178D01*
X109040657Y-71470366D01*
X109040641Y-71470372D01*
X109040639Y-71470373D01*
X108850933Y-71555752D01*
X108742725Y-71604453D01*
X108742723Y-71604454D01*
X108463131Y-71773473D01*
X108205960Y-71974954D01*
X107974954Y-72205960D01*
X107773473Y-72463131D01*
X107738557Y-72520890D01*
X107611870Y-72730456D01*
X107604454Y-72742723D01*
X107604453Y-72742725D01*
X107470372Y-73040642D01*
X107470366Y-73040657D01*
X107373178Y-73352547D01*
X107314289Y-73673900D01*
X107294564Y-74000000D01*
X45500500Y-74000000D01*
X45500500Y-72049997D01*
X75944751Y-72049997D01*
X75944751Y-72050002D01*
X75963685Y-72218056D01*
X76019545Y-72377694D01*
X76019547Y-72377697D01*
X76109518Y-72520884D01*
X76109523Y-72520890D01*
X76229109Y-72640476D01*
X76229115Y-72640481D01*
X76372302Y-72730452D01*
X76372305Y-72730454D01*
X76372309Y-72730455D01*
X76372310Y-72730456D01*
X76407373Y-72742725D01*
X76531943Y-72786314D01*
X76699997Y-72805249D01*
X76700000Y-72805249D01*
X76700003Y-72805249D01*
X76868056Y-72786314D01*
X76868059Y-72786313D01*
X77027690Y-72730456D01*
X77027692Y-72730454D01*
X77027694Y-72730454D01*
X77027697Y-72730452D01*
X77170884Y-72640481D01*
X77170885Y-72640480D01*
X77170890Y-72640477D01*
X77290477Y-72520890D01*
X77380452Y-72377697D01*
X77380454Y-72377694D01*
X77380454Y-72377692D01*
X77380456Y-72377690D01*
X77436313Y-72218059D01*
X77436313Y-72218058D01*
X77436314Y-72218056D01*
X77455249Y-72050002D01*
X77455249Y-72049997D01*
X77436314Y-71881943D01*
X77398359Y-71773473D01*
X77380456Y-71722310D01*
X77380455Y-71722309D01*
X77380454Y-71722305D01*
X77380452Y-71722302D01*
X77290481Y-71579115D01*
X77290476Y-71579109D01*
X77170890Y-71459523D01*
X77170884Y-71459518D01*
X77027697Y-71369547D01*
X77027694Y-71369545D01*
X76868056Y-71313685D01*
X76700003Y-71294751D01*
X76699997Y-71294751D01*
X76531943Y-71313685D01*
X76372305Y-71369545D01*
X76372302Y-71369547D01*
X76229115Y-71459518D01*
X76229109Y-71459523D01*
X76109523Y-71579109D01*
X76109518Y-71579115D01*
X76019547Y-71722302D01*
X76019545Y-71722305D01*
X75963685Y-71881943D01*
X75944751Y-72049997D01*
X45500500Y-72049997D01*
X45500500Y-64874997D01*
X83119751Y-64874997D01*
X83119751Y-64875002D01*
X83138685Y-65043056D01*
X83194545Y-65202694D01*
X83194547Y-65202697D01*
X83284518Y-65345884D01*
X83284523Y-65345890D01*
X83404109Y-65465476D01*
X83404115Y-65465481D01*
X83547302Y-65555452D01*
X83547305Y-65555454D01*
X83547309Y-65555455D01*
X83547310Y-65555456D01*
X83619913Y-65580860D01*
X83706943Y-65611314D01*
X83874997Y-65630249D01*
X83875000Y-65630249D01*
X83875003Y-65630249D01*
X84043056Y-65611314D01*
X84043059Y-65611313D01*
X84202690Y-65555456D01*
X84202692Y-65555454D01*
X84202694Y-65555454D01*
X84202697Y-65555452D01*
X84345884Y-65465481D01*
X84345885Y-65465480D01*
X84345890Y-65465477D01*
X84465477Y-65345890D01*
X84555452Y-65202697D01*
X84555454Y-65202694D01*
X84555454Y-65202692D01*
X84555456Y-65202690D01*
X84611313Y-65043059D01*
X84611313Y-65043058D01*
X84611314Y-65043056D01*
X84630249Y-64875002D01*
X84630249Y-64874997D01*
X84611314Y-64706943D01*
X84555454Y-64547305D01*
X84555452Y-64547302D01*
X84465481Y-64404115D01*
X84465476Y-64404109D01*
X84345890Y-64284523D01*
X84345884Y-64284518D01*
X84202697Y-64194547D01*
X84202694Y-64194545D01*
X84043056Y-64138685D01*
X83875003Y-64119751D01*
X83874997Y-64119751D01*
X83706943Y-64138685D01*
X83547305Y-64194545D01*
X83547302Y-64194547D01*
X83404115Y-64284518D01*
X83404109Y-64284523D01*
X83284523Y-64404109D01*
X83284518Y-64404115D01*
X83194547Y-64547302D01*
X83194545Y-64547305D01*
X83138685Y-64706943D01*
X83119751Y-64874997D01*
X45500500Y-64874997D01*
X45500500Y-64112497D01*
X77157251Y-64112497D01*
X77157251Y-64112502D01*
X77176185Y-64280556D01*
X77232045Y-64440194D01*
X77232047Y-64440197D01*
X77322018Y-64583384D01*
X77322023Y-64583390D01*
X77441609Y-64702976D01*
X77441615Y-64702981D01*
X77584802Y-64792952D01*
X77584805Y-64792954D01*
X77584809Y-64792955D01*
X77584810Y-64792956D01*
X77657413Y-64818360D01*
X77744443Y-64848814D01*
X77912497Y-64867749D01*
X77912500Y-64867749D01*
X77912503Y-64867749D01*
X78080556Y-64848814D01*
X78080559Y-64848813D01*
X78240190Y-64792956D01*
X78240192Y-64792954D01*
X78240194Y-64792954D01*
X78240197Y-64792952D01*
X78383384Y-64702981D01*
X78383385Y-64702980D01*
X78383390Y-64702977D01*
X78502977Y-64583390D01*
X78592952Y-64440197D01*
X78592954Y-64440194D01*
X78592954Y-64440192D01*
X78592956Y-64440190D01*
X78648813Y-64280559D01*
X78648813Y-64280558D01*
X78648814Y-64280556D01*
X78667749Y-64112502D01*
X78667749Y-64112497D01*
X78648814Y-63944443D01*
X78592954Y-63784805D01*
X78592952Y-63784802D01*
X78502981Y-63641615D01*
X78502976Y-63641609D01*
X78383390Y-63522023D01*
X78383384Y-63522018D01*
X78240197Y-63432047D01*
X78240194Y-63432045D01*
X78080556Y-63376185D01*
X77912503Y-63357251D01*
X77912497Y-63357251D01*
X77744443Y-63376185D01*
X77584805Y-63432045D01*
X77584802Y-63432047D01*
X77441615Y-63522018D01*
X77441609Y-63522023D01*
X77322023Y-63641609D01*
X77322018Y-63641615D01*
X77232047Y-63784802D01*
X77232045Y-63784805D01*
X77176185Y-63944443D01*
X77157251Y-64112497D01*
X45500500Y-64112497D01*
X45500500Y-62499997D01*
X68494751Y-62499997D01*
X68494751Y-62500002D01*
X68513685Y-62668056D01*
X68569545Y-62827694D01*
X68569547Y-62827697D01*
X68659518Y-62970884D01*
X68659523Y-62970890D01*
X68779109Y-63090476D01*
X68779115Y-63090481D01*
X68922302Y-63180452D01*
X68922305Y-63180454D01*
X68922309Y-63180455D01*
X68922310Y-63180456D01*
X68994913Y-63205860D01*
X69081943Y-63236314D01*
X69249997Y-63255249D01*
X69250000Y-63255249D01*
X69250003Y-63255249D01*
X69418056Y-63236314D01*
X69418059Y-63236313D01*
X69577690Y-63180456D01*
X69577692Y-63180454D01*
X69577694Y-63180454D01*
X69577697Y-63180452D01*
X69720884Y-63090481D01*
X69720885Y-63090480D01*
X69720890Y-63090477D01*
X69840477Y-62970890D01*
X69930452Y-62827697D01*
X69930454Y-62827694D01*
X69930454Y-62827692D01*
X69930456Y-62827690D01*
X69986313Y-62668059D01*
X69986313Y-62668058D01*
X69986314Y-62668056D01*
X70005249Y-62500002D01*
X70005249Y-62499997D01*
X69986314Y-62331943D01*
X69930454Y-62172305D01*
X69930452Y-62172302D01*
X69840481Y-62029115D01*
X69840476Y-62029109D01*
X69720890Y-61909523D01*
X69720884Y-61909518D01*
X69577697Y-61819547D01*
X69577694Y-61819545D01*
X69418056Y-61763685D01*
X69250003Y-61744751D01*
X69249997Y-61744751D01*
X69081943Y-61763685D01*
X68922305Y-61819545D01*
X68922302Y-61819547D01*
X68779115Y-61909518D01*
X68779109Y-61909523D01*
X68659523Y-62029109D01*
X68659518Y-62029115D01*
X68569547Y-62172302D01*
X68569545Y-62172305D01*
X68513685Y-62331943D01*
X68494751Y-62499997D01*
X45500500Y-62499997D01*
X45500500Y-58493713D01*
X65149500Y-58493713D01*
X65149500Y-59006287D01*
X65155979Y-59047191D01*
X65177152Y-59180878D01*
X65182754Y-59216243D01*
X65216182Y-59319124D01*
X65248444Y-59418414D01*
X65344951Y-59607820D01*
X65469890Y-59779786D01*
X65469896Y-59779792D01*
X65620208Y-59930104D01*
X65710224Y-59995503D01*
X65752889Y-60050832D01*
X65760558Y-60109704D01*
X65744751Y-60249996D01*
X65744751Y-60250002D01*
X65763685Y-60418056D01*
X65819545Y-60577694D01*
X65819547Y-60577697D01*
X65909518Y-60720884D01*
X65909523Y-60720890D01*
X66029109Y-60840476D01*
X66029115Y-60840481D01*
X66172302Y-60930452D01*
X66172305Y-60930454D01*
X66172309Y-60930455D01*
X66172310Y-60930456D01*
X66244913Y-60955860D01*
X66331943Y-60986314D01*
X66499997Y-61005249D01*
X66500000Y-61005249D01*
X66500003Y-61005249D01*
X66668056Y-60986314D01*
X66668059Y-60986313D01*
X66827690Y-60930456D01*
X66827692Y-60930454D01*
X66827694Y-60930454D01*
X66827697Y-60930452D01*
X66970884Y-60840481D01*
X66970885Y-60840480D01*
X66970890Y-60840477D01*
X67090477Y-60720890D01*
X67180452Y-60577697D01*
X67180454Y-60577694D01*
X67180454Y-60577692D01*
X67180456Y-60577690D01*
X67236313Y-60418059D01*
X67236313Y-60418058D01*
X67236314Y-60418056D01*
X67255249Y-60250002D01*
X67255249Y-60249997D01*
X67239441Y-60109704D01*
X67251495Y-60040882D01*
X67289774Y-59995504D01*
X67379792Y-59930104D01*
X67518604Y-59791291D01*
X67579923Y-59757809D01*
X67649615Y-59762793D01*
X67705549Y-59804664D01*
X67711821Y-59813878D01*
X67715185Y-59819333D01*
X67715186Y-59819334D01*
X67807288Y-59968656D01*
X67931344Y-60092712D01*
X68080666Y-60184814D01*
X68247203Y-60239999D01*
X68349991Y-60250500D01*
X69650008Y-60250499D01*
X69752797Y-60239999D01*
X69919334Y-60184814D01*
X70068656Y-60092712D01*
X70192712Y-59968656D01*
X70284814Y-59819334D01*
X70339999Y-59652797D01*
X70350500Y-59550009D01*
X70350499Y-58493713D01*
X75149500Y-58493713D01*
X75149500Y-59006287D01*
X75155979Y-59047191D01*
X75177152Y-59180878D01*
X75182754Y-59216243D01*
X75216182Y-59319124D01*
X75248444Y-59418414D01*
X75344951Y-59607820D01*
X75469890Y-59779786D01*
X75469896Y-59779792D01*
X75620208Y-59930104D01*
X75710224Y-59995503D01*
X75752889Y-60050832D01*
X75760558Y-60109704D01*
X75744751Y-60249996D01*
X75744751Y-60250002D01*
X75763685Y-60418056D01*
X75819545Y-60577694D01*
X75819547Y-60577697D01*
X75909518Y-60720884D01*
X75909523Y-60720890D01*
X76029109Y-60840476D01*
X76029115Y-60840481D01*
X76172302Y-60930452D01*
X76172305Y-60930454D01*
X76172309Y-60930455D01*
X76172310Y-60930456D01*
X76244913Y-60955860D01*
X76331943Y-60986314D01*
X76499997Y-61005249D01*
X76500000Y-61005249D01*
X76500003Y-61005249D01*
X76668056Y-60986314D01*
X76668059Y-60986313D01*
X76827690Y-60930456D01*
X76827692Y-60930454D01*
X76827694Y-60930454D01*
X76827697Y-60930452D01*
X76970884Y-60840481D01*
X76970885Y-60840480D01*
X76970890Y-60840477D01*
X77090477Y-60720890D01*
X77180452Y-60577697D01*
X77180454Y-60577694D01*
X77180454Y-60577692D01*
X77180456Y-60577690D01*
X77207641Y-60500000D01*
X101369474Y-60500000D01*
X101389547Y-60755064D01*
X101389547Y-60755067D01*
X101389548Y-60755070D01*
X101410053Y-60840477D01*
X101449279Y-61003864D01*
X101547188Y-61240239D01*
X101547190Y-61240242D01*
X101680875Y-61458396D01*
X101680878Y-61458401D01*
X101756200Y-61546591D01*
X101847044Y-61652956D01*
X101971579Y-61759319D01*
X102041598Y-61819121D01*
X102041600Y-61819122D01*
X102041601Y-61819123D01*
X102189121Y-61909523D01*
X102259757Y-61952809D01*
X102259760Y-61952811D01*
X102443976Y-62029115D01*
X102496140Y-62050722D01*
X102744930Y-62110452D01*
X103000000Y-62130526D01*
X103255070Y-62110452D01*
X103503860Y-62050722D01*
X103622051Y-62001765D01*
X103740239Y-61952811D01*
X103740240Y-61952810D01*
X103740243Y-61952809D01*
X103958399Y-61819123D01*
X104152956Y-61652956D01*
X104319123Y-61458399D01*
X104452809Y-61240243D01*
X104550722Y-61003860D01*
X104610452Y-60755070D01*
X104630526Y-60500000D01*
X104610452Y-60244930D01*
X104550722Y-59996140D01*
X104539338Y-59968656D01*
X104452811Y-59759760D01*
X104452809Y-59759757D01*
X104373616Y-59630526D01*
X104319123Y-59541601D01*
X104319122Y-59541600D01*
X104319121Y-59541598D01*
X104243289Y-59452811D01*
X104152956Y-59347044D01*
X104046591Y-59256200D01*
X103958401Y-59180878D01*
X103958396Y-59180875D01*
X103740242Y-59047190D01*
X103740239Y-59047188D01*
X103503864Y-58949279D01*
X103503860Y-58949278D01*
X103255070Y-58889548D01*
X103255067Y-58889547D01*
X103255064Y-58889547D01*
X103000000Y-58869474D01*
X102744935Y-58889547D01*
X102744931Y-58889547D01*
X102744930Y-58889548D01*
X102620535Y-58919413D01*
X102496135Y-58949279D01*
X102259760Y-59047188D01*
X102259757Y-59047190D01*
X102041603Y-59180875D01*
X102041598Y-59180878D01*
X101847044Y-59347044D01*
X101680878Y-59541598D01*
X101680875Y-59541603D01*
X101547190Y-59759757D01*
X101547188Y-59759760D01*
X101449279Y-59996135D01*
X101389547Y-60244935D01*
X101369474Y-60500000D01*
X77207641Y-60500000D01*
X77236313Y-60418059D01*
X77236313Y-60418058D01*
X77236314Y-60418056D01*
X77255249Y-60250002D01*
X77255249Y-60249997D01*
X77239441Y-60109704D01*
X77251495Y-60040882D01*
X77289774Y-59995504D01*
X77379792Y-59930104D01*
X77518604Y-59791291D01*
X77579923Y-59757809D01*
X77649615Y-59762793D01*
X77705549Y-59804664D01*
X77711821Y-59813878D01*
X77715185Y-59819333D01*
X77715186Y-59819334D01*
X77807288Y-59968656D01*
X77931344Y-60092712D01*
X78080666Y-60184814D01*
X78247203Y-60239999D01*
X78349991Y-60250500D01*
X79650008Y-60250499D01*
X79752797Y-60239999D01*
X79919334Y-60184814D01*
X80068656Y-60092712D01*
X80192712Y-59968656D01*
X80284814Y-59819334D01*
X80339999Y-59652797D01*
X80350500Y-59550009D01*
X80350499Y-58000000D01*
X98869474Y-58000000D01*
X98889547Y-58255064D01*
X98889547Y-58255067D01*
X98889548Y-58255070D01*
X98896436Y-58283760D01*
X98949279Y-58503864D01*
X99047188Y-58740239D01*
X99047190Y-58740242D01*
X99180875Y-58958396D01*
X99180878Y-58958401D01*
X99221776Y-59006286D01*
X99347044Y-59152956D01*
X99421144Y-59216243D01*
X99541598Y-59319121D01*
X99541603Y-59319124D01*
X99759757Y-59452809D01*
X99759760Y-59452811D01*
X99996135Y-59550720D01*
X99996140Y-59550722D01*
X100244930Y-59610452D01*
X100500000Y-59630526D01*
X100755070Y-59610452D01*
X101003860Y-59550722D01*
X101181508Y-59477138D01*
X101240239Y-59452811D01*
X101240240Y-59452810D01*
X101240243Y-59452809D01*
X101458399Y-59319123D01*
X101652956Y-59152956D01*
X101819123Y-58958399D01*
X101952809Y-58740243D01*
X102050722Y-58503860D01*
X102110452Y-58255070D01*
X102130526Y-58000000D01*
X106369474Y-58000000D01*
X106389547Y-58255064D01*
X106389547Y-58255067D01*
X106389548Y-58255070D01*
X106396436Y-58283760D01*
X106449279Y-58503864D01*
X106547188Y-58740239D01*
X106547190Y-58740242D01*
X106680875Y-58958396D01*
X106680878Y-58958401D01*
X106721776Y-59006286D01*
X106847044Y-59152956D01*
X107041601Y-59319123D01*
X107214911Y-59425327D01*
X107261785Y-59477138D01*
X107273208Y-59546068D01*
X107267163Y-59572004D01*
X107263686Y-59581939D01*
X107263686Y-59581941D01*
X107244751Y-59749997D01*
X107244751Y-59750002D01*
X107263685Y-59918056D01*
X107319545Y-60077694D01*
X107319547Y-60077697D01*
X107409518Y-60220884D01*
X107409523Y-60220890D01*
X107529109Y-60340476D01*
X107529115Y-60340481D01*
X107672302Y-60430452D01*
X107672305Y-60430454D01*
X107672309Y-60430455D01*
X107672310Y-60430456D01*
X107744913Y-60455860D01*
X107831943Y-60486314D01*
X107999997Y-60505249D01*
X108000000Y-60505249D01*
X108000003Y-60505249D01*
X108046589Y-60500000D01*
X111369474Y-60500000D01*
X111389547Y-60755064D01*
X111389547Y-60755067D01*
X111389548Y-60755070D01*
X111410053Y-60840477D01*
X111449279Y-61003864D01*
X111547188Y-61240239D01*
X111547190Y-61240242D01*
X111680875Y-61458396D01*
X111680878Y-61458401D01*
X111756200Y-61546591D01*
X111847044Y-61652956D01*
X111971579Y-61759319D01*
X112041598Y-61819121D01*
X112041600Y-61819122D01*
X112041601Y-61819123D01*
X112189121Y-61909523D01*
X112259757Y-61952809D01*
X112259760Y-61952811D01*
X112443976Y-62029115D01*
X112496140Y-62050722D01*
X112744930Y-62110452D01*
X113000000Y-62130526D01*
X113255070Y-62110452D01*
X113503860Y-62050722D01*
X113622051Y-62001765D01*
X113740239Y-61952811D01*
X113740240Y-61952810D01*
X113740243Y-61952809D01*
X113958399Y-61819123D01*
X114152956Y-61652956D01*
X114319123Y-61458399D01*
X114452809Y-61240243D01*
X114550722Y-61003860D01*
X114610452Y-60755070D01*
X114630526Y-60500000D01*
X114610452Y-60244930D01*
X114550722Y-59996140D01*
X114539338Y-59968656D01*
X114452811Y-59759760D01*
X114452809Y-59759757D01*
X114373616Y-59630526D01*
X114319123Y-59541601D01*
X114319122Y-59541600D01*
X114319121Y-59541598D01*
X114243289Y-59452811D01*
X114152956Y-59347044D01*
X114046591Y-59256200D01*
X113958401Y-59180878D01*
X113958396Y-59180875D01*
X113740242Y-59047190D01*
X113740239Y-59047188D01*
X113503864Y-58949279D01*
X113503860Y-58949278D01*
X113255070Y-58889548D01*
X113255067Y-58889547D01*
X113255064Y-58889547D01*
X113000000Y-58869474D01*
X112744935Y-58889547D01*
X112744931Y-58889547D01*
X112744930Y-58889548D01*
X112620535Y-58919413D01*
X112496135Y-58949279D01*
X112259760Y-59047188D01*
X112259757Y-59047190D01*
X112041603Y-59180875D01*
X112041598Y-59180878D01*
X111847044Y-59347044D01*
X111680878Y-59541598D01*
X111680875Y-59541603D01*
X111547190Y-59759757D01*
X111547188Y-59759760D01*
X111449279Y-59996135D01*
X111389547Y-60244935D01*
X111369474Y-60500000D01*
X108046589Y-60500000D01*
X108168056Y-60486314D01*
X108168059Y-60486313D01*
X108327690Y-60430456D01*
X108327692Y-60430454D01*
X108327694Y-60430454D01*
X108327697Y-60430452D01*
X108470884Y-60340481D01*
X108470885Y-60340480D01*
X108470890Y-60340477D01*
X108590477Y-60220890D01*
X108613145Y-60184814D01*
X108680452Y-60077697D01*
X108680454Y-60077694D01*
X108680454Y-60077692D01*
X108680456Y-60077690D01*
X108736313Y-59918059D01*
X108736313Y-59918058D01*
X108736314Y-59918056D01*
X108755249Y-59750002D01*
X108755249Y-59749997D01*
X108736314Y-59581946D01*
X108736313Y-59581944D01*
X108736313Y-59581941D01*
X108732837Y-59572009D01*
X108729274Y-59502234D01*
X108764000Y-59441605D01*
X108785080Y-59425332D01*
X108958399Y-59319123D01*
X109152956Y-59152956D01*
X109319123Y-58958399D01*
X109452809Y-58740243D01*
X109550722Y-58503860D01*
X109610452Y-58255070D01*
X109630526Y-58000000D01*
X113869474Y-58000000D01*
X113889547Y-58255064D01*
X113889547Y-58255067D01*
X113889548Y-58255070D01*
X113896436Y-58283760D01*
X113949279Y-58503864D01*
X114047188Y-58740239D01*
X114047190Y-58740242D01*
X114180875Y-58958396D01*
X114180878Y-58958401D01*
X114221776Y-59006286D01*
X114347044Y-59152956D01*
X114421144Y-59216243D01*
X114541598Y-59319121D01*
X114541603Y-59319124D01*
X114759757Y-59452809D01*
X114759760Y-59452811D01*
X114996135Y-59550720D01*
X114996140Y-59550722D01*
X115244930Y-59610452D01*
X115500000Y-59630526D01*
X115755070Y-59610452D01*
X116003860Y-59550722D01*
X116181508Y-59477138D01*
X116240239Y-59452811D01*
X116240240Y-59452810D01*
X116240243Y-59452809D01*
X116458399Y-59319123D01*
X116652956Y-59152956D01*
X116819123Y-58958399D01*
X116952809Y-58740243D01*
X117050722Y-58503860D01*
X117110452Y-58255070D01*
X117130526Y-58000000D01*
X117110452Y-57744930D01*
X117050722Y-57496140D01*
X117013919Y-57407289D01*
X116952811Y-57259760D01*
X116952809Y-57259757D01*
X116946524Y-57249501D01*
X116819123Y-57041601D01*
X116819122Y-57041600D01*
X116819121Y-57041598D01*
X116759319Y-56971579D01*
X116652956Y-56847044D01*
X116546591Y-56756200D01*
X116458401Y-56680878D01*
X116458396Y-56680875D01*
X116240242Y-56547190D01*
X116240239Y-56547188D01*
X116003864Y-56449279D01*
X116003860Y-56449278D01*
X115755070Y-56389548D01*
X115755067Y-56389547D01*
X115755064Y-56389547D01*
X115500000Y-56369474D01*
X115244935Y-56389547D01*
X115244931Y-56389547D01*
X115244930Y-56389548D01*
X115120535Y-56419413D01*
X114996135Y-56449279D01*
X114759760Y-56547188D01*
X114759757Y-56547190D01*
X114541603Y-56680875D01*
X114541598Y-56680878D01*
X114347044Y-56847044D01*
X114180878Y-57041598D01*
X114180875Y-57041603D01*
X114047190Y-57259757D01*
X114047188Y-57259760D01*
X113949279Y-57496135D01*
X113919413Y-57620535D01*
X113892450Y-57732845D01*
X113889547Y-57744935D01*
X113869474Y-58000000D01*
X109630526Y-58000000D01*
X109610452Y-57744930D01*
X109550722Y-57496140D01*
X109513919Y-57407289D01*
X109452811Y-57259760D01*
X109452809Y-57259757D01*
X109446524Y-57249501D01*
X109319123Y-57041601D01*
X109319122Y-57041600D01*
X109319121Y-57041598D01*
X109259319Y-56971579D01*
X109152956Y-56847044D01*
X109046591Y-56756200D01*
X108958401Y-56680878D01*
X108958396Y-56680875D01*
X108740242Y-56547190D01*
X108740239Y-56547188D01*
X108503864Y-56449279D01*
X108503860Y-56449278D01*
X108255070Y-56389548D01*
X108255067Y-56389547D01*
X108255064Y-56389547D01*
X108000000Y-56369474D01*
X107744935Y-56389547D01*
X107744931Y-56389547D01*
X107744930Y-56389548D01*
X107620535Y-56419413D01*
X107496135Y-56449279D01*
X107259760Y-56547188D01*
X107259757Y-56547190D01*
X107041603Y-56680875D01*
X107041598Y-56680878D01*
X106847044Y-56847044D01*
X106680878Y-57041598D01*
X106680875Y-57041603D01*
X106547190Y-57259757D01*
X106547188Y-57259760D01*
X106449279Y-57496135D01*
X106419413Y-57620535D01*
X106392450Y-57732845D01*
X106389547Y-57744935D01*
X106369474Y-58000000D01*
X102130526Y-58000000D01*
X102110452Y-57744930D01*
X102050722Y-57496140D01*
X102013919Y-57407289D01*
X101952811Y-57259760D01*
X101952809Y-57259757D01*
X101946524Y-57249501D01*
X101819123Y-57041601D01*
X101819122Y-57041600D01*
X101819121Y-57041598D01*
X101759319Y-56971579D01*
X101652956Y-56847044D01*
X101546591Y-56756200D01*
X101458401Y-56680878D01*
X101458396Y-56680875D01*
X101240242Y-56547190D01*
X101240239Y-56547188D01*
X101003864Y-56449279D01*
X101003860Y-56449278D01*
X100755070Y-56389548D01*
X100755067Y-56389547D01*
X100755064Y-56389547D01*
X100500000Y-56369474D01*
X100244935Y-56389547D01*
X100244931Y-56389547D01*
X100244930Y-56389548D01*
X100120535Y-56419413D01*
X99996135Y-56449279D01*
X99759760Y-56547188D01*
X99759757Y-56547190D01*
X99541603Y-56680875D01*
X99541598Y-56680878D01*
X99347044Y-56847044D01*
X99180878Y-57041598D01*
X99180875Y-57041603D01*
X99047190Y-57259757D01*
X99047188Y-57259760D01*
X98949279Y-57496135D01*
X98919413Y-57620535D01*
X98892450Y-57732845D01*
X98889547Y-57744935D01*
X98869474Y-58000000D01*
X80350499Y-58000000D01*
X80350499Y-57949992D01*
X80339999Y-57847203D01*
X80284814Y-57680666D01*
X80192712Y-57531344D01*
X80068656Y-57407288D01*
X79919334Y-57315186D01*
X79752797Y-57260001D01*
X79752795Y-57260000D01*
X79650010Y-57249500D01*
X78349998Y-57249500D01*
X78349981Y-57249501D01*
X78247203Y-57260000D01*
X78247200Y-57260001D01*
X78080668Y-57315185D01*
X78080663Y-57315187D01*
X77931342Y-57407289D01*
X77807289Y-57531342D01*
X77711821Y-57686121D01*
X77659873Y-57732845D01*
X77590910Y-57744068D01*
X77526828Y-57716224D01*
X77518601Y-57708705D01*
X77379786Y-57569890D01*
X77207820Y-57444951D01*
X77018414Y-57348444D01*
X77018413Y-57348443D01*
X77018412Y-57348443D01*
X76816243Y-57282754D01*
X76816241Y-57282753D01*
X76816240Y-57282753D01*
X76654957Y-57257208D01*
X76606287Y-57249500D01*
X76393713Y-57249500D01*
X76345042Y-57257208D01*
X76183760Y-57282753D01*
X75981585Y-57348444D01*
X75792179Y-57444951D01*
X75620213Y-57569890D01*
X75469890Y-57720213D01*
X75344951Y-57892179D01*
X75248444Y-58081585D01*
X75182753Y-58283760D01*
X75149500Y-58493713D01*
X70350499Y-58493713D01*
X70350499Y-57949992D01*
X70339999Y-57847203D01*
X70284814Y-57680666D01*
X70192712Y-57531344D01*
X70068656Y-57407288D01*
X69919334Y-57315186D01*
X69752797Y-57260001D01*
X69752795Y-57260000D01*
X69650010Y-57249500D01*
X68349998Y-57249500D01*
X68349981Y-57249501D01*
X68247203Y-57260000D01*
X68247200Y-57260001D01*
X68080668Y-57315185D01*
X68080663Y-57315187D01*
X67931342Y-57407289D01*
X67807289Y-57531342D01*
X67711821Y-57686121D01*
X67659873Y-57732845D01*
X67590910Y-57744068D01*
X67526828Y-57716224D01*
X67518601Y-57708705D01*
X67379786Y-57569890D01*
X67207820Y-57444951D01*
X67018414Y-57348444D01*
X67018413Y-57348443D01*
X67018412Y-57348443D01*
X66816243Y-57282754D01*
X66816241Y-57282753D01*
X66816240Y-57282753D01*
X66654957Y-57257208D01*
X66606287Y-57249500D01*
X66393713Y-57249500D01*
X66345042Y-57257208D01*
X66183760Y-57282753D01*
X65981585Y-57348444D01*
X65792179Y-57444951D01*
X65620213Y-57569890D01*
X65469890Y-57720213D01*
X65344951Y-57892179D01*
X65248444Y-58081585D01*
X65182753Y-58283760D01*
X65149500Y-58493713D01*
X45500500Y-58493713D01*
X45500500Y-49000000D01*
X55294564Y-49000000D01*
X55314289Y-49326099D01*
X55373178Y-49647452D01*
X55470366Y-49959342D01*
X55470370Y-49959354D01*
X55470373Y-49959361D01*
X55604455Y-50257279D01*
X55768901Y-50529306D01*
X55773473Y-50536868D01*
X55974954Y-50794039D01*
X56205960Y-51025045D01*
X56463131Y-51226526D01*
X56463134Y-51226528D01*
X56463137Y-51226530D01*
X56742721Y-51395545D01*
X57040639Y-51529627D01*
X57040652Y-51529631D01*
X57040657Y-51529633D01*
X57352547Y-51626821D01*
X57673896Y-51685710D01*
X58000000Y-51705436D01*
X58326104Y-51685710D01*
X58647453Y-51626821D01*
X58959361Y-51529627D01*
X59257279Y-51395545D01*
X59536863Y-51226530D01*
X59794036Y-51025048D01*
X60025048Y-50794036D01*
X60226530Y-50536863D01*
X60395545Y-50257279D01*
X60529627Y-49959361D01*
X60626821Y-49647453D01*
X60685710Y-49326104D01*
X60705436Y-49000000D01*
X85294564Y-49000000D01*
X85314289Y-49326099D01*
X85373178Y-49647452D01*
X85470366Y-49959342D01*
X85470370Y-49959354D01*
X85470373Y-49959361D01*
X85604455Y-50257279D01*
X85768901Y-50529306D01*
X85773473Y-50536868D01*
X85974954Y-50794039D01*
X86205960Y-51025045D01*
X86463131Y-51226526D01*
X86463134Y-51226528D01*
X86463137Y-51226530D01*
X86742721Y-51395545D01*
X87040639Y-51529627D01*
X87040652Y-51529631D01*
X87040657Y-51529633D01*
X87352547Y-51626821D01*
X87673896Y-51685710D01*
X88000000Y-51705436D01*
X88326104Y-51685710D01*
X88647453Y-51626821D01*
X88959361Y-51529627D01*
X89257279Y-51395545D01*
X89536863Y-51226530D01*
X89794036Y-51025048D01*
X90025048Y-50794036D01*
X90226530Y-50536863D01*
X90395545Y-50257279D01*
X90529627Y-49959361D01*
X90626821Y-49647453D01*
X90685710Y-49326104D01*
X90705436Y-49000000D01*
X90685710Y-48673896D01*
X90626821Y-48352547D01*
X90529627Y-48040639D01*
X90511337Y-48000000D01*
X101369474Y-48000000D01*
X101389547Y-48255064D01*
X101389547Y-48255067D01*
X101389548Y-48255070D01*
X101449278Y-48503860D01*
X101449279Y-48503864D01*
X101547188Y-48740239D01*
X101547190Y-48740242D01*
X101680875Y-48958396D01*
X101680878Y-48958401D01*
X101756200Y-49046591D01*
X101847044Y-49152956D01*
X101971579Y-49259319D01*
X102041598Y-49319121D01*
X102041599Y-49319122D01*
X102041601Y-49319123D01*
X102186277Y-49407780D01*
X102233153Y-49459592D01*
X102244708Y-49499624D01*
X102263685Y-49668056D01*
X102319545Y-49827694D01*
X102319547Y-49827697D01*
X102409518Y-49970884D01*
X102409523Y-49970890D01*
X102529109Y-50090476D01*
X102529115Y-50090481D01*
X102672302Y-50180452D01*
X102672305Y-50180454D01*
X102672309Y-50180455D01*
X102672310Y-50180456D01*
X102744913Y-50205860D01*
X102831943Y-50236314D01*
X102999997Y-50255249D01*
X103000000Y-50255249D01*
X103000003Y-50255249D01*
X103168056Y-50236314D01*
X103168059Y-50236313D01*
X103327690Y-50180456D01*
X103327692Y-50180454D01*
X103327694Y-50180454D01*
X103327697Y-50180452D01*
X103470884Y-50090481D01*
X103470885Y-50090480D01*
X103470890Y-50090477D01*
X103590477Y-49970890D01*
X103680452Y-49827697D01*
X103680454Y-49827694D01*
X103680454Y-49827692D01*
X103680456Y-49827690D01*
X103736313Y-49668059D01*
X103736313Y-49668057D01*
X103736314Y-49668055D01*
X103755291Y-49499625D01*
X103782357Y-49435211D01*
X103813720Y-49407781D01*
X103958399Y-49319123D01*
X104152956Y-49152956D01*
X104319123Y-48958399D01*
X104452809Y-48740243D01*
X104550722Y-48503860D01*
X104610452Y-48255070D01*
X104630526Y-48000000D01*
X111369474Y-48000000D01*
X111389547Y-48255064D01*
X111389547Y-48255067D01*
X111389548Y-48255070D01*
X111449278Y-48503860D01*
X111449279Y-48503864D01*
X111547188Y-48740239D01*
X111547190Y-48740242D01*
X111680875Y-48958396D01*
X111680878Y-48958401D01*
X111756200Y-49046591D01*
X111847044Y-49152956D01*
X111971579Y-49259319D01*
X112041598Y-49319121D01*
X112041599Y-49319122D01*
X112041601Y-49319123D01*
X112186277Y-49407780D01*
X112233153Y-49459592D01*
X112244708Y-49499624D01*
X112263685Y-49668056D01*
X112319545Y-49827694D01*
X112319547Y-49827697D01*
X112409518Y-49970884D01*
X112409523Y-49970890D01*
X112529109Y-50090476D01*
X112529115Y-50090481D01*
X112672302Y-50180452D01*
X112672305Y-50180454D01*
X112672309Y-50180455D01*
X112672310Y-50180456D01*
X112744913Y-50205860D01*
X112831943Y-50236314D01*
X112999997Y-50255249D01*
X113000000Y-50255249D01*
X113000003Y-50255249D01*
X113168056Y-50236314D01*
X113168059Y-50236313D01*
X113327690Y-50180456D01*
X113327692Y-50180454D01*
X113327694Y-50180454D01*
X113327697Y-50180452D01*
X113470884Y-50090481D01*
X113470885Y-50090480D01*
X113470890Y-50090477D01*
X113590477Y-49970890D01*
X113680452Y-49827697D01*
X113680454Y-49827694D01*
X113680454Y-49827692D01*
X113680456Y-49827690D01*
X113736313Y-49668059D01*
X113736313Y-49668057D01*
X113736314Y-49668055D01*
X113755291Y-49499625D01*
X113782357Y-49435211D01*
X113813720Y-49407781D01*
X113958399Y-49319123D01*
X114152956Y-49152956D01*
X114319123Y-48958399D01*
X114452809Y-48740243D01*
X114550722Y-48503860D01*
X114610452Y-48255070D01*
X114630526Y-48000000D01*
X114610452Y-47744930D01*
X114550722Y-47496140D01*
X114537049Y-47463131D01*
X114452811Y-47259760D01*
X114452809Y-47259757D01*
X114319124Y-47041603D01*
X114319121Y-47041598D01*
X114259319Y-46971579D01*
X114152956Y-46847044D01*
X114046591Y-46756200D01*
X113958401Y-46680878D01*
X113958396Y-46680875D01*
X113740242Y-46547190D01*
X113740239Y-46547188D01*
X113503864Y-46449279D01*
X113503860Y-46449278D01*
X113255070Y-46389548D01*
X113255067Y-46389547D01*
X113255064Y-46389547D01*
X113000000Y-46369474D01*
X112744935Y-46389547D01*
X112744931Y-46389547D01*
X112744930Y-46389548D01*
X112620535Y-46419413D01*
X112496135Y-46449279D01*
X112259760Y-46547188D01*
X112259757Y-46547190D01*
X112041603Y-46680875D01*
X112041598Y-46680878D01*
X111847044Y-46847044D01*
X111680878Y-47041598D01*
X111680875Y-47041603D01*
X111547190Y-47259757D01*
X111547188Y-47259760D01*
X111449279Y-47496135D01*
X111449278Y-47496140D01*
X111390078Y-47742725D01*
X111389547Y-47744935D01*
X111369474Y-48000000D01*
X104630526Y-48000000D01*
X104610452Y-47744930D01*
X104550722Y-47496140D01*
X104537049Y-47463131D01*
X104452811Y-47259760D01*
X104452809Y-47259757D01*
X104319124Y-47041603D01*
X104319121Y-47041598D01*
X104259319Y-46971579D01*
X104152956Y-46847044D01*
X104046591Y-46756200D01*
X103958401Y-46680878D01*
X103958396Y-46680875D01*
X103740242Y-46547190D01*
X103740239Y-46547188D01*
X103503864Y-46449279D01*
X103503860Y-46449278D01*
X103255070Y-46389548D01*
X103255067Y-46389547D01*
X103255064Y-46389547D01*
X103000000Y-46369474D01*
X102744935Y-46389547D01*
X102744931Y-46389547D01*
X102744930Y-46389548D01*
X102620535Y-46419413D01*
X102496135Y-46449279D01*
X102259760Y-46547188D01*
X102259757Y-46547190D01*
X102041603Y-46680875D01*
X102041598Y-46680878D01*
X101847044Y-46847044D01*
X101680878Y-47041598D01*
X101680875Y-47041603D01*
X101547190Y-47259757D01*
X101547188Y-47259760D01*
X101449279Y-47496135D01*
X101449278Y-47496140D01*
X101390078Y-47742725D01*
X101389547Y-47744935D01*
X101369474Y-48000000D01*
X90511337Y-48000000D01*
X90395545Y-47742721D01*
X90226530Y-47463137D01*
X90226528Y-47463134D01*
X90226526Y-47463131D01*
X90025045Y-47205960D01*
X89794039Y-46974954D01*
X89536868Y-46773473D01*
X89529306Y-46768901D01*
X89257279Y-46604455D01*
X88959361Y-46470373D01*
X88959354Y-46470370D01*
X88959342Y-46470366D01*
X88647452Y-46373178D01*
X88326099Y-46314289D01*
X88000000Y-46294564D01*
X87673900Y-46314289D01*
X87352547Y-46373178D01*
X87040657Y-46470366D01*
X87040641Y-46470372D01*
X87040639Y-46470373D01*
X86869963Y-46547188D01*
X86742725Y-46604453D01*
X86742723Y-46604454D01*
X86463131Y-46773473D01*
X86205960Y-46974954D01*
X85974954Y-47205960D01*
X85773473Y-47463131D01*
X85604454Y-47742723D01*
X85604453Y-47742725D01*
X85470372Y-48040642D01*
X85470366Y-48040657D01*
X85373178Y-48352547D01*
X85314289Y-48673900D01*
X85294564Y-49000000D01*
X60705436Y-49000000D01*
X60685710Y-48673896D01*
X60626821Y-48352547D01*
X60529627Y-48040639D01*
X60395545Y-47742721D01*
X60226530Y-47463137D01*
X60226528Y-47463134D01*
X60226526Y-47463131D01*
X60025045Y-47205960D01*
X59794039Y-46974954D01*
X59536868Y-46773473D01*
X59529306Y-46768901D01*
X59257279Y-46604455D01*
X58959361Y-46470373D01*
X58959354Y-46470370D01*
X58959342Y-46470366D01*
X58647452Y-46373178D01*
X58326099Y-46314289D01*
X58000000Y-46294564D01*
X57673900Y-46314289D01*
X57352547Y-46373178D01*
X57040657Y-46470366D01*
X57040641Y-46470372D01*
X57040639Y-46470373D01*
X56869963Y-46547188D01*
X56742725Y-46604453D01*
X56742723Y-46604454D01*
X56463131Y-46773473D01*
X56205960Y-46974954D01*
X55974954Y-47205960D01*
X55773473Y-47463131D01*
X55604454Y-47742723D01*
X55604453Y-47742725D01*
X55470372Y-48040642D01*
X55470366Y-48040657D01*
X55373178Y-48352547D01*
X55314289Y-48673900D01*
X55294564Y-49000000D01*
X45500500Y-49000000D01*
X45500500Y-44624500D01*
X45520185Y-44557461D01*
X45572989Y-44511706D01*
X45624500Y-44500500D01*
X122375500Y-44500500D01*
X122442539Y-44520185D01*
G37*
%TD.AperFunction*%
%TD*%
M02*
