%TF.GenerationSoftware,KiCad,Pcbnew,8.0.8*%
%TF.CreationDate,2025-04-07T17:27:46+02:00*%
%TF.ProjectId,PCB_V1,5043425f-5631-42e6-9b69-6361645f7063,rev?*%
%TF.SameCoordinates,Original*%
%TF.FileFunction,Soldermask,Bot*%
%TF.FilePolarity,Negative*%
%FSLAX46Y46*%
G04 Gerber Fmt 4.6, Leading zero omitted, Abs format (unit mm)*
G04 Created by KiCad (PCBNEW 8.0.8) date 2025-04-07 17:27:46*
%MOMM*%
%LPD*%
G01*
G04 APERTURE LIST*
G04 Aperture macros list*
%AMRoundRect*
0 Rectangle with rounded corners*
0 $1 Rounding radius*
0 $2 $3 $4 $5 $6 $7 $8 $9 X,Y pos of 4 corners*
0 Add a 4 corners polygon primitive as box body*
4,1,4,$2,$3,$4,$5,$6,$7,$8,$9,$2,$3,0*
0 Add four circle primitives for the rounded corners*
1,1,$1+$1,$2,$3*
1,1,$1+$1,$4,$5*
1,1,$1+$1,$6,$7*
1,1,$1+$1,$8,$9*
0 Add four rect primitives between the rounded corners*
20,1,$1+$1,$2,$3,$4,$5,0*
20,1,$1+$1,$4,$5,$6,$7,0*
20,1,$1+$1,$6,$7,$8,$9,0*
20,1,$1+$1,$8,$9,$2,$3,0*%
G04 Aperture macros list end*
%ADD10C,2.250000*%
%ADD11C,4.400000*%
%ADD12C,8.000000*%
%ADD13RoundRect,0.250000X0.600000X0.750000X-0.600000X0.750000X-0.600000X-0.750000X0.600000X-0.750000X0*%
%ADD14O,1.700000X2.000000*%
%ADD15RoundRect,0.250000X0.600000X0.725000X-0.600000X0.725000X-0.600000X-0.725000X0.600000X-0.725000X0*%
%ADD16O,1.700000X1.950000*%
%ADD17RoundRect,0.250000X0.725000X-0.600000X0.725000X0.600000X-0.725000X0.600000X-0.725000X-0.600000X0*%
%ADD18O,1.950000X1.700000*%
%ADD19RoundRect,0.250000X-0.600000X-0.725000X0.600000X-0.725000X0.600000X0.725000X-0.600000X0.725000X0*%
G04 APERTURE END LIST*
D10*
%TO.C,J8*%
X100500000Y-58000000D03*
X108000000Y-58000000D03*
X115500000Y-58000000D03*
X103000000Y-60500000D03*
X113000000Y-60500000D03*
X103000000Y-48000000D03*
X113000000Y-48000000D03*
%TD*%
D11*
%TO.C,H3*%
X88000000Y-49000000D03*
D12*
X88000000Y-49000000D03*
%TD*%
D13*
%TO.C,J4*%
X79000000Y-58750000D03*
D14*
X76500000Y-58750000D03*
%TD*%
D11*
%TO.C,H4*%
X110000000Y-131000000D03*
D12*
X110000000Y-131000000D03*
%TD*%
D11*
%TO.C,H1*%
X58000000Y-49000000D03*
D12*
X58000000Y-49000000D03*
%TD*%
D13*
%TO.C,J5*%
X69000000Y-58750000D03*
D14*
X66500000Y-58750000D03*
%TD*%
D15*
%TO.C,J7*%
X98000000Y-129800000D03*
D16*
X95500000Y-129800000D03*
X93000000Y-129800000D03*
X90500000Y-129800000D03*
X88000000Y-129800000D03*
X85500000Y-129800000D03*
X83000000Y-129800000D03*
%TD*%
D17*
%TO.C,J1*%
X115975000Y-119000000D03*
D18*
X115975000Y-116500000D03*
X115975000Y-114000000D03*
%TD*%
D11*
%TO.C,H5*%
X110000000Y-74000000D03*
D12*
X110000000Y-74000000D03*
%TD*%
D18*
%TO.C,J8_afficheur1*%
X116000000Y-84000000D03*
X116000000Y-86500000D03*
X116000000Y-89000000D03*
X116000000Y-91500000D03*
X116000000Y-94000000D03*
X116000000Y-96500000D03*
X116000000Y-99000000D03*
X116000000Y-101500000D03*
X116000000Y-104000000D03*
D17*
X116000000Y-106500000D03*
%TD*%
D11*
%TO.C,H2*%
X50000000Y-131000000D03*
D12*
X50000000Y-131000000D03*
%TD*%
D19*
%TO.C,J2*%
X65500000Y-130000000D03*
D16*
X68000000Y-130000000D03*
X70500000Y-130000000D03*
%TD*%
M02*
