%TF.GenerationSoftware,KiCad,Pcbnew,8.0.8*%
%TF.CreationDate,2025-04-28T15:07:46+02:00*%
%TF.ProjectId,PCB_V1,5043425f-5631-42e6-9b69-6361645f7063,rev?*%
%TF.SameCoordinates,Original*%
%TF.FileFunction,Legend,Bot*%
%TF.FilePolarity,Positive*%
%FSLAX46Y46*%
G04 Gerber Fmt 4.6, Leading zero omitted, Abs format (unit mm)*
G04 Created by KiCad (PCBNEW 8.0.8) date 2025-04-28 15:07:46*
%MOMM*%
%LPD*%
G01*
G04 APERTURE LIST*
%ADD10C,0.100000*%
G04 APERTURE END LIST*
D10*
X62343734Y-110956872D02*
X61867544Y-110956872D01*
X62438972Y-111242587D02*
X62105639Y-110242587D01*
X62105639Y-110242587D02*
X61772306Y-111242587D01*
X61296115Y-111242587D02*
X61391353Y-111194968D01*
X61391353Y-111194968D02*
X61438972Y-111099729D01*
X61438972Y-111099729D02*
X61438972Y-110242587D01*
X60534210Y-111194968D02*
X60629448Y-111242587D01*
X60629448Y-111242587D02*
X60819924Y-111242587D01*
X60819924Y-111242587D02*
X60915162Y-111194968D01*
X60915162Y-111194968D02*
X60962781Y-111099729D01*
X60962781Y-111099729D02*
X60962781Y-110718777D01*
X60962781Y-110718777D02*
X60915162Y-110623539D01*
X60915162Y-110623539D02*
X60819924Y-110575920D01*
X60819924Y-110575920D02*
X60629448Y-110575920D01*
X60629448Y-110575920D02*
X60534210Y-110623539D01*
X60534210Y-110623539D02*
X60486591Y-110718777D01*
X60486591Y-110718777D02*
X60486591Y-110814015D01*
X60486591Y-110814015D02*
X60962781Y-110909253D01*
X60153257Y-111242587D02*
X59629448Y-110575920D01*
X60153257Y-110575920D02*
X59629448Y-111242587D01*
X59248495Y-111242587D02*
X59248495Y-110575920D01*
X59248495Y-110242587D02*
X59296114Y-110290206D01*
X59296114Y-110290206D02*
X59248495Y-110337825D01*
X59248495Y-110337825D02*
X59200876Y-110290206D01*
X59200876Y-110290206D02*
X59248495Y-110242587D01*
X59248495Y-110242587D02*
X59248495Y-110337825D01*
X58343734Y-111242587D02*
X58343734Y-110718777D01*
X58343734Y-110718777D02*
X58391353Y-110623539D01*
X58391353Y-110623539D02*
X58486591Y-110575920D01*
X58486591Y-110575920D02*
X58677067Y-110575920D01*
X58677067Y-110575920D02*
X58772305Y-110623539D01*
X58343734Y-111194968D02*
X58438972Y-111242587D01*
X58438972Y-111242587D02*
X58677067Y-111242587D01*
X58677067Y-111242587D02*
X58772305Y-111194968D01*
X58772305Y-111194968D02*
X58819924Y-111099729D01*
X58819924Y-111099729D02*
X58819924Y-111004491D01*
X58819924Y-111004491D02*
X58772305Y-110909253D01*
X58772305Y-110909253D02*
X58677067Y-110861634D01*
X58677067Y-110861634D02*
X58438972Y-110861634D01*
X58438972Y-110861634D02*
X58343734Y-110814015D01*
X57867543Y-110575920D02*
X57867543Y-111242587D01*
X57867543Y-110671158D02*
X57819924Y-110623539D01*
X57819924Y-110623539D02*
X57724686Y-110575920D01*
X57724686Y-110575920D02*
X57581829Y-110575920D01*
X57581829Y-110575920D02*
X57486591Y-110623539D01*
X57486591Y-110623539D02*
X57438972Y-110718777D01*
X57438972Y-110718777D02*
X57438972Y-111242587D01*
X56200876Y-111242587D02*
X56200876Y-110242587D01*
X56200876Y-110242587D02*
X55819924Y-110242587D01*
X55819924Y-110242587D02*
X55724686Y-110290206D01*
X55724686Y-110290206D02*
X55677067Y-110337825D01*
X55677067Y-110337825D02*
X55629448Y-110433063D01*
X55629448Y-110433063D02*
X55629448Y-110575920D01*
X55629448Y-110575920D02*
X55677067Y-110671158D01*
X55677067Y-110671158D02*
X55724686Y-110718777D01*
X55724686Y-110718777D02*
X55819924Y-110766396D01*
X55819924Y-110766396D02*
X56200876Y-110766396D01*
X54629448Y-111242587D02*
X54962781Y-110766396D01*
X55200876Y-111242587D02*
X55200876Y-110242587D01*
X55200876Y-110242587D02*
X54819924Y-110242587D01*
X54819924Y-110242587D02*
X54724686Y-110290206D01*
X54724686Y-110290206D02*
X54677067Y-110337825D01*
X54677067Y-110337825D02*
X54629448Y-110433063D01*
X54629448Y-110433063D02*
X54629448Y-110575920D01*
X54629448Y-110575920D02*
X54677067Y-110671158D01*
X54677067Y-110671158D02*
X54724686Y-110718777D01*
X54724686Y-110718777D02*
X54819924Y-110766396D01*
X54819924Y-110766396D02*
X55200876Y-110766396D01*
X54200876Y-110718777D02*
X53867543Y-110718777D01*
X53724686Y-111242587D02*
X54200876Y-111242587D01*
X54200876Y-111242587D02*
X54200876Y-110242587D01*
X54200876Y-110242587D02*
X53724686Y-110242587D01*
X53438971Y-110242587D02*
X53105638Y-111242587D01*
X53105638Y-111242587D02*
X52772305Y-110242587D01*
X52248495Y-110242587D02*
X52058019Y-110242587D01*
X52058019Y-110242587D02*
X51962781Y-110290206D01*
X51962781Y-110290206D02*
X51867543Y-110385444D01*
X51867543Y-110385444D02*
X51819924Y-110575920D01*
X51819924Y-110575920D02*
X51819924Y-110909253D01*
X51819924Y-110909253D02*
X51867543Y-111099729D01*
X51867543Y-111099729D02*
X51962781Y-111194968D01*
X51962781Y-111194968D02*
X52058019Y-111242587D01*
X52058019Y-111242587D02*
X52248495Y-111242587D01*
X52248495Y-111242587D02*
X52343733Y-111194968D01*
X52343733Y-111194968D02*
X52438971Y-111099729D01*
X52438971Y-111099729D02*
X52486590Y-110909253D01*
X52486590Y-110909253D02*
X52486590Y-110575920D01*
X52486590Y-110575920D02*
X52438971Y-110385444D01*
X52438971Y-110385444D02*
X52343733Y-110290206D01*
X52343733Y-110290206D02*
X52248495Y-110242587D01*
X51438971Y-111194968D02*
X51296114Y-111242587D01*
X51296114Y-111242587D02*
X51058019Y-111242587D01*
X51058019Y-111242587D02*
X50962781Y-111194968D01*
X50962781Y-111194968D02*
X50915162Y-111147348D01*
X50915162Y-111147348D02*
X50867543Y-111052110D01*
X50867543Y-111052110D02*
X50867543Y-110956872D01*
X50867543Y-110956872D02*
X50915162Y-110861634D01*
X50915162Y-110861634D02*
X50962781Y-110814015D01*
X50962781Y-110814015D02*
X51058019Y-110766396D01*
X51058019Y-110766396D02*
X51248495Y-110718777D01*
X51248495Y-110718777D02*
X51343733Y-110671158D01*
X51343733Y-110671158D02*
X51391352Y-110623539D01*
X51391352Y-110623539D02*
X51438971Y-110528301D01*
X51438971Y-110528301D02*
X51438971Y-110433063D01*
X51438971Y-110433063D02*
X51391352Y-110337825D01*
X51391352Y-110337825D02*
X51343733Y-110290206D01*
X51343733Y-110290206D02*
X51248495Y-110242587D01*
X51248495Y-110242587D02*
X51010400Y-110242587D01*
X51010400Y-110242587D02*
X50867543Y-110290206D01*
X50581828Y-110242587D02*
X50010400Y-110242587D01*
X50296114Y-111242587D02*
X50296114Y-110242587D01*
X62296115Y-112852531D02*
X62296115Y-111852531D01*
X61819925Y-112185864D02*
X61819925Y-113185864D01*
X61819925Y-112233483D02*
X61724687Y-112185864D01*
X61724687Y-112185864D02*
X61534211Y-112185864D01*
X61534211Y-112185864D02*
X61438973Y-112233483D01*
X61438973Y-112233483D02*
X61391354Y-112281102D01*
X61391354Y-112281102D02*
X61343735Y-112376340D01*
X61343735Y-112376340D02*
X61343735Y-112662054D01*
X61343735Y-112662054D02*
X61391354Y-112757292D01*
X61391354Y-112757292D02*
X61438973Y-112804912D01*
X61438973Y-112804912D02*
X61534211Y-112852531D01*
X61534211Y-112852531D02*
X61724687Y-112852531D01*
X61724687Y-112852531D02*
X61819925Y-112804912D01*
X60915163Y-112852531D02*
X60915163Y-112185864D01*
X60915163Y-112376340D02*
X60867544Y-112281102D01*
X60867544Y-112281102D02*
X60819925Y-112233483D01*
X60819925Y-112233483D02*
X60724687Y-112185864D01*
X60724687Y-112185864D02*
X60629449Y-112185864D01*
X59867544Y-112852531D02*
X59867544Y-112328721D01*
X59867544Y-112328721D02*
X59915163Y-112233483D01*
X59915163Y-112233483D02*
X60010401Y-112185864D01*
X60010401Y-112185864D02*
X60200877Y-112185864D01*
X60200877Y-112185864D02*
X60296115Y-112233483D01*
X59867544Y-112804912D02*
X59962782Y-112852531D01*
X59962782Y-112852531D02*
X60200877Y-112852531D01*
X60200877Y-112852531D02*
X60296115Y-112804912D01*
X60296115Y-112804912D02*
X60343734Y-112709673D01*
X60343734Y-112709673D02*
X60343734Y-112614435D01*
X60343734Y-112614435D02*
X60296115Y-112519197D01*
X60296115Y-112519197D02*
X60200877Y-112471578D01*
X60200877Y-112471578D02*
X59962782Y-112471578D01*
X59962782Y-112471578D02*
X59867544Y-112423959D01*
X59391353Y-112852531D02*
X59391353Y-111852531D01*
X58962782Y-112852531D02*
X58962782Y-112328721D01*
X58962782Y-112328721D02*
X59010401Y-112233483D01*
X59010401Y-112233483D02*
X59105639Y-112185864D01*
X59105639Y-112185864D02*
X59248496Y-112185864D01*
X59248496Y-112185864D02*
X59343734Y-112233483D01*
X59343734Y-112233483D02*
X59391353Y-112281102D01*
X58486591Y-112852531D02*
X58486591Y-112185864D01*
X58486591Y-111852531D02*
X58534210Y-111900150D01*
X58534210Y-111900150D02*
X58486591Y-111947769D01*
X58486591Y-111947769D02*
X58438972Y-111900150D01*
X58438972Y-111900150D02*
X58486591Y-111852531D01*
X58486591Y-111852531D02*
X58486591Y-111947769D01*
X58010401Y-112852531D02*
X58010401Y-112185864D01*
X58010401Y-112281102D02*
X57962782Y-112233483D01*
X57962782Y-112233483D02*
X57867544Y-112185864D01*
X57867544Y-112185864D02*
X57724687Y-112185864D01*
X57724687Y-112185864D02*
X57629449Y-112233483D01*
X57629449Y-112233483D02*
X57581830Y-112328721D01*
X57581830Y-112328721D02*
X57581830Y-112852531D01*
X57581830Y-112328721D02*
X57534211Y-112233483D01*
X57534211Y-112233483D02*
X57438973Y-112185864D01*
X57438973Y-112185864D02*
X57296116Y-112185864D01*
X57296116Y-112185864D02*
X57200877Y-112233483D01*
X57200877Y-112233483D02*
X57153258Y-112328721D01*
X57153258Y-112328721D02*
X57153258Y-112852531D01*
X56058020Y-111852531D02*
X55486592Y-111852531D01*
X55772306Y-112852531D02*
X55772306Y-111852531D01*
X55153258Y-111852531D02*
X55153258Y-112662054D01*
X55153258Y-112662054D02*
X55105639Y-112757292D01*
X55105639Y-112757292D02*
X55058020Y-112804912D01*
X55058020Y-112804912D02*
X54962782Y-112852531D01*
X54962782Y-112852531D02*
X54772306Y-112852531D01*
X54772306Y-112852531D02*
X54677068Y-112804912D01*
X54677068Y-112804912D02*
X54629449Y-112757292D01*
X54629449Y-112757292D02*
X54581830Y-112662054D01*
X54581830Y-112662054D02*
X54581830Y-111852531D01*
X53534211Y-112852531D02*
X53867544Y-112376340D01*
X54105639Y-112852531D02*
X54105639Y-111852531D01*
X54105639Y-111852531D02*
X53724687Y-111852531D01*
X53724687Y-111852531D02*
X53629449Y-111900150D01*
X53629449Y-111900150D02*
X53581830Y-111947769D01*
X53581830Y-111947769D02*
X53534211Y-112043007D01*
X53534211Y-112043007D02*
X53534211Y-112185864D01*
X53534211Y-112185864D02*
X53581830Y-112281102D01*
X53581830Y-112281102D02*
X53629449Y-112328721D01*
X53629449Y-112328721D02*
X53724687Y-112376340D01*
X53724687Y-112376340D02*
X54105639Y-112376340D01*
X52581830Y-111900150D02*
X52677068Y-111852531D01*
X52677068Y-111852531D02*
X52819925Y-111852531D01*
X52819925Y-111852531D02*
X52962782Y-111900150D01*
X52962782Y-111900150D02*
X53058020Y-111995388D01*
X53058020Y-111995388D02*
X53105639Y-112090626D01*
X53105639Y-112090626D02*
X53153258Y-112281102D01*
X53153258Y-112281102D02*
X53153258Y-112423959D01*
X53153258Y-112423959D02*
X53105639Y-112614435D01*
X53105639Y-112614435D02*
X53058020Y-112709673D01*
X53058020Y-112709673D02*
X52962782Y-112804912D01*
X52962782Y-112804912D02*
X52819925Y-112852531D01*
X52819925Y-112852531D02*
X52724687Y-112852531D01*
X52724687Y-112852531D02*
X52581830Y-112804912D01*
X52581830Y-112804912D02*
X52534211Y-112757292D01*
X52534211Y-112757292D02*
X52534211Y-112423959D01*
X52534211Y-112423959D02*
X52724687Y-112423959D01*
X52105639Y-111852531D02*
X52105639Y-112662054D01*
X52105639Y-112662054D02*
X52058020Y-112757292D01*
X52058020Y-112757292D02*
X52010401Y-112804912D01*
X52010401Y-112804912D02*
X51915163Y-112852531D01*
X51915163Y-112852531D02*
X51724687Y-112852531D01*
X51724687Y-112852531D02*
X51629449Y-112804912D01*
X51629449Y-112804912D02*
X51581830Y-112757292D01*
X51581830Y-112757292D02*
X51534211Y-112662054D01*
X51534211Y-112662054D02*
X51534211Y-111852531D01*
X51200877Y-111852531D02*
X50629449Y-111852531D01*
X50915163Y-112852531D02*
X50915163Y-111852531D01*
X62343734Y-114414856D02*
X62200877Y-114462475D01*
X62200877Y-114462475D02*
X61962782Y-114462475D01*
X61962782Y-114462475D02*
X61867544Y-114414856D01*
X61867544Y-114414856D02*
X61819925Y-114367236D01*
X61819925Y-114367236D02*
X61772306Y-114271998D01*
X61772306Y-114271998D02*
X61772306Y-114176760D01*
X61772306Y-114176760D02*
X61819925Y-114081522D01*
X61819925Y-114081522D02*
X61867544Y-114033903D01*
X61867544Y-114033903D02*
X61962782Y-113986284D01*
X61962782Y-113986284D02*
X62153258Y-113938665D01*
X62153258Y-113938665D02*
X62248496Y-113891046D01*
X62248496Y-113891046D02*
X62296115Y-113843427D01*
X62296115Y-113843427D02*
X62343734Y-113748189D01*
X62343734Y-113748189D02*
X62343734Y-113652951D01*
X62343734Y-113652951D02*
X62296115Y-113557713D01*
X62296115Y-113557713D02*
X62248496Y-113510094D01*
X62248496Y-113510094D02*
X62153258Y-113462475D01*
X62153258Y-113462475D02*
X61915163Y-113462475D01*
X61915163Y-113462475D02*
X61772306Y-113510094D01*
X60915163Y-114462475D02*
X60915163Y-113938665D01*
X60915163Y-113938665D02*
X60962782Y-113843427D01*
X60962782Y-113843427D02*
X61058020Y-113795808D01*
X61058020Y-113795808D02*
X61248496Y-113795808D01*
X61248496Y-113795808D02*
X61343734Y-113843427D01*
X60915163Y-114414856D02*
X61010401Y-114462475D01*
X61010401Y-114462475D02*
X61248496Y-114462475D01*
X61248496Y-114462475D02*
X61343734Y-114414856D01*
X61343734Y-114414856D02*
X61391353Y-114319617D01*
X61391353Y-114319617D02*
X61391353Y-114224379D01*
X61391353Y-114224379D02*
X61343734Y-114129141D01*
X61343734Y-114129141D02*
X61248496Y-114081522D01*
X61248496Y-114081522D02*
X61010401Y-114081522D01*
X61010401Y-114081522D02*
X60915163Y-114033903D01*
X60010401Y-114414856D02*
X60105639Y-114462475D01*
X60105639Y-114462475D02*
X60296115Y-114462475D01*
X60296115Y-114462475D02*
X60391353Y-114414856D01*
X60391353Y-114414856D02*
X60438972Y-114367236D01*
X60438972Y-114367236D02*
X60486591Y-114271998D01*
X60486591Y-114271998D02*
X60486591Y-113986284D01*
X60486591Y-113986284D02*
X60438972Y-113891046D01*
X60438972Y-113891046D02*
X60391353Y-113843427D01*
X60391353Y-113843427D02*
X60296115Y-113795808D01*
X60296115Y-113795808D02*
X60105639Y-113795808D01*
X60105639Y-113795808D02*
X60010401Y-113843427D01*
X59581829Y-114462475D02*
X59581829Y-113462475D01*
X59153258Y-114462475D02*
X59153258Y-113938665D01*
X59153258Y-113938665D02*
X59200877Y-113843427D01*
X59200877Y-113843427D02*
X59296115Y-113795808D01*
X59296115Y-113795808D02*
X59438972Y-113795808D01*
X59438972Y-113795808D02*
X59534210Y-113843427D01*
X59534210Y-113843427D02*
X59581829Y-113891046D01*
X58248496Y-114462475D02*
X58248496Y-113938665D01*
X58248496Y-113938665D02*
X58296115Y-113843427D01*
X58296115Y-113843427D02*
X58391353Y-113795808D01*
X58391353Y-113795808D02*
X58581829Y-113795808D01*
X58581829Y-113795808D02*
X58677067Y-113843427D01*
X58248496Y-114414856D02*
X58343734Y-114462475D01*
X58343734Y-114462475D02*
X58581829Y-114462475D01*
X58581829Y-114462475D02*
X58677067Y-114414856D01*
X58677067Y-114414856D02*
X58724686Y-114319617D01*
X58724686Y-114319617D02*
X58724686Y-114224379D01*
X58724686Y-114224379D02*
X58677067Y-114129141D01*
X58677067Y-114129141D02*
X58581829Y-114081522D01*
X58581829Y-114081522D02*
X58343734Y-114081522D01*
X58343734Y-114081522D02*
X58248496Y-114033903D01*
X56438972Y-114367236D02*
X56486591Y-114414856D01*
X56486591Y-114414856D02*
X56629448Y-114462475D01*
X56629448Y-114462475D02*
X56724686Y-114462475D01*
X56724686Y-114462475D02*
X56867543Y-114414856D01*
X56867543Y-114414856D02*
X56962781Y-114319617D01*
X56962781Y-114319617D02*
X57010400Y-114224379D01*
X57010400Y-114224379D02*
X57058019Y-114033903D01*
X57058019Y-114033903D02*
X57058019Y-113891046D01*
X57058019Y-113891046D02*
X57010400Y-113700570D01*
X57010400Y-113700570D02*
X56962781Y-113605332D01*
X56962781Y-113605332D02*
X56867543Y-113510094D01*
X56867543Y-113510094D02*
X56724686Y-113462475D01*
X56724686Y-113462475D02*
X56629448Y-113462475D01*
X56629448Y-113462475D02*
X56486591Y-113510094D01*
X56486591Y-113510094D02*
X56438972Y-113557713D01*
X56010400Y-114462475D02*
X56010400Y-113462475D01*
X56010400Y-113938665D02*
X55438972Y-113938665D01*
X55438972Y-114462475D02*
X55438972Y-113462475D01*
X54962781Y-113938665D02*
X54629448Y-113938665D01*
X54486591Y-114462475D02*
X54962781Y-114462475D01*
X54962781Y-114462475D02*
X54962781Y-113462475D01*
X54962781Y-113462475D02*
X54486591Y-113462475D01*
X53486591Y-114462475D02*
X53819924Y-113986284D01*
X54058019Y-114462475D02*
X54058019Y-113462475D01*
X54058019Y-113462475D02*
X53677067Y-113462475D01*
X53677067Y-113462475D02*
X53581829Y-113510094D01*
X53581829Y-113510094D02*
X53534210Y-113557713D01*
X53534210Y-113557713D02*
X53486591Y-113652951D01*
X53486591Y-113652951D02*
X53486591Y-113795808D01*
X53486591Y-113795808D02*
X53534210Y-113891046D01*
X53534210Y-113891046D02*
X53581829Y-113938665D01*
X53581829Y-113938665D02*
X53677067Y-113986284D01*
X53677067Y-113986284D02*
X54058019Y-113986284D01*
X53058019Y-114462475D02*
X53058019Y-113462475D01*
X52248496Y-113938665D02*
X52581829Y-113938665D01*
X52581829Y-114462475D02*
X52581829Y-113462475D01*
X52581829Y-113462475D02*
X52105639Y-113462475D01*
X51724686Y-114462475D02*
X51724686Y-113462475D01*
X62438972Y-115072419D02*
X62105639Y-116072419D01*
X62105639Y-116072419D02*
X61772306Y-115072419D01*
X60153258Y-116072419D02*
X60724686Y-116072419D01*
X60438972Y-116072419D02*
X60438972Y-115072419D01*
X60438972Y-115072419D02*
X60534210Y-115215276D01*
X60534210Y-115215276D02*
X60629448Y-115310514D01*
X60629448Y-115310514D02*
X60724686Y-115358133D01*
X59724686Y-115977180D02*
X59677067Y-116024800D01*
X59677067Y-116024800D02*
X59724686Y-116072419D01*
X59724686Y-116072419D02*
X59772305Y-116024800D01*
X59772305Y-116024800D02*
X59724686Y-115977180D01*
X59724686Y-115977180D02*
X59724686Y-116072419D01*
X59058020Y-115072419D02*
X58962782Y-115072419D01*
X58962782Y-115072419D02*
X58867544Y-115120038D01*
X58867544Y-115120038D02*
X58819925Y-115167657D01*
X58819925Y-115167657D02*
X58772306Y-115262895D01*
X58772306Y-115262895D02*
X58724687Y-115453371D01*
X58724687Y-115453371D02*
X58724687Y-115691466D01*
X58724687Y-115691466D02*
X58772306Y-115881942D01*
X58772306Y-115881942D02*
X58819925Y-115977180D01*
X58819925Y-115977180D02*
X58867544Y-116024800D01*
X58867544Y-116024800D02*
X58962782Y-116072419D01*
X58962782Y-116072419D02*
X59058020Y-116072419D01*
X59058020Y-116072419D02*
X59153258Y-116024800D01*
X59153258Y-116024800D02*
X59200877Y-115977180D01*
X59200877Y-115977180D02*
X59248496Y-115881942D01*
X59248496Y-115881942D02*
X59296115Y-115691466D01*
X59296115Y-115691466D02*
X59296115Y-115453371D01*
X59296115Y-115453371D02*
X59248496Y-115262895D01*
X59248496Y-115262895D02*
X59200877Y-115167657D01*
X59200877Y-115167657D02*
X59153258Y-115120038D01*
X59153258Y-115120038D02*
X59058020Y-115072419D01*
X58296115Y-115977180D02*
X58248496Y-116024800D01*
X58248496Y-116024800D02*
X58296115Y-116072419D01*
X58296115Y-116072419D02*
X58343734Y-116024800D01*
X58343734Y-116024800D02*
X58296115Y-115977180D01*
X58296115Y-115977180D02*
X58296115Y-116072419D01*
X57629449Y-115072419D02*
X57534211Y-115072419D01*
X57534211Y-115072419D02*
X57438973Y-115120038D01*
X57438973Y-115120038D02*
X57391354Y-115167657D01*
X57391354Y-115167657D02*
X57343735Y-115262895D01*
X57343735Y-115262895D02*
X57296116Y-115453371D01*
X57296116Y-115453371D02*
X57296116Y-115691466D01*
X57296116Y-115691466D02*
X57343735Y-115881942D01*
X57343735Y-115881942D02*
X57391354Y-115977180D01*
X57391354Y-115977180D02*
X57438973Y-116024800D01*
X57438973Y-116024800D02*
X57534211Y-116072419D01*
X57534211Y-116072419D02*
X57629449Y-116072419D01*
X57629449Y-116072419D02*
X57724687Y-116024800D01*
X57724687Y-116024800D02*
X57772306Y-115977180D01*
X57772306Y-115977180D02*
X57819925Y-115881942D01*
X57819925Y-115881942D02*
X57867544Y-115691466D01*
X57867544Y-115691466D02*
X57867544Y-115453371D01*
X57867544Y-115453371D02*
X57819925Y-115262895D01*
X57819925Y-115262895D02*
X57772306Y-115167657D01*
X57772306Y-115167657D02*
X57724687Y-115120038D01*
X57724687Y-115120038D02*
X57629449Y-115072419D01*
X56867544Y-115977180D02*
X56819925Y-116024800D01*
X56819925Y-116024800D02*
X56867544Y-116072419D01*
X56867544Y-116072419D02*
X56915163Y-116024800D01*
X56915163Y-116024800D02*
X56867544Y-115977180D01*
X56867544Y-115977180D02*
X56867544Y-116072419D01*
X56200878Y-115072419D02*
X56105640Y-115072419D01*
X56105640Y-115072419D02*
X56010402Y-115120038D01*
X56010402Y-115120038D02*
X55962783Y-115167657D01*
X55962783Y-115167657D02*
X55915164Y-115262895D01*
X55915164Y-115262895D02*
X55867545Y-115453371D01*
X55867545Y-115453371D02*
X55867545Y-115691466D01*
X55867545Y-115691466D02*
X55915164Y-115881942D01*
X55915164Y-115881942D02*
X55962783Y-115977180D01*
X55962783Y-115977180D02*
X56010402Y-116024800D01*
X56010402Y-116024800D02*
X56105640Y-116072419D01*
X56105640Y-116072419D02*
X56200878Y-116072419D01*
X56200878Y-116072419D02*
X56296116Y-116024800D01*
X56296116Y-116024800D02*
X56343735Y-115977180D01*
X56343735Y-115977180D02*
X56391354Y-115881942D01*
X56391354Y-115881942D02*
X56438973Y-115691466D01*
X56438973Y-115691466D02*
X56438973Y-115453371D01*
X56438973Y-115453371D02*
X56391354Y-115262895D01*
X56391354Y-115262895D02*
X56343735Y-115167657D01*
X56343735Y-115167657D02*
X56296116Y-115120038D01*
X56296116Y-115120038D02*
X56200878Y-115072419D01*
X55438973Y-115977180D02*
X55391354Y-116024800D01*
X55391354Y-116024800D02*
X55438973Y-116072419D01*
X55438973Y-116072419D02*
X55486592Y-116024800D01*
X55486592Y-116024800D02*
X55438973Y-115977180D01*
X55438973Y-115977180D02*
X55438973Y-116072419D01*
X54772307Y-115072419D02*
X54677069Y-115072419D01*
X54677069Y-115072419D02*
X54581831Y-115120038D01*
X54581831Y-115120038D02*
X54534212Y-115167657D01*
X54534212Y-115167657D02*
X54486593Y-115262895D01*
X54486593Y-115262895D02*
X54438974Y-115453371D01*
X54438974Y-115453371D02*
X54438974Y-115691466D01*
X54438974Y-115691466D02*
X54486593Y-115881942D01*
X54486593Y-115881942D02*
X54534212Y-115977180D01*
X54534212Y-115977180D02*
X54581831Y-116024800D01*
X54581831Y-116024800D02*
X54677069Y-116072419D01*
X54677069Y-116072419D02*
X54772307Y-116072419D01*
X54772307Y-116072419D02*
X54867545Y-116024800D01*
X54867545Y-116024800D02*
X54915164Y-115977180D01*
X54915164Y-115977180D02*
X54962783Y-115881942D01*
X54962783Y-115881942D02*
X55010402Y-115691466D01*
X55010402Y-115691466D02*
X55010402Y-115453371D01*
X55010402Y-115453371D02*
X54962783Y-115262895D01*
X54962783Y-115262895D02*
X54915164Y-115167657D01*
X54915164Y-115167657D02*
X54867545Y-115120038D01*
X54867545Y-115120038D02*
X54772307Y-115072419D01*
X54010402Y-115977180D02*
X53962783Y-116024800D01*
X53962783Y-116024800D02*
X54010402Y-116072419D01*
X54010402Y-116072419D02*
X54058021Y-116024800D01*
X54058021Y-116024800D02*
X54010402Y-115977180D01*
X54010402Y-115977180D02*
X54010402Y-116072419D01*
X53010403Y-116072419D02*
X53581831Y-116072419D01*
X53296117Y-116072419D02*
X53296117Y-115072419D01*
X53296117Y-115072419D02*
X53391355Y-115215276D01*
X53391355Y-115215276D02*
X53486593Y-115310514D01*
X53486593Y-115310514D02*
X53581831Y-115358133D01*
M02*
