%TF.GenerationSoftware,KiCad,Pcbnew,8.0.8*%
%TF.CreationDate,2025-04-07T17:27:46+02:00*%
%TF.ProjectId,PCB_V1,5043425f-5631-42e6-9b69-6361645f7063,rev?*%
%TF.SameCoordinates,Original*%
%TF.FileFunction,Copper,L2,Inr*%
%TF.FilePolarity,Positive*%
%FSLAX46Y46*%
G04 Gerber Fmt 4.6, Leading zero omitted, Abs format (unit mm)*
G04 Created by KiCad (PCBNEW 8.0.8) date 2025-04-07 17:27:46*
%MOMM*%
%LPD*%
G01*
G04 APERTURE LIST*
G04 Aperture macros list*
%AMRoundRect*
0 Rectangle with rounded corners*
0 $1 Rounding radius*
0 $2 $3 $4 $5 $6 $7 $8 $9 X,Y pos of 4 corners*
0 Add a 4 corners polygon primitive as box body*
4,1,4,$2,$3,$4,$5,$6,$7,$8,$9,$2,$3,0*
0 Add four circle primitives for the rounded corners*
1,1,$1+$1,$2,$3*
1,1,$1+$1,$4,$5*
1,1,$1+$1,$6,$7*
1,1,$1+$1,$8,$9*
0 Add four rect primitives between the rounded corners*
20,1,$1+$1,$2,$3,$4,$5,0*
20,1,$1+$1,$4,$5,$6,$7,0*
20,1,$1+$1,$6,$7,$8,$9,0*
20,1,$1+$1,$8,$9,$2,$3,0*%
G04 Aperture macros list end*
%TA.AperFunction,ComponentPad*%
%ADD10C,2.250000*%
%TD*%
%TA.AperFunction,ComponentPad*%
%ADD11C,4.400000*%
%TD*%
%TA.AperFunction,ComponentPad*%
%ADD12RoundRect,0.250000X0.600000X0.750000X-0.600000X0.750000X-0.600000X-0.750000X0.600000X-0.750000X0*%
%TD*%
%TA.AperFunction,ComponentPad*%
%ADD13O,1.700000X2.000000*%
%TD*%
%TA.AperFunction,ComponentPad*%
%ADD14RoundRect,0.250000X0.600000X0.725000X-0.600000X0.725000X-0.600000X-0.725000X0.600000X-0.725000X0*%
%TD*%
%TA.AperFunction,ComponentPad*%
%ADD15O,1.700000X1.950000*%
%TD*%
%TA.AperFunction,ComponentPad*%
%ADD16RoundRect,0.250000X0.725000X-0.600000X0.725000X0.600000X-0.725000X0.600000X-0.725000X-0.600000X0*%
%TD*%
%TA.AperFunction,ComponentPad*%
%ADD17O,1.950000X1.700000*%
%TD*%
%TA.AperFunction,ComponentPad*%
%ADD18RoundRect,0.250000X-0.600000X-0.725000X0.600000X-0.725000X0.600000X0.725000X-0.600000X0.725000X0*%
%TD*%
%TA.AperFunction,ViaPad*%
%ADD19C,0.500000*%
%TD*%
G04 APERTURE END LIST*
D10*
%TO.N,unconnected-(J8-Pad1)*%
%TO.C,J8*%
X100500000Y-58000000D03*
%TO.N,GND*%
X108000000Y-58000000D03*
%TO.N,unconnected-(J8-Pad3)*%
X115500000Y-58000000D03*
%TO.N,Net-(JP1-A)*%
X103000000Y-60500000D03*
%TO.N,Net-(JP2-B)*%
X113000000Y-60500000D03*
%TO.N,GND*%
X103000000Y-48000000D03*
X113000000Y-48000000D03*
%TD*%
D11*
%TO.N,GND*%
%TO.C,H3*%
X88000000Y-49000000D03*
%TD*%
D12*
%TO.N,+5V*%
%TO.C,J4*%
X79000000Y-58750000D03*
D13*
%TO.N,GND*%
X76500000Y-58750000D03*
%TD*%
D11*
%TO.N,GND*%
%TO.C,H4*%
X110000000Y-131000000D03*
%TD*%
%TO.N,GND*%
%TO.C,H1*%
X58000000Y-49000000D03*
%TD*%
D12*
%TO.N,USART_TX*%
%TO.C,J5*%
X69000000Y-58750000D03*
D13*
%TO.N,GND*%
X66500000Y-58750000D03*
%TD*%
D14*
%TO.N,LED_COM0*%
%TO.C,J7*%
X98000000Y-129800000D03*
D15*
%TO.N,LED_COM1*%
X95500000Y-129800000D03*
%TO.N,LED8*%
X93000000Y-129800000D03*
%TO.N,LED9*%
X90500000Y-129800000D03*
%TO.N,LED10*%
X88000000Y-129800000D03*
%TO.N,LED11*%
X85500000Y-129800000D03*
%TO.N,LED12*%
X83000000Y-129800000D03*
%TD*%
D16*
%TO.N,SW_UP*%
%TO.C,J1*%
X115975000Y-119000000D03*
D17*
%TO.N,SW_DOWN*%
X115975000Y-116500000D03*
%TO.N,GND*%
X115975000Y-114000000D03*
%TD*%
D11*
%TO.N,GND*%
%TO.C,H5*%
X110000000Y-74000000D03*
%TD*%
D17*
%TO.N,LED7_SEG*%
%TO.C,J8_afficheur1*%
X116000000Y-84000000D03*
%TO.N,LED6_SEG*%
X116000000Y-86500000D03*
%TO.N,LED5_SEG*%
X116000000Y-89000000D03*
%TO.N,LED4_SEG*%
X116000000Y-91500000D03*
%TO.N,LED3_SEG*%
X116000000Y-94000000D03*
%TO.N,LED2_SEG*%
X116000000Y-96500000D03*
%TO.N,LED1_SEG*%
X116000000Y-99000000D03*
%TO.N,LED0_SEG*%
X116000000Y-101500000D03*
%TO.N,LED_COM1*%
X116000000Y-104000000D03*
D16*
%TO.N,LED_COM0*%
X116000000Y-106500000D03*
%TD*%
D11*
%TO.N,GND*%
%TO.C,H2*%
X50000000Y-131000000D03*
%TD*%
D18*
%TO.N,GND*%
%TO.C,J2*%
X65500000Y-130000000D03*
D15*
%TO.N,Net-(J2-Pin_2)*%
X68000000Y-130000000D03*
%TO.N,Net-(J2-Pin_3)*%
X70500000Y-130000000D03*
%TD*%
D19*
%TO.N,LED12*%
X62200000Y-88000000D03*
%TO.N,LED11*%
X69625000Y-82250000D03*
%TO.N,LED_COM1*%
X93400000Y-77800000D03*
X105800000Y-104000000D03*
%TO.N,LED7_SEG*%
X111000000Y-87800000D03*
%TO.N,+3.3VA*%
X72500000Y-98950000D03*
%TO.N,LED10*%
X72025000Y-82275000D03*
%TO.N,+3.3V*%
X69500000Y-73750000D03*
%TO.N,GND*%
X68750000Y-75500000D03*
X68750000Y-79500000D03*
%TO.N,SW_UP*%
X109500000Y-118000000D03*
%TO.N,SW_DOWN*%
X108875000Y-115375000D03*
X76250000Y-87500000D03*
%TO.N,SW_UP*%
X76250000Y-86500000D03*
%TO.N,RESET*%
X65250000Y-87250000D03*
%TO.N,LED9*%
X74250000Y-82250000D03*
%TO.N,RESET*%
X78750000Y-80500000D03*
%TO.N,USART_TX*%
X69250000Y-62500000D03*
X65025000Y-89790000D03*
%TO.N,GND*%
X76500000Y-60250000D03*
X66500000Y-60250000D03*
%TO.N,LED_COM0*%
X76700000Y-72050000D03*
X107250000Y-106500000D03*
%TO.N,+3.3VA*%
X76500000Y-118000000D03*
%TO.N,GND*%
X114400000Y-114000000D03*
%TO.N,+3.3V*%
X108490000Y-117600000D03*
%TO.N,GND*%
X65400000Y-128400000D03*
%TO.N,+3.3VA*%
X62520000Y-110800000D03*
%TO.N,GND*%
X66400000Y-118600000D03*
%TO.N,+3.3VA*%
X62200000Y-121200000D03*
%TO.N,GND*%
X65400000Y-121400000D03*
%TO.N,+3.3VA*%
X67000000Y-121400000D03*
%TO.N,+3.3V*%
X72050000Y-73050000D03*
X72050000Y-77250000D03*
%TO.N,GND*%
X86225000Y-80590000D03*
%TO.N,+3.3V*%
X86325000Y-85790000D03*
%TO.N,GND*%
X86625000Y-83790000D03*
X77912500Y-64112500D03*
X83875000Y-64875000D03*
%TO.N,+3.3V*%
X84000000Y-63300000D03*
%TO.N,GND*%
X72025000Y-93190000D03*
%TO.N,+3.3V*%
X70725000Y-97590000D03*
%TO.N,GND*%
X67164411Y-83450589D03*
%TO.N,+3.3V*%
X66485589Y-84129411D03*
%TO.N,GND*%
X74535589Y-92179411D03*
%TO.N,+3.3V*%
X75214411Y-91500589D03*
%TD*%
%TA.AperFunction,Conductor*%
%TO.N,GND*%
G36*
X122442539Y-44520185D02*
G01*
X122488294Y-44572989D01*
X122499500Y-44624500D01*
X122499500Y-135375500D01*
X122479815Y-135442539D01*
X122427011Y-135488294D01*
X122375500Y-135499500D01*
X45624500Y-135499500D01*
X45557461Y-135479815D01*
X45511706Y-135427011D01*
X45500500Y-135375500D01*
X45500500Y-131000000D01*
X47295065Y-131000000D01*
X47314786Y-131326038D01*
X47373667Y-131647341D01*
X47470835Y-131959164D01*
X47470839Y-131959175D01*
X47604897Y-132257041D01*
X47604898Y-132257043D01*
X47773881Y-132536576D01*
X47921476Y-132724968D01*
X48420079Y-132226365D01*
X48493094Y-132321521D01*
X48678479Y-132506906D01*
X48773632Y-132579919D01*
X48275030Y-133078522D01*
X48275030Y-133078523D01*
X48463423Y-133226118D01*
X48742956Y-133395101D01*
X48742958Y-133395102D01*
X49040824Y-133529160D01*
X49040835Y-133529164D01*
X49352658Y-133626332D01*
X49673961Y-133685213D01*
X50000000Y-133704934D01*
X50326038Y-133685213D01*
X50647341Y-133626332D01*
X50959164Y-133529164D01*
X50959175Y-133529160D01*
X51257041Y-133395102D01*
X51257043Y-133395101D01*
X51536586Y-133226112D01*
X51724968Y-133078523D01*
X51724968Y-133078522D01*
X51226366Y-132579920D01*
X51321521Y-132506906D01*
X51506906Y-132321521D01*
X51579920Y-132226366D01*
X52078522Y-132724968D01*
X52078523Y-132724968D01*
X52226112Y-132536586D01*
X52395101Y-132257043D01*
X52395102Y-132257041D01*
X52529160Y-131959175D01*
X52529164Y-131959164D01*
X52626332Y-131647341D01*
X52685213Y-131326038D01*
X52704934Y-131000000D01*
X52685213Y-130673961D01*
X52626332Y-130352658D01*
X52529164Y-130040835D01*
X52529160Y-130040824D01*
X52395102Y-129742958D01*
X52395101Y-129742956D01*
X52226118Y-129463423D01*
X52078522Y-129275030D01*
X51579919Y-129773632D01*
X51506906Y-129678479D01*
X51321521Y-129493094D01*
X51226365Y-129420079D01*
X51421431Y-129225013D01*
X64150000Y-129225013D01*
X64150000Y-129750000D01*
X65095854Y-129750000D01*
X65057370Y-129816657D01*
X65025000Y-129937465D01*
X65025000Y-130062535D01*
X65057370Y-130183343D01*
X65095854Y-130250000D01*
X64150001Y-130250000D01*
X64150001Y-130774986D01*
X64160494Y-130877697D01*
X64215641Y-131044119D01*
X64215643Y-131044124D01*
X64307684Y-131193345D01*
X64431654Y-131317315D01*
X64580875Y-131409356D01*
X64580880Y-131409358D01*
X64747302Y-131464505D01*
X64747309Y-131464506D01*
X64850019Y-131474999D01*
X65249999Y-131474999D01*
X65250000Y-131474998D01*
X65250000Y-130404145D01*
X65316657Y-130442630D01*
X65437465Y-130475000D01*
X65562535Y-130475000D01*
X65683343Y-130442630D01*
X65750000Y-130404145D01*
X65750000Y-131474999D01*
X66149972Y-131474999D01*
X66149986Y-131474998D01*
X66252697Y-131464505D01*
X66419119Y-131409358D01*
X66419124Y-131409356D01*
X66568345Y-131317315D01*
X66692315Y-131193345D01*
X66784356Y-131044124D01*
X66784358Y-131044119D01*
X66839505Y-130877697D01*
X66839506Y-130877689D01*
X66841699Y-130856231D01*
X66868095Y-130791539D01*
X66925276Y-130751388D01*
X66995087Y-130748524D01*
X67055363Y-130783858D01*
X67065376Y-130795949D01*
X67122443Y-130874497D01*
X67250500Y-131002554D01*
X67250505Y-131002558D01*
X67336281Y-131064877D01*
X67397006Y-131108996D01*
X67502484Y-131162740D01*
X67558360Y-131191211D01*
X67558363Y-131191212D01*
X67644476Y-131219191D01*
X67730591Y-131247171D01*
X67813429Y-131260291D01*
X67909449Y-131275500D01*
X67909454Y-131275500D01*
X68090551Y-131275500D01*
X68177259Y-131261765D01*
X68269409Y-131247171D01*
X68441639Y-131191211D01*
X68602994Y-131108996D01*
X68749501Y-131002553D01*
X68877553Y-130874501D01*
X68983996Y-130727994D01*
X69066211Y-130566639D01*
X69122171Y-130394409D01*
X69127527Y-130360594D01*
X69157456Y-130297459D01*
X69216768Y-130260528D01*
X69286630Y-130261526D01*
X69344863Y-130300136D01*
X69372473Y-130360594D01*
X69377829Y-130394410D01*
X69433787Y-130566636D01*
X69433788Y-130566639D01*
X69516006Y-130727997D01*
X69622441Y-130874494D01*
X69622445Y-130874499D01*
X69750500Y-131002554D01*
X69750505Y-131002558D01*
X69836281Y-131064877D01*
X69897006Y-131108996D01*
X70002484Y-131162740D01*
X70058360Y-131191211D01*
X70058363Y-131191212D01*
X70144476Y-131219191D01*
X70230591Y-131247171D01*
X70313429Y-131260291D01*
X70409449Y-131275500D01*
X70409454Y-131275500D01*
X70590551Y-131275500D01*
X70677259Y-131261765D01*
X70769409Y-131247171D01*
X70941639Y-131191211D01*
X71102994Y-131108996D01*
X71249501Y-131002553D01*
X71377553Y-130874501D01*
X71483996Y-130727994D01*
X71566211Y-130566639D01*
X71622171Y-130394409D01*
X71643376Y-130260528D01*
X71650500Y-130215551D01*
X71650500Y-129784448D01*
X71633715Y-129678479D01*
X71622171Y-129605591D01*
X71615301Y-129584448D01*
X81849500Y-129584448D01*
X81849500Y-130015551D01*
X81877829Y-130194410D01*
X81933787Y-130366636D01*
X81933788Y-130366639D01*
X82016006Y-130527997D01*
X82122441Y-130674494D01*
X82122445Y-130674499D01*
X82250500Y-130802554D01*
X82250505Y-130802558D01*
X82341836Y-130868913D01*
X82397006Y-130908996D01*
X82502484Y-130962740D01*
X82558360Y-130991211D01*
X82558363Y-130991212D01*
X82644476Y-131019191D01*
X82730591Y-131047171D01*
X82813429Y-131060291D01*
X82909449Y-131075500D01*
X82909454Y-131075500D01*
X83090551Y-131075500D01*
X83177259Y-131061765D01*
X83269409Y-131047171D01*
X83441639Y-130991211D01*
X83602994Y-130908996D01*
X83749501Y-130802553D01*
X83877553Y-130674501D01*
X83983996Y-130527994D01*
X84066211Y-130366639D01*
X84122171Y-130194409D01*
X84127527Y-130160594D01*
X84157456Y-130097459D01*
X84216768Y-130060528D01*
X84286630Y-130061526D01*
X84344863Y-130100136D01*
X84372473Y-130160594D01*
X84377829Y-130194410D01*
X84433787Y-130366636D01*
X84433788Y-130366639D01*
X84516006Y-130527997D01*
X84622441Y-130674494D01*
X84622445Y-130674499D01*
X84750500Y-130802554D01*
X84750505Y-130802558D01*
X84841836Y-130868913D01*
X84897006Y-130908996D01*
X85002484Y-130962740D01*
X85058360Y-130991211D01*
X85058363Y-130991212D01*
X85144476Y-131019191D01*
X85230591Y-131047171D01*
X85313429Y-131060291D01*
X85409449Y-131075500D01*
X85409454Y-131075500D01*
X85590551Y-131075500D01*
X85677259Y-131061765D01*
X85769409Y-131047171D01*
X85941639Y-130991211D01*
X86102994Y-130908996D01*
X86249501Y-130802553D01*
X86377553Y-130674501D01*
X86483996Y-130527994D01*
X86566211Y-130366639D01*
X86622171Y-130194409D01*
X86627527Y-130160594D01*
X86657456Y-130097459D01*
X86716768Y-130060528D01*
X86786630Y-130061526D01*
X86844863Y-130100136D01*
X86872473Y-130160594D01*
X86877829Y-130194410D01*
X86933787Y-130366636D01*
X86933788Y-130366639D01*
X87016006Y-130527997D01*
X87122441Y-130674494D01*
X87122445Y-130674499D01*
X87250500Y-130802554D01*
X87250505Y-130802558D01*
X87341836Y-130868913D01*
X87397006Y-130908996D01*
X87502484Y-130962740D01*
X87558360Y-130991211D01*
X87558363Y-130991212D01*
X87644476Y-131019191D01*
X87730591Y-131047171D01*
X87813429Y-131060291D01*
X87909449Y-131075500D01*
X87909454Y-131075500D01*
X88090551Y-131075500D01*
X88177259Y-131061765D01*
X88269409Y-131047171D01*
X88441639Y-130991211D01*
X88602994Y-130908996D01*
X88749501Y-130802553D01*
X88877553Y-130674501D01*
X88983996Y-130527994D01*
X89066211Y-130366639D01*
X89122171Y-130194409D01*
X89127527Y-130160594D01*
X89157456Y-130097459D01*
X89216768Y-130060528D01*
X89286630Y-130061526D01*
X89344863Y-130100136D01*
X89372473Y-130160594D01*
X89377829Y-130194410D01*
X89433787Y-130366636D01*
X89433788Y-130366639D01*
X89516006Y-130527997D01*
X89622441Y-130674494D01*
X89622445Y-130674499D01*
X89750500Y-130802554D01*
X89750505Y-130802558D01*
X89841836Y-130868913D01*
X89897006Y-130908996D01*
X90002484Y-130962740D01*
X90058360Y-130991211D01*
X90058363Y-130991212D01*
X90144476Y-131019191D01*
X90230591Y-131047171D01*
X90313429Y-131060291D01*
X90409449Y-131075500D01*
X90409454Y-131075500D01*
X90590551Y-131075500D01*
X90677259Y-131061765D01*
X90769409Y-131047171D01*
X90941639Y-130991211D01*
X91102994Y-130908996D01*
X91249501Y-130802553D01*
X91377553Y-130674501D01*
X91483996Y-130527994D01*
X91566211Y-130366639D01*
X91622171Y-130194409D01*
X91627527Y-130160594D01*
X91657456Y-130097459D01*
X91716768Y-130060528D01*
X91786630Y-130061526D01*
X91844863Y-130100136D01*
X91872473Y-130160594D01*
X91877829Y-130194410D01*
X91933787Y-130366636D01*
X91933788Y-130366639D01*
X92016006Y-130527997D01*
X92122441Y-130674494D01*
X92122445Y-130674499D01*
X92250500Y-130802554D01*
X92250505Y-130802558D01*
X92341836Y-130868913D01*
X92397006Y-130908996D01*
X92502484Y-130962740D01*
X92558360Y-130991211D01*
X92558363Y-130991212D01*
X92644476Y-131019191D01*
X92730591Y-131047171D01*
X92813429Y-131060291D01*
X92909449Y-131075500D01*
X92909454Y-131075500D01*
X93090551Y-131075500D01*
X93177259Y-131061765D01*
X93269409Y-131047171D01*
X93441639Y-130991211D01*
X93602994Y-130908996D01*
X93749501Y-130802553D01*
X93877553Y-130674501D01*
X93983996Y-130527994D01*
X94066211Y-130366639D01*
X94122171Y-130194409D01*
X94127527Y-130160594D01*
X94157456Y-130097459D01*
X94216768Y-130060528D01*
X94286630Y-130061526D01*
X94344863Y-130100136D01*
X94372473Y-130160594D01*
X94377829Y-130194410D01*
X94433787Y-130366636D01*
X94433788Y-130366639D01*
X94516006Y-130527997D01*
X94622441Y-130674494D01*
X94622445Y-130674499D01*
X94750500Y-130802554D01*
X94750505Y-130802558D01*
X94841836Y-130868913D01*
X94897006Y-130908996D01*
X95002484Y-130962740D01*
X95058360Y-130991211D01*
X95058363Y-130991212D01*
X95144476Y-131019191D01*
X95230591Y-131047171D01*
X95313429Y-131060291D01*
X95409449Y-131075500D01*
X95409454Y-131075500D01*
X95590551Y-131075500D01*
X95677259Y-131061765D01*
X95769409Y-131047171D01*
X95941639Y-130991211D01*
X96102994Y-130908996D01*
X96249501Y-130802553D01*
X96377553Y-130674501D01*
X96483996Y-130527994D01*
X96566211Y-130366639D01*
X96607569Y-130239351D01*
X96647006Y-130181676D01*
X96711364Y-130154477D01*
X96780211Y-130166391D01*
X96831687Y-130213635D01*
X96849500Y-130277669D01*
X96849500Y-130568102D01*
X96854409Y-130608982D01*
X96860122Y-130656561D01*
X96860122Y-130656563D01*
X96860123Y-130656564D01*
X96877722Y-130701192D01*
X96915639Y-130797343D01*
X97007077Y-130917922D01*
X97127656Y-131009360D01*
X97127657Y-131009360D01*
X97127658Y-131009361D01*
X97268436Y-131064877D01*
X97356898Y-131075500D01*
X97356903Y-131075500D01*
X98643097Y-131075500D01*
X98643102Y-131075500D01*
X98731564Y-131064877D01*
X98872342Y-131009361D01*
X98884686Y-131000000D01*
X107295065Y-131000000D01*
X107314786Y-131326038D01*
X107373667Y-131647341D01*
X107470835Y-131959164D01*
X107470839Y-131959175D01*
X107604897Y-132257041D01*
X107604898Y-132257043D01*
X107773881Y-132536576D01*
X107921476Y-132724968D01*
X108420079Y-132226365D01*
X108493094Y-132321521D01*
X108678479Y-132506906D01*
X108773632Y-132579919D01*
X108275030Y-133078522D01*
X108275030Y-133078523D01*
X108463423Y-133226118D01*
X108742956Y-133395101D01*
X108742958Y-133395102D01*
X109040824Y-133529160D01*
X109040835Y-133529164D01*
X109352658Y-133626332D01*
X109673961Y-133685213D01*
X110000000Y-133704934D01*
X110326038Y-133685213D01*
X110647341Y-133626332D01*
X110959164Y-133529164D01*
X110959175Y-133529160D01*
X111257041Y-133395102D01*
X111257043Y-133395101D01*
X111536586Y-133226112D01*
X111724968Y-133078523D01*
X111724968Y-133078522D01*
X111226366Y-132579920D01*
X111321521Y-132506906D01*
X111506906Y-132321521D01*
X111579920Y-132226366D01*
X112078522Y-132724968D01*
X112078523Y-132724968D01*
X112226112Y-132536586D01*
X112395101Y-132257043D01*
X112395102Y-132257041D01*
X112529160Y-131959175D01*
X112529164Y-131959164D01*
X112626332Y-131647341D01*
X112685213Y-131326038D01*
X112704934Y-131000000D01*
X112685213Y-130673961D01*
X112626332Y-130352658D01*
X112529164Y-130040835D01*
X112529160Y-130040824D01*
X112395102Y-129742958D01*
X112395101Y-129742956D01*
X112226118Y-129463423D01*
X112078522Y-129275030D01*
X111579919Y-129773632D01*
X111506906Y-129678479D01*
X111321521Y-129493094D01*
X111226365Y-129420079D01*
X111724968Y-128921476D01*
X111536576Y-128773881D01*
X111257043Y-128604898D01*
X111257041Y-128604897D01*
X110959175Y-128470839D01*
X110959164Y-128470835D01*
X110647341Y-128373667D01*
X110326038Y-128314786D01*
X110000000Y-128295065D01*
X109673961Y-128314786D01*
X109352658Y-128373667D01*
X109040835Y-128470835D01*
X109040824Y-128470839D01*
X108742958Y-128604897D01*
X108742956Y-128604898D01*
X108463422Y-128773881D01*
X108463416Y-128773886D01*
X108275030Y-128921474D01*
X108275029Y-128921476D01*
X108773633Y-129420079D01*
X108678479Y-129493094D01*
X108493094Y-129678479D01*
X108420080Y-129773633D01*
X107921476Y-129275029D01*
X107921474Y-129275030D01*
X107773886Y-129463416D01*
X107773881Y-129463422D01*
X107604898Y-129742956D01*
X107604897Y-129742958D01*
X107470839Y-130040824D01*
X107470835Y-130040835D01*
X107373667Y-130352658D01*
X107314786Y-130673961D01*
X107295065Y-131000000D01*
X98884686Y-131000000D01*
X98992922Y-130917922D01*
X99084361Y-130797342D01*
X99139877Y-130656564D01*
X99150500Y-130568102D01*
X99150500Y-129031898D01*
X99139877Y-128943436D01*
X99084361Y-128802658D01*
X99084360Y-128802657D01*
X99084360Y-128802656D01*
X98992922Y-128682077D01*
X98872343Y-128590639D01*
X98776192Y-128552722D01*
X98731564Y-128535123D01*
X98731563Y-128535122D01*
X98731561Y-128535122D01*
X98685926Y-128529642D01*
X98643102Y-128524500D01*
X97356898Y-128524500D01*
X97317853Y-128529188D01*
X97268438Y-128535122D01*
X97127656Y-128590639D01*
X97007077Y-128682077D01*
X96915639Y-128802656D01*
X96860122Y-128943438D01*
X96854188Y-128992853D01*
X96849500Y-129031898D01*
X96849500Y-129031903D01*
X96849500Y-129322330D01*
X96829815Y-129389369D01*
X96777011Y-129435124D01*
X96707853Y-129445068D01*
X96644297Y-129416043D01*
X96607569Y-129360648D01*
X96566212Y-129233363D01*
X96566211Y-129233360D01*
X96511255Y-129125505D01*
X96483996Y-129072006D01*
X96399626Y-128955880D01*
X96377558Y-128925505D01*
X96377554Y-128925500D01*
X96249499Y-128797445D01*
X96249494Y-128797441D01*
X96102997Y-128691006D01*
X96102996Y-128691005D01*
X96102994Y-128691004D01*
X96051300Y-128664664D01*
X95941639Y-128608788D01*
X95941636Y-128608787D01*
X95769410Y-128552829D01*
X95590551Y-128524500D01*
X95590546Y-128524500D01*
X95409454Y-128524500D01*
X95409449Y-128524500D01*
X95230589Y-128552829D01*
X95058363Y-128608787D01*
X95058360Y-128608788D01*
X94897002Y-128691006D01*
X94750505Y-128797441D01*
X94750500Y-128797445D01*
X94622445Y-128925500D01*
X94622441Y-128925505D01*
X94516006Y-129072002D01*
X94433788Y-129233360D01*
X94433787Y-129233363D01*
X94377829Y-129405589D01*
X94372473Y-129439406D01*
X94342543Y-129502540D01*
X94283232Y-129539471D01*
X94213369Y-129538473D01*
X94155137Y-129499863D01*
X94127527Y-129439406D01*
X94123826Y-129416043D01*
X94122171Y-129405591D01*
X94079750Y-129275029D01*
X94066212Y-129233363D01*
X94066211Y-129233360D01*
X94011255Y-129125505D01*
X93983996Y-129072006D01*
X93899626Y-128955880D01*
X93877558Y-128925505D01*
X93877554Y-128925500D01*
X93749499Y-128797445D01*
X93749494Y-128797441D01*
X93602997Y-128691006D01*
X93602996Y-128691005D01*
X93602994Y-128691004D01*
X93551300Y-128664664D01*
X93441639Y-128608788D01*
X93441636Y-128608787D01*
X93269410Y-128552829D01*
X93090551Y-128524500D01*
X93090546Y-128524500D01*
X92909454Y-128524500D01*
X92909449Y-128524500D01*
X92730589Y-128552829D01*
X92558363Y-128608787D01*
X92558360Y-128608788D01*
X92397002Y-128691006D01*
X92250505Y-128797441D01*
X92250500Y-128797445D01*
X92122445Y-128925500D01*
X92122441Y-128925505D01*
X92016006Y-129072002D01*
X91933788Y-129233360D01*
X91933787Y-129233363D01*
X91877829Y-129405589D01*
X91872473Y-129439406D01*
X91842543Y-129502540D01*
X91783232Y-129539471D01*
X91713369Y-129538473D01*
X91655137Y-129499863D01*
X91627527Y-129439406D01*
X91623826Y-129416043D01*
X91622171Y-129405591D01*
X91579750Y-129275029D01*
X91566212Y-129233363D01*
X91566211Y-129233360D01*
X91511255Y-129125505D01*
X91483996Y-129072006D01*
X91399626Y-128955880D01*
X91377558Y-128925505D01*
X91377554Y-128925500D01*
X91249499Y-128797445D01*
X91249494Y-128797441D01*
X91102997Y-128691006D01*
X91102996Y-128691005D01*
X91102994Y-128691004D01*
X91051300Y-128664664D01*
X90941639Y-128608788D01*
X90941636Y-128608787D01*
X90769410Y-128552829D01*
X90590551Y-128524500D01*
X90590546Y-128524500D01*
X90409454Y-128524500D01*
X90409449Y-128524500D01*
X90230589Y-128552829D01*
X90058363Y-128608787D01*
X90058360Y-128608788D01*
X89897002Y-128691006D01*
X89750505Y-128797441D01*
X89750500Y-128797445D01*
X89622445Y-128925500D01*
X89622441Y-128925505D01*
X89516006Y-129072002D01*
X89433788Y-129233360D01*
X89433787Y-129233363D01*
X89377829Y-129405589D01*
X89372473Y-129439406D01*
X89342543Y-129502540D01*
X89283232Y-129539471D01*
X89213369Y-129538473D01*
X89155137Y-129499863D01*
X89127527Y-129439406D01*
X89123826Y-129416043D01*
X89122171Y-129405591D01*
X89079750Y-129275029D01*
X89066212Y-129233363D01*
X89066211Y-129233360D01*
X89011255Y-129125505D01*
X88983996Y-129072006D01*
X88899626Y-128955880D01*
X88877558Y-128925505D01*
X88877554Y-128925500D01*
X88749499Y-128797445D01*
X88749494Y-128797441D01*
X88602997Y-128691006D01*
X88602996Y-128691005D01*
X88602994Y-128691004D01*
X88551300Y-128664664D01*
X88441639Y-128608788D01*
X88441636Y-128608787D01*
X88269410Y-128552829D01*
X88090551Y-128524500D01*
X88090546Y-128524500D01*
X87909454Y-128524500D01*
X87909449Y-128524500D01*
X87730589Y-128552829D01*
X87558363Y-128608787D01*
X87558360Y-128608788D01*
X87397002Y-128691006D01*
X87250505Y-128797441D01*
X87250500Y-128797445D01*
X87122445Y-128925500D01*
X87122441Y-128925505D01*
X87016006Y-129072002D01*
X86933788Y-129233360D01*
X86933787Y-129233363D01*
X86877829Y-129405589D01*
X86872473Y-129439406D01*
X86842543Y-129502540D01*
X86783232Y-129539471D01*
X86713369Y-129538473D01*
X86655137Y-129499863D01*
X86627527Y-129439406D01*
X86623826Y-129416043D01*
X86622171Y-129405591D01*
X86579750Y-129275029D01*
X86566212Y-129233363D01*
X86566211Y-129233360D01*
X86511255Y-129125505D01*
X86483996Y-129072006D01*
X86399626Y-128955880D01*
X86377558Y-128925505D01*
X86377554Y-128925500D01*
X86249499Y-128797445D01*
X86249494Y-128797441D01*
X86102997Y-128691006D01*
X86102996Y-128691005D01*
X86102994Y-128691004D01*
X86051300Y-128664664D01*
X85941639Y-128608788D01*
X85941636Y-128608787D01*
X85769410Y-128552829D01*
X85590551Y-128524500D01*
X85590546Y-128524500D01*
X85409454Y-128524500D01*
X85409449Y-128524500D01*
X85230589Y-128552829D01*
X85058363Y-128608787D01*
X85058360Y-128608788D01*
X84897002Y-128691006D01*
X84750505Y-128797441D01*
X84750500Y-128797445D01*
X84622445Y-128925500D01*
X84622441Y-128925505D01*
X84516006Y-129072002D01*
X84433788Y-129233360D01*
X84433787Y-129233363D01*
X84377829Y-129405589D01*
X84372473Y-129439406D01*
X84342543Y-129502540D01*
X84283232Y-129539471D01*
X84213369Y-129538473D01*
X84155137Y-129499863D01*
X84127527Y-129439406D01*
X84123826Y-129416043D01*
X84122171Y-129405591D01*
X84079750Y-129275029D01*
X84066212Y-129233363D01*
X84066211Y-129233360D01*
X84011255Y-129125505D01*
X83983996Y-129072006D01*
X83899626Y-128955880D01*
X83877558Y-128925505D01*
X83877554Y-128925500D01*
X83749499Y-128797445D01*
X83749494Y-128797441D01*
X83602997Y-128691006D01*
X83602996Y-128691005D01*
X83602994Y-128691004D01*
X83551300Y-128664664D01*
X83441639Y-128608788D01*
X83441636Y-128608787D01*
X83269410Y-128552829D01*
X83090551Y-128524500D01*
X83090546Y-128524500D01*
X82909454Y-128524500D01*
X82909449Y-128524500D01*
X82730589Y-128552829D01*
X82558363Y-128608787D01*
X82558360Y-128608788D01*
X82397002Y-128691006D01*
X82250505Y-128797441D01*
X82250500Y-128797445D01*
X82122445Y-128925500D01*
X82122441Y-128925505D01*
X82016006Y-129072002D01*
X81933788Y-129233360D01*
X81933787Y-129233363D01*
X81877829Y-129405589D01*
X81849500Y-129584448D01*
X71615301Y-129584448D01*
X71588688Y-129502540D01*
X71566212Y-129433363D01*
X71566211Y-129433360D01*
X71537740Y-129377484D01*
X71483996Y-129272006D01*
X71433429Y-129202406D01*
X71377558Y-129125505D01*
X71377554Y-129125500D01*
X71249499Y-128997445D01*
X71249494Y-128997441D01*
X71102997Y-128891006D01*
X71102996Y-128891005D01*
X71102994Y-128891004D01*
X71051300Y-128864664D01*
X70941639Y-128808788D01*
X70941636Y-128808787D01*
X70769410Y-128752829D01*
X70590551Y-128724500D01*
X70590546Y-128724500D01*
X70409454Y-128724500D01*
X70409449Y-128724500D01*
X70230589Y-128752829D01*
X70058363Y-128808787D01*
X70058360Y-128808788D01*
X69897002Y-128891006D01*
X69750505Y-128997441D01*
X69750500Y-128997445D01*
X69622445Y-129125500D01*
X69622441Y-129125505D01*
X69516006Y-129272002D01*
X69433788Y-129433360D01*
X69433787Y-129433363D01*
X69377829Y-129605589D01*
X69372473Y-129639406D01*
X69342543Y-129702540D01*
X69283232Y-129739471D01*
X69213369Y-129738473D01*
X69155137Y-129699863D01*
X69127527Y-129639406D01*
X69124438Y-129619905D01*
X69122171Y-129605591D01*
X69088688Y-129502540D01*
X69066212Y-129433363D01*
X69066211Y-129433360D01*
X69037740Y-129377484D01*
X68983996Y-129272006D01*
X68933429Y-129202406D01*
X68877558Y-129125505D01*
X68877554Y-129125500D01*
X68749499Y-128997445D01*
X68749494Y-128997441D01*
X68602997Y-128891006D01*
X68602996Y-128891005D01*
X68602994Y-128891004D01*
X68551300Y-128864664D01*
X68441639Y-128808788D01*
X68441636Y-128808787D01*
X68269410Y-128752829D01*
X68090551Y-128724500D01*
X68090546Y-128724500D01*
X67909454Y-128724500D01*
X67909449Y-128724500D01*
X67730589Y-128752829D01*
X67558363Y-128808787D01*
X67558360Y-128808788D01*
X67397002Y-128891006D01*
X67250505Y-128997441D01*
X67250500Y-128997445D01*
X67122445Y-129125500D01*
X67065374Y-129204052D01*
X67010044Y-129246717D01*
X66940430Y-129252696D01*
X66878635Y-129220090D01*
X66844278Y-129159251D01*
X66841698Y-129143765D01*
X66839506Y-129122303D01*
X66784358Y-128955880D01*
X66784356Y-128955875D01*
X66692315Y-128806654D01*
X66568345Y-128682684D01*
X66419124Y-128590643D01*
X66419119Y-128590641D01*
X66252697Y-128535494D01*
X66252690Y-128535493D01*
X66149986Y-128525000D01*
X65750000Y-128525000D01*
X65750000Y-129595854D01*
X65683343Y-129557370D01*
X65562535Y-129525000D01*
X65437465Y-129525000D01*
X65316657Y-129557370D01*
X65250000Y-129595854D01*
X65250000Y-128525000D01*
X64850028Y-128525000D01*
X64850012Y-128525001D01*
X64747302Y-128535494D01*
X64580880Y-128590641D01*
X64580875Y-128590643D01*
X64431654Y-128682684D01*
X64307684Y-128806654D01*
X64215643Y-128955875D01*
X64215641Y-128955880D01*
X64160494Y-129122302D01*
X64160493Y-129122309D01*
X64150000Y-129225013D01*
X51421431Y-129225013D01*
X51724968Y-128921476D01*
X51536576Y-128773881D01*
X51257043Y-128604898D01*
X51257041Y-128604897D01*
X50959175Y-128470839D01*
X50959164Y-128470835D01*
X50647341Y-128373667D01*
X50326038Y-128314786D01*
X50000000Y-128295065D01*
X49673961Y-128314786D01*
X49352658Y-128373667D01*
X49040835Y-128470835D01*
X49040824Y-128470839D01*
X48742958Y-128604897D01*
X48742956Y-128604898D01*
X48463422Y-128773881D01*
X48463416Y-128773886D01*
X48275030Y-128921474D01*
X48275029Y-128921476D01*
X48773633Y-129420079D01*
X48678479Y-129493094D01*
X48493094Y-129678479D01*
X48420080Y-129773633D01*
X47921476Y-129275029D01*
X47921474Y-129275030D01*
X47773886Y-129463416D01*
X47773881Y-129463422D01*
X47604898Y-129742956D01*
X47604897Y-129742958D01*
X47470839Y-130040824D01*
X47470835Y-130040835D01*
X47373667Y-130352658D01*
X47314786Y-130673961D01*
X47295065Y-131000000D01*
X45500500Y-131000000D01*
X45500500Y-121200000D01*
X61644750Y-121200000D01*
X61652160Y-121256287D01*
X61663670Y-121343708D01*
X61663671Y-121343712D01*
X61719137Y-121477622D01*
X61719138Y-121477624D01*
X61719139Y-121477625D01*
X61807379Y-121592621D01*
X61922375Y-121680861D01*
X62056291Y-121736330D01*
X62183280Y-121753048D01*
X62199999Y-121755250D01*
X62200000Y-121755250D01*
X62200001Y-121755250D01*
X62214977Y-121753278D01*
X62343709Y-121736330D01*
X62477625Y-121680861D01*
X62592621Y-121592621D01*
X62680861Y-121477625D01*
X62713014Y-121399999D01*
X66444750Y-121399999D01*
X66444750Y-121400000D01*
X66463670Y-121543708D01*
X66463671Y-121543712D01*
X66519137Y-121677622D01*
X66519138Y-121677624D01*
X66519139Y-121677625D01*
X66607379Y-121792621D01*
X66722375Y-121880861D01*
X66856291Y-121936330D01*
X66983280Y-121953048D01*
X66999999Y-121955250D01*
X67000000Y-121955250D01*
X67000001Y-121955250D01*
X67014977Y-121953278D01*
X67143709Y-121936330D01*
X67277625Y-121880861D01*
X67392621Y-121792621D01*
X67480861Y-121677625D01*
X67536330Y-121543709D01*
X67555250Y-121400000D01*
X67536330Y-121256291D01*
X67480861Y-121122375D01*
X67392621Y-121007379D01*
X67277625Y-120919139D01*
X67277624Y-120919138D01*
X67277622Y-120919137D01*
X67143712Y-120863671D01*
X67143710Y-120863670D01*
X67143709Y-120863670D01*
X67071854Y-120854210D01*
X67000001Y-120844750D01*
X66999999Y-120844750D01*
X66856291Y-120863670D01*
X66856287Y-120863671D01*
X66722377Y-120919137D01*
X66607379Y-121007379D01*
X66519137Y-121122377D01*
X66463671Y-121256287D01*
X66463670Y-121256291D01*
X66444750Y-121399999D01*
X62713014Y-121399999D01*
X62736330Y-121343709D01*
X62755250Y-121200000D01*
X62736330Y-121056291D01*
X62680861Y-120922375D01*
X62592621Y-120807379D01*
X62477625Y-120719139D01*
X62477624Y-120719138D01*
X62477622Y-120719137D01*
X62343712Y-120663671D01*
X62343710Y-120663670D01*
X62343709Y-120663670D01*
X62271854Y-120654210D01*
X62200001Y-120644750D01*
X62199999Y-120644750D01*
X62056291Y-120663670D01*
X62056287Y-120663671D01*
X61922377Y-120719137D01*
X61807379Y-120807379D01*
X61719137Y-120922377D01*
X61663671Y-121056287D01*
X61663670Y-121056291D01*
X61644750Y-121200000D01*
X45500500Y-121200000D01*
X45500500Y-118000000D01*
X75944750Y-118000000D01*
X75962698Y-118136329D01*
X75963670Y-118143708D01*
X75963671Y-118143712D01*
X76019137Y-118277622D01*
X76019138Y-118277624D01*
X76019139Y-118277625D01*
X76107379Y-118392621D01*
X76222375Y-118480861D01*
X76356291Y-118536330D01*
X76483280Y-118553048D01*
X76499999Y-118555250D01*
X76500000Y-118555250D01*
X76500001Y-118555250D01*
X76514977Y-118553278D01*
X76643709Y-118536330D01*
X76777625Y-118480861D01*
X76892621Y-118392621D01*
X76980861Y-118277625D01*
X77036330Y-118143709D01*
X77055250Y-118000000D01*
X77036330Y-117856291D01*
X76980861Y-117722375D01*
X76892621Y-117607379D01*
X76883005Y-117600000D01*
X107934750Y-117600000D01*
X107935746Y-117607569D01*
X107953670Y-117743708D01*
X107953671Y-117743712D01*
X108009137Y-117877622D01*
X108009138Y-117877624D01*
X108009139Y-117877625D01*
X108097379Y-117992621D01*
X108212375Y-118080861D01*
X108346291Y-118136330D01*
X108473280Y-118153048D01*
X108489999Y-118155250D01*
X108490000Y-118155250D01*
X108490001Y-118155250D01*
X108504977Y-118153278D01*
X108633709Y-118136330D01*
X108767625Y-118080861D01*
X108769040Y-118079775D01*
X108770449Y-118079230D01*
X108774664Y-118076797D01*
X108775043Y-118077454D01*
X108834207Y-118054582D01*
X108902652Y-118068620D01*
X108952642Y-118117434D01*
X108960325Y-118136298D01*
X108960560Y-118136201D01*
X109019137Y-118277622D01*
X109019138Y-118277624D01*
X109019139Y-118277625D01*
X109107379Y-118392621D01*
X109222375Y-118480861D01*
X109356291Y-118536330D01*
X109483280Y-118553048D01*
X109499999Y-118555250D01*
X109500000Y-118555250D01*
X109500001Y-118555250D01*
X109514977Y-118553278D01*
X109643709Y-118536330D01*
X109777625Y-118480861D01*
X109892621Y-118392621D01*
X109980861Y-118277625D01*
X110036330Y-118143709D01*
X110055250Y-118000000D01*
X110036330Y-117856291D01*
X109980861Y-117722375D01*
X109892621Y-117607379D01*
X109777625Y-117519139D01*
X109777624Y-117519138D01*
X109777622Y-117519137D01*
X109643712Y-117463671D01*
X109643710Y-117463670D01*
X109643709Y-117463670D01*
X109571854Y-117454210D01*
X109500001Y-117444750D01*
X109499999Y-117444750D01*
X109356291Y-117463670D01*
X109356287Y-117463671D01*
X109222376Y-117519138D01*
X109222372Y-117519140D01*
X109220955Y-117520228D01*
X109219544Y-117520773D01*
X109215336Y-117523203D01*
X109214956Y-117522546D01*
X109155784Y-117545419D01*
X109087340Y-117531376D01*
X109037353Y-117482559D01*
X109029675Y-117463701D01*
X109029440Y-117463799D01*
X108970862Y-117322377D01*
X108970861Y-117322376D01*
X108970861Y-117322375D01*
X108882621Y-117207379D01*
X108767625Y-117119139D01*
X108767624Y-117119138D01*
X108767622Y-117119137D01*
X108633712Y-117063671D01*
X108633710Y-117063670D01*
X108633709Y-117063670D01*
X108561854Y-117054210D01*
X108490001Y-117044750D01*
X108489999Y-117044750D01*
X108346291Y-117063670D01*
X108346287Y-117063671D01*
X108212377Y-117119137D01*
X108097379Y-117207379D01*
X108009137Y-117322377D01*
X107953671Y-117456287D01*
X107953670Y-117456291D01*
X107934750Y-117600000D01*
X76883005Y-117600000D01*
X76777625Y-117519139D01*
X76777624Y-117519138D01*
X76777622Y-117519137D01*
X76643712Y-117463671D01*
X76643710Y-117463670D01*
X76643709Y-117463670D01*
X76571854Y-117454210D01*
X76500001Y-117444750D01*
X76499999Y-117444750D01*
X76356291Y-117463670D01*
X76356287Y-117463671D01*
X76222377Y-117519137D01*
X76107379Y-117607379D01*
X76019137Y-117722377D01*
X75963671Y-117856287D01*
X75963670Y-117856291D01*
X75945722Y-117992620D01*
X75944750Y-118000000D01*
X45500500Y-118000000D01*
X45500500Y-115374999D01*
X108319750Y-115374999D01*
X108319750Y-115375000D01*
X108338670Y-115518708D01*
X108338671Y-115518712D01*
X108394137Y-115652622D01*
X108394138Y-115652624D01*
X108394139Y-115652625D01*
X108482379Y-115767621D01*
X108597375Y-115855861D01*
X108731291Y-115911330D01*
X108858280Y-115928048D01*
X108874999Y-115930250D01*
X108875000Y-115930250D01*
X108875001Y-115930250D01*
X108889977Y-115928278D01*
X109018709Y-115911330D01*
X109152625Y-115855861D01*
X109267621Y-115767621D01*
X109355861Y-115652625D01*
X109411330Y-115518709D01*
X109430250Y-115375000D01*
X109411330Y-115231291D01*
X109355861Y-115097375D01*
X109267621Y-114982379D01*
X109152625Y-114894139D01*
X109152624Y-114894138D01*
X109152622Y-114894137D01*
X109018712Y-114838671D01*
X109018710Y-114838670D01*
X109018709Y-114838670D01*
X108946854Y-114829210D01*
X108875001Y-114819750D01*
X108874999Y-114819750D01*
X108731291Y-114838670D01*
X108731287Y-114838671D01*
X108597377Y-114894137D01*
X108482379Y-114982379D01*
X108394137Y-115097377D01*
X108338671Y-115231287D01*
X108338670Y-115231291D01*
X108319750Y-115374999D01*
X45500500Y-115374999D01*
X45500500Y-113750000D01*
X114522769Y-113750000D01*
X115570854Y-113750000D01*
X115532370Y-113816657D01*
X115500000Y-113937465D01*
X115500000Y-114062535D01*
X115532370Y-114183343D01*
X115570854Y-114250000D01*
X114522769Y-114250000D01*
X114533242Y-114316126D01*
X114533242Y-114316129D01*
X114598904Y-114518217D01*
X114695379Y-114707557D01*
X114820272Y-114879459D01*
X114820276Y-114879464D01*
X114970535Y-115029723D01*
X114970540Y-115029727D01*
X115142442Y-115154620D01*
X115332511Y-115251466D01*
X115383307Y-115299441D01*
X115400102Y-115367262D01*
X115377565Y-115433397D01*
X115332512Y-115472435D01*
X115247004Y-115516004D01*
X115100505Y-115622441D01*
X115100500Y-115622445D01*
X114972445Y-115750500D01*
X114972441Y-115750505D01*
X114866006Y-115897002D01*
X114783788Y-116058360D01*
X114783787Y-116058363D01*
X114727829Y-116230589D01*
X114699500Y-116409448D01*
X114699500Y-116590551D01*
X114727829Y-116769410D01*
X114783787Y-116941636D01*
X114783788Y-116941639D01*
X114866006Y-117102997D01*
X114972441Y-117249494D01*
X114972445Y-117249499D01*
X115100500Y-117377554D01*
X115100505Y-117377558D01*
X115219031Y-117463671D01*
X115247006Y-117483996D01*
X115323954Y-117523203D01*
X115408360Y-117566211D01*
X115408363Y-117566212D01*
X115535649Y-117607569D01*
X115593324Y-117647006D01*
X115620523Y-117711364D01*
X115608609Y-117780211D01*
X115561365Y-117831687D01*
X115497331Y-117849500D01*
X115206898Y-117849500D01*
X115167853Y-117854188D01*
X115118438Y-117860122D01*
X114977656Y-117915639D01*
X114857077Y-118007077D01*
X114765639Y-118127656D01*
X114710122Y-118268438D01*
X114704188Y-118317853D01*
X114699500Y-118356898D01*
X114699500Y-119643102D01*
X114705126Y-119689954D01*
X114710122Y-119731561D01*
X114765639Y-119872343D01*
X114857077Y-119992922D01*
X114977656Y-120084360D01*
X114977657Y-120084360D01*
X114977658Y-120084361D01*
X115118436Y-120139877D01*
X115206898Y-120150500D01*
X115206903Y-120150500D01*
X116743097Y-120150500D01*
X116743102Y-120150500D01*
X116831564Y-120139877D01*
X116972342Y-120084361D01*
X117092922Y-119992922D01*
X117184361Y-119872342D01*
X117239877Y-119731564D01*
X117250500Y-119643102D01*
X117250500Y-118356898D01*
X117239877Y-118268436D01*
X117184361Y-118127658D01*
X117184360Y-118127657D01*
X117184360Y-118127656D01*
X117092922Y-118007077D01*
X116972343Y-117915639D01*
X116831561Y-117860122D01*
X116785926Y-117854642D01*
X116743102Y-117849500D01*
X116452669Y-117849500D01*
X116385630Y-117829815D01*
X116339875Y-117777011D01*
X116329931Y-117707853D01*
X116358956Y-117644297D01*
X116414351Y-117607569D01*
X116541636Y-117566212D01*
X116541639Y-117566211D01*
X116582445Y-117545419D01*
X116702994Y-117483996D01*
X116849501Y-117377553D01*
X116977553Y-117249501D01*
X117083996Y-117102994D01*
X117166211Y-116941639D01*
X117222171Y-116769409D01*
X117236765Y-116677259D01*
X117250500Y-116590551D01*
X117250500Y-116409448D01*
X117234019Y-116305397D01*
X117222171Y-116230591D01*
X117166211Y-116058361D01*
X117166211Y-116058360D01*
X117137740Y-116002484D01*
X117083996Y-115897006D01*
X116989993Y-115767621D01*
X116977558Y-115750505D01*
X116977554Y-115750500D01*
X116849499Y-115622445D01*
X116849494Y-115622441D01*
X116702993Y-115516003D01*
X116702992Y-115516002D01*
X116617488Y-115472435D01*
X116566692Y-115424461D01*
X116549897Y-115356640D01*
X116572435Y-115290505D01*
X116617488Y-115251466D01*
X116807558Y-115154620D01*
X116979459Y-115029727D01*
X116979464Y-115029723D01*
X117129723Y-114879464D01*
X117129727Y-114879459D01*
X117254620Y-114707557D01*
X117351095Y-114518217D01*
X117416757Y-114316129D01*
X117416757Y-114316126D01*
X117427231Y-114250000D01*
X116379146Y-114250000D01*
X116417630Y-114183343D01*
X116450000Y-114062535D01*
X116450000Y-113937465D01*
X116417630Y-113816657D01*
X116379146Y-113750000D01*
X117427231Y-113750000D01*
X117416757Y-113683873D01*
X117416757Y-113683870D01*
X117351095Y-113481782D01*
X117254620Y-113292442D01*
X117129727Y-113120540D01*
X117129723Y-113120535D01*
X116979464Y-112970276D01*
X116979459Y-112970272D01*
X116807557Y-112845379D01*
X116618217Y-112748904D01*
X116416128Y-112683242D01*
X116225000Y-112652969D01*
X116225000Y-113595854D01*
X116158343Y-113557370D01*
X116037535Y-113525000D01*
X115912465Y-113525000D01*
X115791657Y-113557370D01*
X115725000Y-113595854D01*
X115725000Y-112652969D01*
X115533872Y-112683242D01*
X115533869Y-112683242D01*
X115331782Y-112748904D01*
X115142442Y-112845379D01*
X114970540Y-112970272D01*
X114970535Y-112970276D01*
X114820276Y-113120535D01*
X114820272Y-113120540D01*
X114695379Y-113292442D01*
X114598904Y-113481782D01*
X114533242Y-113683870D01*
X114533242Y-113683873D01*
X114522769Y-113750000D01*
X45500500Y-113750000D01*
X45500500Y-110799999D01*
X61964750Y-110799999D01*
X61964750Y-110800000D01*
X61983670Y-110943708D01*
X61983671Y-110943712D01*
X62039137Y-111077622D01*
X62039138Y-111077624D01*
X62039139Y-111077625D01*
X62127379Y-111192621D01*
X62242375Y-111280861D01*
X62376291Y-111336330D01*
X62503280Y-111353048D01*
X62519999Y-111355250D01*
X62520000Y-111355250D01*
X62520001Y-111355250D01*
X62534977Y-111353278D01*
X62663709Y-111336330D01*
X62797625Y-111280861D01*
X62912621Y-111192621D01*
X63000861Y-111077625D01*
X63056330Y-110943709D01*
X63075250Y-110800000D01*
X63056330Y-110656291D01*
X63000861Y-110522375D01*
X62912621Y-110407379D01*
X62797625Y-110319139D01*
X62797624Y-110319138D01*
X62797622Y-110319137D01*
X62663712Y-110263671D01*
X62663710Y-110263670D01*
X62663709Y-110263670D01*
X62591854Y-110254210D01*
X62520001Y-110244750D01*
X62519999Y-110244750D01*
X62376291Y-110263670D01*
X62376287Y-110263671D01*
X62242377Y-110319137D01*
X62127379Y-110407379D01*
X62039137Y-110522377D01*
X61983671Y-110656287D01*
X61983670Y-110656291D01*
X61964750Y-110799999D01*
X45500500Y-110799999D01*
X45500500Y-106499999D01*
X106694750Y-106499999D01*
X106694750Y-106500000D01*
X106713670Y-106643708D01*
X106713671Y-106643712D01*
X106769137Y-106777622D01*
X106769138Y-106777624D01*
X106769139Y-106777625D01*
X106857379Y-106892621D01*
X106972375Y-106980861D01*
X107106291Y-107036330D01*
X107233280Y-107053048D01*
X107249999Y-107055250D01*
X107250000Y-107055250D01*
X107250001Y-107055250D01*
X107264977Y-107053278D01*
X107393709Y-107036330D01*
X107527625Y-106980861D01*
X107642621Y-106892621D01*
X107730861Y-106777625D01*
X107786330Y-106643709D01*
X107805250Y-106500000D01*
X107786330Y-106356291D01*
X107730861Y-106222375D01*
X107642621Y-106107379D01*
X107527625Y-106019139D01*
X107527624Y-106019138D01*
X107527622Y-106019137D01*
X107393712Y-105963671D01*
X107393710Y-105963670D01*
X107393709Y-105963670D01*
X107321854Y-105954210D01*
X107250001Y-105944750D01*
X107249999Y-105944750D01*
X107106291Y-105963670D01*
X107106287Y-105963671D01*
X106972377Y-106019137D01*
X106857379Y-106107379D01*
X106769137Y-106222377D01*
X106713671Y-106356287D01*
X106713670Y-106356291D01*
X106694750Y-106499999D01*
X45500500Y-106499999D01*
X45500500Y-104000000D01*
X105244750Y-104000000D01*
X105256671Y-104090551D01*
X105263670Y-104143708D01*
X105263671Y-104143712D01*
X105319137Y-104277622D01*
X105319138Y-104277624D01*
X105319139Y-104277625D01*
X105407379Y-104392621D01*
X105522375Y-104480861D01*
X105656291Y-104536330D01*
X105783280Y-104553048D01*
X105799999Y-104555250D01*
X105800000Y-104555250D01*
X105800001Y-104555250D01*
X105814977Y-104553278D01*
X105943709Y-104536330D01*
X106077625Y-104480861D01*
X106192621Y-104392621D01*
X106280861Y-104277625D01*
X106336330Y-104143709D01*
X106355250Y-104000000D01*
X106336330Y-103856291D01*
X106280861Y-103722375D01*
X106192621Y-103607379D01*
X106077625Y-103519139D01*
X106077624Y-103519138D01*
X106077622Y-103519137D01*
X105943712Y-103463671D01*
X105943710Y-103463670D01*
X105943709Y-103463670D01*
X105871854Y-103454210D01*
X105800001Y-103444750D01*
X105799999Y-103444750D01*
X105656291Y-103463670D01*
X105656287Y-103463671D01*
X105522377Y-103519137D01*
X105407379Y-103607379D01*
X105319137Y-103722377D01*
X105263671Y-103856287D01*
X105263670Y-103856291D01*
X105244750Y-104000000D01*
X45500500Y-104000000D01*
X45500500Y-98949999D01*
X71944750Y-98949999D01*
X71944750Y-98950000D01*
X71963670Y-99093708D01*
X71963671Y-99093712D01*
X72019137Y-99227622D01*
X72019138Y-99227624D01*
X72019139Y-99227625D01*
X72107379Y-99342621D01*
X72222375Y-99430861D01*
X72222376Y-99430861D01*
X72222377Y-99430862D01*
X72248396Y-99441639D01*
X72356291Y-99486330D01*
X72483280Y-99503048D01*
X72499999Y-99505250D01*
X72500000Y-99505250D01*
X72500001Y-99505250D01*
X72514977Y-99503278D01*
X72643709Y-99486330D01*
X72777625Y-99430861D01*
X72892621Y-99342621D01*
X72980861Y-99227625D01*
X73036330Y-99093709D01*
X73055250Y-98950000D01*
X73036330Y-98806291D01*
X72980861Y-98672375D01*
X72892621Y-98557379D01*
X72777625Y-98469139D01*
X72777624Y-98469138D01*
X72777622Y-98469137D01*
X72643712Y-98413671D01*
X72643710Y-98413670D01*
X72643709Y-98413670D01*
X72517136Y-98397006D01*
X72500001Y-98394750D01*
X72499999Y-98394750D01*
X72356291Y-98413670D01*
X72356287Y-98413671D01*
X72222377Y-98469137D01*
X72107379Y-98557379D01*
X72019137Y-98672377D01*
X71963671Y-98806287D01*
X71963670Y-98806291D01*
X71944750Y-98949999D01*
X45500500Y-98949999D01*
X45500500Y-97590000D01*
X70169750Y-97590000D01*
X70173985Y-97622171D01*
X70188670Y-97733708D01*
X70188671Y-97733712D01*
X70244137Y-97867622D01*
X70244138Y-97867624D01*
X70244139Y-97867625D01*
X70332379Y-97982621D01*
X70447375Y-98070861D01*
X70581291Y-98126330D01*
X70708280Y-98143048D01*
X70724999Y-98145250D01*
X70725000Y-98145250D01*
X70725001Y-98145250D01*
X70739977Y-98143278D01*
X70868709Y-98126330D01*
X71002625Y-98070861D01*
X71117621Y-97982621D01*
X71205861Y-97867625D01*
X71261330Y-97733709D01*
X71280250Y-97590000D01*
X71261330Y-97446291D01*
X71205861Y-97312375D01*
X71117621Y-97197379D01*
X71002625Y-97109139D01*
X71002624Y-97109138D01*
X71002622Y-97109137D01*
X70868712Y-97053671D01*
X70868710Y-97053670D01*
X70868709Y-97053670D01*
X70796854Y-97044210D01*
X70725001Y-97034750D01*
X70724999Y-97034750D01*
X70581291Y-97053670D01*
X70581287Y-97053671D01*
X70447377Y-97109137D01*
X70332379Y-97197379D01*
X70244137Y-97312377D01*
X70188671Y-97446287D01*
X70188670Y-97446291D01*
X70169750Y-97590000D01*
X45500500Y-97590000D01*
X45500500Y-91500588D01*
X74659161Y-91500588D01*
X74659161Y-91500589D01*
X74678081Y-91644297D01*
X74678082Y-91644301D01*
X74733548Y-91778211D01*
X74733549Y-91778213D01*
X74733550Y-91778214D01*
X74821790Y-91893210D01*
X74936786Y-91981450D01*
X75070702Y-92036919D01*
X75197691Y-92053637D01*
X75214410Y-92055839D01*
X75214411Y-92055839D01*
X75214412Y-92055839D01*
X75229388Y-92053867D01*
X75358120Y-92036919D01*
X75492036Y-91981450D01*
X75607032Y-91893210D01*
X75695272Y-91778214D01*
X75750741Y-91644298D01*
X75769661Y-91500589D01*
X75750741Y-91356880D01*
X75695272Y-91222964D01*
X75607032Y-91107968D01*
X75492036Y-91019728D01*
X75492035Y-91019727D01*
X75492033Y-91019726D01*
X75358123Y-90964260D01*
X75358121Y-90964259D01*
X75358120Y-90964259D01*
X75286265Y-90954799D01*
X75214412Y-90945339D01*
X75214410Y-90945339D01*
X75070702Y-90964259D01*
X75070698Y-90964260D01*
X74936788Y-91019726D01*
X74821790Y-91107968D01*
X74733548Y-91222966D01*
X74678082Y-91356876D01*
X74678081Y-91356880D01*
X74659161Y-91500588D01*
X45500500Y-91500588D01*
X45500500Y-89790000D01*
X64469750Y-89790000D01*
X64481277Y-89877558D01*
X64488670Y-89933708D01*
X64488671Y-89933712D01*
X64544137Y-90067622D01*
X64544138Y-90067624D01*
X64544139Y-90067625D01*
X64632379Y-90182621D01*
X64747375Y-90270861D01*
X64881291Y-90326330D01*
X65008280Y-90343048D01*
X65024999Y-90345250D01*
X65025000Y-90345250D01*
X65025001Y-90345250D01*
X65039977Y-90343278D01*
X65168709Y-90326330D01*
X65302625Y-90270861D01*
X65417621Y-90182621D01*
X65505861Y-90067625D01*
X65561330Y-89933709D01*
X65580250Y-89790000D01*
X65561330Y-89646291D01*
X65505861Y-89512375D01*
X65417621Y-89397379D01*
X65302625Y-89309139D01*
X65302624Y-89309138D01*
X65302622Y-89309137D01*
X65168712Y-89253671D01*
X65168710Y-89253670D01*
X65168709Y-89253670D01*
X65096854Y-89244210D01*
X65025001Y-89234750D01*
X65024999Y-89234750D01*
X64881291Y-89253670D01*
X64881287Y-89253671D01*
X64747377Y-89309137D01*
X64632379Y-89397379D01*
X64544137Y-89512377D01*
X64488671Y-89646287D01*
X64488670Y-89646291D01*
X64469750Y-89790000D01*
X45500500Y-89790000D01*
X45500500Y-88000000D01*
X61644750Y-88000000D01*
X61660870Y-88122445D01*
X61663670Y-88143708D01*
X61663671Y-88143712D01*
X61719137Y-88277622D01*
X61719138Y-88277624D01*
X61719139Y-88277625D01*
X61807379Y-88392621D01*
X61922375Y-88480861D01*
X62056291Y-88536330D01*
X62183280Y-88553048D01*
X62199999Y-88555250D01*
X62200000Y-88555250D01*
X62200001Y-88555250D01*
X62214977Y-88553278D01*
X62343709Y-88536330D01*
X62477625Y-88480861D01*
X62592621Y-88392621D01*
X62680861Y-88277625D01*
X62736330Y-88143709D01*
X62755250Y-88000000D01*
X62736330Y-87856291D01*
X62699350Y-87767013D01*
X62680862Y-87722377D01*
X62680861Y-87722376D01*
X62680861Y-87722375D01*
X62592621Y-87607379D01*
X62477625Y-87519139D01*
X62477624Y-87519138D01*
X62477622Y-87519137D01*
X62343712Y-87463671D01*
X62343710Y-87463670D01*
X62343709Y-87463670D01*
X62271854Y-87454210D01*
X62200001Y-87444750D01*
X62199999Y-87444750D01*
X62056291Y-87463670D01*
X62056287Y-87463671D01*
X61922377Y-87519137D01*
X61807379Y-87607379D01*
X61719137Y-87722377D01*
X61663671Y-87856287D01*
X61663670Y-87856291D01*
X61647270Y-87980862D01*
X61644750Y-88000000D01*
X45500500Y-88000000D01*
X45500500Y-87250000D01*
X64694750Y-87250000D01*
X64703852Y-87319139D01*
X64713670Y-87393708D01*
X64713671Y-87393712D01*
X64769137Y-87527622D01*
X64769138Y-87527624D01*
X64769139Y-87527625D01*
X64857379Y-87642621D01*
X64972375Y-87730861D01*
X65106291Y-87786330D01*
X65233280Y-87803048D01*
X65249999Y-87805250D01*
X65250000Y-87805250D01*
X65250001Y-87805250D01*
X65264977Y-87803278D01*
X65393709Y-87786330D01*
X65527625Y-87730861D01*
X65642621Y-87642621D01*
X65730861Y-87527625D01*
X65786330Y-87393709D01*
X65805250Y-87250000D01*
X65805183Y-87249494D01*
X65801613Y-87222375D01*
X65786330Y-87106291D01*
X65749350Y-87017013D01*
X65730862Y-86972377D01*
X65730861Y-86972376D01*
X65730861Y-86972375D01*
X65642621Y-86857379D01*
X65527625Y-86769139D01*
X65527624Y-86769138D01*
X65527622Y-86769137D01*
X65393712Y-86713671D01*
X65393710Y-86713670D01*
X65393709Y-86713670D01*
X65321854Y-86704210D01*
X65250001Y-86694750D01*
X65249999Y-86694750D01*
X65106291Y-86713670D01*
X65106287Y-86713671D01*
X64972377Y-86769137D01*
X64857379Y-86857379D01*
X64769137Y-86972377D01*
X64713671Y-87106287D01*
X64713670Y-87106291D01*
X64694817Y-87249494D01*
X64694750Y-87250000D01*
X45500500Y-87250000D01*
X45500500Y-86500000D01*
X75694750Y-86500000D01*
X75706671Y-86590551D01*
X75713670Y-86643708D01*
X75713671Y-86643712D01*
X75769137Y-86777622D01*
X75769138Y-86777624D01*
X75769139Y-86777625D01*
X75857379Y-86892621D01*
X75866711Y-86899782D01*
X75869113Y-86901625D01*
X75910316Y-86958053D01*
X75914470Y-87027799D01*
X75880257Y-87088719D01*
X75869113Y-87098375D01*
X75857381Y-87107377D01*
X75769137Y-87222377D01*
X75713671Y-87356287D01*
X75713670Y-87356291D01*
X75694750Y-87500000D01*
X75710834Y-87622171D01*
X75713670Y-87643708D01*
X75713671Y-87643712D01*
X75769137Y-87777622D01*
X75769138Y-87777624D01*
X75769139Y-87777625D01*
X75857379Y-87892621D01*
X75972375Y-87980861D01*
X76106291Y-88036330D01*
X76233280Y-88053048D01*
X76249999Y-88055250D01*
X76250000Y-88055250D01*
X76250001Y-88055250D01*
X76264977Y-88053278D01*
X76393709Y-88036330D01*
X76527625Y-87980861D01*
X76642621Y-87892621D01*
X76713692Y-87800000D01*
X110444750Y-87800000D01*
X110452160Y-87856287D01*
X110463670Y-87943708D01*
X110463671Y-87943712D01*
X110519137Y-88077622D01*
X110519138Y-88077624D01*
X110519139Y-88077625D01*
X110607379Y-88192621D01*
X110722375Y-88280861D01*
X110856291Y-88336330D01*
X110983280Y-88353048D01*
X110999999Y-88355250D01*
X111000000Y-88355250D01*
X111000001Y-88355250D01*
X111014977Y-88353278D01*
X111143709Y-88336330D01*
X111277625Y-88280861D01*
X111392621Y-88192621D01*
X111480861Y-88077625D01*
X111536330Y-87943709D01*
X111555250Y-87800000D01*
X111536330Y-87656291D01*
X111480861Y-87522375D01*
X111392621Y-87407379D01*
X111277625Y-87319139D01*
X111277624Y-87319138D01*
X111277622Y-87319137D01*
X111143712Y-87263671D01*
X111143710Y-87263670D01*
X111143709Y-87263670D01*
X111039877Y-87250000D01*
X111000001Y-87244750D01*
X110999999Y-87244750D01*
X110856291Y-87263670D01*
X110856287Y-87263671D01*
X110722377Y-87319137D01*
X110607379Y-87407379D01*
X110519137Y-87522377D01*
X110463671Y-87656287D01*
X110463670Y-87656291D01*
X110446958Y-87783232D01*
X110444750Y-87800000D01*
X76713692Y-87800000D01*
X76730861Y-87777625D01*
X76786330Y-87643709D01*
X76805250Y-87500000D01*
X76786330Y-87356291D01*
X76747966Y-87263670D01*
X76730862Y-87222377D01*
X76730861Y-87222376D01*
X76730861Y-87222375D01*
X76642621Y-87107379D01*
X76630886Y-87098374D01*
X76589685Y-87041950D01*
X76585529Y-86972204D01*
X76619740Y-86911283D01*
X76630876Y-86901632D01*
X76642621Y-86892621D01*
X76730861Y-86777625D01*
X76786330Y-86643709D01*
X76805250Y-86500000D01*
X76786330Y-86356291D01*
X76730861Y-86222375D01*
X76642621Y-86107379D01*
X76527625Y-86019139D01*
X76527624Y-86019138D01*
X76527622Y-86019137D01*
X76393712Y-85963671D01*
X76393710Y-85963670D01*
X76393709Y-85963670D01*
X76321854Y-85954210D01*
X76250001Y-85944750D01*
X76249999Y-85944750D01*
X76106291Y-85963670D01*
X76106287Y-85963671D01*
X75972377Y-86019137D01*
X75857379Y-86107379D01*
X75769137Y-86222377D01*
X75713671Y-86356287D01*
X75713670Y-86356291D01*
X75694750Y-86500000D01*
X45500500Y-86500000D01*
X45500500Y-85789999D01*
X85769750Y-85789999D01*
X85769750Y-85790000D01*
X85788670Y-85933708D01*
X85788671Y-85933712D01*
X85844137Y-86067622D01*
X85844138Y-86067624D01*
X85844139Y-86067625D01*
X85932379Y-86182621D01*
X86047375Y-86270861D01*
X86181291Y-86326330D01*
X86308280Y-86343048D01*
X86324999Y-86345250D01*
X86325000Y-86345250D01*
X86325001Y-86345250D01*
X86339977Y-86343278D01*
X86468709Y-86326330D01*
X86602625Y-86270861D01*
X86717621Y-86182621D01*
X86805861Y-86067625D01*
X86861330Y-85933709D01*
X86880250Y-85790000D01*
X86861330Y-85646291D01*
X86805861Y-85512375D01*
X86717621Y-85397379D01*
X86602625Y-85309139D01*
X86602624Y-85309138D01*
X86602622Y-85309137D01*
X86468712Y-85253671D01*
X86468710Y-85253670D01*
X86468709Y-85253670D01*
X86396854Y-85244210D01*
X86325001Y-85234750D01*
X86324999Y-85234750D01*
X86181291Y-85253670D01*
X86181287Y-85253671D01*
X86047377Y-85309137D01*
X85932379Y-85397379D01*
X85844137Y-85512377D01*
X85788671Y-85646287D01*
X85788670Y-85646291D01*
X85769750Y-85789999D01*
X45500500Y-85789999D01*
X45500500Y-84129411D01*
X65930339Y-84129411D01*
X65948770Y-84269409D01*
X65949259Y-84273119D01*
X65949260Y-84273123D01*
X66004726Y-84407033D01*
X66004727Y-84407035D01*
X66004728Y-84407036D01*
X66092968Y-84522032D01*
X66207964Y-84610272D01*
X66341880Y-84665741D01*
X66468869Y-84682459D01*
X66485588Y-84684661D01*
X66485589Y-84684661D01*
X66485590Y-84684661D01*
X66500566Y-84682689D01*
X66629298Y-84665741D01*
X66763214Y-84610272D01*
X66878210Y-84522032D01*
X66966450Y-84407036D01*
X67021919Y-84273120D01*
X67040839Y-84129411D01*
X67021919Y-83985702D01*
X66990334Y-83909448D01*
X114724500Y-83909448D01*
X114724500Y-84090551D01*
X114752829Y-84269410D01*
X114808787Y-84441636D01*
X114808788Y-84441639D01*
X114891006Y-84602997D01*
X114997441Y-84749494D01*
X114997445Y-84749499D01*
X115125500Y-84877554D01*
X115125505Y-84877558D01*
X115253287Y-84970396D01*
X115272006Y-84983996D01*
X115377484Y-85037740D01*
X115433360Y-85066211D01*
X115433363Y-85066212D01*
X115519476Y-85094191D01*
X115605591Y-85122171D01*
X115630291Y-85126083D01*
X115639406Y-85127527D01*
X115702540Y-85157457D01*
X115739471Y-85216768D01*
X115738473Y-85286631D01*
X115699863Y-85344863D01*
X115639406Y-85372473D01*
X115605589Y-85377829D01*
X115433363Y-85433787D01*
X115433360Y-85433788D01*
X115272002Y-85516006D01*
X115125505Y-85622441D01*
X115125500Y-85622445D01*
X114997445Y-85750500D01*
X114997441Y-85750505D01*
X114891006Y-85897002D01*
X114808788Y-86058360D01*
X114808787Y-86058363D01*
X114752829Y-86230589D01*
X114724500Y-86409448D01*
X114724500Y-86590551D01*
X114752829Y-86769410D01*
X114808787Y-86941636D01*
X114808788Y-86941639D01*
X114848277Y-87019139D01*
X114888650Y-87098375D01*
X114891006Y-87102997D01*
X114997441Y-87249494D01*
X114997445Y-87249499D01*
X115125500Y-87377554D01*
X115125505Y-87377558D01*
X115244031Y-87463671D01*
X115272006Y-87483996D01*
X115377484Y-87537740D01*
X115433360Y-87566211D01*
X115433363Y-87566212D01*
X115519476Y-87594191D01*
X115605591Y-87622171D01*
X115630291Y-87626083D01*
X115639406Y-87627527D01*
X115702540Y-87657457D01*
X115739471Y-87716768D01*
X115738473Y-87786631D01*
X115699863Y-87844863D01*
X115639406Y-87872473D01*
X115605589Y-87877829D01*
X115433363Y-87933787D01*
X115433360Y-87933788D01*
X115272002Y-88016006D01*
X115125505Y-88122441D01*
X115125500Y-88122445D01*
X114997445Y-88250500D01*
X114997441Y-88250505D01*
X114891006Y-88397002D01*
X114808788Y-88558360D01*
X114808787Y-88558363D01*
X114752829Y-88730589D01*
X114724500Y-88909448D01*
X114724500Y-89090551D01*
X114752829Y-89269410D01*
X114808787Y-89441636D01*
X114808788Y-89441639D01*
X114891006Y-89602997D01*
X114997441Y-89749494D01*
X114997445Y-89749499D01*
X115125500Y-89877554D01*
X115125505Y-89877558D01*
X115253287Y-89970396D01*
X115272006Y-89983996D01*
X115377484Y-90037740D01*
X115433360Y-90066211D01*
X115433363Y-90066212D01*
X115519476Y-90094191D01*
X115605591Y-90122171D01*
X115630291Y-90126083D01*
X115639406Y-90127527D01*
X115702540Y-90157457D01*
X115739471Y-90216768D01*
X115738473Y-90286631D01*
X115699863Y-90344863D01*
X115639406Y-90372473D01*
X115605589Y-90377829D01*
X115433363Y-90433787D01*
X115433360Y-90433788D01*
X115272002Y-90516006D01*
X115125505Y-90622441D01*
X115125500Y-90622445D01*
X114997445Y-90750500D01*
X114997441Y-90750505D01*
X114891006Y-90897002D01*
X114808788Y-91058360D01*
X114808787Y-91058363D01*
X114752829Y-91230589D01*
X114724500Y-91409448D01*
X114724500Y-91590551D01*
X114752829Y-91769410D01*
X114808787Y-91941636D01*
X114808788Y-91941639D01*
X114891006Y-92102997D01*
X114997441Y-92249494D01*
X114997445Y-92249499D01*
X115125500Y-92377554D01*
X115125505Y-92377558D01*
X115253287Y-92470396D01*
X115272006Y-92483996D01*
X115377484Y-92537740D01*
X115433360Y-92566211D01*
X115433363Y-92566212D01*
X115519476Y-92594191D01*
X115605591Y-92622171D01*
X115630291Y-92626083D01*
X115639406Y-92627527D01*
X115702540Y-92657457D01*
X115739471Y-92716768D01*
X115738473Y-92786631D01*
X115699863Y-92844863D01*
X115639406Y-92872473D01*
X115605589Y-92877829D01*
X115433363Y-92933787D01*
X115433360Y-92933788D01*
X115272002Y-93016006D01*
X115125505Y-93122441D01*
X115125500Y-93122445D01*
X114997445Y-93250500D01*
X114997441Y-93250505D01*
X114891006Y-93397002D01*
X114808788Y-93558360D01*
X114808787Y-93558363D01*
X114752829Y-93730589D01*
X114724500Y-93909448D01*
X114724500Y-94090551D01*
X114752829Y-94269410D01*
X114808787Y-94441636D01*
X114808788Y-94441639D01*
X114891006Y-94602997D01*
X114997441Y-94749494D01*
X114997445Y-94749499D01*
X115125500Y-94877554D01*
X115125505Y-94877558D01*
X115253287Y-94970396D01*
X115272006Y-94983996D01*
X115377484Y-95037740D01*
X115433360Y-95066211D01*
X115433363Y-95066212D01*
X115519476Y-95094191D01*
X115605591Y-95122171D01*
X115630291Y-95126083D01*
X115639406Y-95127527D01*
X115702540Y-95157457D01*
X115739471Y-95216768D01*
X115738473Y-95286631D01*
X115699863Y-95344863D01*
X115639406Y-95372473D01*
X115605589Y-95377829D01*
X115433363Y-95433787D01*
X115433360Y-95433788D01*
X115272002Y-95516006D01*
X115125505Y-95622441D01*
X115125500Y-95622445D01*
X114997445Y-95750500D01*
X114997441Y-95750505D01*
X114891006Y-95897002D01*
X114808788Y-96058360D01*
X114808787Y-96058363D01*
X114752829Y-96230589D01*
X114724500Y-96409448D01*
X114724500Y-96590551D01*
X114752829Y-96769410D01*
X114808787Y-96941636D01*
X114808788Y-96941639D01*
X114891006Y-97102997D01*
X114997441Y-97249494D01*
X114997445Y-97249499D01*
X115125500Y-97377554D01*
X115125505Y-97377558D01*
X115220104Y-97446287D01*
X115272006Y-97483996D01*
X115377484Y-97537740D01*
X115433360Y-97566211D01*
X115433363Y-97566212D01*
X115506574Y-97589999D01*
X115605591Y-97622171D01*
X115630291Y-97626083D01*
X115639406Y-97627527D01*
X115702540Y-97657457D01*
X115739471Y-97716768D01*
X115738473Y-97786631D01*
X115699863Y-97844863D01*
X115639406Y-97872473D01*
X115605589Y-97877829D01*
X115433363Y-97933787D01*
X115433360Y-97933788D01*
X115272002Y-98016006D01*
X115125505Y-98122441D01*
X115125500Y-98122445D01*
X114997445Y-98250500D01*
X114997441Y-98250505D01*
X114891006Y-98397002D01*
X114808788Y-98558360D01*
X114808787Y-98558363D01*
X114752829Y-98730589D01*
X114724500Y-98909448D01*
X114724500Y-99090551D01*
X114752829Y-99269410D01*
X114808787Y-99441636D01*
X114808788Y-99441639D01*
X114891006Y-99602997D01*
X114997441Y-99749494D01*
X114997445Y-99749499D01*
X115125500Y-99877554D01*
X115125505Y-99877558D01*
X115253287Y-99970396D01*
X115272006Y-99983996D01*
X115377484Y-100037740D01*
X115433360Y-100066211D01*
X115433363Y-100066212D01*
X115519476Y-100094191D01*
X115605591Y-100122171D01*
X115630291Y-100126083D01*
X115639406Y-100127527D01*
X115702540Y-100157457D01*
X115739471Y-100216768D01*
X115738473Y-100286631D01*
X115699863Y-100344863D01*
X115639406Y-100372473D01*
X115605589Y-100377829D01*
X115433363Y-100433787D01*
X115433360Y-100433788D01*
X115272002Y-100516006D01*
X115125505Y-100622441D01*
X115125500Y-100622445D01*
X114997445Y-100750500D01*
X114997441Y-100750505D01*
X114891006Y-100897002D01*
X114808788Y-101058360D01*
X114808787Y-101058363D01*
X114752829Y-101230589D01*
X114724500Y-101409448D01*
X114724500Y-101590551D01*
X114752829Y-101769410D01*
X114808787Y-101941636D01*
X114808788Y-101941639D01*
X114891006Y-102102997D01*
X114997441Y-102249494D01*
X114997445Y-102249499D01*
X115125500Y-102377554D01*
X115125505Y-102377558D01*
X115253287Y-102470396D01*
X115272006Y-102483996D01*
X115377484Y-102537740D01*
X115433360Y-102566211D01*
X115433363Y-102566212D01*
X115519476Y-102594191D01*
X115605591Y-102622171D01*
X115630291Y-102626083D01*
X115639406Y-102627527D01*
X115702540Y-102657457D01*
X115739471Y-102716768D01*
X115738473Y-102786631D01*
X115699863Y-102844863D01*
X115639406Y-102872473D01*
X115605589Y-102877829D01*
X115433363Y-102933787D01*
X115433360Y-102933788D01*
X115272002Y-103016006D01*
X115125505Y-103122441D01*
X115125500Y-103122445D01*
X114997445Y-103250500D01*
X114997441Y-103250505D01*
X114891006Y-103397002D01*
X114808788Y-103558360D01*
X114808787Y-103558363D01*
X114752829Y-103730589D01*
X114724500Y-103909448D01*
X114724500Y-104090551D01*
X114752829Y-104269410D01*
X114808787Y-104441636D01*
X114808788Y-104441639D01*
X114891006Y-104602997D01*
X114997441Y-104749494D01*
X114997445Y-104749499D01*
X115125500Y-104877554D01*
X115125505Y-104877558D01*
X115253287Y-104970396D01*
X115272006Y-104983996D01*
X115377484Y-105037740D01*
X115433360Y-105066211D01*
X115433363Y-105066212D01*
X115560649Y-105107569D01*
X115618324Y-105147006D01*
X115645523Y-105211364D01*
X115633609Y-105280211D01*
X115586365Y-105331687D01*
X115522331Y-105349500D01*
X115231898Y-105349500D01*
X115192853Y-105354188D01*
X115143438Y-105360122D01*
X115002656Y-105415639D01*
X114882077Y-105507077D01*
X114790639Y-105627656D01*
X114735122Y-105768438D01*
X114729188Y-105817853D01*
X114724500Y-105856898D01*
X114724500Y-107143102D01*
X114730126Y-107189954D01*
X114735122Y-107231561D01*
X114790639Y-107372343D01*
X114882077Y-107492922D01*
X115002656Y-107584360D01*
X115002657Y-107584360D01*
X115002658Y-107584361D01*
X115143436Y-107639877D01*
X115231898Y-107650500D01*
X115231903Y-107650500D01*
X116768097Y-107650500D01*
X116768102Y-107650500D01*
X116856564Y-107639877D01*
X116997342Y-107584361D01*
X117117922Y-107492922D01*
X117209361Y-107372342D01*
X117264877Y-107231564D01*
X117275500Y-107143102D01*
X117275500Y-105856898D01*
X117264877Y-105768436D01*
X117209361Y-105627658D01*
X117209360Y-105627657D01*
X117209360Y-105627656D01*
X117117922Y-105507077D01*
X116997343Y-105415639D01*
X116856561Y-105360122D01*
X116810926Y-105354642D01*
X116768102Y-105349500D01*
X116477669Y-105349500D01*
X116410630Y-105329815D01*
X116364875Y-105277011D01*
X116354931Y-105207853D01*
X116383956Y-105144297D01*
X116439351Y-105107569D01*
X116566636Y-105066212D01*
X116566639Y-105066211D01*
X116727994Y-104983996D01*
X116874501Y-104877553D01*
X117002553Y-104749501D01*
X117108996Y-104602994D01*
X117191211Y-104441639D01*
X117247171Y-104269409D01*
X117261765Y-104177259D01*
X117275500Y-104090551D01*
X117275500Y-103909448D01*
X117259019Y-103805397D01*
X117247171Y-103730591D01*
X117191211Y-103558361D01*
X117191211Y-103558360D01*
X117162740Y-103502484D01*
X117108996Y-103397006D01*
X117095396Y-103378287D01*
X117002558Y-103250505D01*
X117002554Y-103250500D01*
X116874499Y-103122445D01*
X116874494Y-103122441D01*
X116727997Y-103016006D01*
X116727996Y-103016005D01*
X116727994Y-103016004D01*
X116676300Y-102989664D01*
X116566639Y-102933788D01*
X116566636Y-102933787D01*
X116394410Y-102877829D01*
X116360594Y-102872473D01*
X116297459Y-102842544D01*
X116260528Y-102783232D01*
X116261526Y-102713370D01*
X116300136Y-102655137D01*
X116360594Y-102627527D01*
X116368388Y-102626292D01*
X116394409Y-102622171D01*
X116566639Y-102566211D01*
X116727994Y-102483996D01*
X116874501Y-102377553D01*
X117002553Y-102249501D01*
X117108996Y-102102994D01*
X117191211Y-101941639D01*
X117247171Y-101769409D01*
X117261765Y-101677259D01*
X117275500Y-101590551D01*
X117275500Y-101409448D01*
X117259019Y-101305397D01*
X117247171Y-101230591D01*
X117191211Y-101058361D01*
X117191211Y-101058360D01*
X117162740Y-101002484D01*
X117108996Y-100897006D01*
X117095396Y-100878287D01*
X117002558Y-100750505D01*
X117002554Y-100750500D01*
X116874499Y-100622445D01*
X116874494Y-100622441D01*
X116727997Y-100516006D01*
X116727996Y-100516005D01*
X116727994Y-100516004D01*
X116676300Y-100489664D01*
X116566639Y-100433788D01*
X116566636Y-100433787D01*
X116394410Y-100377829D01*
X116360594Y-100372473D01*
X116297459Y-100342544D01*
X116260528Y-100283232D01*
X116261526Y-100213370D01*
X116300136Y-100155137D01*
X116360594Y-100127527D01*
X116368388Y-100126292D01*
X116394409Y-100122171D01*
X116566639Y-100066211D01*
X116727994Y-99983996D01*
X116874501Y-99877553D01*
X117002553Y-99749501D01*
X117108996Y-99602994D01*
X117191211Y-99441639D01*
X117247171Y-99269409D01*
X117274999Y-99093712D01*
X117275500Y-99090551D01*
X117275500Y-98909448D01*
X117259019Y-98805397D01*
X117247171Y-98730591D01*
X117191211Y-98558361D01*
X117191211Y-98558360D01*
X117145749Y-98469137D01*
X117108996Y-98397006D01*
X117095396Y-98378287D01*
X117002558Y-98250505D01*
X117002554Y-98250500D01*
X116874499Y-98122445D01*
X116874494Y-98122441D01*
X116727997Y-98016006D01*
X116727996Y-98016005D01*
X116727994Y-98016004D01*
X116662475Y-97982620D01*
X116566639Y-97933788D01*
X116566636Y-97933787D01*
X116394410Y-97877829D01*
X116360594Y-97872473D01*
X116297459Y-97842544D01*
X116260528Y-97783232D01*
X116261526Y-97713370D01*
X116300136Y-97655137D01*
X116360594Y-97627527D01*
X116368388Y-97626292D01*
X116394409Y-97622171D01*
X116566639Y-97566211D01*
X116727994Y-97483996D01*
X116874501Y-97377553D01*
X117002553Y-97249501D01*
X117108996Y-97102994D01*
X117191211Y-96941639D01*
X117247171Y-96769409D01*
X117261765Y-96677259D01*
X117275500Y-96590551D01*
X117275500Y-96409448D01*
X117259019Y-96305397D01*
X117247171Y-96230591D01*
X117191211Y-96058361D01*
X117191211Y-96058360D01*
X117162740Y-96002484D01*
X117108996Y-95897006D01*
X117095396Y-95878287D01*
X117002558Y-95750505D01*
X117002554Y-95750500D01*
X116874499Y-95622445D01*
X116874494Y-95622441D01*
X116727997Y-95516006D01*
X116727996Y-95516005D01*
X116727994Y-95516004D01*
X116676300Y-95489664D01*
X116566639Y-95433788D01*
X116566636Y-95433787D01*
X116394410Y-95377829D01*
X116360594Y-95372473D01*
X116297459Y-95342544D01*
X116260528Y-95283232D01*
X116261526Y-95213370D01*
X116300136Y-95155137D01*
X116360594Y-95127527D01*
X116368388Y-95126292D01*
X116394409Y-95122171D01*
X116566639Y-95066211D01*
X116727994Y-94983996D01*
X116874501Y-94877553D01*
X117002553Y-94749501D01*
X117108996Y-94602994D01*
X117191211Y-94441639D01*
X117247171Y-94269409D01*
X117261765Y-94177259D01*
X117275500Y-94090551D01*
X117275500Y-93909448D01*
X117259019Y-93805397D01*
X117247171Y-93730591D01*
X117191211Y-93558361D01*
X117191211Y-93558360D01*
X117162740Y-93502484D01*
X117108996Y-93397006D01*
X117095396Y-93378287D01*
X117002558Y-93250505D01*
X117002554Y-93250500D01*
X116874499Y-93122445D01*
X116874494Y-93122441D01*
X116727997Y-93016006D01*
X116727996Y-93016005D01*
X116727994Y-93016004D01*
X116676300Y-92989664D01*
X116566639Y-92933788D01*
X116566636Y-92933787D01*
X116394410Y-92877829D01*
X116360594Y-92872473D01*
X116297459Y-92842544D01*
X116260528Y-92783232D01*
X116261526Y-92713370D01*
X116300136Y-92655137D01*
X116360594Y-92627527D01*
X116368388Y-92626292D01*
X116394409Y-92622171D01*
X116566639Y-92566211D01*
X116727994Y-92483996D01*
X116874501Y-92377553D01*
X117002553Y-92249501D01*
X117108996Y-92102994D01*
X117191211Y-91941639D01*
X117247171Y-91769409D01*
X117266987Y-91644297D01*
X117275500Y-91590551D01*
X117275500Y-91409448D01*
X117259019Y-91305397D01*
X117247171Y-91230591D01*
X117191211Y-91058361D01*
X117191211Y-91058360D01*
X117162740Y-91002484D01*
X117108996Y-90897006D01*
X117095396Y-90878287D01*
X117002558Y-90750505D01*
X117002554Y-90750500D01*
X116874499Y-90622445D01*
X116874494Y-90622441D01*
X116727997Y-90516006D01*
X116727996Y-90516005D01*
X116727994Y-90516004D01*
X116676300Y-90489664D01*
X116566639Y-90433788D01*
X116566636Y-90433787D01*
X116394410Y-90377829D01*
X116360594Y-90372473D01*
X116297459Y-90342544D01*
X116260528Y-90283232D01*
X116261526Y-90213370D01*
X116300136Y-90155137D01*
X116360594Y-90127527D01*
X116368388Y-90126292D01*
X116394409Y-90122171D01*
X116566639Y-90066211D01*
X116727994Y-89983996D01*
X116874501Y-89877553D01*
X117002553Y-89749501D01*
X117108996Y-89602994D01*
X117191211Y-89441639D01*
X117247171Y-89269409D01*
X117261765Y-89177259D01*
X117275500Y-89090551D01*
X117275500Y-88909448D01*
X117259019Y-88805397D01*
X117247171Y-88730591D01*
X117191211Y-88558361D01*
X117191211Y-88558360D01*
X117151723Y-88480862D01*
X117108996Y-88397006D01*
X117024613Y-88280862D01*
X117002558Y-88250505D01*
X117002554Y-88250500D01*
X116874499Y-88122445D01*
X116874494Y-88122441D01*
X116727997Y-88016006D01*
X116727996Y-88016005D01*
X116727994Y-88016004D01*
X116676300Y-87989664D01*
X116566639Y-87933788D01*
X116566636Y-87933787D01*
X116394410Y-87877829D01*
X116360594Y-87872473D01*
X116297459Y-87842544D01*
X116260528Y-87783232D01*
X116261526Y-87713370D01*
X116300136Y-87655137D01*
X116360594Y-87627527D01*
X116368388Y-87626292D01*
X116394409Y-87622171D01*
X116566639Y-87566211D01*
X116727994Y-87483996D01*
X116874501Y-87377553D01*
X117002553Y-87249501D01*
X117108996Y-87102994D01*
X117191211Y-86941639D01*
X117247171Y-86769409D01*
X117261765Y-86677259D01*
X117275500Y-86590551D01*
X117275500Y-86409448D01*
X117253549Y-86270861D01*
X117247171Y-86230591D01*
X117191211Y-86058361D01*
X117191211Y-86058360D01*
X117162740Y-86002484D01*
X117108996Y-85897006D01*
X117031252Y-85790000D01*
X117002558Y-85750505D01*
X117002554Y-85750500D01*
X116874499Y-85622445D01*
X116874494Y-85622441D01*
X116727997Y-85516006D01*
X116727996Y-85516005D01*
X116727994Y-85516004D01*
X116676300Y-85489664D01*
X116566639Y-85433788D01*
X116566636Y-85433787D01*
X116394410Y-85377829D01*
X116360594Y-85372473D01*
X116297459Y-85342544D01*
X116260528Y-85283232D01*
X116261526Y-85213370D01*
X116300136Y-85155137D01*
X116360594Y-85127527D01*
X116368388Y-85126292D01*
X116394409Y-85122171D01*
X116566639Y-85066211D01*
X116727994Y-84983996D01*
X116874501Y-84877553D01*
X117002553Y-84749501D01*
X117108996Y-84602994D01*
X117191211Y-84441639D01*
X117247171Y-84269409D01*
X117261765Y-84177259D01*
X117275500Y-84090551D01*
X117275500Y-83909448D01*
X117259019Y-83805397D01*
X117247171Y-83730591D01*
X117219191Y-83644476D01*
X117191212Y-83558363D01*
X117191211Y-83558360D01*
X117162740Y-83502484D01*
X117108996Y-83397006D01*
X117095396Y-83378287D01*
X117002558Y-83250505D01*
X117002554Y-83250500D01*
X116874499Y-83122445D01*
X116874494Y-83122441D01*
X116727997Y-83016006D01*
X116727996Y-83016005D01*
X116727994Y-83016004D01*
X116676300Y-82989664D01*
X116566639Y-82933788D01*
X116566636Y-82933787D01*
X116394410Y-82877829D01*
X116215551Y-82849500D01*
X116215546Y-82849500D01*
X115784454Y-82849500D01*
X115784449Y-82849500D01*
X115605589Y-82877829D01*
X115433363Y-82933787D01*
X115433360Y-82933788D01*
X115272002Y-83016006D01*
X115125505Y-83122441D01*
X115125500Y-83122445D01*
X114997445Y-83250500D01*
X114997441Y-83250505D01*
X114891006Y-83397002D01*
X114808788Y-83558360D01*
X114808787Y-83558363D01*
X114752829Y-83730589D01*
X114724500Y-83909448D01*
X66990334Y-83909448D01*
X66966450Y-83851786D01*
X66878210Y-83736790D01*
X66763214Y-83648550D01*
X66763213Y-83648549D01*
X66763211Y-83648548D01*
X66629301Y-83593082D01*
X66629299Y-83593081D01*
X66629298Y-83593081D01*
X66557443Y-83583621D01*
X66485590Y-83574161D01*
X66485588Y-83574161D01*
X66341880Y-83593081D01*
X66341876Y-83593082D01*
X66207966Y-83648548D01*
X66092968Y-83736790D01*
X66004726Y-83851788D01*
X65949260Y-83985698D01*
X65949259Y-83985702D01*
X65930339Y-84129411D01*
X45500500Y-84129411D01*
X45500500Y-82249999D01*
X69069750Y-82249999D01*
X69069750Y-82250000D01*
X69088670Y-82393708D01*
X69088671Y-82393712D01*
X69144137Y-82527622D01*
X69144138Y-82527624D01*
X69144139Y-82527625D01*
X69232379Y-82642621D01*
X69347375Y-82730861D01*
X69481291Y-82786330D01*
X69608280Y-82803048D01*
X69624999Y-82805250D01*
X69625000Y-82805250D01*
X69625001Y-82805250D01*
X69639977Y-82803278D01*
X69768709Y-82786330D01*
X69902625Y-82730861D01*
X70017621Y-82642621D01*
X70105861Y-82527625D01*
X70161330Y-82393709D01*
X70176959Y-82275000D01*
X71469750Y-82275000D01*
X71485378Y-82393708D01*
X71488670Y-82418708D01*
X71488671Y-82418712D01*
X71544137Y-82552622D01*
X71544138Y-82552624D01*
X71544139Y-82552625D01*
X71632379Y-82667621D01*
X71747375Y-82755861D01*
X71881291Y-82811330D01*
X72008280Y-82828048D01*
X72024999Y-82830250D01*
X72025000Y-82830250D01*
X72025001Y-82830250D01*
X72039977Y-82828278D01*
X72168709Y-82811330D01*
X72302625Y-82755861D01*
X72417621Y-82667621D01*
X72505861Y-82552625D01*
X72561330Y-82418709D01*
X72580250Y-82275000D01*
X72576958Y-82249999D01*
X73694750Y-82249999D01*
X73694750Y-82250000D01*
X73713670Y-82393708D01*
X73713671Y-82393712D01*
X73769137Y-82527622D01*
X73769138Y-82527624D01*
X73769139Y-82527625D01*
X73857379Y-82642621D01*
X73972375Y-82730861D01*
X74106291Y-82786330D01*
X74233280Y-82803048D01*
X74249999Y-82805250D01*
X74250000Y-82805250D01*
X74250001Y-82805250D01*
X74264977Y-82803278D01*
X74393709Y-82786330D01*
X74527625Y-82730861D01*
X74642621Y-82642621D01*
X74730861Y-82527625D01*
X74786330Y-82393709D01*
X74805250Y-82250000D01*
X74786330Y-82106291D01*
X74730861Y-81972375D01*
X74642621Y-81857379D01*
X74527625Y-81769139D01*
X74527624Y-81769138D01*
X74527622Y-81769137D01*
X74393712Y-81713671D01*
X74393710Y-81713670D01*
X74393709Y-81713670D01*
X74321854Y-81704210D01*
X74250001Y-81694750D01*
X74249999Y-81694750D01*
X74106291Y-81713670D01*
X74106287Y-81713671D01*
X73972377Y-81769137D01*
X73857379Y-81857379D01*
X73769137Y-81972377D01*
X73713671Y-82106287D01*
X73713670Y-82106291D01*
X73694750Y-82249999D01*
X72576958Y-82249999D01*
X72561330Y-82131291D01*
X72505861Y-81997375D01*
X72417621Y-81882379D01*
X72302625Y-81794139D01*
X72302624Y-81794138D01*
X72302622Y-81794137D01*
X72168712Y-81738671D01*
X72168710Y-81738670D01*
X72168709Y-81738670D01*
X72096854Y-81729210D01*
X72025001Y-81719750D01*
X72024999Y-81719750D01*
X71881291Y-81738670D01*
X71881287Y-81738671D01*
X71747377Y-81794137D01*
X71632379Y-81882379D01*
X71544137Y-81997377D01*
X71488671Y-82131287D01*
X71488670Y-82131291D01*
X71473042Y-82249999D01*
X71469750Y-82275000D01*
X70176959Y-82275000D01*
X70180250Y-82250000D01*
X70161330Y-82106291D01*
X70105861Y-81972375D01*
X70017621Y-81857379D01*
X69902625Y-81769139D01*
X69902624Y-81769138D01*
X69902622Y-81769137D01*
X69768712Y-81713671D01*
X69768710Y-81713670D01*
X69768709Y-81713670D01*
X69696854Y-81704210D01*
X69625001Y-81694750D01*
X69624999Y-81694750D01*
X69481291Y-81713670D01*
X69481287Y-81713671D01*
X69347377Y-81769137D01*
X69232379Y-81857379D01*
X69144137Y-81972377D01*
X69088671Y-82106287D01*
X69088670Y-82106291D01*
X69069750Y-82249999D01*
X45500500Y-82249999D01*
X45500500Y-80499999D01*
X78194750Y-80499999D01*
X78194750Y-80500000D01*
X78213670Y-80643708D01*
X78213671Y-80643712D01*
X78269137Y-80777622D01*
X78269138Y-80777624D01*
X78269139Y-80777625D01*
X78357379Y-80892621D01*
X78472375Y-80980861D01*
X78606291Y-81036330D01*
X78733280Y-81053048D01*
X78749999Y-81055250D01*
X78750000Y-81055250D01*
X78750001Y-81055250D01*
X78764977Y-81053278D01*
X78893709Y-81036330D01*
X79027625Y-80980861D01*
X79142621Y-80892621D01*
X79230861Y-80777625D01*
X79286330Y-80643709D01*
X79305250Y-80500000D01*
X79286330Y-80356291D01*
X79230861Y-80222375D01*
X79142621Y-80107379D01*
X79027625Y-80019139D01*
X79027624Y-80019138D01*
X79027622Y-80019137D01*
X78893712Y-79963671D01*
X78893710Y-79963670D01*
X78893709Y-79963670D01*
X78821854Y-79954210D01*
X78750001Y-79944750D01*
X78749999Y-79944750D01*
X78606291Y-79963670D01*
X78606287Y-79963671D01*
X78472377Y-80019137D01*
X78357379Y-80107379D01*
X78269137Y-80222377D01*
X78213671Y-80356287D01*
X78213670Y-80356291D01*
X78194750Y-80499999D01*
X45500500Y-80499999D01*
X45500500Y-77250000D01*
X71494750Y-77250000D01*
X71503852Y-77319139D01*
X71513670Y-77393708D01*
X71513671Y-77393712D01*
X71569137Y-77527622D01*
X71569138Y-77527624D01*
X71569139Y-77527625D01*
X71657379Y-77642621D01*
X71772375Y-77730861D01*
X71906291Y-77786330D01*
X72033280Y-77803048D01*
X72049999Y-77805250D01*
X72050000Y-77805250D01*
X72050001Y-77805250D01*
X72064977Y-77803278D01*
X72089883Y-77799999D01*
X92844750Y-77799999D01*
X92844750Y-77800000D01*
X92863670Y-77943708D01*
X92863671Y-77943712D01*
X92919137Y-78077622D01*
X92919138Y-78077624D01*
X92919139Y-78077625D01*
X93007379Y-78192621D01*
X93122375Y-78280861D01*
X93256291Y-78336330D01*
X93383280Y-78353048D01*
X93399999Y-78355250D01*
X93400000Y-78355250D01*
X93400001Y-78355250D01*
X93414977Y-78353278D01*
X93543709Y-78336330D01*
X93677625Y-78280861D01*
X93792621Y-78192621D01*
X93880861Y-78077625D01*
X93936330Y-77943709D01*
X93955250Y-77800000D01*
X93936330Y-77656291D01*
X93880861Y-77522375D01*
X93792621Y-77407379D01*
X93677625Y-77319139D01*
X93677624Y-77319138D01*
X93677622Y-77319137D01*
X93543712Y-77263671D01*
X93543710Y-77263670D01*
X93543709Y-77263670D01*
X93439877Y-77250000D01*
X93400001Y-77244750D01*
X93399999Y-77244750D01*
X93256291Y-77263670D01*
X93256287Y-77263671D01*
X93122377Y-77319137D01*
X93007379Y-77407379D01*
X92919137Y-77522377D01*
X92863671Y-77656287D01*
X92863670Y-77656291D01*
X92844750Y-77799999D01*
X72089883Y-77799999D01*
X72193709Y-77786330D01*
X72327625Y-77730861D01*
X72442621Y-77642621D01*
X72530861Y-77527625D01*
X72586330Y-77393709D01*
X72605250Y-77250000D01*
X72586330Y-77106291D01*
X72530861Y-76972375D01*
X72442621Y-76857379D01*
X72327625Y-76769139D01*
X72327624Y-76769138D01*
X72327622Y-76769137D01*
X72193712Y-76713671D01*
X72193710Y-76713670D01*
X72193709Y-76713670D01*
X72121854Y-76704210D01*
X72050001Y-76694750D01*
X72049999Y-76694750D01*
X71906291Y-76713670D01*
X71906287Y-76713671D01*
X71772377Y-76769137D01*
X71657379Y-76857379D01*
X71569137Y-76972377D01*
X71513671Y-77106287D01*
X71513670Y-77106291D01*
X71494750Y-77250000D01*
X45500500Y-77250000D01*
X45500500Y-73750000D01*
X68944750Y-73750000D01*
X68960405Y-73868913D01*
X68963670Y-73893708D01*
X68963671Y-73893712D01*
X69019137Y-74027622D01*
X69019138Y-74027624D01*
X69019139Y-74027625D01*
X69107379Y-74142621D01*
X69222375Y-74230861D01*
X69356291Y-74286330D01*
X69483280Y-74303048D01*
X69499999Y-74305250D01*
X69500000Y-74305250D01*
X69500001Y-74305250D01*
X69514977Y-74303278D01*
X69643709Y-74286330D01*
X69777625Y-74230861D01*
X69892621Y-74142621D01*
X69980861Y-74027625D01*
X69992303Y-74000000D01*
X107295065Y-74000000D01*
X107314786Y-74326038D01*
X107373667Y-74647341D01*
X107470835Y-74959164D01*
X107470839Y-74959175D01*
X107604897Y-75257041D01*
X107604898Y-75257043D01*
X107773881Y-75536576D01*
X107921476Y-75724968D01*
X108420079Y-75226365D01*
X108493094Y-75321521D01*
X108678479Y-75506906D01*
X108773632Y-75579919D01*
X108275030Y-76078522D01*
X108275030Y-76078523D01*
X108463423Y-76226118D01*
X108742956Y-76395101D01*
X108742958Y-76395102D01*
X109040824Y-76529160D01*
X109040835Y-76529164D01*
X109352658Y-76626332D01*
X109673961Y-76685213D01*
X110000000Y-76704934D01*
X110326038Y-76685213D01*
X110647341Y-76626332D01*
X110959164Y-76529164D01*
X110959175Y-76529160D01*
X111257041Y-76395102D01*
X111257043Y-76395101D01*
X111536586Y-76226112D01*
X111724968Y-76078523D01*
X111724968Y-76078522D01*
X111226366Y-75579920D01*
X111321521Y-75506906D01*
X111506906Y-75321521D01*
X111579920Y-75226366D01*
X112078522Y-75724968D01*
X112078523Y-75724968D01*
X112226112Y-75536586D01*
X112395101Y-75257043D01*
X112395102Y-75257041D01*
X112529160Y-74959175D01*
X112529164Y-74959164D01*
X112626332Y-74647341D01*
X112685213Y-74326038D01*
X112704934Y-74000000D01*
X112685213Y-73673961D01*
X112626332Y-73352658D01*
X112529164Y-73040835D01*
X112529160Y-73040824D01*
X112395102Y-72742958D01*
X112395101Y-72742956D01*
X112226118Y-72463423D01*
X112078522Y-72275030D01*
X111579919Y-72773632D01*
X111506906Y-72678479D01*
X111321521Y-72493094D01*
X111226365Y-72420079D01*
X111724968Y-71921476D01*
X111536576Y-71773881D01*
X111257043Y-71604898D01*
X111257041Y-71604897D01*
X110959175Y-71470839D01*
X110959164Y-71470835D01*
X110647341Y-71373667D01*
X110326038Y-71314786D01*
X110000000Y-71295065D01*
X109673961Y-71314786D01*
X109352658Y-71373667D01*
X109040835Y-71470835D01*
X109040824Y-71470839D01*
X108742958Y-71604897D01*
X108742956Y-71604898D01*
X108463422Y-71773881D01*
X108463416Y-71773886D01*
X108275030Y-71921474D01*
X108275029Y-71921476D01*
X108773633Y-72420079D01*
X108678479Y-72493094D01*
X108493094Y-72678479D01*
X108420080Y-72773633D01*
X107921476Y-72275029D01*
X107921474Y-72275030D01*
X107773886Y-72463416D01*
X107773881Y-72463422D01*
X107604898Y-72742956D01*
X107604897Y-72742958D01*
X107470839Y-73040824D01*
X107470835Y-73040835D01*
X107373667Y-73352658D01*
X107314786Y-73673961D01*
X107295065Y-74000000D01*
X69992303Y-74000000D01*
X70036330Y-73893709D01*
X70055250Y-73750000D01*
X70036330Y-73606291D01*
X69980861Y-73472375D01*
X69892621Y-73357379D01*
X69777625Y-73269139D01*
X69777624Y-73269138D01*
X69777622Y-73269137D01*
X69643712Y-73213671D01*
X69643710Y-73213670D01*
X69643709Y-73213670D01*
X69571854Y-73204210D01*
X69500001Y-73194750D01*
X69499999Y-73194750D01*
X69356291Y-73213670D01*
X69356287Y-73213671D01*
X69222377Y-73269137D01*
X69107379Y-73357379D01*
X69019137Y-73472377D01*
X68963671Y-73606287D01*
X68963670Y-73606291D01*
X68944750Y-73750000D01*
X45500500Y-73750000D01*
X45500500Y-73049999D01*
X71494750Y-73049999D01*
X71494750Y-73050000D01*
X71513670Y-73193708D01*
X71513671Y-73193712D01*
X71569137Y-73327622D01*
X71569138Y-73327624D01*
X71569139Y-73327625D01*
X71657379Y-73442621D01*
X71772375Y-73530861D01*
X71906291Y-73586330D01*
X72033280Y-73603048D01*
X72049999Y-73605250D01*
X72050000Y-73605250D01*
X72050001Y-73605250D01*
X72064977Y-73603278D01*
X72193709Y-73586330D01*
X72327625Y-73530861D01*
X72442621Y-73442621D01*
X72530861Y-73327625D01*
X72586330Y-73193709D01*
X72605250Y-73050000D01*
X72586330Y-72906291D01*
X72530861Y-72772375D01*
X72442621Y-72657379D01*
X72327625Y-72569139D01*
X72327624Y-72569138D01*
X72327622Y-72569137D01*
X72193712Y-72513671D01*
X72193710Y-72513670D01*
X72193709Y-72513670D01*
X72121854Y-72504210D01*
X72050001Y-72494750D01*
X72049999Y-72494750D01*
X71906291Y-72513670D01*
X71906287Y-72513671D01*
X71772377Y-72569137D01*
X71657379Y-72657379D01*
X71569137Y-72772377D01*
X71513671Y-72906287D01*
X71513670Y-72906291D01*
X71494750Y-73049999D01*
X45500500Y-73049999D01*
X45500500Y-72049999D01*
X76144750Y-72049999D01*
X76144750Y-72050000D01*
X76163670Y-72193708D01*
X76163671Y-72193712D01*
X76219137Y-72327622D01*
X76219138Y-72327624D01*
X76219139Y-72327625D01*
X76307379Y-72442621D01*
X76422375Y-72530861D01*
X76556291Y-72586330D01*
X76683280Y-72603048D01*
X76699999Y-72605250D01*
X76700000Y-72605250D01*
X76700001Y-72605250D01*
X76714977Y-72603278D01*
X76843709Y-72586330D01*
X76977625Y-72530861D01*
X77092621Y-72442621D01*
X77180861Y-72327625D01*
X77236330Y-72193709D01*
X77255250Y-72050000D01*
X77236330Y-71906291D01*
X77180861Y-71772375D01*
X77092621Y-71657379D01*
X76977625Y-71569139D01*
X76977624Y-71569138D01*
X76977622Y-71569137D01*
X76843712Y-71513671D01*
X76843710Y-71513670D01*
X76843709Y-71513670D01*
X76771854Y-71504210D01*
X76700001Y-71494750D01*
X76699999Y-71494750D01*
X76556291Y-71513670D01*
X76556287Y-71513671D01*
X76422377Y-71569137D01*
X76307379Y-71657379D01*
X76219137Y-71772377D01*
X76163671Y-71906287D01*
X76163670Y-71906291D01*
X76144750Y-72049999D01*
X45500500Y-72049999D01*
X45500500Y-63299999D01*
X83444750Y-63299999D01*
X83444750Y-63300000D01*
X83463670Y-63443708D01*
X83463671Y-63443712D01*
X83519137Y-63577622D01*
X83519138Y-63577624D01*
X83519139Y-63577625D01*
X83607379Y-63692621D01*
X83722375Y-63780861D01*
X83856291Y-63836330D01*
X83983280Y-63853048D01*
X83999999Y-63855250D01*
X84000000Y-63855250D01*
X84000001Y-63855250D01*
X84014977Y-63853278D01*
X84143709Y-63836330D01*
X84277625Y-63780861D01*
X84392621Y-63692621D01*
X84480861Y-63577625D01*
X84536330Y-63443709D01*
X84555250Y-63300000D01*
X84536330Y-63156291D01*
X84486641Y-63036329D01*
X84480862Y-63022377D01*
X84480861Y-63022376D01*
X84480861Y-63022375D01*
X84392621Y-62907379D01*
X84277625Y-62819139D01*
X84277624Y-62819138D01*
X84277622Y-62819137D01*
X84143712Y-62763671D01*
X84143710Y-62763670D01*
X84143709Y-62763670D01*
X84071854Y-62754210D01*
X84000001Y-62744750D01*
X83999999Y-62744750D01*
X83856291Y-62763670D01*
X83856287Y-62763671D01*
X83722377Y-62819137D01*
X83607379Y-62907379D01*
X83519137Y-63022377D01*
X83463671Y-63156287D01*
X83463670Y-63156291D01*
X83444750Y-63299999D01*
X45500500Y-63299999D01*
X45500500Y-62499999D01*
X68694750Y-62499999D01*
X68694750Y-62500000D01*
X68713670Y-62643708D01*
X68713671Y-62643712D01*
X68769137Y-62777622D01*
X68769138Y-62777624D01*
X68769139Y-62777625D01*
X68857379Y-62892621D01*
X68972375Y-62980861D01*
X69106291Y-63036330D01*
X69233280Y-63053048D01*
X69249999Y-63055250D01*
X69250000Y-63055250D01*
X69250001Y-63055250D01*
X69264977Y-63053278D01*
X69393709Y-63036330D01*
X69527625Y-62980861D01*
X69642621Y-62892621D01*
X69730861Y-62777625D01*
X69786330Y-62643709D01*
X69805250Y-62500000D01*
X69786330Y-62356291D01*
X69730861Y-62222375D01*
X69642621Y-62107379D01*
X69527625Y-62019139D01*
X69527624Y-62019138D01*
X69527622Y-62019137D01*
X69393712Y-61963671D01*
X69393710Y-61963670D01*
X69393709Y-61963670D01*
X69321854Y-61954210D01*
X69250001Y-61944750D01*
X69249999Y-61944750D01*
X69106291Y-61963670D01*
X69106287Y-61963671D01*
X68972377Y-62019137D01*
X68857379Y-62107379D01*
X68769137Y-62222377D01*
X68713671Y-62356287D01*
X68713670Y-62356291D01*
X68694750Y-62499999D01*
X45500500Y-62499999D01*
X45500500Y-60499994D01*
X101569615Y-60499994D01*
X101569615Y-60500005D01*
X101589123Y-60735430D01*
X101647117Y-60964445D01*
X101742013Y-61180787D01*
X101871225Y-61378562D01*
X102031223Y-61552364D01*
X102031227Y-61552368D01*
X102217654Y-61697470D01*
X102425421Y-61809908D01*
X102648861Y-61886616D01*
X102881880Y-61925500D01*
X102881881Y-61925500D01*
X103118119Y-61925500D01*
X103118120Y-61925500D01*
X103351139Y-61886616D01*
X103574579Y-61809908D01*
X103782346Y-61697470D01*
X103968773Y-61552368D01*
X104128775Y-61378561D01*
X104257986Y-61180788D01*
X104352883Y-60964445D01*
X104410876Y-60735434D01*
X104430385Y-60500000D01*
X104430385Y-60499994D01*
X111569615Y-60499994D01*
X111569615Y-60500005D01*
X111589123Y-60735430D01*
X111647117Y-60964445D01*
X111742013Y-61180787D01*
X111871225Y-61378562D01*
X112031223Y-61552364D01*
X112031227Y-61552368D01*
X112217654Y-61697470D01*
X112425421Y-61809908D01*
X112648861Y-61886616D01*
X112881880Y-61925500D01*
X112881881Y-61925500D01*
X113118119Y-61925500D01*
X113118120Y-61925500D01*
X113351139Y-61886616D01*
X113574579Y-61809908D01*
X113782346Y-61697470D01*
X113968773Y-61552368D01*
X114128775Y-61378561D01*
X114257986Y-61180788D01*
X114352883Y-60964445D01*
X114410876Y-60735434D01*
X114430385Y-60500000D01*
X114410876Y-60264566D01*
X114352883Y-60035555D01*
X114257986Y-59819212D01*
X114232019Y-59779466D01*
X114128774Y-59621437D01*
X113968776Y-59447635D01*
X113968775Y-59447634D01*
X113968773Y-59447632D01*
X113791828Y-59309910D01*
X113782348Y-59302531D01*
X113574580Y-59190092D01*
X113574571Y-59190089D01*
X113351141Y-59113384D01*
X113195793Y-59087461D01*
X113118120Y-59074500D01*
X112881880Y-59074500D01*
X112823625Y-59084221D01*
X112648858Y-59113384D01*
X112425428Y-59190089D01*
X112425419Y-59190092D01*
X112217651Y-59302531D01*
X112031228Y-59447631D01*
X112031223Y-59447635D01*
X111871225Y-59621437D01*
X111742013Y-59819212D01*
X111647117Y-60035554D01*
X111589123Y-60264569D01*
X111569615Y-60499994D01*
X104430385Y-60499994D01*
X104410876Y-60264566D01*
X104352883Y-60035555D01*
X104257986Y-59819212D01*
X104232019Y-59779466D01*
X104128774Y-59621437D01*
X103968776Y-59447635D01*
X103968775Y-59447634D01*
X103968773Y-59447632D01*
X103791828Y-59309910D01*
X103782348Y-59302531D01*
X103574580Y-59190092D01*
X103574571Y-59190089D01*
X103351141Y-59113384D01*
X103195793Y-59087461D01*
X103118120Y-59074500D01*
X102881880Y-59074500D01*
X102823625Y-59084221D01*
X102648858Y-59113384D01*
X102425428Y-59190089D01*
X102425419Y-59190092D01*
X102217651Y-59302531D01*
X102031228Y-59447631D01*
X102031223Y-59447635D01*
X101871225Y-59621437D01*
X101742013Y-59819212D01*
X101647117Y-60035554D01*
X101589123Y-60264569D01*
X101569615Y-60499994D01*
X45500500Y-60499994D01*
X45500500Y-58493753D01*
X65150000Y-58493753D01*
X65150000Y-58500000D01*
X66066988Y-58500000D01*
X66034075Y-58557007D01*
X66000000Y-58684174D01*
X66000000Y-58815826D01*
X66034075Y-58942993D01*
X66066988Y-59000000D01*
X65150000Y-59000000D01*
X65150000Y-59006246D01*
X65183242Y-59216127D01*
X65183242Y-59216130D01*
X65248904Y-59418217D01*
X65345379Y-59607557D01*
X65470272Y-59779459D01*
X65470276Y-59779464D01*
X65620535Y-59929723D01*
X65620540Y-59929727D01*
X65792442Y-60054620D01*
X65981782Y-60151095D01*
X66183871Y-60216757D01*
X66250000Y-60227231D01*
X66250000Y-59183012D01*
X66307007Y-59215925D01*
X66434174Y-59250000D01*
X66565826Y-59250000D01*
X66692993Y-59215925D01*
X66750000Y-59183012D01*
X66750000Y-60227230D01*
X66816126Y-60216757D01*
X66816129Y-60216757D01*
X67018217Y-60151095D01*
X67207557Y-60054620D01*
X67379459Y-59929727D01*
X67379464Y-59929723D01*
X67529721Y-59779466D01*
X67648893Y-59615439D01*
X67704223Y-59572773D01*
X67773836Y-59566794D01*
X67835632Y-59599399D01*
X67864566Y-59642833D01*
X67915638Y-59772341D01*
X68007077Y-59892922D01*
X68127656Y-59984360D01*
X68127657Y-59984360D01*
X68127658Y-59984361D01*
X68268436Y-60039877D01*
X68356898Y-60050500D01*
X68356903Y-60050500D01*
X69643097Y-60050500D01*
X69643102Y-60050500D01*
X69731564Y-60039877D01*
X69872342Y-59984361D01*
X69992922Y-59892922D01*
X70084361Y-59772342D01*
X70139877Y-59631564D01*
X70150500Y-59543102D01*
X70150500Y-58493753D01*
X75150000Y-58493753D01*
X75150000Y-58500000D01*
X76066988Y-58500000D01*
X76034075Y-58557007D01*
X76000000Y-58684174D01*
X76000000Y-58815826D01*
X76034075Y-58942993D01*
X76066988Y-59000000D01*
X75150000Y-59000000D01*
X75150000Y-59006246D01*
X75183242Y-59216127D01*
X75183242Y-59216130D01*
X75248904Y-59418217D01*
X75345379Y-59607557D01*
X75470272Y-59779459D01*
X75470276Y-59779464D01*
X75620535Y-59929723D01*
X75620540Y-59929727D01*
X75792442Y-60054620D01*
X75981782Y-60151095D01*
X76183871Y-60216757D01*
X76250000Y-60227231D01*
X76250000Y-59183012D01*
X76307007Y-59215925D01*
X76434174Y-59250000D01*
X76565826Y-59250000D01*
X76692993Y-59215925D01*
X76750000Y-59183012D01*
X76750000Y-60227230D01*
X76816126Y-60216757D01*
X76816129Y-60216757D01*
X77018217Y-60151095D01*
X77207557Y-60054620D01*
X77379459Y-59929727D01*
X77379464Y-59929723D01*
X77529721Y-59779466D01*
X77648893Y-59615439D01*
X77704223Y-59572773D01*
X77773836Y-59566794D01*
X77835632Y-59599399D01*
X77864566Y-59642833D01*
X77915638Y-59772341D01*
X78007077Y-59892922D01*
X78127656Y-59984360D01*
X78127657Y-59984360D01*
X78127658Y-59984361D01*
X78268436Y-60039877D01*
X78356898Y-60050500D01*
X78356903Y-60050500D01*
X79643097Y-60050500D01*
X79643102Y-60050500D01*
X79731564Y-60039877D01*
X79872342Y-59984361D01*
X79992922Y-59892922D01*
X80084361Y-59772342D01*
X80139877Y-59631564D01*
X80150500Y-59543102D01*
X80150500Y-57999994D01*
X99069615Y-57999994D01*
X99069615Y-58000005D01*
X99089123Y-58235430D01*
X99147117Y-58464445D01*
X99242013Y-58680787D01*
X99371225Y-58878562D01*
X99483018Y-59000000D01*
X99531227Y-59052368D01*
X99656792Y-59150099D01*
X99708174Y-59190092D01*
X99717654Y-59197470D01*
X99752135Y-59216130D01*
X99911789Y-59302531D01*
X99925421Y-59309908D01*
X100148861Y-59386616D01*
X100381880Y-59425500D01*
X100381881Y-59425500D01*
X100618119Y-59425500D01*
X100618120Y-59425500D01*
X100851139Y-59386616D01*
X101074579Y-59309908D01*
X101282346Y-59197470D01*
X101468773Y-59052368D01*
X101628775Y-58878561D01*
X101757986Y-58680788D01*
X101852883Y-58464445D01*
X101910876Y-58235434D01*
X101930385Y-58000000D01*
X106369975Y-58000000D01*
X106390042Y-58254989D01*
X106449752Y-58503702D01*
X106547634Y-58740012D01*
X106547636Y-58740015D01*
X106681275Y-58958095D01*
X106681286Y-58958110D01*
X106684533Y-58961911D01*
X106684535Y-58961911D01*
X107322421Y-58324024D01*
X107335359Y-58355258D01*
X107417437Y-58478097D01*
X107521903Y-58582563D01*
X107644742Y-58664641D01*
X107675974Y-58677577D01*
X107038087Y-59315464D01*
X107038087Y-59315465D01*
X107041888Y-59318712D01*
X107041898Y-59318719D01*
X107259984Y-59452363D01*
X107259987Y-59452365D01*
X107496297Y-59550247D01*
X107745011Y-59609957D01*
X107745010Y-59609957D01*
X108000000Y-59630024D01*
X108254989Y-59609957D01*
X108503702Y-59550247D01*
X108740012Y-59452365D01*
X108740015Y-59452363D01*
X108958103Y-59318719D01*
X108961912Y-59315464D01*
X108324025Y-58677578D01*
X108355258Y-58664641D01*
X108478097Y-58582563D01*
X108582563Y-58478097D01*
X108664641Y-58355258D01*
X108677577Y-58324025D01*
X109315464Y-58961912D01*
X109318719Y-58958103D01*
X109452363Y-58740015D01*
X109452365Y-58740012D01*
X109550247Y-58503702D01*
X109609957Y-58254989D01*
X109630024Y-58000000D01*
X109630024Y-57999994D01*
X114069615Y-57999994D01*
X114069615Y-58000005D01*
X114089123Y-58235430D01*
X114147117Y-58464445D01*
X114242013Y-58680787D01*
X114371225Y-58878562D01*
X114483018Y-59000000D01*
X114531227Y-59052368D01*
X114656792Y-59150099D01*
X114708174Y-59190092D01*
X114717654Y-59197470D01*
X114752135Y-59216130D01*
X114911789Y-59302531D01*
X114925421Y-59309908D01*
X115148861Y-59386616D01*
X115381880Y-59425500D01*
X115381881Y-59425500D01*
X115618119Y-59425500D01*
X115618120Y-59425500D01*
X115851139Y-59386616D01*
X116074579Y-59309908D01*
X116282346Y-59197470D01*
X116468773Y-59052368D01*
X116628775Y-58878561D01*
X116757986Y-58680788D01*
X116852883Y-58464445D01*
X116910876Y-58235434D01*
X116930385Y-58000000D01*
X116926813Y-57956898D01*
X116910876Y-57764569D01*
X116910876Y-57764566D01*
X116852883Y-57535555D01*
X116757986Y-57319212D01*
X116628775Y-57121439D01*
X116628774Y-57121437D01*
X116468776Y-56947635D01*
X116468775Y-56947634D01*
X116468773Y-56947632D01*
X116375559Y-56875081D01*
X116282348Y-56802531D01*
X116074580Y-56690092D01*
X116074571Y-56690089D01*
X115851141Y-56613384D01*
X115695793Y-56587461D01*
X115618120Y-56574500D01*
X115381880Y-56574500D01*
X115323625Y-56584221D01*
X115148858Y-56613384D01*
X114925428Y-56690089D01*
X114925419Y-56690092D01*
X114717651Y-56802531D01*
X114531228Y-56947631D01*
X114531223Y-56947635D01*
X114371225Y-57121437D01*
X114242013Y-57319212D01*
X114147117Y-57535554D01*
X114089123Y-57764569D01*
X114069615Y-57999994D01*
X109630024Y-57999994D01*
X109609957Y-57745010D01*
X109550247Y-57496297D01*
X109452365Y-57259987D01*
X109452363Y-57259984D01*
X109318719Y-57041898D01*
X109318712Y-57041888D01*
X109315465Y-57038087D01*
X109315464Y-57038087D01*
X108677577Y-57675973D01*
X108664641Y-57644742D01*
X108582563Y-57521903D01*
X108478097Y-57417437D01*
X108355258Y-57335359D01*
X108324024Y-57322421D01*
X108961911Y-56684535D01*
X108961911Y-56684533D01*
X108958110Y-56681286D01*
X108958095Y-56681275D01*
X108740015Y-56547636D01*
X108740012Y-56547634D01*
X108503702Y-56449752D01*
X108254988Y-56390042D01*
X108254989Y-56390042D01*
X108000000Y-56369975D01*
X107745010Y-56390042D01*
X107496297Y-56449752D01*
X107259987Y-56547634D01*
X107259984Y-56547636D01*
X107041897Y-56681280D01*
X107038087Y-56684534D01*
X107675975Y-57322421D01*
X107644742Y-57335359D01*
X107521903Y-57417437D01*
X107417437Y-57521903D01*
X107335359Y-57644742D01*
X107322421Y-57675974D01*
X106684534Y-57038087D01*
X106681280Y-57041897D01*
X106547636Y-57259984D01*
X106547634Y-57259987D01*
X106449752Y-57496297D01*
X106390042Y-57745010D01*
X106369975Y-58000000D01*
X101930385Y-58000000D01*
X101926813Y-57956898D01*
X101910876Y-57764569D01*
X101910876Y-57764566D01*
X101852883Y-57535555D01*
X101757986Y-57319212D01*
X101628775Y-57121439D01*
X101628774Y-57121437D01*
X101468776Y-56947635D01*
X101468775Y-56947634D01*
X101468773Y-56947632D01*
X101375559Y-56875081D01*
X101282348Y-56802531D01*
X101074580Y-56690092D01*
X101074571Y-56690089D01*
X100851141Y-56613384D01*
X100695793Y-56587461D01*
X100618120Y-56574500D01*
X100381880Y-56574500D01*
X100323625Y-56584221D01*
X100148858Y-56613384D01*
X99925428Y-56690089D01*
X99925419Y-56690092D01*
X99717651Y-56802531D01*
X99531228Y-56947631D01*
X99531223Y-56947635D01*
X99371225Y-57121437D01*
X99242013Y-57319212D01*
X99147117Y-57535554D01*
X99089123Y-57764569D01*
X99069615Y-57999994D01*
X80150500Y-57999994D01*
X80150500Y-57956898D01*
X80139877Y-57868436D01*
X80084361Y-57727658D01*
X80084360Y-57727657D01*
X80084360Y-57727656D01*
X79992922Y-57607077D01*
X79872343Y-57515639D01*
X79731561Y-57460122D01*
X79685926Y-57454642D01*
X79643102Y-57449500D01*
X78356898Y-57449500D01*
X78317853Y-57454188D01*
X78268438Y-57460122D01*
X78127656Y-57515639D01*
X78007077Y-57607077D01*
X77915638Y-57727658D01*
X77864566Y-57857166D01*
X77821660Y-57912309D01*
X77755752Y-57935502D01*
X77687768Y-57919381D01*
X77648894Y-57884560D01*
X77529727Y-57720540D01*
X77529723Y-57720535D01*
X77379464Y-57570276D01*
X77379459Y-57570272D01*
X77207557Y-57445379D01*
X77018215Y-57348903D01*
X76816124Y-57283241D01*
X76750000Y-57272768D01*
X76750000Y-58316988D01*
X76692993Y-58284075D01*
X76565826Y-58250000D01*
X76434174Y-58250000D01*
X76307007Y-58284075D01*
X76250000Y-58316988D01*
X76250000Y-57272768D01*
X76249999Y-57272768D01*
X76183875Y-57283241D01*
X75981784Y-57348903D01*
X75792442Y-57445379D01*
X75620540Y-57570272D01*
X75620535Y-57570276D01*
X75470276Y-57720535D01*
X75470272Y-57720540D01*
X75345379Y-57892442D01*
X75248904Y-58081782D01*
X75183242Y-58283869D01*
X75183242Y-58283872D01*
X75150000Y-58493753D01*
X70150500Y-58493753D01*
X70150500Y-57956898D01*
X70139877Y-57868436D01*
X70084361Y-57727658D01*
X70084360Y-57727657D01*
X70084360Y-57727656D01*
X69992922Y-57607077D01*
X69872343Y-57515639D01*
X69731561Y-57460122D01*
X69685926Y-57454642D01*
X69643102Y-57449500D01*
X68356898Y-57449500D01*
X68317853Y-57454188D01*
X68268438Y-57460122D01*
X68127656Y-57515639D01*
X68007077Y-57607077D01*
X67915638Y-57727658D01*
X67864566Y-57857166D01*
X67821660Y-57912309D01*
X67755752Y-57935502D01*
X67687768Y-57919381D01*
X67648894Y-57884560D01*
X67529727Y-57720540D01*
X67529723Y-57720535D01*
X67379464Y-57570276D01*
X67379459Y-57570272D01*
X67207557Y-57445379D01*
X67018215Y-57348903D01*
X66816124Y-57283241D01*
X66750000Y-57272768D01*
X66750000Y-58316988D01*
X66692993Y-58284075D01*
X66565826Y-58250000D01*
X66434174Y-58250000D01*
X66307007Y-58284075D01*
X66250000Y-58316988D01*
X66250000Y-57272768D01*
X66249999Y-57272768D01*
X66183875Y-57283241D01*
X65981784Y-57348903D01*
X65792442Y-57445379D01*
X65620540Y-57570272D01*
X65620535Y-57570276D01*
X65470276Y-57720535D01*
X65470272Y-57720540D01*
X65345379Y-57892442D01*
X65248904Y-58081782D01*
X65183242Y-58283869D01*
X65183242Y-58283872D01*
X65150000Y-58493753D01*
X45500500Y-58493753D01*
X45500500Y-49000000D01*
X55295065Y-49000000D01*
X55314786Y-49326038D01*
X55373667Y-49647341D01*
X55470835Y-49959164D01*
X55470839Y-49959175D01*
X55604897Y-50257041D01*
X55604898Y-50257043D01*
X55773881Y-50536576D01*
X55921476Y-50724968D01*
X56420078Y-50226365D01*
X56493094Y-50321521D01*
X56678479Y-50506906D01*
X56773632Y-50579919D01*
X56275030Y-51078522D01*
X56275030Y-51078523D01*
X56463423Y-51226118D01*
X56742956Y-51395101D01*
X56742958Y-51395102D01*
X57040824Y-51529160D01*
X57040835Y-51529164D01*
X57352658Y-51626332D01*
X57673961Y-51685213D01*
X58000000Y-51704934D01*
X58326038Y-51685213D01*
X58647341Y-51626332D01*
X58959164Y-51529164D01*
X58959175Y-51529160D01*
X59257041Y-51395102D01*
X59257043Y-51395101D01*
X59536586Y-51226112D01*
X59724968Y-51078523D01*
X59724968Y-51078522D01*
X59226366Y-50579920D01*
X59321521Y-50506906D01*
X59506906Y-50321521D01*
X59579920Y-50226366D01*
X60078522Y-50724968D01*
X60078523Y-50724968D01*
X60226112Y-50536586D01*
X60395101Y-50257043D01*
X60395102Y-50257041D01*
X60529160Y-49959175D01*
X60529164Y-49959164D01*
X60626332Y-49647341D01*
X60685213Y-49326038D01*
X60704934Y-49000000D01*
X85295065Y-49000000D01*
X85314786Y-49326038D01*
X85373667Y-49647341D01*
X85470835Y-49959164D01*
X85470839Y-49959175D01*
X85604897Y-50257041D01*
X85604898Y-50257043D01*
X85773881Y-50536576D01*
X85921476Y-50724968D01*
X86420079Y-50226365D01*
X86493094Y-50321521D01*
X86678479Y-50506906D01*
X86773632Y-50579919D01*
X86275030Y-51078522D01*
X86275030Y-51078523D01*
X86463423Y-51226118D01*
X86742956Y-51395101D01*
X86742958Y-51395102D01*
X87040824Y-51529160D01*
X87040835Y-51529164D01*
X87352658Y-51626332D01*
X87673961Y-51685213D01*
X88000000Y-51704934D01*
X88326038Y-51685213D01*
X88647341Y-51626332D01*
X88959164Y-51529164D01*
X88959175Y-51529160D01*
X89257041Y-51395102D01*
X89257043Y-51395101D01*
X89536586Y-51226112D01*
X89724968Y-51078523D01*
X89724968Y-51078522D01*
X89226366Y-50579920D01*
X89321521Y-50506906D01*
X89506906Y-50321521D01*
X89579920Y-50226366D01*
X90078522Y-50724968D01*
X90078523Y-50724968D01*
X90226112Y-50536586D01*
X90395101Y-50257043D01*
X90395102Y-50257041D01*
X90529160Y-49959175D01*
X90529164Y-49959164D01*
X90626332Y-49647341D01*
X90685213Y-49326038D01*
X90704934Y-49000000D01*
X90685213Y-48673961D01*
X90626332Y-48352658D01*
X90529164Y-48040835D01*
X90529160Y-48040824D01*
X90510787Y-48000000D01*
X101369975Y-48000000D01*
X101390042Y-48254989D01*
X101449752Y-48503702D01*
X101547634Y-48740012D01*
X101547636Y-48740015D01*
X101681275Y-48958095D01*
X101681286Y-48958110D01*
X101684533Y-48961911D01*
X101684535Y-48961911D01*
X102322421Y-48324024D01*
X102335359Y-48355258D01*
X102417437Y-48478097D01*
X102521903Y-48582563D01*
X102644742Y-48664641D01*
X102675974Y-48677577D01*
X102038087Y-49315464D01*
X102038087Y-49315465D01*
X102041888Y-49318712D01*
X102041898Y-49318719D01*
X102259984Y-49452363D01*
X102259987Y-49452365D01*
X102496297Y-49550247D01*
X102745011Y-49609957D01*
X102745010Y-49609957D01*
X103000000Y-49630024D01*
X103254989Y-49609957D01*
X103503702Y-49550247D01*
X103740012Y-49452365D01*
X103740015Y-49452363D01*
X103958103Y-49318719D01*
X103961912Y-49315464D01*
X103324025Y-48677578D01*
X103355258Y-48664641D01*
X103478097Y-48582563D01*
X103582563Y-48478097D01*
X103664641Y-48355258D01*
X103677577Y-48324025D01*
X104315464Y-48961912D01*
X104318719Y-48958103D01*
X104452363Y-48740015D01*
X104452365Y-48740012D01*
X104550247Y-48503702D01*
X104609957Y-48254989D01*
X104630024Y-48000000D01*
X111369975Y-48000000D01*
X111390042Y-48254989D01*
X111449752Y-48503702D01*
X111547634Y-48740012D01*
X111547636Y-48740015D01*
X111681275Y-48958095D01*
X111681286Y-48958110D01*
X111684533Y-48961911D01*
X111684535Y-48961911D01*
X112322421Y-48324024D01*
X112335359Y-48355258D01*
X112417437Y-48478097D01*
X112521903Y-48582563D01*
X112644742Y-48664641D01*
X112675974Y-48677577D01*
X112038087Y-49315464D01*
X112038087Y-49315465D01*
X112041888Y-49318712D01*
X112041898Y-49318719D01*
X112259984Y-49452363D01*
X112259987Y-49452365D01*
X112496297Y-49550247D01*
X112745011Y-49609957D01*
X112745010Y-49609957D01*
X113000000Y-49630024D01*
X113254989Y-49609957D01*
X113503702Y-49550247D01*
X113740012Y-49452365D01*
X113740015Y-49452363D01*
X113958103Y-49318719D01*
X113961912Y-49315464D01*
X113324025Y-48677578D01*
X113355258Y-48664641D01*
X113478097Y-48582563D01*
X113582563Y-48478097D01*
X113664641Y-48355258D01*
X113677577Y-48324025D01*
X114315464Y-48961912D01*
X114318719Y-48958103D01*
X114452363Y-48740015D01*
X114452365Y-48740012D01*
X114550247Y-48503702D01*
X114609957Y-48254989D01*
X114630024Y-48000000D01*
X114609957Y-47745010D01*
X114550247Y-47496297D01*
X114452365Y-47259987D01*
X114452363Y-47259984D01*
X114318719Y-47041898D01*
X114318712Y-47041888D01*
X114315465Y-47038087D01*
X114315464Y-47038087D01*
X113677577Y-47675973D01*
X113664641Y-47644742D01*
X113582563Y-47521903D01*
X113478097Y-47417437D01*
X113355258Y-47335359D01*
X113324024Y-47322421D01*
X113961911Y-46684535D01*
X113961911Y-46684533D01*
X113958110Y-46681286D01*
X113958095Y-46681275D01*
X113740015Y-46547636D01*
X113740012Y-46547634D01*
X113503702Y-46449752D01*
X113254988Y-46390042D01*
X113254989Y-46390042D01*
X113000000Y-46369975D01*
X112745010Y-46390042D01*
X112496297Y-46449752D01*
X112259987Y-46547634D01*
X112259984Y-46547636D01*
X112041897Y-46681280D01*
X112038087Y-46684534D01*
X112675975Y-47322421D01*
X112644742Y-47335359D01*
X112521903Y-47417437D01*
X112417437Y-47521903D01*
X112335359Y-47644742D01*
X112322421Y-47675974D01*
X111684534Y-47038087D01*
X111681280Y-47041897D01*
X111547636Y-47259984D01*
X111547634Y-47259987D01*
X111449752Y-47496297D01*
X111390042Y-47745010D01*
X111369975Y-48000000D01*
X104630024Y-48000000D01*
X104609957Y-47745010D01*
X104550247Y-47496297D01*
X104452365Y-47259987D01*
X104452363Y-47259984D01*
X104318719Y-47041898D01*
X104318712Y-47041888D01*
X104315465Y-47038087D01*
X104315464Y-47038087D01*
X103677577Y-47675973D01*
X103664641Y-47644742D01*
X103582563Y-47521903D01*
X103478097Y-47417437D01*
X103355258Y-47335359D01*
X103324024Y-47322421D01*
X103961911Y-46684535D01*
X103961911Y-46684533D01*
X103958110Y-46681286D01*
X103958095Y-46681275D01*
X103740015Y-46547636D01*
X103740012Y-46547634D01*
X103503702Y-46449752D01*
X103254988Y-46390042D01*
X103254989Y-46390042D01*
X103000000Y-46369975D01*
X102745010Y-46390042D01*
X102496297Y-46449752D01*
X102259987Y-46547634D01*
X102259984Y-46547636D01*
X102041897Y-46681280D01*
X102038087Y-46684534D01*
X102675975Y-47322421D01*
X102644742Y-47335359D01*
X102521903Y-47417437D01*
X102417437Y-47521903D01*
X102335359Y-47644742D01*
X102322421Y-47675974D01*
X101684534Y-47038087D01*
X101681280Y-47041897D01*
X101547636Y-47259984D01*
X101547634Y-47259987D01*
X101449752Y-47496297D01*
X101390042Y-47745010D01*
X101369975Y-48000000D01*
X90510787Y-48000000D01*
X90395102Y-47742958D01*
X90395101Y-47742956D01*
X90226118Y-47463423D01*
X90078522Y-47275030D01*
X89579919Y-47773632D01*
X89506906Y-47678479D01*
X89321521Y-47493094D01*
X89226365Y-47420079D01*
X89724968Y-46921476D01*
X89536576Y-46773881D01*
X89257043Y-46604898D01*
X89257041Y-46604897D01*
X88959175Y-46470839D01*
X88959164Y-46470835D01*
X88647341Y-46373667D01*
X88326038Y-46314786D01*
X88000000Y-46295065D01*
X87673961Y-46314786D01*
X87352658Y-46373667D01*
X87040835Y-46470835D01*
X87040824Y-46470839D01*
X86742958Y-46604897D01*
X86742956Y-46604898D01*
X86463422Y-46773881D01*
X86463416Y-46773886D01*
X86275030Y-46921474D01*
X86275029Y-46921476D01*
X86773633Y-47420079D01*
X86678479Y-47493094D01*
X86493094Y-47678479D01*
X86420080Y-47773633D01*
X85921476Y-47275029D01*
X85921474Y-47275030D01*
X85773886Y-47463416D01*
X85773881Y-47463422D01*
X85604898Y-47742956D01*
X85604897Y-47742958D01*
X85470839Y-48040824D01*
X85470835Y-48040835D01*
X85373667Y-48352658D01*
X85314786Y-48673961D01*
X85295065Y-49000000D01*
X60704934Y-49000000D01*
X60685213Y-48673961D01*
X60626332Y-48352658D01*
X60529164Y-48040835D01*
X60529160Y-48040824D01*
X60395102Y-47742958D01*
X60395101Y-47742956D01*
X60226118Y-47463423D01*
X60078522Y-47275030D01*
X59579919Y-47773632D01*
X59506906Y-47678479D01*
X59321521Y-47493094D01*
X59226365Y-47420079D01*
X59724968Y-46921476D01*
X59536576Y-46773881D01*
X59257043Y-46604898D01*
X59257041Y-46604897D01*
X58959175Y-46470839D01*
X58959164Y-46470835D01*
X58647341Y-46373667D01*
X58326038Y-46314786D01*
X58000000Y-46295065D01*
X57673961Y-46314786D01*
X57352658Y-46373667D01*
X57040835Y-46470835D01*
X57040824Y-46470839D01*
X56742958Y-46604897D01*
X56742956Y-46604898D01*
X56463422Y-46773881D01*
X56463416Y-46773886D01*
X56275030Y-46921474D01*
X56275029Y-46921476D01*
X56773633Y-47420079D01*
X56678479Y-47493094D01*
X56493094Y-47678479D01*
X56420080Y-47773633D01*
X55921476Y-47275029D01*
X55921474Y-47275030D01*
X55773886Y-47463416D01*
X55773881Y-47463422D01*
X55604898Y-47742956D01*
X55604897Y-47742958D01*
X55470839Y-48040824D01*
X55470835Y-48040835D01*
X55373667Y-48352658D01*
X55314786Y-48673961D01*
X55295065Y-49000000D01*
X45500500Y-49000000D01*
X45500500Y-44624500D01*
X45520185Y-44557461D01*
X45572989Y-44511706D01*
X45624500Y-44500500D01*
X122375500Y-44500500D01*
X122442539Y-44520185D01*
G37*
%TD.AperFunction*%
%TD*%
M02*
