%TF.GenerationSoftware,KiCad,Pcbnew,8.0.8*%
%TF.CreationDate,2025-04-07T17:27:46+02:00*%
%TF.ProjectId,PCB_V1,5043425f-5631-42e6-9b69-6361645f7063,rev?*%
%TF.SameCoordinates,Original*%
%TF.FileFunction,Legend,Top*%
%TF.FilePolarity,Positive*%
%FSLAX46Y46*%
G04 Gerber Fmt 4.6, Leading zero omitted, Abs format (unit mm)*
G04 Created by KiCad (PCBNEW 8.0.8) date 2025-04-07 17:27:46*
%MOMM*%
%LPD*%
G01*
G04 APERTURE LIST*
%ADD10C,0.150000*%
%ADD11C,0.254000*%
%ADD12C,0.120000*%
%ADD13C,0.200000*%
%ADD14C,0.100000*%
G04 APERTURE END LIST*
D10*
X64404642Y-79954819D02*
X64071309Y-79478628D01*
X63833214Y-79954819D02*
X63833214Y-78954819D01*
X63833214Y-78954819D02*
X64214166Y-78954819D01*
X64214166Y-78954819D02*
X64309404Y-79002438D01*
X64309404Y-79002438D02*
X64357023Y-79050057D01*
X64357023Y-79050057D02*
X64404642Y-79145295D01*
X64404642Y-79145295D02*
X64404642Y-79288152D01*
X64404642Y-79288152D02*
X64357023Y-79383390D01*
X64357023Y-79383390D02*
X64309404Y-79431009D01*
X64309404Y-79431009D02*
X64214166Y-79478628D01*
X64214166Y-79478628D02*
X63833214Y-79478628D01*
X65357023Y-79954819D02*
X64785595Y-79954819D01*
X65071309Y-79954819D02*
X65071309Y-78954819D01*
X65071309Y-78954819D02*
X64976071Y-79097676D01*
X64976071Y-79097676D02*
X64880833Y-79192914D01*
X64880833Y-79192914D02*
X64785595Y-79240533D01*
X66309404Y-79954819D02*
X65737976Y-79954819D01*
X66023690Y-79954819D02*
X66023690Y-78954819D01*
X66023690Y-78954819D02*
X65928452Y-79097676D01*
X65928452Y-79097676D02*
X65833214Y-79192914D01*
X65833214Y-79192914D02*
X65737976Y-79240533D01*
X65083333Y-75954819D02*
X64750000Y-75478628D01*
X64511905Y-75954819D02*
X64511905Y-74954819D01*
X64511905Y-74954819D02*
X64892857Y-74954819D01*
X64892857Y-74954819D02*
X64988095Y-75002438D01*
X64988095Y-75002438D02*
X65035714Y-75050057D01*
X65035714Y-75050057D02*
X65083333Y-75145295D01*
X65083333Y-75145295D02*
X65083333Y-75288152D01*
X65083333Y-75288152D02*
X65035714Y-75383390D01*
X65035714Y-75383390D02*
X64988095Y-75431009D01*
X64988095Y-75431009D02*
X64892857Y-75478628D01*
X64892857Y-75478628D02*
X64511905Y-75478628D01*
X66035714Y-75954819D02*
X65464286Y-75954819D01*
X65750000Y-75954819D02*
X65750000Y-74954819D01*
X65750000Y-74954819D02*
X65654762Y-75097676D01*
X65654762Y-75097676D02*
X65559524Y-75192914D01*
X65559524Y-75192914D02*
X65464286Y-75240533D01*
X64309405Y-78204819D02*
X64309405Y-77204819D01*
X64309405Y-77204819D02*
X64547500Y-77204819D01*
X64547500Y-77204819D02*
X64690357Y-77252438D01*
X64690357Y-77252438D02*
X64785595Y-77347676D01*
X64785595Y-77347676D02*
X64833214Y-77442914D01*
X64833214Y-77442914D02*
X64880833Y-77633390D01*
X64880833Y-77633390D02*
X64880833Y-77776247D01*
X64880833Y-77776247D02*
X64833214Y-77966723D01*
X64833214Y-77966723D02*
X64785595Y-78061961D01*
X64785595Y-78061961D02*
X64690357Y-78157200D01*
X64690357Y-78157200D02*
X64547500Y-78204819D01*
X64547500Y-78204819D02*
X64309405Y-78204819D01*
X65261786Y-77300057D02*
X65309405Y-77252438D01*
X65309405Y-77252438D02*
X65404643Y-77204819D01*
X65404643Y-77204819D02*
X65642738Y-77204819D01*
X65642738Y-77204819D02*
X65737976Y-77252438D01*
X65737976Y-77252438D02*
X65785595Y-77300057D01*
X65785595Y-77300057D02*
X65833214Y-77395295D01*
X65833214Y-77395295D02*
X65833214Y-77490533D01*
X65833214Y-77490533D02*
X65785595Y-77633390D01*
X65785595Y-77633390D02*
X65214167Y-78204819D01*
X65214167Y-78204819D02*
X65833214Y-78204819D01*
D11*
X107576667Y-52866318D02*
X107576667Y-53773461D01*
X107576667Y-53773461D02*
X107516190Y-53954889D01*
X107516190Y-53954889D02*
X107395238Y-54075842D01*
X107395238Y-54075842D02*
X107213809Y-54136318D01*
X107213809Y-54136318D02*
X107092857Y-54136318D01*
X108362857Y-53410603D02*
X108241905Y-53350127D01*
X108241905Y-53350127D02*
X108181428Y-53289651D01*
X108181428Y-53289651D02*
X108120952Y-53168699D01*
X108120952Y-53168699D02*
X108120952Y-53108222D01*
X108120952Y-53108222D02*
X108181428Y-52987270D01*
X108181428Y-52987270D02*
X108241905Y-52926794D01*
X108241905Y-52926794D02*
X108362857Y-52866318D01*
X108362857Y-52866318D02*
X108604762Y-52866318D01*
X108604762Y-52866318D02*
X108725714Y-52926794D01*
X108725714Y-52926794D02*
X108786190Y-52987270D01*
X108786190Y-52987270D02*
X108846667Y-53108222D01*
X108846667Y-53108222D02*
X108846667Y-53168699D01*
X108846667Y-53168699D02*
X108786190Y-53289651D01*
X108786190Y-53289651D02*
X108725714Y-53350127D01*
X108725714Y-53350127D02*
X108604762Y-53410603D01*
X108604762Y-53410603D02*
X108362857Y-53410603D01*
X108362857Y-53410603D02*
X108241905Y-53471080D01*
X108241905Y-53471080D02*
X108181428Y-53531556D01*
X108181428Y-53531556D02*
X108120952Y-53652508D01*
X108120952Y-53652508D02*
X108120952Y-53894413D01*
X108120952Y-53894413D02*
X108181428Y-54015365D01*
X108181428Y-54015365D02*
X108241905Y-54075842D01*
X108241905Y-54075842D02*
X108362857Y-54136318D01*
X108362857Y-54136318D02*
X108604762Y-54136318D01*
X108604762Y-54136318D02*
X108725714Y-54075842D01*
X108725714Y-54075842D02*
X108786190Y-54015365D01*
X108786190Y-54015365D02*
X108846667Y-53894413D01*
X108846667Y-53894413D02*
X108846667Y-53652508D01*
X108846667Y-53652508D02*
X108786190Y-53531556D01*
X108786190Y-53531556D02*
X108725714Y-53471080D01*
X108725714Y-53471080D02*
X108604762Y-53410603D01*
D10*
X64511905Y-74204819D02*
X64511905Y-73204819D01*
X64511905Y-73204819D02*
X64750000Y-73204819D01*
X64750000Y-73204819D02*
X64892857Y-73252438D01*
X64892857Y-73252438D02*
X64988095Y-73347676D01*
X64988095Y-73347676D02*
X65035714Y-73442914D01*
X65035714Y-73442914D02*
X65083333Y-73633390D01*
X65083333Y-73633390D02*
X65083333Y-73776247D01*
X65083333Y-73776247D02*
X65035714Y-73966723D01*
X65035714Y-73966723D02*
X64988095Y-74061961D01*
X64988095Y-74061961D02*
X64892857Y-74157200D01*
X64892857Y-74157200D02*
X64750000Y-74204819D01*
X64750000Y-74204819D02*
X64511905Y-74204819D01*
X66035714Y-74204819D02*
X65464286Y-74204819D01*
X65750000Y-74204819D02*
X65750000Y-73204819D01*
X65750000Y-73204819D02*
X65654762Y-73347676D01*
X65654762Y-73347676D02*
X65559524Y-73442914D01*
X65559524Y-73442914D02*
X65464286Y-73490533D01*
X101166666Y-67229819D02*
X101166666Y-67944104D01*
X101166666Y-67944104D02*
X101119047Y-68086961D01*
X101119047Y-68086961D02*
X101023809Y-68182200D01*
X101023809Y-68182200D02*
X100880952Y-68229819D01*
X100880952Y-68229819D02*
X100785714Y-68229819D01*
X101642857Y-68229819D02*
X101642857Y-67229819D01*
X101642857Y-67229819D02*
X102023809Y-67229819D01*
X102023809Y-67229819D02*
X102119047Y-67277438D01*
X102119047Y-67277438D02*
X102166666Y-67325057D01*
X102166666Y-67325057D02*
X102214285Y-67420295D01*
X102214285Y-67420295D02*
X102214285Y-67563152D01*
X102214285Y-67563152D02*
X102166666Y-67658390D01*
X102166666Y-67658390D02*
X102119047Y-67706009D01*
X102119047Y-67706009D02*
X102023809Y-67753628D01*
X102023809Y-67753628D02*
X101642857Y-67753628D01*
X102595238Y-67325057D02*
X102642857Y-67277438D01*
X102642857Y-67277438D02*
X102738095Y-67229819D01*
X102738095Y-67229819D02*
X102976190Y-67229819D01*
X102976190Y-67229819D02*
X103071428Y-67277438D01*
X103071428Y-67277438D02*
X103119047Y-67325057D01*
X103119047Y-67325057D02*
X103166666Y-67420295D01*
X103166666Y-67420295D02*
X103166666Y-67515533D01*
X103166666Y-67515533D02*
X103119047Y-67658390D01*
X103119047Y-67658390D02*
X102547619Y-68229819D01*
X102547619Y-68229819D02*
X103166666Y-68229819D01*
X91666666Y-67454819D02*
X91666666Y-68169104D01*
X91666666Y-68169104D02*
X91619047Y-68311961D01*
X91619047Y-68311961D02*
X91523809Y-68407200D01*
X91523809Y-68407200D02*
X91380952Y-68454819D01*
X91380952Y-68454819D02*
X91285714Y-68454819D01*
X92142857Y-68454819D02*
X92142857Y-67454819D01*
X92142857Y-67454819D02*
X92523809Y-67454819D01*
X92523809Y-67454819D02*
X92619047Y-67502438D01*
X92619047Y-67502438D02*
X92666666Y-67550057D01*
X92666666Y-67550057D02*
X92714285Y-67645295D01*
X92714285Y-67645295D02*
X92714285Y-67788152D01*
X92714285Y-67788152D02*
X92666666Y-67883390D01*
X92666666Y-67883390D02*
X92619047Y-67931009D01*
X92619047Y-67931009D02*
X92523809Y-67978628D01*
X92523809Y-67978628D02*
X92142857Y-67978628D01*
X93666666Y-68454819D02*
X93095238Y-68454819D01*
X93380952Y-68454819D02*
X93380952Y-67454819D01*
X93380952Y-67454819D02*
X93285714Y-67597676D01*
X93285714Y-67597676D02*
X93190476Y-67692914D01*
X93190476Y-67692914D02*
X93095238Y-67740533D01*
X74433333Y-96559580D02*
X74385714Y-96607200D01*
X74385714Y-96607200D02*
X74242857Y-96654819D01*
X74242857Y-96654819D02*
X74147619Y-96654819D01*
X74147619Y-96654819D02*
X74004762Y-96607200D01*
X74004762Y-96607200D02*
X73909524Y-96511961D01*
X73909524Y-96511961D02*
X73861905Y-96416723D01*
X73861905Y-96416723D02*
X73814286Y-96226247D01*
X73814286Y-96226247D02*
X73814286Y-96083390D01*
X73814286Y-96083390D02*
X73861905Y-95892914D01*
X73861905Y-95892914D02*
X73909524Y-95797676D01*
X73909524Y-95797676D02*
X74004762Y-95702438D01*
X74004762Y-95702438D02*
X74147619Y-95654819D01*
X74147619Y-95654819D02*
X74242857Y-95654819D01*
X74242857Y-95654819D02*
X74385714Y-95702438D01*
X74385714Y-95702438D02*
X74433333Y-95750057D01*
X75338095Y-95654819D02*
X74861905Y-95654819D01*
X74861905Y-95654819D02*
X74814286Y-96131009D01*
X74814286Y-96131009D02*
X74861905Y-96083390D01*
X74861905Y-96083390D02*
X74957143Y-96035771D01*
X74957143Y-96035771D02*
X75195238Y-96035771D01*
X75195238Y-96035771D02*
X75290476Y-96083390D01*
X75290476Y-96083390D02*
X75338095Y-96131009D01*
X75338095Y-96131009D02*
X75385714Y-96226247D01*
X75385714Y-96226247D02*
X75385714Y-96464342D01*
X75385714Y-96464342D02*
X75338095Y-96559580D01*
X75338095Y-96559580D02*
X75290476Y-96607200D01*
X75290476Y-96607200D02*
X75195238Y-96654819D01*
X75195238Y-96654819D02*
X74957143Y-96654819D01*
X74957143Y-96654819D02*
X74861905Y-96607200D01*
X74861905Y-96607200D02*
X74814286Y-96559580D01*
X87438095Y-55254819D02*
X87438095Y-54254819D01*
X87438095Y-54731009D02*
X88009523Y-54731009D01*
X88009523Y-55254819D02*
X88009523Y-54254819D01*
X88390476Y-54254819D02*
X89009523Y-54254819D01*
X89009523Y-54254819D02*
X88676190Y-54635771D01*
X88676190Y-54635771D02*
X88819047Y-54635771D01*
X88819047Y-54635771D02*
X88914285Y-54683390D01*
X88914285Y-54683390D02*
X88961904Y-54731009D01*
X88961904Y-54731009D02*
X89009523Y-54826247D01*
X89009523Y-54826247D02*
X89009523Y-55064342D01*
X89009523Y-55064342D02*
X88961904Y-55159580D01*
X88961904Y-55159580D02*
X88914285Y-55207200D01*
X88914285Y-55207200D02*
X88819047Y-55254819D01*
X88819047Y-55254819D02*
X88533333Y-55254819D01*
X88533333Y-55254819D02*
X88438095Y-55207200D01*
X88438095Y-55207200D02*
X88390476Y-55159580D01*
X77154761Y-75800057D02*
X77059523Y-75752438D01*
X77059523Y-75752438D02*
X76964285Y-75657200D01*
X76964285Y-75657200D02*
X76821428Y-75514342D01*
X76821428Y-75514342D02*
X76726190Y-75466723D01*
X76726190Y-75466723D02*
X76630952Y-75466723D01*
X76678571Y-75704819D02*
X76583333Y-75657200D01*
X76583333Y-75657200D02*
X76488095Y-75561961D01*
X76488095Y-75561961D02*
X76440476Y-75371485D01*
X76440476Y-75371485D02*
X76440476Y-75038152D01*
X76440476Y-75038152D02*
X76488095Y-74847676D01*
X76488095Y-74847676D02*
X76583333Y-74752438D01*
X76583333Y-74752438D02*
X76678571Y-74704819D01*
X76678571Y-74704819D02*
X76869047Y-74704819D01*
X76869047Y-74704819D02*
X76964285Y-74752438D01*
X76964285Y-74752438D02*
X77059523Y-74847676D01*
X77059523Y-74847676D02*
X77107142Y-75038152D01*
X77107142Y-75038152D02*
X77107142Y-75371485D01*
X77107142Y-75371485D02*
X77059523Y-75561961D01*
X77059523Y-75561961D02*
X76964285Y-75657200D01*
X76964285Y-75657200D02*
X76869047Y-75704819D01*
X76869047Y-75704819D02*
X76678571Y-75704819D01*
X77488095Y-74800057D02*
X77535714Y-74752438D01*
X77535714Y-74752438D02*
X77630952Y-74704819D01*
X77630952Y-74704819D02*
X77869047Y-74704819D01*
X77869047Y-74704819D02*
X77964285Y-74752438D01*
X77964285Y-74752438D02*
X78011904Y-74800057D01*
X78011904Y-74800057D02*
X78059523Y-74895295D01*
X78059523Y-74895295D02*
X78059523Y-74990533D01*
X78059523Y-74990533D02*
X78011904Y-75133390D01*
X78011904Y-75133390D02*
X77440476Y-75704819D01*
X77440476Y-75704819D02*
X78059523Y-75704819D01*
X78605955Y-92017568D02*
X78605955Y-92084912D01*
X78605955Y-92084912D02*
X78538611Y-92219599D01*
X78538611Y-92219599D02*
X78471268Y-92286942D01*
X78471268Y-92286942D02*
X78336581Y-92354286D01*
X78336581Y-92354286D02*
X78201894Y-92354286D01*
X78201894Y-92354286D02*
X78100879Y-92320614D01*
X78100879Y-92320614D02*
X77932520Y-92219599D01*
X77932520Y-92219599D02*
X77831505Y-92118584D01*
X77831505Y-92118584D02*
X77730489Y-91950225D01*
X77730489Y-91950225D02*
X77696818Y-91849210D01*
X77696818Y-91849210D02*
X77696818Y-91714523D01*
X77696818Y-91714523D02*
X77764161Y-91579836D01*
X77764161Y-91579836D02*
X77831505Y-91512492D01*
X77831505Y-91512492D02*
X77966192Y-91445149D01*
X77966192Y-91445149D02*
X78033535Y-91445149D01*
X78302909Y-91175775D02*
X78302909Y-91108431D01*
X78302909Y-91108431D02*
X78336581Y-91007416D01*
X78336581Y-91007416D02*
X78504940Y-90839057D01*
X78504940Y-90839057D02*
X78605955Y-90805385D01*
X78605955Y-90805385D02*
X78673298Y-90805385D01*
X78673298Y-90805385D02*
X78774314Y-90839057D01*
X78774314Y-90839057D02*
X78841657Y-90906401D01*
X78841657Y-90906401D02*
X78909001Y-91041088D01*
X78909001Y-91041088D02*
X78909001Y-91849210D01*
X78909001Y-91849210D02*
X79346733Y-91411477D01*
X91857142Y-71759819D02*
X91523809Y-71283628D01*
X91285714Y-71759819D02*
X91285714Y-70759819D01*
X91285714Y-70759819D02*
X91666666Y-70759819D01*
X91666666Y-70759819D02*
X91761904Y-70807438D01*
X91761904Y-70807438D02*
X91809523Y-70855057D01*
X91809523Y-70855057D02*
X91857142Y-70950295D01*
X91857142Y-70950295D02*
X91857142Y-71093152D01*
X91857142Y-71093152D02*
X91809523Y-71188390D01*
X91809523Y-71188390D02*
X91761904Y-71236009D01*
X91761904Y-71236009D02*
X91666666Y-71283628D01*
X91666666Y-71283628D02*
X91285714Y-71283628D01*
X92809523Y-71759819D02*
X92238095Y-71759819D01*
X92523809Y-71759819D02*
X92523809Y-70759819D01*
X92523809Y-70759819D02*
X92428571Y-70902676D01*
X92428571Y-70902676D02*
X92333333Y-70997914D01*
X92333333Y-70997914D02*
X92238095Y-71045533D01*
X93428571Y-70759819D02*
X93523809Y-70759819D01*
X93523809Y-70759819D02*
X93619047Y-70807438D01*
X93619047Y-70807438D02*
X93666666Y-70855057D01*
X93666666Y-70855057D02*
X93714285Y-70950295D01*
X93714285Y-70950295D02*
X93761904Y-71140771D01*
X93761904Y-71140771D02*
X93761904Y-71378866D01*
X93761904Y-71378866D02*
X93714285Y-71569342D01*
X93714285Y-71569342D02*
X93666666Y-71664580D01*
X93666666Y-71664580D02*
X93619047Y-71712200D01*
X93619047Y-71712200D02*
X93523809Y-71759819D01*
X93523809Y-71759819D02*
X93428571Y-71759819D01*
X93428571Y-71759819D02*
X93333333Y-71712200D01*
X93333333Y-71712200D02*
X93285714Y-71664580D01*
X93285714Y-71664580D02*
X93238095Y-71569342D01*
X93238095Y-71569342D02*
X93190476Y-71378866D01*
X93190476Y-71378866D02*
X93190476Y-71140771D01*
X93190476Y-71140771D02*
X93238095Y-70950295D01*
X93238095Y-70950295D02*
X93285714Y-70855057D01*
X93285714Y-70855057D02*
X93333333Y-70807438D01*
X93333333Y-70807438D02*
X93428571Y-70759819D01*
X75624819Y-123166666D02*
X75148628Y-123499999D01*
X75624819Y-123738094D02*
X74624819Y-123738094D01*
X74624819Y-123738094D02*
X74624819Y-123357142D01*
X74624819Y-123357142D02*
X74672438Y-123261904D01*
X74672438Y-123261904D02*
X74720057Y-123214285D01*
X74720057Y-123214285D02*
X74815295Y-123166666D01*
X74815295Y-123166666D02*
X74958152Y-123166666D01*
X74958152Y-123166666D02*
X75053390Y-123214285D01*
X75053390Y-123214285D02*
X75101009Y-123261904D01*
X75101009Y-123261904D02*
X75148628Y-123357142D01*
X75148628Y-123357142D02*
X75148628Y-123738094D01*
X74720057Y-122785713D02*
X74672438Y-122738094D01*
X74672438Y-122738094D02*
X74624819Y-122642856D01*
X74624819Y-122642856D02*
X74624819Y-122404761D01*
X74624819Y-122404761D02*
X74672438Y-122309523D01*
X74672438Y-122309523D02*
X74720057Y-122261904D01*
X74720057Y-122261904D02*
X74815295Y-122214285D01*
X74815295Y-122214285D02*
X74910533Y-122214285D01*
X74910533Y-122214285D02*
X75053390Y-122261904D01*
X75053390Y-122261904D02*
X75624819Y-122833332D01*
X75624819Y-122833332D02*
X75624819Y-122214285D01*
X80038095Y-66054819D02*
X80038095Y-66864342D01*
X80038095Y-66864342D02*
X80085714Y-66959580D01*
X80085714Y-66959580D02*
X80133333Y-67007200D01*
X80133333Y-67007200D02*
X80228571Y-67054819D01*
X80228571Y-67054819D02*
X80419047Y-67054819D01*
X80419047Y-67054819D02*
X80514285Y-67007200D01*
X80514285Y-67007200D02*
X80561904Y-66959580D01*
X80561904Y-66959580D02*
X80609523Y-66864342D01*
X80609523Y-66864342D02*
X80609523Y-66054819D01*
X80990476Y-66054819D02*
X81609523Y-66054819D01*
X81609523Y-66054819D02*
X81276190Y-66435771D01*
X81276190Y-66435771D02*
X81419047Y-66435771D01*
X81419047Y-66435771D02*
X81514285Y-66483390D01*
X81514285Y-66483390D02*
X81561904Y-66531009D01*
X81561904Y-66531009D02*
X81609523Y-66626247D01*
X81609523Y-66626247D02*
X81609523Y-66864342D01*
X81609523Y-66864342D02*
X81561904Y-66959580D01*
X81561904Y-66959580D02*
X81514285Y-67007200D01*
X81514285Y-67007200D02*
X81419047Y-67054819D01*
X81419047Y-67054819D02*
X81133333Y-67054819D01*
X81133333Y-67054819D02*
X81038095Y-67007200D01*
X81038095Y-67007200D02*
X80990476Y-66959580D01*
X77766666Y-53454819D02*
X77766666Y-54169104D01*
X77766666Y-54169104D02*
X77719047Y-54311961D01*
X77719047Y-54311961D02*
X77623809Y-54407200D01*
X77623809Y-54407200D02*
X77480952Y-54454819D01*
X77480952Y-54454819D02*
X77385714Y-54454819D01*
X78671428Y-53788152D02*
X78671428Y-54454819D01*
X78433333Y-53407200D02*
X78195238Y-54121485D01*
X78195238Y-54121485D02*
X78814285Y-54121485D01*
X62833333Y-109399580D02*
X62785714Y-109447200D01*
X62785714Y-109447200D02*
X62642857Y-109494819D01*
X62642857Y-109494819D02*
X62547619Y-109494819D01*
X62547619Y-109494819D02*
X62404762Y-109447200D01*
X62404762Y-109447200D02*
X62309524Y-109351961D01*
X62309524Y-109351961D02*
X62261905Y-109256723D01*
X62261905Y-109256723D02*
X62214286Y-109066247D01*
X62214286Y-109066247D02*
X62214286Y-108923390D01*
X62214286Y-108923390D02*
X62261905Y-108732914D01*
X62261905Y-108732914D02*
X62309524Y-108637676D01*
X62309524Y-108637676D02*
X62404762Y-108542438D01*
X62404762Y-108542438D02*
X62547619Y-108494819D01*
X62547619Y-108494819D02*
X62642857Y-108494819D01*
X62642857Y-108494819D02*
X62785714Y-108542438D01*
X62785714Y-108542438D02*
X62833333Y-108590057D01*
X63785714Y-109494819D02*
X63214286Y-109494819D01*
X63500000Y-109494819D02*
X63500000Y-108494819D01*
X63500000Y-108494819D02*
X63404762Y-108637676D01*
X63404762Y-108637676D02*
X63309524Y-108732914D01*
X63309524Y-108732914D02*
X63214286Y-108780533D01*
X66954819Y-122666666D02*
X66478628Y-122999999D01*
X66954819Y-123238094D02*
X65954819Y-123238094D01*
X65954819Y-123238094D02*
X65954819Y-122857142D01*
X65954819Y-122857142D02*
X66002438Y-122761904D01*
X66002438Y-122761904D02*
X66050057Y-122714285D01*
X66050057Y-122714285D02*
X66145295Y-122666666D01*
X66145295Y-122666666D02*
X66288152Y-122666666D01*
X66288152Y-122666666D02*
X66383390Y-122714285D01*
X66383390Y-122714285D02*
X66431009Y-122761904D01*
X66431009Y-122761904D02*
X66478628Y-122857142D01*
X66478628Y-122857142D02*
X66478628Y-123238094D01*
X65954819Y-121761904D02*
X65954819Y-122238094D01*
X65954819Y-122238094D02*
X66431009Y-122285713D01*
X66431009Y-122285713D02*
X66383390Y-122238094D01*
X66383390Y-122238094D02*
X66335771Y-122142856D01*
X66335771Y-122142856D02*
X66335771Y-121904761D01*
X66335771Y-121904761D02*
X66383390Y-121809523D01*
X66383390Y-121809523D02*
X66431009Y-121761904D01*
X66431009Y-121761904D02*
X66526247Y-121714285D01*
X66526247Y-121714285D02*
X66764342Y-121714285D01*
X66764342Y-121714285D02*
X66859580Y-121761904D01*
X66859580Y-121761904D02*
X66907200Y-121809523D01*
X66907200Y-121809523D02*
X66954819Y-121904761D01*
X66954819Y-121904761D02*
X66954819Y-122142856D01*
X66954819Y-122142856D02*
X66907200Y-122238094D01*
X66907200Y-122238094D02*
X66859580Y-122285713D01*
X60833333Y-121854819D02*
X60500000Y-121378628D01*
X60261905Y-121854819D02*
X60261905Y-120854819D01*
X60261905Y-120854819D02*
X60642857Y-120854819D01*
X60642857Y-120854819D02*
X60738095Y-120902438D01*
X60738095Y-120902438D02*
X60785714Y-120950057D01*
X60785714Y-120950057D02*
X60833333Y-121045295D01*
X60833333Y-121045295D02*
X60833333Y-121188152D01*
X60833333Y-121188152D02*
X60785714Y-121283390D01*
X60785714Y-121283390D02*
X60738095Y-121331009D01*
X60738095Y-121331009D02*
X60642857Y-121378628D01*
X60642857Y-121378628D02*
X60261905Y-121378628D01*
X61166667Y-120854819D02*
X61785714Y-120854819D01*
X61785714Y-120854819D02*
X61452381Y-121235771D01*
X61452381Y-121235771D02*
X61595238Y-121235771D01*
X61595238Y-121235771D02*
X61690476Y-121283390D01*
X61690476Y-121283390D02*
X61738095Y-121331009D01*
X61738095Y-121331009D02*
X61785714Y-121426247D01*
X61785714Y-121426247D02*
X61785714Y-121664342D01*
X61785714Y-121664342D02*
X61738095Y-121759580D01*
X61738095Y-121759580D02*
X61690476Y-121807200D01*
X61690476Y-121807200D02*
X61595238Y-121854819D01*
X61595238Y-121854819D02*
X61309524Y-121854819D01*
X61309524Y-121854819D02*
X61214286Y-121807200D01*
X61214286Y-121807200D02*
X61166667Y-121759580D01*
X60833333Y-120329819D02*
X60500000Y-119853628D01*
X60261905Y-120329819D02*
X60261905Y-119329819D01*
X60261905Y-119329819D02*
X60642857Y-119329819D01*
X60642857Y-119329819D02*
X60738095Y-119377438D01*
X60738095Y-119377438D02*
X60785714Y-119425057D01*
X60785714Y-119425057D02*
X60833333Y-119520295D01*
X60833333Y-119520295D02*
X60833333Y-119663152D01*
X60833333Y-119663152D02*
X60785714Y-119758390D01*
X60785714Y-119758390D02*
X60738095Y-119806009D01*
X60738095Y-119806009D02*
X60642857Y-119853628D01*
X60642857Y-119853628D02*
X60261905Y-119853628D01*
X61690476Y-119329819D02*
X61500000Y-119329819D01*
X61500000Y-119329819D02*
X61404762Y-119377438D01*
X61404762Y-119377438D02*
X61357143Y-119425057D01*
X61357143Y-119425057D02*
X61261905Y-119567914D01*
X61261905Y-119567914D02*
X61214286Y-119758390D01*
X61214286Y-119758390D02*
X61214286Y-120139342D01*
X61214286Y-120139342D02*
X61261905Y-120234580D01*
X61261905Y-120234580D02*
X61309524Y-120282200D01*
X61309524Y-120282200D02*
X61404762Y-120329819D01*
X61404762Y-120329819D02*
X61595238Y-120329819D01*
X61595238Y-120329819D02*
X61690476Y-120282200D01*
X61690476Y-120282200D02*
X61738095Y-120234580D01*
X61738095Y-120234580D02*
X61785714Y-120139342D01*
X61785714Y-120139342D02*
X61785714Y-119901247D01*
X61785714Y-119901247D02*
X61738095Y-119806009D01*
X61738095Y-119806009D02*
X61690476Y-119758390D01*
X61690476Y-119758390D02*
X61595238Y-119710771D01*
X61595238Y-119710771D02*
X61404762Y-119710771D01*
X61404762Y-119710771D02*
X61309524Y-119758390D01*
X61309524Y-119758390D02*
X61261905Y-119806009D01*
X61261905Y-119806009D02*
X61214286Y-119901247D01*
X74633333Y-98054819D02*
X74157143Y-98054819D01*
X74157143Y-98054819D02*
X74157143Y-97054819D01*
X75490476Y-98054819D02*
X74919048Y-98054819D01*
X75204762Y-98054819D02*
X75204762Y-97054819D01*
X75204762Y-97054819D02*
X75109524Y-97197676D01*
X75109524Y-97197676D02*
X75014286Y-97292914D01*
X75014286Y-97292914D02*
X74919048Y-97340533D01*
X109238095Y-126454819D02*
X109238095Y-125454819D01*
X109238095Y-125931009D02*
X109809523Y-125931009D01*
X109809523Y-126454819D02*
X109809523Y-125454819D01*
X110714285Y-125788152D02*
X110714285Y-126454819D01*
X110476190Y-125407200D02*
X110238095Y-126121485D01*
X110238095Y-126121485D02*
X110857142Y-126121485D01*
X77154761Y-71550057D02*
X77059523Y-71502438D01*
X77059523Y-71502438D02*
X76964285Y-71407200D01*
X76964285Y-71407200D02*
X76821428Y-71264342D01*
X76821428Y-71264342D02*
X76726190Y-71216723D01*
X76726190Y-71216723D02*
X76630952Y-71216723D01*
X76678571Y-71454819D02*
X76583333Y-71407200D01*
X76583333Y-71407200D02*
X76488095Y-71311961D01*
X76488095Y-71311961D02*
X76440476Y-71121485D01*
X76440476Y-71121485D02*
X76440476Y-70788152D01*
X76440476Y-70788152D02*
X76488095Y-70597676D01*
X76488095Y-70597676D02*
X76583333Y-70502438D01*
X76583333Y-70502438D02*
X76678571Y-70454819D01*
X76678571Y-70454819D02*
X76869047Y-70454819D01*
X76869047Y-70454819D02*
X76964285Y-70502438D01*
X76964285Y-70502438D02*
X77059523Y-70597676D01*
X77059523Y-70597676D02*
X77107142Y-70788152D01*
X77107142Y-70788152D02*
X77107142Y-71121485D01*
X77107142Y-71121485D02*
X77059523Y-71311961D01*
X77059523Y-71311961D02*
X76964285Y-71407200D01*
X76964285Y-71407200D02*
X76869047Y-71454819D01*
X76869047Y-71454819D02*
X76678571Y-71454819D01*
X78059523Y-71454819D02*
X77488095Y-71454819D01*
X77773809Y-71454819D02*
X77773809Y-70454819D01*
X77773809Y-70454819D02*
X77678571Y-70597676D01*
X77678571Y-70597676D02*
X77583333Y-70692914D01*
X77583333Y-70692914D02*
X77488095Y-70740533D01*
X106433333Y-119454819D02*
X106100000Y-118978628D01*
X105861905Y-119454819D02*
X105861905Y-118454819D01*
X105861905Y-118454819D02*
X106242857Y-118454819D01*
X106242857Y-118454819D02*
X106338095Y-118502438D01*
X106338095Y-118502438D02*
X106385714Y-118550057D01*
X106385714Y-118550057D02*
X106433333Y-118645295D01*
X106433333Y-118645295D02*
X106433333Y-118788152D01*
X106433333Y-118788152D02*
X106385714Y-118883390D01*
X106385714Y-118883390D02*
X106338095Y-118931009D01*
X106338095Y-118931009D02*
X106242857Y-118978628D01*
X106242857Y-118978628D02*
X105861905Y-118978628D01*
X107004762Y-118883390D02*
X106909524Y-118835771D01*
X106909524Y-118835771D02*
X106861905Y-118788152D01*
X106861905Y-118788152D02*
X106814286Y-118692914D01*
X106814286Y-118692914D02*
X106814286Y-118645295D01*
X106814286Y-118645295D02*
X106861905Y-118550057D01*
X106861905Y-118550057D02*
X106909524Y-118502438D01*
X106909524Y-118502438D02*
X107004762Y-118454819D01*
X107004762Y-118454819D02*
X107195238Y-118454819D01*
X107195238Y-118454819D02*
X107290476Y-118502438D01*
X107290476Y-118502438D02*
X107338095Y-118550057D01*
X107338095Y-118550057D02*
X107385714Y-118645295D01*
X107385714Y-118645295D02*
X107385714Y-118692914D01*
X107385714Y-118692914D02*
X107338095Y-118788152D01*
X107338095Y-118788152D02*
X107290476Y-118835771D01*
X107290476Y-118835771D02*
X107195238Y-118883390D01*
X107195238Y-118883390D02*
X107004762Y-118883390D01*
X107004762Y-118883390D02*
X106909524Y-118931009D01*
X106909524Y-118931009D02*
X106861905Y-118978628D01*
X106861905Y-118978628D02*
X106814286Y-119073866D01*
X106814286Y-119073866D02*
X106814286Y-119264342D01*
X106814286Y-119264342D02*
X106861905Y-119359580D01*
X106861905Y-119359580D02*
X106909524Y-119407200D01*
X106909524Y-119407200D02*
X107004762Y-119454819D01*
X107004762Y-119454819D02*
X107195238Y-119454819D01*
X107195238Y-119454819D02*
X107290476Y-119407200D01*
X107290476Y-119407200D02*
X107338095Y-119359580D01*
X107338095Y-119359580D02*
X107385714Y-119264342D01*
X107385714Y-119264342D02*
X107385714Y-119073866D01*
X107385714Y-119073866D02*
X107338095Y-118978628D01*
X107338095Y-118978628D02*
X107290476Y-118931009D01*
X107290476Y-118931009D02*
X107195238Y-118883390D01*
X106633333Y-117054819D02*
X106300000Y-116578628D01*
X106061905Y-117054819D02*
X106061905Y-116054819D01*
X106061905Y-116054819D02*
X106442857Y-116054819D01*
X106442857Y-116054819D02*
X106538095Y-116102438D01*
X106538095Y-116102438D02*
X106585714Y-116150057D01*
X106585714Y-116150057D02*
X106633333Y-116245295D01*
X106633333Y-116245295D02*
X106633333Y-116388152D01*
X106633333Y-116388152D02*
X106585714Y-116483390D01*
X106585714Y-116483390D02*
X106538095Y-116531009D01*
X106538095Y-116531009D02*
X106442857Y-116578628D01*
X106442857Y-116578628D02*
X106061905Y-116578628D01*
X106966667Y-116054819D02*
X107633333Y-116054819D01*
X107633333Y-116054819D02*
X107204762Y-117054819D01*
X51988095Y-121954819D02*
X52559523Y-121954819D01*
X52273809Y-122954819D02*
X52273809Y-121954819D01*
X52892857Y-122954819D02*
X52892857Y-121954819D01*
X52892857Y-121954819D02*
X53273809Y-121954819D01*
X53273809Y-121954819D02*
X53369047Y-122002438D01*
X53369047Y-122002438D02*
X53416666Y-122050057D01*
X53416666Y-122050057D02*
X53464285Y-122145295D01*
X53464285Y-122145295D02*
X53464285Y-122288152D01*
X53464285Y-122288152D02*
X53416666Y-122383390D01*
X53416666Y-122383390D02*
X53369047Y-122431009D01*
X53369047Y-122431009D02*
X53273809Y-122478628D01*
X53273809Y-122478628D02*
X52892857Y-122478628D01*
X53845238Y-122050057D02*
X53892857Y-122002438D01*
X53892857Y-122002438D02*
X53988095Y-121954819D01*
X53988095Y-121954819D02*
X54226190Y-121954819D01*
X54226190Y-121954819D02*
X54321428Y-122002438D01*
X54321428Y-122002438D02*
X54369047Y-122050057D01*
X54369047Y-122050057D02*
X54416666Y-122145295D01*
X54416666Y-122145295D02*
X54416666Y-122240533D01*
X54416666Y-122240533D02*
X54369047Y-122383390D01*
X54369047Y-122383390D02*
X53797619Y-122954819D01*
X53797619Y-122954819D02*
X54416666Y-122954819D01*
X57638095Y-55254819D02*
X57638095Y-54254819D01*
X57638095Y-54731009D02*
X58209523Y-54731009D01*
X58209523Y-55254819D02*
X58209523Y-54254819D01*
X59209523Y-55254819D02*
X58638095Y-55254819D01*
X58923809Y-55254819D02*
X58923809Y-54254819D01*
X58923809Y-54254819D02*
X58828571Y-54397676D01*
X58828571Y-54397676D02*
X58733333Y-54492914D01*
X58733333Y-54492914D02*
X58638095Y-54540533D01*
X67466666Y-53554819D02*
X67466666Y-54269104D01*
X67466666Y-54269104D02*
X67419047Y-54411961D01*
X67419047Y-54411961D02*
X67323809Y-54507200D01*
X67323809Y-54507200D02*
X67180952Y-54554819D01*
X67180952Y-54554819D02*
X67085714Y-54554819D01*
X68419047Y-53554819D02*
X67942857Y-53554819D01*
X67942857Y-53554819D02*
X67895238Y-54031009D01*
X67895238Y-54031009D02*
X67942857Y-53983390D01*
X67942857Y-53983390D02*
X68038095Y-53935771D01*
X68038095Y-53935771D02*
X68276190Y-53935771D01*
X68276190Y-53935771D02*
X68371428Y-53983390D01*
X68371428Y-53983390D02*
X68419047Y-54031009D01*
X68419047Y-54031009D02*
X68466666Y-54126247D01*
X68466666Y-54126247D02*
X68466666Y-54364342D01*
X68466666Y-54364342D02*
X68419047Y-54459580D01*
X68419047Y-54459580D02*
X68371428Y-54507200D01*
X68371428Y-54507200D02*
X68276190Y-54554819D01*
X68276190Y-54554819D02*
X68038095Y-54554819D01*
X68038095Y-54554819D02*
X67942857Y-54507200D01*
X67942857Y-54507200D02*
X67895238Y-54459580D01*
X68589819Y-122641666D02*
X68113628Y-122974999D01*
X68589819Y-123213094D02*
X67589819Y-123213094D01*
X67589819Y-123213094D02*
X67589819Y-122832142D01*
X67589819Y-122832142D02*
X67637438Y-122736904D01*
X67637438Y-122736904D02*
X67685057Y-122689285D01*
X67685057Y-122689285D02*
X67780295Y-122641666D01*
X67780295Y-122641666D02*
X67923152Y-122641666D01*
X67923152Y-122641666D02*
X68018390Y-122689285D01*
X68018390Y-122689285D02*
X68066009Y-122736904D01*
X68066009Y-122736904D02*
X68113628Y-122832142D01*
X68113628Y-122832142D02*
X68113628Y-123213094D01*
X67923152Y-121784523D02*
X68589819Y-121784523D01*
X67542200Y-122022618D02*
X68256485Y-122260713D01*
X68256485Y-122260713D02*
X68256485Y-121641666D01*
X85042856Y-64259580D02*
X84995237Y-64307200D01*
X84995237Y-64307200D02*
X84852380Y-64354819D01*
X84852380Y-64354819D02*
X84757142Y-64354819D01*
X84757142Y-64354819D02*
X84614285Y-64307200D01*
X84614285Y-64307200D02*
X84519047Y-64211961D01*
X84519047Y-64211961D02*
X84471428Y-64116723D01*
X84471428Y-64116723D02*
X84423809Y-63926247D01*
X84423809Y-63926247D02*
X84423809Y-63783390D01*
X84423809Y-63783390D02*
X84471428Y-63592914D01*
X84471428Y-63592914D02*
X84519047Y-63497676D01*
X84519047Y-63497676D02*
X84614285Y-63402438D01*
X84614285Y-63402438D02*
X84757142Y-63354819D01*
X84757142Y-63354819D02*
X84852380Y-63354819D01*
X84852380Y-63354819D02*
X84995237Y-63402438D01*
X84995237Y-63402438D02*
X85042856Y-63450057D01*
X85614285Y-64354819D02*
X85519047Y-64307200D01*
X85519047Y-64307200D02*
X85471428Y-64259580D01*
X85471428Y-64259580D02*
X85423809Y-64164342D01*
X85423809Y-64164342D02*
X85423809Y-63878628D01*
X85423809Y-63878628D02*
X85471428Y-63783390D01*
X85471428Y-63783390D02*
X85519047Y-63735771D01*
X85519047Y-63735771D02*
X85614285Y-63688152D01*
X85614285Y-63688152D02*
X85757142Y-63688152D01*
X85757142Y-63688152D02*
X85852380Y-63735771D01*
X85852380Y-63735771D02*
X85899999Y-63783390D01*
X85899999Y-63783390D02*
X85947618Y-63878628D01*
X85947618Y-63878628D02*
X85947618Y-64164342D01*
X85947618Y-64164342D02*
X85899999Y-64259580D01*
X85899999Y-64259580D02*
X85852380Y-64307200D01*
X85852380Y-64307200D02*
X85757142Y-64354819D01*
X85757142Y-64354819D02*
X85614285Y-64354819D01*
X86804761Y-63688152D02*
X86804761Y-64354819D01*
X86376190Y-63688152D02*
X86376190Y-64211961D01*
X86376190Y-64211961D02*
X86423809Y-64307200D01*
X86423809Y-64307200D02*
X86519047Y-64354819D01*
X86519047Y-64354819D02*
X86661904Y-64354819D01*
X86661904Y-64354819D02*
X86757142Y-64307200D01*
X86757142Y-64307200D02*
X86804761Y-64259580D01*
X87138095Y-63688152D02*
X87519047Y-63688152D01*
X87280952Y-63354819D02*
X87280952Y-64211961D01*
X87280952Y-64211961D02*
X87328571Y-64307200D01*
X87328571Y-64307200D02*
X87423809Y-64354819D01*
X87423809Y-64354819D02*
X87519047Y-64354819D01*
X88376190Y-64354819D02*
X87804762Y-64354819D01*
X88090476Y-64354819D02*
X88090476Y-63354819D01*
X88090476Y-63354819D02*
X87995238Y-63497676D01*
X87995238Y-63497676D02*
X87900000Y-63592914D01*
X87900000Y-63592914D02*
X87804762Y-63640533D01*
X51988095Y-118504819D02*
X52559523Y-118504819D01*
X52273809Y-119504819D02*
X52273809Y-118504819D01*
X52892857Y-119504819D02*
X52892857Y-118504819D01*
X52892857Y-118504819D02*
X53273809Y-118504819D01*
X53273809Y-118504819D02*
X53369047Y-118552438D01*
X53369047Y-118552438D02*
X53416666Y-118600057D01*
X53416666Y-118600057D02*
X53464285Y-118695295D01*
X53464285Y-118695295D02*
X53464285Y-118838152D01*
X53464285Y-118838152D02*
X53416666Y-118933390D01*
X53416666Y-118933390D02*
X53369047Y-118981009D01*
X53369047Y-118981009D02*
X53273809Y-119028628D01*
X53273809Y-119028628D02*
X52892857Y-119028628D01*
X54416666Y-119504819D02*
X53845238Y-119504819D01*
X54130952Y-119504819D02*
X54130952Y-118504819D01*
X54130952Y-118504819D02*
X54035714Y-118647676D01*
X54035714Y-118647676D02*
X53940476Y-118742914D01*
X53940476Y-118742914D02*
X53845238Y-118790533D01*
X90166666Y-132804819D02*
X90166666Y-133519104D01*
X90166666Y-133519104D02*
X90119047Y-133661961D01*
X90119047Y-133661961D02*
X90023809Y-133757200D01*
X90023809Y-133757200D02*
X89880952Y-133804819D01*
X89880952Y-133804819D02*
X89785714Y-133804819D01*
X90547619Y-132804819D02*
X91214285Y-132804819D01*
X91214285Y-132804819D02*
X90785714Y-133804819D01*
X74033333Y-94449580D02*
X73985714Y-94497200D01*
X73985714Y-94497200D02*
X73842857Y-94544819D01*
X73842857Y-94544819D02*
X73747619Y-94544819D01*
X73747619Y-94544819D02*
X73604762Y-94497200D01*
X73604762Y-94497200D02*
X73509524Y-94401961D01*
X73509524Y-94401961D02*
X73461905Y-94306723D01*
X73461905Y-94306723D02*
X73414286Y-94116247D01*
X73414286Y-94116247D02*
X73414286Y-93973390D01*
X73414286Y-93973390D02*
X73461905Y-93782914D01*
X73461905Y-93782914D02*
X73509524Y-93687676D01*
X73509524Y-93687676D02*
X73604762Y-93592438D01*
X73604762Y-93592438D02*
X73747619Y-93544819D01*
X73747619Y-93544819D02*
X73842857Y-93544819D01*
X73842857Y-93544819D02*
X73985714Y-93592438D01*
X73985714Y-93592438D02*
X74033333Y-93640057D01*
X74890476Y-93544819D02*
X74700000Y-93544819D01*
X74700000Y-93544819D02*
X74604762Y-93592438D01*
X74604762Y-93592438D02*
X74557143Y-93640057D01*
X74557143Y-93640057D02*
X74461905Y-93782914D01*
X74461905Y-93782914D02*
X74414286Y-93973390D01*
X74414286Y-93973390D02*
X74414286Y-94354342D01*
X74414286Y-94354342D02*
X74461905Y-94449580D01*
X74461905Y-94449580D02*
X74509524Y-94497200D01*
X74509524Y-94497200D02*
X74604762Y-94544819D01*
X74604762Y-94544819D02*
X74795238Y-94544819D01*
X74795238Y-94544819D02*
X74890476Y-94497200D01*
X74890476Y-94497200D02*
X74938095Y-94449580D01*
X74938095Y-94449580D02*
X74985714Y-94354342D01*
X74985714Y-94354342D02*
X74985714Y-94116247D01*
X74985714Y-94116247D02*
X74938095Y-94021009D01*
X74938095Y-94021009D02*
X74890476Y-93973390D01*
X74890476Y-93973390D02*
X74795238Y-93925771D01*
X74795238Y-93925771D02*
X74604762Y-93925771D01*
X74604762Y-93925771D02*
X74509524Y-93973390D01*
X74509524Y-93973390D02*
X74461905Y-94021009D01*
X74461905Y-94021009D02*
X74414286Y-94116247D01*
X111879819Y-116833333D02*
X112594104Y-116833333D01*
X112594104Y-116833333D02*
X112736961Y-116880952D01*
X112736961Y-116880952D02*
X112832200Y-116976190D01*
X112832200Y-116976190D02*
X112879819Y-117119047D01*
X112879819Y-117119047D02*
X112879819Y-117214285D01*
X112879819Y-115833333D02*
X112879819Y-116404761D01*
X112879819Y-116119047D02*
X111879819Y-116119047D01*
X111879819Y-116119047D02*
X112022676Y-116214285D01*
X112022676Y-116214285D02*
X112117914Y-116309523D01*
X112117914Y-116309523D02*
X112165533Y-116404761D01*
X71738095Y-80454819D02*
X71738095Y-81264342D01*
X71738095Y-81264342D02*
X71785714Y-81359580D01*
X71785714Y-81359580D02*
X71833333Y-81407200D01*
X71833333Y-81407200D02*
X71928571Y-81454819D01*
X71928571Y-81454819D02*
X72119047Y-81454819D01*
X72119047Y-81454819D02*
X72214285Y-81407200D01*
X72214285Y-81407200D02*
X72261904Y-81359580D01*
X72261904Y-81359580D02*
X72309523Y-81264342D01*
X72309523Y-81264342D02*
X72309523Y-80454819D01*
X73309523Y-81454819D02*
X72738095Y-81454819D01*
X73023809Y-81454819D02*
X73023809Y-80454819D01*
X73023809Y-80454819D02*
X72928571Y-80597676D01*
X72928571Y-80597676D02*
X72833333Y-80692914D01*
X72833333Y-80692914D02*
X72738095Y-80740533D01*
X109238095Y-69454819D02*
X109238095Y-68454819D01*
X109238095Y-68931009D02*
X109809523Y-68931009D01*
X109809523Y-69454819D02*
X109809523Y-68454819D01*
X110761904Y-68454819D02*
X110285714Y-68454819D01*
X110285714Y-68454819D02*
X110238095Y-68931009D01*
X110238095Y-68931009D02*
X110285714Y-68883390D01*
X110285714Y-68883390D02*
X110380952Y-68835771D01*
X110380952Y-68835771D02*
X110619047Y-68835771D01*
X110619047Y-68835771D02*
X110714285Y-68883390D01*
X110714285Y-68883390D02*
X110761904Y-68931009D01*
X110761904Y-68931009D02*
X110809523Y-69026247D01*
X110809523Y-69026247D02*
X110809523Y-69264342D01*
X110809523Y-69264342D02*
X110761904Y-69359580D01*
X110761904Y-69359580D02*
X110714285Y-69407200D01*
X110714285Y-69407200D02*
X110619047Y-69454819D01*
X110619047Y-69454819D02*
X110380952Y-69454819D01*
X110380952Y-69454819D02*
X110285714Y-69407200D01*
X110285714Y-69407200D02*
X110238095Y-69359580D01*
X111904819Y-99773810D02*
X112619104Y-99773810D01*
X112619104Y-99773810D02*
X112761961Y-99821429D01*
X112761961Y-99821429D02*
X112857200Y-99916667D01*
X112857200Y-99916667D02*
X112904819Y-100059524D01*
X112904819Y-100059524D02*
X112904819Y-100154762D01*
X112333390Y-99154762D02*
X112285771Y-99250000D01*
X112285771Y-99250000D02*
X112238152Y-99297619D01*
X112238152Y-99297619D02*
X112142914Y-99345238D01*
X112142914Y-99345238D02*
X112095295Y-99345238D01*
X112095295Y-99345238D02*
X112000057Y-99297619D01*
X112000057Y-99297619D02*
X111952438Y-99250000D01*
X111952438Y-99250000D02*
X111904819Y-99154762D01*
X111904819Y-99154762D02*
X111904819Y-98964286D01*
X111904819Y-98964286D02*
X111952438Y-98869048D01*
X111952438Y-98869048D02*
X112000057Y-98821429D01*
X112000057Y-98821429D02*
X112095295Y-98773810D01*
X112095295Y-98773810D02*
X112142914Y-98773810D01*
X112142914Y-98773810D02*
X112238152Y-98821429D01*
X112238152Y-98821429D02*
X112285771Y-98869048D01*
X112285771Y-98869048D02*
X112333390Y-98964286D01*
X112333390Y-98964286D02*
X112333390Y-99154762D01*
X112333390Y-99154762D02*
X112381009Y-99250000D01*
X112381009Y-99250000D02*
X112428628Y-99297619D01*
X112428628Y-99297619D02*
X112523866Y-99345238D01*
X112523866Y-99345238D02*
X112714342Y-99345238D01*
X112714342Y-99345238D02*
X112809580Y-99297619D01*
X112809580Y-99297619D02*
X112857200Y-99250000D01*
X112857200Y-99250000D02*
X112904819Y-99154762D01*
X112904819Y-99154762D02*
X112904819Y-98964286D01*
X112904819Y-98964286D02*
X112857200Y-98869048D01*
X112857200Y-98869048D02*
X112809580Y-98821429D01*
X112809580Y-98821429D02*
X112714342Y-98773810D01*
X112714342Y-98773810D02*
X112523866Y-98773810D01*
X112523866Y-98773810D02*
X112428628Y-98821429D01*
X112428628Y-98821429D02*
X112381009Y-98869048D01*
X112381009Y-98869048D02*
X112333390Y-98964286D01*
X113000057Y-98583334D02*
X113000057Y-97821429D01*
X112904819Y-97154762D02*
X112381009Y-97154762D01*
X112381009Y-97154762D02*
X112285771Y-97202381D01*
X112285771Y-97202381D02*
X112238152Y-97297619D01*
X112238152Y-97297619D02*
X112238152Y-97488095D01*
X112238152Y-97488095D02*
X112285771Y-97583333D01*
X112857200Y-97154762D02*
X112904819Y-97250000D01*
X112904819Y-97250000D02*
X112904819Y-97488095D01*
X112904819Y-97488095D02*
X112857200Y-97583333D01*
X112857200Y-97583333D02*
X112761961Y-97630952D01*
X112761961Y-97630952D02*
X112666723Y-97630952D01*
X112666723Y-97630952D02*
X112571485Y-97583333D01*
X112571485Y-97583333D02*
X112523866Y-97488095D01*
X112523866Y-97488095D02*
X112523866Y-97250000D01*
X112523866Y-97250000D02*
X112476247Y-97154762D01*
X112238152Y-96821428D02*
X112238152Y-96440476D01*
X112904819Y-96678571D02*
X112047676Y-96678571D01*
X112047676Y-96678571D02*
X111952438Y-96630952D01*
X111952438Y-96630952D02*
X111904819Y-96535714D01*
X111904819Y-96535714D02*
X111904819Y-96440476D01*
X112238152Y-96249999D02*
X112238152Y-95869047D01*
X112904819Y-96107142D02*
X112047676Y-96107142D01*
X112047676Y-96107142D02*
X111952438Y-96059523D01*
X111952438Y-96059523D02*
X111904819Y-95964285D01*
X111904819Y-95964285D02*
X111904819Y-95869047D01*
X112904819Y-95535713D02*
X112238152Y-95535713D01*
X111904819Y-95535713D02*
X111952438Y-95583332D01*
X111952438Y-95583332D02*
X112000057Y-95535713D01*
X112000057Y-95535713D02*
X111952438Y-95488094D01*
X111952438Y-95488094D02*
X111904819Y-95535713D01*
X111904819Y-95535713D02*
X112000057Y-95535713D01*
X112857200Y-94630952D02*
X112904819Y-94726190D01*
X112904819Y-94726190D02*
X112904819Y-94916666D01*
X112904819Y-94916666D02*
X112857200Y-95011904D01*
X112857200Y-95011904D02*
X112809580Y-95059523D01*
X112809580Y-95059523D02*
X112714342Y-95107142D01*
X112714342Y-95107142D02*
X112428628Y-95107142D01*
X112428628Y-95107142D02*
X112333390Y-95059523D01*
X112333390Y-95059523D02*
X112285771Y-95011904D01*
X112285771Y-95011904D02*
X112238152Y-94916666D01*
X112238152Y-94916666D02*
X112238152Y-94726190D01*
X112238152Y-94726190D02*
X112285771Y-94630952D01*
X112904819Y-94202380D02*
X111904819Y-94202380D01*
X112904819Y-93773809D02*
X112381009Y-93773809D01*
X112381009Y-93773809D02*
X112285771Y-93821428D01*
X112285771Y-93821428D02*
X112238152Y-93916666D01*
X112238152Y-93916666D02*
X112238152Y-94059523D01*
X112238152Y-94059523D02*
X112285771Y-94154761D01*
X112285771Y-94154761D02*
X112333390Y-94202380D01*
X112857200Y-92916666D02*
X112904819Y-93011904D01*
X112904819Y-93011904D02*
X112904819Y-93202380D01*
X112904819Y-93202380D02*
X112857200Y-93297618D01*
X112857200Y-93297618D02*
X112761961Y-93345237D01*
X112761961Y-93345237D02*
X112381009Y-93345237D01*
X112381009Y-93345237D02*
X112285771Y-93297618D01*
X112285771Y-93297618D02*
X112238152Y-93202380D01*
X112238152Y-93202380D02*
X112238152Y-93011904D01*
X112238152Y-93011904D02*
X112285771Y-92916666D01*
X112285771Y-92916666D02*
X112381009Y-92869047D01*
X112381009Y-92869047D02*
X112476247Y-92869047D01*
X112476247Y-92869047D02*
X112571485Y-93345237D01*
X112238152Y-92011904D02*
X112904819Y-92011904D01*
X112238152Y-92440475D02*
X112761961Y-92440475D01*
X112761961Y-92440475D02*
X112857200Y-92392856D01*
X112857200Y-92392856D02*
X112904819Y-92297618D01*
X112904819Y-92297618D02*
X112904819Y-92154761D01*
X112904819Y-92154761D02*
X112857200Y-92059523D01*
X112857200Y-92059523D02*
X112809580Y-92011904D01*
X112904819Y-91535713D02*
X112238152Y-91535713D01*
X112428628Y-91535713D02*
X112333390Y-91488094D01*
X112333390Y-91488094D02*
X112285771Y-91440475D01*
X112285771Y-91440475D02*
X112238152Y-91345237D01*
X112238152Y-91345237D02*
X112238152Y-91249999D01*
X112904819Y-90392856D02*
X112904819Y-90964284D01*
X112904819Y-90678570D02*
X111904819Y-90678570D01*
X111904819Y-90678570D02*
X112047676Y-90773808D01*
X112047676Y-90773808D02*
X112142914Y-90869046D01*
X112142914Y-90869046D02*
X112190533Y-90964284D01*
X60319819Y-113536904D02*
X61129342Y-113536904D01*
X61129342Y-113536904D02*
X61224580Y-113489285D01*
X61224580Y-113489285D02*
X61272200Y-113441666D01*
X61272200Y-113441666D02*
X61319819Y-113346428D01*
X61319819Y-113346428D02*
X61319819Y-113155952D01*
X61319819Y-113155952D02*
X61272200Y-113060714D01*
X61272200Y-113060714D02*
X61224580Y-113013095D01*
X61224580Y-113013095D02*
X61129342Y-112965476D01*
X61129342Y-112965476D02*
X60319819Y-112965476D01*
X60415057Y-112536904D02*
X60367438Y-112489285D01*
X60367438Y-112489285D02*
X60319819Y-112394047D01*
X60319819Y-112394047D02*
X60319819Y-112155952D01*
X60319819Y-112155952D02*
X60367438Y-112060714D01*
X60367438Y-112060714D02*
X60415057Y-112013095D01*
X60415057Y-112013095D02*
X60510295Y-111965476D01*
X60510295Y-111965476D02*
X60605533Y-111965476D01*
X60605533Y-111965476D02*
X60748390Y-112013095D01*
X60748390Y-112013095D02*
X61319819Y-112584523D01*
X61319819Y-112584523D02*
X61319819Y-111965476D01*
X77704819Y-119595238D02*
X77228628Y-119928571D01*
X77704819Y-120166666D02*
X76704819Y-120166666D01*
X76704819Y-120166666D02*
X76704819Y-119785714D01*
X76704819Y-119785714D02*
X76752438Y-119690476D01*
X76752438Y-119690476D02*
X76800057Y-119642857D01*
X76800057Y-119642857D02*
X76895295Y-119595238D01*
X76895295Y-119595238D02*
X77038152Y-119595238D01*
X77038152Y-119595238D02*
X77133390Y-119642857D01*
X77133390Y-119642857D02*
X77181009Y-119690476D01*
X77181009Y-119690476D02*
X77228628Y-119785714D01*
X77228628Y-119785714D02*
X77228628Y-120166666D01*
X76704819Y-119309523D02*
X77704819Y-118976190D01*
X77704819Y-118976190D02*
X76704819Y-118642857D01*
X77704819Y-117785714D02*
X77704819Y-118357142D01*
X77704819Y-118071428D02*
X76704819Y-118071428D01*
X76704819Y-118071428D02*
X76847676Y-118166666D01*
X76847676Y-118166666D02*
X76942914Y-118261904D01*
X76942914Y-118261904D02*
X76990533Y-118357142D01*
X72542857Y-64559580D02*
X72495238Y-64607200D01*
X72495238Y-64607200D02*
X72352381Y-64654819D01*
X72352381Y-64654819D02*
X72257143Y-64654819D01*
X72257143Y-64654819D02*
X72114286Y-64607200D01*
X72114286Y-64607200D02*
X72019048Y-64511961D01*
X72019048Y-64511961D02*
X71971429Y-64416723D01*
X71971429Y-64416723D02*
X71923810Y-64226247D01*
X71923810Y-64226247D02*
X71923810Y-64083390D01*
X71923810Y-64083390D02*
X71971429Y-63892914D01*
X71971429Y-63892914D02*
X72019048Y-63797676D01*
X72019048Y-63797676D02*
X72114286Y-63702438D01*
X72114286Y-63702438D02*
X72257143Y-63654819D01*
X72257143Y-63654819D02*
X72352381Y-63654819D01*
X72352381Y-63654819D02*
X72495238Y-63702438D01*
X72495238Y-63702438D02*
X72542857Y-63750057D01*
X72971429Y-64654819D02*
X72971429Y-63988152D01*
X72971429Y-63654819D02*
X72923810Y-63702438D01*
X72923810Y-63702438D02*
X72971429Y-63750057D01*
X72971429Y-63750057D02*
X73019048Y-63702438D01*
X73019048Y-63702438D02*
X72971429Y-63654819D01*
X72971429Y-63654819D02*
X72971429Y-63750057D01*
X73447619Y-63988152D02*
X73447619Y-64654819D01*
X73447619Y-64083390D02*
X73495238Y-64035771D01*
X73495238Y-64035771D02*
X73590476Y-63988152D01*
X73590476Y-63988152D02*
X73733333Y-63988152D01*
X73733333Y-63988152D02*
X73828571Y-64035771D01*
X73828571Y-64035771D02*
X73876190Y-64131009D01*
X73876190Y-64131009D02*
X73876190Y-64654819D01*
X74876190Y-64654819D02*
X74304762Y-64654819D01*
X74590476Y-64654819D02*
X74590476Y-63654819D01*
X74590476Y-63654819D02*
X74495238Y-63797676D01*
X74495238Y-63797676D02*
X74400000Y-63892914D01*
X74400000Y-63892914D02*
X74304762Y-63940533D01*
X49238095Y-126454819D02*
X49238095Y-125454819D01*
X49238095Y-125931009D02*
X49809523Y-125931009D01*
X49809523Y-126454819D02*
X49809523Y-125454819D01*
X50238095Y-125550057D02*
X50285714Y-125502438D01*
X50285714Y-125502438D02*
X50380952Y-125454819D01*
X50380952Y-125454819D02*
X50619047Y-125454819D01*
X50619047Y-125454819D02*
X50714285Y-125502438D01*
X50714285Y-125502438D02*
X50761904Y-125550057D01*
X50761904Y-125550057D02*
X50809523Y-125645295D01*
X50809523Y-125645295D02*
X50809523Y-125740533D01*
X50809523Y-125740533D02*
X50761904Y-125883390D01*
X50761904Y-125883390D02*
X50190476Y-126454819D01*
X50190476Y-126454819D02*
X50809523Y-126454819D01*
X82416666Y-76704819D02*
X82416666Y-77419104D01*
X82416666Y-77419104D02*
X82369047Y-77561961D01*
X82369047Y-77561961D02*
X82273809Y-77657200D01*
X82273809Y-77657200D02*
X82130952Y-77704819D01*
X82130952Y-77704819D02*
X82035714Y-77704819D01*
X82797619Y-76704819D02*
X83416666Y-76704819D01*
X83416666Y-76704819D02*
X83083333Y-77085771D01*
X83083333Y-77085771D02*
X83226190Y-77085771D01*
X83226190Y-77085771D02*
X83321428Y-77133390D01*
X83321428Y-77133390D02*
X83369047Y-77181009D01*
X83369047Y-77181009D02*
X83416666Y-77276247D01*
X83416666Y-77276247D02*
X83416666Y-77514342D01*
X83416666Y-77514342D02*
X83369047Y-77609580D01*
X83369047Y-77609580D02*
X83321428Y-77657200D01*
X83321428Y-77657200D02*
X83226190Y-77704819D01*
X83226190Y-77704819D02*
X82940476Y-77704819D01*
X82940476Y-77704819D02*
X82845238Y-77657200D01*
X82845238Y-77657200D02*
X82797619Y-77609580D01*
X77052401Y-91071122D02*
X77052401Y-91138466D01*
X77052401Y-91138466D02*
X76985057Y-91273153D01*
X76985057Y-91273153D02*
X76917714Y-91340496D01*
X76917714Y-91340496D02*
X76783027Y-91407840D01*
X76783027Y-91407840D02*
X76648340Y-91407840D01*
X76648340Y-91407840D02*
X76547325Y-91374168D01*
X76547325Y-91374168D02*
X76378966Y-91273153D01*
X76378966Y-91273153D02*
X76277951Y-91172138D01*
X76277951Y-91172138D02*
X76176935Y-91003779D01*
X76176935Y-91003779D02*
X76143264Y-90902764D01*
X76143264Y-90902764D02*
X76143264Y-90768077D01*
X76143264Y-90768077D02*
X76210607Y-90633390D01*
X76210607Y-90633390D02*
X76277951Y-90566046D01*
X76277951Y-90566046D02*
X76412638Y-90498703D01*
X76412638Y-90498703D02*
X76479981Y-90498703D01*
X77254431Y-90060970D02*
X77725836Y-90532374D01*
X76816699Y-89959955D02*
X77153416Y-90633390D01*
X77153416Y-90633390D02*
X77591149Y-90195657D01*
X101333333Y-71739819D02*
X101000000Y-71263628D01*
X100761905Y-71739819D02*
X100761905Y-70739819D01*
X100761905Y-70739819D02*
X101142857Y-70739819D01*
X101142857Y-70739819D02*
X101238095Y-70787438D01*
X101238095Y-70787438D02*
X101285714Y-70835057D01*
X101285714Y-70835057D02*
X101333333Y-70930295D01*
X101333333Y-70930295D02*
X101333333Y-71073152D01*
X101333333Y-71073152D02*
X101285714Y-71168390D01*
X101285714Y-71168390D02*
X101238095Y-71216009D01*
X101238095Y-71216009D02*
X101142857Y-71263628D01*
X101142857Y-71263628D02*
X100761905Y-71263628D01*
X101809524Y-71739819D02*
X102000000Y-71739819D01*
X102000000Y-71739819D02*
X102095238Y-71692200D01*
X102095238Y-71692200D02*
X102142857Y-71644580D01*
X102142857Y-71644580D02*
X102238095Y-71501723D01*
X102238095Y-71501723D02*
X102285714Y-71311247D01*
X102285714Y-71311247D02*
X102285714Y-70930295D01*
X102285714Y-70930295D02*
X102238095Y-70835057D01*
X102238095Y-70835057D02*
X102190476Y-70787438D01*
X102190476Y-70787438D02*
X102095238Y-70739819D01*
X102095238Y-70739819D02*
X101904762Y-70739819D01*
X101904762Y-70739819D02*
X101809524Y-70787438D01*
X101809524Y-70787438D02*
X101761905Y-70835057D01*
X101761905Y-70835057D02*
X101714286Y-70930295D01*
X101714286Y-70930295D02*
X101714286Y-71168390D01*
X101714286Y-71168390D02*
X101761905Y-71263628D01*
X101761905Y-71263628D02*
X101809524Y-71311247D01*
X101809524Y-71311247D02*
X101904762Y-71358866D01*
X101904762Y-71358866D02*
X102095238Y-71358866D01*
X102095238Y-71358866D02*
X102190476Y-71311247D01*
X102190476Y-71311247D02*
X102238095Y-71263628D01*
X102238095Y-71263628D02*
X102285714Y-71168390D01*
X67666666Y-125904819D02*
X67666666Y-126619104D01*
X67666666Y-126619104D02*
X67619047Y-126761961D01*
X67619047Y-126761961D02*
X67523809Y-126857200D01*
X67523809Y-126857200D02*
X67380952Y-126904819D01*
X67380952Y-126904819D02*
X67285714Y-126904819D01*
X68095238Y-126000057D02*
X68142857Y-125952438D01*
X68142857Y-125952438D02*
X68238095Y-125904819D01*
X68238095Y-125904819D02*
X68476190Y-125904819D01*
X68476190Y-125904819D02*
X68571428Y-125952438D01*
X68571428Y-125952438D02*
X68619047Y-126000057D01*
X68619047Y-126000057D02*
X68666666Y-126095295D01*
X68666666Y-126095295D02*
X68666666Y-126190533D01*
X68666666Y-126190533D02*
X68619047Y-126333390D01*
X68619047Y-126333390D02*
X68047619Y-126904819D01*
X68047619Y-126904819D02*
X68666666Y-126904819D01*
X64870421Y-85253102D02*
X64870421Y-85320446D01*
X64870421Y-85320446D02*
X64803077Y-85455133D01*
X64803077Y-85455133D02*
X64735734Y-85522476D01*
X64735734Y-85522476D02*
X64601047Y-85589820D01*
X64601047Y-85589820D02*
X64466360Y-85589820D01*
X64466360Y-85589820D02*
X64365345Y-85556148D01*
X64365345Y-85556148D02*
X64196986Y-85455133D01*
X64196986Y-85455133D02*
X64095971Y-85354118D01*
X64095971Y-85354118D02*
X63994955Y-85185759D01*
X63994955Y-85185759D02*
X63961284Y-85084744D01*
X63961284Y-85084744D02*
X63961284Y-84950057D01*
X63961284Y-84950057D02*
X64028627Y-84815370D01*
X64028627Y-84815370D02*
X64095971Y-84748026D01*
X64095971Y-84748026D02*
X64230658Y-84680683D01*
X64230658Y-84680683D02*
X64298001Y-84680683D01*
X64466360Y-84377637D02*
X64904093Y-83939904D01*
X64904093Y-83939904D02*
X64937764Y-84444980D01*
X64937764Y-84444980D02*
X65038780Y-84343965D01*
X65038780Y-84343965D02*
X65139795Y-84310293D01*
X65139795Y-84310293D02*
X65207138Y-84310293D01*
X65207138Y-84310293D02*
X65308154Y-84343965D01*
X65308154Y-84343965D02*
X65476512Y-84512324D01*
X65476512Y-84512324D02*
X65510184Y-84613339D01*
X65510184Y-84613339D02*
X65510184Y-84680683D01*
X65510184Y-84680683D02*
X65476512Y-84781698D01*
X65476512Y-84781698D02*
X65274482Y-84983728D01*
X65274482Y-84983728D02*
X65173467Y-85017400D01*
X65173467Y-85017400D02*
X65106123Y-85017400D01*
D12*
%TO.C,R11*%
X67903641Y-79880000D02*
X67596359Y-79880000D01*
X67903641Y-79120000D02*
X67596359Y-79120000D01*
%TO.C,R1*%
X67893641Y-75880000D02*
X67586359Y-75880000D01*
X67893641Y-75120000D02*
X67586359Y-75120000D01*
%TO.C,D2*%
X66595000Y-76985000D02*
X66595000Y-78455000D01*
X66595000Y-78455000D02*
X68880000Y-78455000D01*
X68880000Y-76985000D02*
X66595000Y-76985000D01*
D13*
%TO.C,J8*%
X99900000Y-59900000D02*
X99900000Y-59900000D01*
X99900000Y-59700000D02*
X99900000Y-59700000D01*
D14*
X99000000Y-59000000D02*
X97400000Y-59000000D01*
X97400000Y-59000000D02*
X97400000Y-45500000D01*
X97400000Y-45500000D02*
X118600000Y-45500000D01*
X118600000Y-45500000D02*
X118600000Y-59000000D01*
X118600000Y-59000000D02*
X117000000Y-59000000D01*
X109500000Y-59000000D02*
X111500000Y-59000000D01*
X106500000Y-59000000D02*
X104500000Y-59000000D01*
D13*
X99900000Y-59700000D02*
G75*
G02*
X99900000Y-59900000I0J-100000D01*
G01*
X99900000Y-59900000D02*
G75*
G02*
X99900000Y-59700000I0J100000D01*
G01*
D12*
%TO.C,D1*%
X68752500Y-73015000D02*
X66467500Y-73015000D01*
X66467500Y-74485000D02*
X68752500Y-74485000D01*
X66467500Y-73015000D02*
X66467500Y-74485000D01*
%TO.C,JP2*%
X100000000Y-66600000D02*
X100000000Y-69400000D01*
X98000000Y-66600000D02*
X100000000Y-66600000D01*
X100000000Y-69400000D02*
X98000000Y-69400000D01*
X98000000Y-69400000D02*
X98000000Y-66600000D01*
%TO.C,JP1*%
X96500000Y-66600000D02*
X96500000Y-69400000D01*
X94500000Y-66600000D02*
X96500000Y-66600000D01*
X96500000Y-69400000D02*
X94500000Y-69400000D01*
X94500000Y-69400000D02*
X94500000Y-66600000D01*
%TO.C,C5*%
X72465580Y-96500000D02*
X72184420Y-96500000D01*
X72465580Y-95480000D02*
X72184420Y-95480000D01*
%TO.C,Q2*%
X72837500Y-74840000D02*
X72597500Y-74510000D01*
X73077500Y-74510000D01*
X72837500Y-74840000D01*
G36*
X72837500Y-74840000D02*
G01*
X72597500Y-74510000D01*
X73077500Y-74510000D01*
X72837500Y-74840000D01*
G37*
X74137500Y-77910000D02*
X74937500Y-77910000D01*
X74137500Y-77910000D02*
X73337500Y-77910000D01*
X74137500Y-74790000D02*
X74937500Y-74790000D01*
X74137500Y-74790000D02*
X73337500Y-74790000D01*
%TO.C,C2*%
X76263781Y-93129970D02*
X76064970Y-93328781D01*
X76985030Y-93851219D02*
X76786219Y-94050030D01*
%TO.C,R10*%
X95880000Y-71151359D02*
X95880000Y-71458641D01*
X95120000Y-71151359D02*
X95120000Y-71458641D01*
%TO.C,R2*%
X74380000Y-122846359D02*
X74380000Y-123153641D01*
X73620000Y-122846359D02*
X73620000Y-123153641D01*
%TO.C,U3*%
X78900000Y-62490000D02*
X78660000Y-62160000D01*
X79140000Y-62160000D01*
X78900000Y-62490000D01*
G36*
X78900000Y-62490000D02*
G01*
X78660000Y-62160000D01*
X79140000Y-62160000D01*
X78900000Y-62490000D01*
G37*
X80200000Y-65560000D02*
X81000000Y-65560000D01*
X80200000Y-65560000D02*
X79400000Y-65560000D01*
X80200000Y-62440000D02*
X81000000Y-62440000D01*
X80200000Y-62440000D02*
X79400000Y-62440000D01*
%TO.C,J4*%
X81850000Y-61500000D02*
X81850000Y-60250000D01*
X81560000Y-61210000D02*
X81560000Y-55240000D01*
X81560000Y-55240000D02*
X73940000Y-55240000D01*
X81550000Y-61200000D02*
X81550000Y-60450000D01*
X81550000Y-60450000D02*
X79750000Y-60450000D01*
X81550000Y-58950000D02*
X80800000Y-58950000D01*
X80800000Y-58950000D02*
X80800000Y-56000000D01*
X80800000Y-56000000D02*
X77750000Y-56000000D01*
X80600000Y-61500000D02*
X81850000Y-61500000D01*
X79750000Y-61200000D02*
X81550000Y-61200000D01*
X79750000Y-60450000D02*
X79750000Y-61200000D01*
X78250000Y-61200000D02*
X78250000Y-60450000D01*
X78250000Y-60450000D02*
X77250000Y-60450000D01*
X77250000Y-61200000D02*
X78250000Y-61200000D01*
X77250000Y-60450000D02*
X77250000Y-61200000D01*
X75750000Y-61200000D02*
X75750000Y-60450000D01*
X75750000Y-60450000D02*
X73950000Y-60450000D01*
X74700000Y-58950000D02*
X74700000Y-56000000D01*
X74700000Y-56000000D02*
X77750000Y-56000000D01*
X73950000Y-61200000D02*
X75750000Y-61200000D01*
X73950000Y-60450000D02*
X73950000Y-61200000D01*
X73950000Y-58950000D02*
X74700000Y-58950000D01*
X73940000Y-61210000D02*
X81560000Y-61210000D01*
X73940000Y-55240000D02*
X73940000Y-61210000D01*
%TO.C,C1*%
X62892164Y-110560000D02*
X63107836Y-110560000D01*
X62892164Y-109840000D02*
X63107836Y-109840000D01*
%TO.C,R5*%
X65630000Y-120096359D02*
X65630000Y-120403641D01*
X64870000Y-120096359D02*
X64870000Y-120403641D01*
%TO.C,R3*%
X63046359Y-120820000D02*
X63353641Y-120820000D01*
X63046359Y-121580000D02*
X63353641Y-121580000D01*
%TO.C,R6*%
X63051359Y-120255000D02*
X63358641Y-120255000D01*
X63051359Y-119495000D02*
X63358641Y-119495000D01*
%TO.C,L1*%
X72162221Y-97080000D02*
X72487779Y-97080000D01*
X72162221Y-98100000D02*
X72487779Y-98100000D01*
%TO.C,Q1*%
X74137500Y-70490000D02*
X73337500Y-70490000D01*
X74137500Y-70490000D02*
X74937500Y-70490000D01*
X74137500Y-73610000D02*
X73337500Y-73610000D01*
X74137500Y-73610000D02*
X74937500Y-73610000D01*
X72837500Y-70540000D02*
X72597500Y-70210000D01*
X73077500Y-70210000D01*
X72837500Y-70540000D01*
G36*
X72837500Y-70540000D02*
G01*
X72597500Y-70210000D01*
X73077500Y-70210000D01*
X72837500Y-70540000D01*
G37*
%TO.C,R8*%
X109153641Y-119380000D02*
X108846359Y-119380000D01*
X109153641Y-118620000D02*
X108846359Y-118620000D01*
%TO.C,R7*%
X109153641Y-116880000D02*
X108846359Y-116880000D01*
X109153641Y-116120000D02*
X108846359Y-116120000D01*
%TO.C,TP2*%
X57700000Y-122500000D02*
G75*
G02*
X55300000Y-122500000I-1200000J0D01*
G01*
X55300000Y-122500000D02*
G75*
G02*
X57700000Y-122500000I1200000J0D01*
G01*
%TO.C,J5*%
X71850000Y-61500000D02*
X71850000Y-60250000D01*
X71560000Y-61210000D02*
X71560000Y-55240000D01*
X71560000Y-55240000D02*
X63940000Y-55240000D01*
X71550000Y-61200000D02*
X71550000Y-60450000D01*
X71550000Y-60450000D02*
X69750000Y-60450000D01*
X71550000Y-58950000D02*
X70800000Y-58950000D01*
X70800000Y-58950000D02*
X70800000Y-56000000D01*
X70800000Y-56000000D02*
X67750000Y-56000000D01*
X70600000Y-61500000D02*
X71850000Y-61500000D01*
X69750000Y-61200000D02*
X71550000Y-61200000D01*
X69750000Y-60450000D02*
X69750000Y-61200000D01*
X68250000Y-61200000D02*
X68250000Y-60450000D01*
X68250000Y-60450000D02*
X67250000Y-60450000D01*
X67250000Y-61200000D02*
X68250000Y-61200000D01*
X67250000Y-60450000D02*
X67250000Y-61200000D01*
X65750000Y-61200000D02*
X65750000Y-60450000D01*
X65750000Y-60450000D02*
X63950000Y-60450000D01*
X64700000Y-58950000D02*
X64700000Y-56000000D01*
X64700000Y-56000000D02*
X67750000Y-56000000D01*
X63950000Y-61200000D02*
X65750000Y-61200000D01*
X63950000Y-60450000D02*
X63950000Y-61200000D01*
X63950000Y-58950000D02*
X64700000Y-58950000D01*
X63940000Y-61210000D02*
X71560000Y-61210000D01*
X63940000Y-55240000D02*
X63940000Y-61210000D01*
%TO.C,R4*%
X66505000Y-120378641D02*
X66505000Y-120071359D01*
X67265000Y-120378641D02*
X67265000Y-120071359D01*
%TO.C,Cout1*%
X82640000Y-63959420D02*
X82640000Y-64240580D01*
X83660000Y-63959420D02*
X83660000Y-64240580D01*
%TO.C,TP1*%
X57700000Y-119000000D02*
G75*
G02*
X55300000Y-119000000I-1200000J0D01*
G01*
X55300000Y-119000000D02*
G75*
G02*
X57700000Y-119000000I1200000J0D01*
G01*
%TO.C,J7*%
X99600000Y-132550000D02*
X100850000Y-132550000D01*
X100850000Y-132550000D02*
X100850000Y-131300000D01*
X80440000Y-132260000D02*
X100560000Y-132260000D01*
X100560000Y-132260000D02*
X100560000Y-126290000D01*
X80450000Y-132250000D02*
X82250000Y-132250000D01*
X82250000Y-132250000D02*
X82250000Y-131500000D01*
X83750000Y-132250000D02*
X97250000Y-132250000D01*
X97250000Y-132250000D02*
X97250000Y-131500000D01*
X98750000Y-132250000D02*
X100550000Y-132250000D01*
X100550000Y-132250000D02*
X100550000Y-131500000D01*
X80450000Y-131500000D02*
X80450000Y-132250000D01*
X82250000Y-131500000D02*
X80450000Y-131500000D01*
X83750000Y-131500000D02*
X83750000Y-132250000D01*
X97250000Y-131500000D02*
X83750000Y-131500000D01*
X98750000Y-131500000D02*
X98750000Y-132250000D01*
X100550000Y-131500000D02*
X98750000Y-131500000D01*
X80450000Y-130000000D02*
X81200000Y-130000000D01*
X81200000Y-130000000D02*
X81200000Y-127050000D01*
X99800000Y-130000000D02*
X99800000Y-127050000D01*
X100550000Y-130000000D02*
X99800000Y-130000000D01*
X81200000Y-127050000D02*
X90500000Y-127050000D01*
X99800000Y-127050000D02*
X90500000Y-127050000D01*
X80440000Y-126290000D02*
X80440000Y-132260000D01*
X100560000Y-126290000D02*
X80440000Y-126290000D01*
%TO.C,C6*%
X72532836Y-94450000D02*
X72317164Y-94450000D01*
X72532836Y-93730000D02*
X72317164Y-93730000D01*
%TO.C,J1*%
X113225000Y-121850000D02*
X114475000Y-121850000D01*
X113515000Y-121560000D02*
X119485000Y-121560000D01*
X119485000Y-121560000D02*
X119485000Y-111440000D01*
X113525000Y-121550000D02*
X114275000Y-121550000D01*
X114275000Y-121550000D02*
X114275000Y-119750000D01*
X115775000Y-121550000D02*
X115775000Y-120800000D01*
X115775000Y-120800000D02*
X118725000Y-120800000D01*
X118725000Y-120800000D02*
X118725000Y-116500000D01*
X113225000Y-120600000D02*
X113225000Y-121850000D01*
X113525000Y-119750000D02*
X113525000Y-121550000D01*
X114275000Y-119750000D02*
X113525000Y-119750000D01*
X113525000Y-118250000D02*
X114275000Y-118250000D01*
X114275000Y-118250000D02*
X114275000Y-114750000D01*
X113525000Y-114750000D02*
X113525000Y-118250000D01*
X114275000Y-114750000D02*
X113525000Y-114750000D01*
X113525000Y-113250000D02*
X114275000Y-113250000D01*
X114275000Y-113250000D02*
X114275000Y-111450000D01*
X115775000Y-112200000D02*
X118725000Y-112200000D01*
X118725000Y-112200000D02*
X118725000Y-116500000D01*
X113525000Y-111450000D02*
X113525000Y-113250000D01*
X114275000Y-111450000D02*
X113525000Y-111450000D01*
X115775000Y-111450000D02*
X115775000Y-112200000D01*
X113515000Y-111440000D02*
X113515000Y-121560000D01*
X119485000Y-111440000D02*
X113515000Y-111440000D01*
%TO.C,U1*%
X66612500Y-84480000D02*
X66272500Y-84010000D01*
X66952500Y-84010000D01*
X66612500Y-84480000D01*
G36*
X66612500Y-84480000D02*
G01*
X66272500Y-84010000D01*
X66952500Y-84010000D01*
X66612500Y-84480000D01*
G37*
X74435000Y-91400000D02*
X74435000Y-91100000D01*
X74435000Y-84180000D02*
X74435000Y-84480000D01*
X74135000Y-91400000D02*
X74435000Y-91400000D01*
X74135000Y-84180000D02*
X74435000Y-84180000D01*
X67515000Y-91400000D02*
X67215000Y-91400000D01*
X67515000Y-84180000D02*
X67215000Y-84180000D01*
X67215000Y-91400000D02*
X67215000Y-91100000D01*
X67215000Y-84180000D02*
X67215000Y-84480000D01*
%TO.C,J8_afficheur1*%
X119510000Y-81440000D02*
X113540000Y-81440000D01*
X113540000Y-81440000D02*
X113540000Y-109060000D01*
X115800000Y-81450000D02*
X115800000Y-82200000D01*
X114300000Y-81450000D02*
X113550000Y-81450000D01*
X113550000Y-81450000D02*
X113550000Y-83250000D01*
X118750000Y-82200000D02*
X118750000Y-95250000D01*
X115800000Y-82200000D02*
X118750000Y-82200000D01*
X114300000Y-83250000D02*
X114300000Y-81450000D01*
X113550000Y-83250000D02*
X114300000Y-83250000D01*
X114300000Y-84750000D02*
X113550000Y-84750000D01*
X113550000Y-84750000D02*
X113550000Y-105750000D01*
X114300000Y-105750000D02*
X114300000Y-84750000D01*
X113550000Y-105750000D02*
X114300000Y-105750000D01*
X114300000Y-107250000D02*
X113550000Y-107250000D01*
X113550000Y-107250000D02*
X113550000Y-109050000D01*
X113250000Y-108100000D02*
X113250000Y-109350000D01*
X118750000Y-108300000D02*
X118750000Y-95250000D01*
X115800000Y-108300000D02*
X118750000Y-108300000D01*
X115800000Y-109050000D02*
X115800000Y-108300000D01*
X114300000Y-109050000D02*
X114300000Y-107250000D01*
X113550000Y-109050000D02*
X114300000Y-109050000D01*
X119510000Y-109060000D02*
X119510000Y-81440000D01*
X113540000Y-109060000D02*
X119510000Y-109060000D01*
X113250000Y-109350000D02*
X114500000Y-109350000D01*
%TO.C,U2*%
X61805000Y-114775000D02*
X61805000Y-116725000D01*
X61805000Y-114775000D02*
X61805000Y-112825000D01*
X66925000Y-114775000D02*
X66925000Y-116725000D01*
X66925000Y-114775000D02*
X66925000Y-112825000D01*
X61900000Y-117475000D02*
X61570000Y-117715000D01*
X61570000Y-117235000D01*
X61900000Y-117475000D01*
G36*
X61900000Y-117475000D02*
G01*
X61570000Y-117715000D01*
X61570000Y-117235000D01*
X61900000Y-117475000D01*
G37*
%TO.C,RV1*%
X75370000Y-116630000D02*
X70630000Y-116630000D01*
X75370000Y-116630000D02*
X75370000Y-116940000D01*
X70630000Y-116630000D02*
X70630000Y-117730000D01*
X75370000Y-118760000D02*
X75370000Y-119240000D01*
X70630000Y-120260000D02*
X70630000Y-121370000D01*
X75370000Y-121060000D02*
X75370000Y-121370000D01*
X75370000Y-121370000D02*
X70630000Y-121370000D01*
%TO.C,Cin1*%
X77760000Y-63859420D02*
X77760000Y-64140580D01*
X76740000Y-63859420D02*
X76740000Y-64140580D01*
%TO.C,J3*%
X80960000Y-78750000D02*
X80960000Y-78685000D01*
X80960000Y-87695000D02*
X80960000Y-87630000D01*
X84490000Y-78685000D02*
X80960000Y-78685000D01*
X84490000Y-78750000D02*
X84490000Y-78685000D01*
X84490000Y-87695000D02*
X80960000Y-87695000D01*
X84490000Y-87695000D02*
X84490000Y-87630000D01*
X85815000Y-87630000D02*
X84490000Y-87630000D01*
%TO.C,C4*%
X75655810Y-92468307D02*
X75503307Y-92620810D01*
X75146693Y-91959190D02*
X74994190Y-92111693D01*
%TO.C,R9*%
X98620000Y-71438641D02*
X98620000Y-71131359D01*
X99380000Y-71438641D02*
X99380000Y-71131359D01*
%TO.C,J2*%
X73060000Y-133510000D02*
X73060000Y-127540000D01*
X73060000Y-127540000D02*
X62940000Y-127540000D01*
X73050000Y-129800000D02*
X72300000Y-129800000D01*
X73050000Y-128300000D02*
X73050000Y-127550000D01*
X73050000Y-127550000D02*
X71250000Y-127550000D01*
X72300000Y-132750000D02*
X68000000Y-132750000D01*
X72300000Y-129800000D02*
X72300000Y-132750000D01*
X71250000Y-128300000D02*
X73050000Y-128300000D01*
X71250000Y-127550000D02*
X71250000Y-128300000D01*
X69750000Y-128300000D02*
X69750000Y-127550000D01*
X69750000Y-127550000D02*
X66250000Y-127550000D01*
X66250000Y-128300000D02*
X69750000Y-128300000D01*
X66250000Y-127550000D02*
X66250000Y-128300000D01*
X64750000Y-128300000D02*
X64750000Y-127550000D01*
X64750000Y-127550000D02*
X62950000Y-127550000D01*
X63900000Y-127250000D02*
X62650000Y-127250000D01*
X63700000Y-132750000D02*
X68000000Y-132750000D01*
X63700000Y-129800000D02*
X63700000Y-132750000D01*
X62950000Y-129800000D02*
X63700000Y-129800000D01*
X62950000Y-128300000D02*
X64750000Y-128300000D01*
X62950000Y-127550000D02*
X62950000Y-128300000D01*
X62940000Y-133510000D02*
X73060000Y-133510000D01*
X62940000Y-127540000D02*
X62940000Y-133510000D01*
X62650000Y-127250000D02*
X62650000Y-128500000D01*
%TO.C,C3*%
X65994190Y-83111693D02*
X66146693Y-82959190D01*
X66503307Y-83620810D02*
X66655810Y-83468307D01*
%TD*%
M02*
