M48
; DRILL file {KiCad 8.0.8} date 2025-04-28T15:07:51+0200
; FORMAT={-:-/ absolute / inch / decimal}
; #@! TF.CreationDate,2025-04-28T15:07:51+02:00
; #@! TF.GenerationSoftware,Kicad,Pcbnew,8.0.8
; #@! TF.FileFunction,Plated,1,4,PTH
FMAT,2
INCH
; #@! TA.AperFunction,Plated,PTH,ViaDrill
T1C0.0118
; #@! TA.AperFunction,Plated,PTH,ComponentDrill
T2C0.0374
; #@! TA.AperFunction,Plated,PTH,ComponentDrill
T3C0.0394
; #@! TA.AperFunction,Plated,PTH,ComponentDrill
T4C0.0591
; #@! TA.AperFunction,Plated,PTH,ComponentDrill
T5C0.1575
%
G90
G05
T1
X2.4488Y-4.7717
X2.4614Y-4.3622
X2.5138Y-3.3996
X2.56Y-3.535
X2.5689Y-3.435
X2.5748Y-4.7795
X2.5748Y-5.0551
X2.6142Y-4.6693
X2.6175Y-3.3122
X2.6181Y-2.372
X2.6378Y-4.7795
X2.6443Y-3.2855
X2.7067Y-2.9724
X2.7067Y-3.1299
X2.7264Y-2.4606
X2.7362Y-2.9035
X2.7411Y-3.2382
X2.7844Y-3.8421
X2.8356Y-3.2392
X2.8356Y-3.6689
X2.8366Y-2.876
X2.8366Y-3.0413
X2.8543Y-3.8957
X2.9232Y-3.2382
X2.9345Y-3.6291
X2.9612Y-3.6024
X3.002Y-3.4055
X3.002Y-3.4449
X3.0118Y-2.372
X3.0118Y-4.6457
X3.0197Y-2.8366
X3.0413Y-3.0059
X3.0674Y-2.5241
X3.1004Y-3.1693
X3.3022Y-2.5541
X3.3071Y-2.4921
X3.3947Y-3.1728
X3.3986Y-3.3776
X3.4104Y-3.2988
X4.0551Y-1.9488
X4.2323Y-4.311
X4.252Y-2.3524
X4.2713Y-4.6299
X4.2864Y-4.5423
X4.311Y-4.6457
X4.3307Y-4.3209
X4.4252Y-3.4567
X4.4488Y-1.9488
X4.5039Y-4.4882
T2
X2.5787Y-5.1181
X2.6772Y-5.1181
X2.7756Y-5.1181
X3.2677Y-5.1575
X3.3661Y-5.1575
X3.4646Y-5.1575
X3.563Y-5.1575
X3.6614Y-5.1575
X3.7598Y-5.1575
X3.8583Y-5.1575
X4.5659Y-4.4882
X4.5659Y-4.5866
X4.5659Y-4.685
X4.5669Y-3.3071
X4.5669Y-3.4055
X4.5669Y-3.5039
X4.5669Y-3.6024
X4.5669Y-3.7008
X4.5669Y-3.7992
X4.5669Y-3.8976
X4.5669Y-3.9961
X4.5669Y-4.0945
X4.5669Y-4.1929
T3
X2.6181Y-2.313
X2.7165Y-2.313
X3.0118Y-2.313
X3.1102Y-2.313
T4
X3.9567Y-2.2835
X4.0551Y-1.8898
X4.0551Y-2.3819
X4.252Y-2.2835
X4.4488Y-1.8898
X4.4488Y-2.3819
X4.5472Y-2.2835
T5
X1.9685Y-5.1575
X2.2835Y-1.9291
X3.4646Y-1.9291
X4.3307Y-2.9134
X4.3307Y-5.1575
M30
